  0
SECTION
  2
BLOCKS
  0
ENDSEC
  0
SECTION
  2
ENTITIES
  0
LINE
  8
0
 10
-35.56
 20
24.05
 11
35.56
 21
24.05
  0
LINE
  8
0
 10
35.56
 20
24.05
 11
35.56
 21
-42.3
  0
LINE
  8
0
 10
35.56
 20
-42.3
 11
39.0395
 21
-42.3
  0
LINE
  8
0
 10
39.0395
 20
-42.3
 11
43.18
 21
22.4854
  0
LINE
  8
0
 10
43.18
 20
22.4854
 11
43.18
 21
25.925
  0
LINE
  8
0
 10
43.18
 20
25.925
 11
45.72
 21
25.925
  0
LINE
  8
0
 10
45.72
 20
25.925
 11
45.72
 21
32.175
  0
LINE
  8
0
 10
45.72
 20
32.175
 11
43.18
 21
32.175
  0
LINE
  8
0
 10
43.18
 20
32.175
 11
43.18
 21
35.7
  0
LINE
  8
0
 10
43.18
 20
35.7
 11
35.56
 21
35.7
  0
LINE
  8
0
 10
35.56
 20
35.7
 11
35.56
 21
36.35
  0
LINE
  8
0
 10
35.56
 20
36.35
 11
43.2645
 21
36.35
  0
LINE
  8
0
 10
43.2645
 20
36.35
 11
57.5
 21
38.2119
  0
LINE
  8
0
 10
57.5
 20
38.2119
 11
57.5
 21
39.65
  0
LINE
  8
0
 10
57.5
 20
39.65
 11
-57.5
 21
39.65
  0
LINE
  8
0
 10
-57.5
 20
39.65
 11
-57.5
 21
38.2119
  0
LINE
  8
0
 10
-57.5
 20
38.2119
 11
-43.2645
 21
36.35
  0
LINE
  8
0
 10
-43.2645
 20
36.35
 11
-35.56
 21
36.35
  0
LINE
  8
0
 10
-35.56
 20
36.35
 11
-35.56
 21
35.7
  0
LINE
  8
0
 10
-35.56
 20
35.7
 11
-43.18
 21
35.7
  0
LINE
  8
0
 10
-43.18
 20
35.7
 11
-43.18
 21
32.175
  0
LINE
  8
0
 10
-43.18
 20
32.175
 11
-45.72
 21
32.175
  0
LINE
  8
0
 10
-45.72
 20
32.175
 11
-45.72
 21
25.925
  0
LINE
  8
0
 10
-45.72
 20
25.925
 11
-43.18
 21
25.925
  0
LINE
  8
0
 10
-43.18
 20
25.925
 11
-43.18
 21
22.4854
  0
LINE
  8
0
 10
-43.18
 20
22.4854
 11
-39.0395
 21
-42.3
  0
LINE
  8
0
 10
-39.0395
 20
-42.3
 11
-35.56
 21
-42.3
  0
LINE
  8
0
 10
-35.56
 20
-42.3
 11
-35.56
 21
24.05
  0
LINE
  8
0
 10
-30.56
 20
34.05
 11
-30.56
 21
36.35
  0
LINE
  8
0
 10
-30.56
 20
36.35
 11
30.56
 21
36.35
  0
LINE
  8
0
 10
30.56
 20
36.35
 11
30.56
 21
34.05
  0
LINE
  8
0
 10
30.56
 20
34.05
 11
-30.56
 21
34.05
  0
ENDSEC
  0
SECTION
  2
OBJECTS
  0
DICTIONARY
  0
ENDSEC
  0
EOF
