  0
SECTION
  2
BLOCKS
  0
ENDSEC
  0
SECTION
  2
ENTITIES
  0
LINE
  8
0
 10
-35.56
 20
25.55
 11
35.56
 21
25.55
  0
LINE
  8
0
 10
35.56
 20
25.55
 11
35.56
 21
-43.8
  0
LINE
  8
0
 10
35.56
 20
-43.8
 11
38.852
 21
-43.8
  0
LINE
  8
0
 10
38.852
 20
-43.8
 11
43.18
 21
23.9839
  0
LINE
  8
0
 10
43.18
 20
23.9839
 11
43.18
 21
27.425
  0
LINE
  8
0
 10
43.18
 20
27.425
 11
45.72
 21
27.425
  0
LINE
  8
0
 10
45.72
 20
27.425
 11
45.72
 21
33.675
  0
LINE
  8
0
 10
45.72
 20
33.675
 11
43.18
 21
33.675
  0
LINE
  8
0
 10
43.18
 20
33.675
 11
43.18
 21
37.2
  0
LINE
  8
0
 10
43.18
 20
37.2
 11
35.56
 21
37.2
  0
LINE
  8
0
 10
35.56
 20
37.2
 11
35.56
 21
37.85
  0
LINE
  8
0
 10
35.56
 20
37.85
 11
43.2645
 21
37.85
  0
LINE
  8
0
 10
43.2645
 20
37.85
 11
57.5
 21
39.7119
  0
LINE
  8
0
 10
57.5
 20
39.7119
 11
57.5
 21
41.15
  0
LINE
  8
0
 10
57.5
 20
41.15
 11
-57.5
 21
41.15
  0
LINE
  8
0
 10
-57.5
 20
41.15
 11
-57.5
 21
39.7119
  0
LINE
  8
0
 10
-57.5
 20
39.7119
 11
-43.2645
 21
37.85
  0
LINE
  8
0
 10
-43.2645
 20
37.85
 11
-35.56
 21
37.85
  0
LINE
  8
0
 10
-35.56
 20
37.85
 11
-35.56
 21
37.2
  0
LINE
  8
0
 10
-35.56
 20
37.2
 11
-43.18
 21
37.2
  0
LINE
  8
0
 10
-43.18
 20
37.2
 11
-43.18
 21
33.675
  0
LINE
  8
0
 10
-43.18
 20
33.675
 11
-45.72
 21
33.675
  0
LINE
  8
0
 10
-45.72
 20
33.675
 11
-45.72
 21
27.425
  0
LINE
  8
0
 10
-45.72
 20
27.425
 11
-43.18
 21
27.425
  0
LINE
  8
0
 10
-43.18
 20
27.425
 11
-43.18
 21
23.9839
  0
LINE
  8
0
 10
-43.18
 20
23.9839
 11
-38.852
 21
-43.8
  0
LINE
  8
0
 10
-38.852
 20
-43.8
 11
-35.56
 21
-43.8
  0
LINE
  8
0
 10
-35.56
 20
-43.8
 11
-35.56
 21
25.55
  0
LINE
  8
0
 10
-30.56
 20
35.55
 11
-30.56
 21
37.85
  0
LINE
  8
0
 10
-30.56
 20
37.85
 11
30.56
 21
37.85
  0
LINE
  8
0
 10
30.56
 20
37.85
 11
30.56
 21
35.55
  0
LINE
  8
0
 10
30.56
 20
35.55
 11
-30.56
 21
35.55
  0
ENDSEC
  0
SECTION
  2
OBJECTS
  0
DICTIONARY
  0
ENDSEC
  0
EOF
