  0
SECTION
  2
BLOCKS
  0
ENDSEC
  0
SECTION
  2
ENTITIES
  0
LINE
  8
0
 10
-30.56
 20
-35.95
 11
30.56
 21
-35.95
  0
LINE
  8
0
 10
30.56
 20
-35.95
 11
30.56
 21
-41.5
  0
LINE
  8
0
 10
30.56
 20
-41.5
 11
35.56
 21
-41.5
  0
LINE
  8
0
 10
35.56
 20
-41.5
 11
35.56
 21
-38.81
  0
LINE
  8
0
 10
35.56
 20
-38.81
 11
38.42
 21
-38.81
  0
LINE
  8
0
 10
38.42
 20
-38.81
 11
38.42
 21
-39.81
  0
LINE
  8
0
 10
38.42
 20
-39.81
 11
40.32
 21
-39.81
  0
LINE
  8
0
 10
40.32
 20
-39.81
 11
40.32
 21
-38.81
  0
LINE
  8
0
 10
40.32
 20
-38.81
 11
43.18
 21
-38.81
  0
LINE
  8
0
 10
43.18
 20
-38.81
 11
43.18
 21
-38
  0
LINE
  8
0
 10
43.18
 20
-38
 11
43.78
 21
-38
  0
LINE
  8
0
 10
43.78
 20
-38
 11
43.78
 21
-35.95
  0
LINE
  8
0
 10
43.78
 20
-35.95
 11
45.72
 21
-35.95
  0
LINE
  8
0
 10
45.72
 20
-35.95
 11
45.72
 21
-34.05
  0
LINE
  8
0
 10
45.72
 20
-34.05
 11
43.78
 21
-34.05
  0
LINE
  8
0
 10
43.78
 20
-34.05
 11
43.78
 21
-32
  0
LINE
  8
0
 10
43.78
 20
-32
 11
43.18
 21
-32
  0
LINE
  8
0
 10
43.18
 20
-32
 11
43.18
 21
-31.19
  0
LINE
  8
0
 10
43.18
 20
-31.19
 11
40.32
 21
-31.19
  0
LINE
  8
0
 10
40.32
 20
-31.19
 11
40.32
 21
31.19
  0
LINE
  8
0
 10
40.32
 20
31.19
 11
43.18
 21
31.19
  0
LINE
  8
0
 10
43.18
 20
31.19
 11
43.18
 21
31.81
  0
LINE
  8
0
 10
43.18
 20
31.81
 11
43.78
 21
31.81
  0
LINE
  8
0
 10
43.78
 20
31.81
 11
43.78
 21
34.05
  0
LINE
  8
0
 10
43.78
 20
34.05
 11
45.72
 21
34.05
  0
LINE
  8
0
 10
45.72
 20
34.05
 11
45.72
 21
35.95
  0
LINE
  8
0
 10
45.72
 20
35.95
 11
43.78
 21
35.95
  0
LINE
  8
0
 10
43.78
 20
35.95
 11
43.78
 21
37.81
  0
LINE
  8
0
 10
43.78
 20
37.81
 11
43.18
 21
37.81
  0
LINE
  8
0
 10
43.18
 20
37.81
 11
43.18
 21
38.81
  0
LINE
  8
0
 10
43.18
 20
38.81
 11
40.32
 21
38.81
  0
LINE
  8
0
 10
40.32
 20
38.81
 11
40.32
 21
39.81
  0
LINE
  8
0
 10
40.32
 20
39.81
 11
38.42
 21
39.81
  0
LINE
  8
0
 10
38.42
 20
39.81
 11
38.42
 21
38.81
  0
LINE
  8
0
 10
38.42
 20
38.81
 11
35.56
 21
38.81
  0
LINE
  8
0
 10
35.56
 20
38.81
 11
35.56
 21
41.5
  0
LINE
  8
0
 10
35.56
 20
41.5
 11
30.56
 21
41.5
  0
LINE
  8
0
 10
30.56
 20
41.5
 11
30.56
 21
35.95
  0
LINE
  8
0
 10
30.56
 20
35.95
 11
-30.56
 21
35.95
  0
LINE
  8
0
 10
-30.56
 20
35.95
 11
-30.56
 21
41.5
  0
LINE
  8
0
 10
-30.56
 20
41.5
 11
-35.56
 21
41.5
  0
LINE
  8
0
 10
-35.56
 20
41.5
 11
-35.56
 21
38.81
  0
LINE
  8
0
 10
-35.56
 20
38.81
 11
-38.42
 21
38.81
  0
LINE
  8
0
 10
-38.42
 20
38.81
 11
-38.42
 21
39.81
  0
LINE
  8
0
 10
-38.42
 20
39.81
 11
-40.32
 21
39.81
  0
LINE
  8
0
 10
-40.32
 20
39.81
 11
-40.32
 21
38.81
  0
LINE
  8
0
 10
-40.32
 20
38.81
 11
-43.18
 21
38.81
  0
LINE
  8
0
 10
-43.18
 20
38.81
 11
-43.18
 21
37.81
  0
LINE
  8
0
 10
-43.18
 20
37.81
 11
-43.78
 21
37.81
  0
LINE
  8
0
 10
-43.78
 20
37.81
 11
-43.78
 21
35.95
  0
LINE
  8
0
 10
-43.78
 20
35.95
 11
-45.72
 21
35.95
  0
LINE
  8
0
 10
-45.72
 20
35.95
 11
-45.72
 21
34.05
  0
LINE
  8
0
 10
-45.72
 20
34.05
 11
-43.78
 21
34.05
  0
LINE
  8
0
 10
-43.78
 20
34.05
 11
-43.78
 21
31.81
  0
LINE
  8
0
 10
-43.78
 20
31.81
 11
-43.18
 21
31.81
  0
LINE
  8
0
 10
-43.18
 20
31.81
 11
-43.18
 21
31.19
  0
LINE
  8
0
 10
-43.18
 20
31.19
 11
-40.32
 21
31.19
  0
LINE
  8
0
 10
-40.32
 20
31.19
 11
-40.32
 21
-31.19
  0
LINE
  8
0
 10
-40.32
 20
-31.19
 11
-43.18
 21
-31.19
  0
LINE
  8
0
 10
-43.18
 20
-31.19
 11
-43.18
 21
-32
  0
LINE
  8
0
 10
-43.18
 20
-32
 11
-43.78
 21
-32
  0
LINE
  8
0
 10
-43.78
 20
-32
 11
-43.78
 21
-34.05
  0
LINE
  8
0
 10
-43.78
 20
-34.05
 11
-45.72
 21
-34.05
  0
LINE
  8
0
 10
-45.72
 20
-34.05
 11
-45.72
 21
-35.95
  0
LINE
  8
0
 10
-45.72
 20
-35.95
 11
-43.78
 21
-35.95
  0
LINE
  8
0
 10
-43.78
 20
-35.95
 11
-43.78
 21
-38
  0
LINE
  8
0
 10
-43.78
 20
-38
 11
-43.18
 21
-38
  0
LINE
  8
0
 10
-43.18
 20
-38
 11
-43.18
 21
-38.81
  0
LINE
  8
0
 10
-43.18
 20
-38.81
 11
-40.32
 21
-38.81
  0
LINE
  8
0
 10
-40.32
 20
-38.81
 11
-40.32
 21
-39.81
  0
LINE
  8
0
 10
-40.32
 20
-39.81
 11
-38.42
 21
-39.81
  0
LINE
  8
0
 10
-38.42
 20
-39.81
 11
-38.42
 21
-38.81
  0
LINE
  8
0
 10
-38.42
 20
-38.81
 11
-35.56
 21
-38.81
  0
LINE
  8
0
 10
-35.56
 20
-38.81
 11
-35.56
 21
-41.5
  0
LINE
  8
0
 10
-35.56
 20
-41.5
 11
-30.56
 21
-41.5
  0
LINE
  8
0
 10
-30.56
 20
-41.5
 11
-30.56
 21
-35.95
  0
LINE
  8
0
 10
-30.56
 20
-34.05
 11
-30.56
 21
34.05
  0
LINE
  8
0
 10
-30.56
 20
34.05
 11
30.56
 21
34.05
  0
LINE
  8
0
 10
30.56
 20
34.05
 11
30.56
 21
-34.05
  0
LINE
  8
0
 10
30.56
 20
-34.05
 11
-30.56
 21
-34.05
  0
LINE
  8
0
 10
35.56
 20
-31.19
 11
35.56
 21
31.19
  0
LINE
  8
0
 10
35.56
 20
31.19
 11
38.42
 21
31.19
  0
LINE
  8
0
 10
38.42
 20
31.19
 11
38.42
 21
-31.19
  0
LINE
  8
0
 10
38.42
 20
-31.19
 11
35.56
 21
-31.19
  0
LINE
  8
0
 10
-38.42
 20
-31.19
 11
-38.42
 21
31.19
  0
LINE
  8
0
 10
-38.42
 20
31.19
 11
-35.56
 21
31.19
  0
LINE
  8
0
 10
-35.56
 20
31.19
 11
-35.56
 21
-31.19
  0
LINE
  8
0
 10
-35.56
 20
-31.19
 11
-38.42
 21
-31.19
  0
ENDSEC
  0
SECTION
  2
OBJECTS
  0
DICTIONARY
  0
ENDSEC
  0
EOF
