  0
SECTION
  2
BLOCKS
  0
ENDSEC
  0
SECTION
  2
ENTITIES
  0
LINE
  8
0
 10
-36.06
 20
-41.5
 11
-31.06
 21
-41.5
  0
LINE
  8
0
 10
-31.06
 20
-41.5
 11
-31.06
 21
-35.95
  0
LINE
  8
0
 10
-31.06
 20
-35.95
 11
-35.56
 21
-35.95
  0
LINE
  8
0
 10
-35.56
 20
-35.95
 11
-35.56
 21
-38.81
  0
LINE
  8
0
 10
-35.56
 20
-38.81
 11
-36.06
 21
-38.81
  0
LINE
  8
0
 10
-36.06
 20
-38.81
 11
-36.06
 21
-41.5
  0
LINE
  8
0
 10
-34.4093
 20
-38.0356
 11
-34.4093
 21
-37.9644
  0
LINE
  8
0
 10
-34.4093
 20
-37.9644
 11
-34.4033
 21
-37.8935
  0
LINE
  8
0
 10
-34.4033
 20
-37.8935
 11
-34.3914
 21
-37.8233
  0
LINE
  8
0
 10
-34.3914
 20
-37.8233
 11
-34.3737
 21
-37.7543
  0
LINE
  8
0
 10
-34.3737
 20
-37.7543
 11
-34.3503
 21
-37.6871
  0
LINE
  8
0
 10
-34.3503
 20
-37.6871
 11
-34.3214
 21
-37.6221
  0
LINE
  8
0
 10
-34.3214
 20
-37.6221
 11
-34.2871
 21
-37.5597
  0
LINE
  8
0
 10
-34.2871
 20
-37.5597
 11
-34.2477
 21
-37.5004
  0
LINE
  8
0
 10
-34.2477
 20
-37.5004
 11
-34.2034
 21
-37.4446
  0
LINE
  8
0
 10
-34.2034
 20
-37.4446
 11
-34.1547
 21
-37.3927
  0
LINE
  8
0
 10
-34.1547
 20
-37.3927
 11
-34.1018
 21
-37.3451
  0
LINE
  8
0
 10
-34.1018
 20
-37.3451
 11
-34.0451
 21
-37.302
  0
LINE
  8
0
 10
-34.0451
 20
-37.302
 11
-33.985
 21
-37.2639
  0
LINE
  8
0
 10
-33.985
 20
-37.2639
 11
-33.9219
 21
-37.2309
  0
LINE
  8
0
 10
-33.9219
 20
-37.2309
 11
-33.8563
 21
-37.2033
  0
LINE
  8
0
 10
-33.8563
 20
-37.2033
 11
-33.7886
 21
-37.1813
  0
LINE
  8
0
 10
-33.7886
 20
-37.1813
 11
-33.7193
 21
-37.1651
  0
LINE
  8
0
 10
-33.7193
 20
-37.1651
 11
-33.6488
 21
-37.1547
  0
LINE
  8
0
 10
-33.6488
 20
-37.1547
 11
-33.5778
 21
-37.1502
  0
LINE
  8
0
 10
-33.5778
 20
-37.1502
 11
-33.5066
 21
-37.1517
  0
LINE
  8
0
 10
-33.5066
 20
-37.1517
 11
-33.4358
 21
-37.1591
  0
LINE
  8
0
 10
-33.4358
 20
-37.1591
 11
-33.3659
 21
-37.1725
  0
LINE
  8
0
 10
-33.3659
 20
-37.1725
 11
-33.2973
 21
-37.1916
  0
LINE
  8
0
 10
-33.2973
 20
-37.1916
 11
-33.2306
 21
-37.2164
  0
LINE
  8
0
 10
-33.2306
 20
-37.2164
 11
-33.1662
 21
-37.2467
  0
LINE
  8
0
 10
-33.1662
 20
-37.2467
 11
-33.1045
 21
-37.2823
  0
LINE
  8
0
 10
-33.1045
 20
-37.2823
 11
-33.0461
 21
-37.3229
  0
LINE
  8
0
 10
-33.0461
 20
-37.3229
 11
-32.9912
 21
-37.3683
  0
LINE
  8
0
 10
-32.9912
 20
-37.3683
 11
-32.9404
 21
-37.4181
  0
LINE
  8
0
 10
-32.9404
 20
-37.4181
 11
-32.8939
 21
-37.472
  0
LINE
  8
0
 10
-32.8939
 20
-37.472
 11
-32.852
 21
-37.5296
  0
LINE
  8
0
 10
-32.852
 20
-37.5296
 11
-32.8151
 21
-37.5905
  0
LINE
  8
0
 10
-32.8151
 20
-37.5905
 11
-32.7835
 21
-37.6543
  0
LINE
  8
0
 10
-32.7835
 20
-37.6543
 11
-32.7573
 21
-37.7205
  0
LINE
  8
0
 10
-32.7573
 20
-37.7205
 11
-32.7367
 21
-37.7886
  0
LINE
  8
0
 10
-32.7367
 20
-37.7886
 11
-32.7219
 21
-37.8582
  0
LINE
  8
0
 10
-32.7219
 20
-37.8582
 11
-32.713
 21
-37.9289
  0
LINE
  8
0
 10
-32.713
 20
-37.9289
 11
-32.71
 21
-38
  0
LINE
  8
0
 10
-32.71
 20
-38
 11
-32.713
 21
-38.0711
  0
LINE
  8
0
 10
-32.713
 20
-38.0711
 11
-32.7219
 21
-38.1418
  0
LINE
  8
0
 10
-32.7219
 20
-38.1418
 11
-32.7367
 21
-38.2114
  0
LINE
  8
0
 10
-32.7367
 20
-38.2114
 11
-32.7573
 21
-38.2795
  0
LINE
  8
0
 10
-32.7573
 20
-38.2795
 11
-32.7835
 21
-38.3457
  0
LINE
  8
0
 10
-32.7835
 20
-38.3457
 11
-32.8151
 21
-38.4095
  0
LINE
  8
0
 10
-32.8151
 20
-38.4095
 11
-32.852
 21
-38.4704
  0
LINE
  8
0
 10
-32.852
 20
-38.4704
 11
-32.8939
 21
-38.528
  0
LINE
  8
0
 10
-32.8939
 20
-38.528
 11
-32.9404
 21
-38.5819
  0
LINE
  8
0
 10
-32.9404
 20
-38.5819
 11
-32.9912
 21
-38.6317
  0
LINE
  8
0
 10
-32.9912
 20
-38.6317
 11
-33.0461
 21
-38.677
  0
LINE
  8
0
 10
-33.0461
 20
-38.677
 11
-33.1045
 21
-38.7177
  0
LINE
  8
0
 10
-33.1045
 20
-38.7177
 11
-33.1662
 21
-38.7533
  0
LINE
  8
0
 10
-33.1662
 20
-38.7533
 11
-33.2306
 21
-38.7836
  0
LINE
  8
0
 10
-33.2306
 20
-38.7836
 11
-33.2973
 21
-38.8084
  0
LINE
  8
0
 10
-33.2973
 20
-38.8084
 11
-33.3659
 21
-38.8275
  0
LINE
  8
0
 10
-33.3659
 20
-38.8275
 11
-33.4358
 21
-38.8409
  0
LINE
  8
0
 10
-33.4358
 20
-38.8409
 11
-33.5066
 21
-38.8483
  0
LINE
  8
0
 10
-33.5066
 20
-38.8483
 11
-33.5778
 21
-38.8498
  0
LINE
  8
0
 10
-33.5778
 20
-38.8498
 11
-33.6488
 21
-38.8453
  0
LINE
  8
0
 10
-33.6488
 20
-38.8453
 11
-33.7193
 21
-38.8349
  0
LINE
  8
0
 10
-33.7193
 20
-38.8349
 11
-33.7886
 21
-38.8187
  0
LINE
  8
0
 10
-33.7886
 20
-38.8187
 11
-33.8563
 21
-38.7967
  0
LINE
  8
0
 10
-33.8563
 20
-38.7967
 11
-33.9219
 21
-38.7691
  0
LINE
  8
0
 10
-33.9219
 20
-38.7691
 11
-33.985
 21
-38.7361
  0
LINE
  8
0
 10
-33.985
 20
-38.7361
 11
-34.0451
 21
-38.698
  0
LINE
  8
0
 10
-34.0451
 20
-38.698
 11
-34.1018
 21
-38.6549
  0
LINE
  8
0
 10
-34.1018
 20
-38.6549
 11
-34.1547
 21
-38.6073
  0
LINE
  8
0
 10
-34.1547
 20
-38.6073
 11
-34.2034
 21
-38.5554
  0
LINE
  8
0
 10
-34.2034
 20
-38.5554
 11
-34.2477
 21
-38.4996
  0
LINE
  8
0
 10
-34.2477
 20
-38.4996
 11
-34.2871
 21
-38.4403
  0
LINE
  8
0
 10
-34.2871
 20
-38.4403
 11
-34.3214
 21
-38.3779
  0
LINE
  8
0
 10
-34.3214
 20
-38.3779
 11
-34.3503
 21
-38.3129
  0
LINE
  8
0
 10
-34.3503
 20
-38.3129
 11
-34.3737
 21
-38.2457
  0
LINE
  8
0
 10
-34.3737
 20
-38.2457
 11
-34.3914
 21
-38.1767
  0
LINE
  8
0
 10
-34.3914
 20
-38.1767
 11
-34.4033
 21
-38.1065
  0
LINE
  8
0
 10
-34.4033
 20
-38.1065
 11
-34.4093
 21
-38.0356
  0
LINE
  8
0
 10
-36.06
 20
-31.19
 11
-35.56
 21
-31.19
  0
LINE
  8
0
 10
-35.56
 20
-31.19
 11
-35.56
 21
-34.05
  0
LINE
  8
0
 10
-35.56
 20
-34.05
 11
-31.06
 21
-34.05
  0
LINE
  8
0
 10
-31.06
 20
-34.05
 11
-31.06
 21
34.05
  0
LINE
  8
0
 10
-31.06
 20
34.05
 11
-35.56
 21
34.05
  0
LINE
  8
0
 10
-35.56
 20
34.05
 11
-35.56
 21
31.19
  0
LINE
  8
0
 10
-35.56
 20
31.19
 11
-36.06
 21
31.19
  0
LINE
  8
0
 10
-36.06
 20
31.19
 11
-36.06
 21
-31.19
  0
LINE
  8
0
 10
-34.4093
 20
-31.7856
 11
-34.4093
 21
-31.7144
  0
LINE
  8
0
 10
-34.4093
 20
-31.7144
 11
-34.4033
 21
-31.6435
  0
LINE
  8
0
 10
-34.4033
 20
-31.6435
 11
-34.3914
 21
-31.5733
  0
LINE
  8
0
 10
-34.3914
 20
-31.5733
 11
-34.3737
 21
-31.5043
  0
LINE
  8
0
 10
-34.3737
 20
-31.5043
 11
-34.3503
 21
-31.4371
  0
LINE
  8
0
 10
-34.3503
 20
-31.4371
 11
-34.3214
 21
-31.3721
  0
LINE
  8
0
 10
-34.3214
 20
-31.3721
 11
-34.2871
 21
-31.3097
  0
LINE
  8
0
 10
-34.2871
 20
-31.3097
 11
-34.2477
 21
-31.2504
  0
LINE
  8
0
 10
-34.2477
 20
-31.2504
 11
-34.2034
 21
-31.1946
  0
LINE
  8
0
 10
-34.2034
 20
-31.1946
 11
-34.1547
 21
-31.1427
  0
LINE
  8
0
 10
-34.1547
 20
-31.1427
 11
-34.1018
 21
-31.0951
  0
LINE
  8
0
 10
-34.1018
 20
-31.0951
 11
-34.0451
 21
-31.052
  0
LINE
  8
0
 10
-34.0451
 20
-31.052
 11
-33.985
 21
-31.0139
  0
LINE
  8
0
 10
-33.985
 20
-31.0139
 11
-33.9219
 21
-30.9809
  0
LINE
  8
0
 10
-33.9219
 20
-30.9809
 11
-33.8563
 21
-30.9533
  0
LINE
  8
0
 10
-33.8563
 20
-30.9533
 11
-33.7886
 21
-30.9313
  0
LINE
  8
0
 10
-33.7886
 20
-30.9313
 11
-33.7193
 21
-30.9151
  0
LINE
  8
0
 10
-33.7193
 20
-30.9151
 11
-33.6488
 21
-30.9047
  0
LINE
  8
0
 10
-33.6488
 20
-30.9047
 11
-33.5778
 21
-30.9002
  0
LINE
  8
0
 10
-33.5778
 20
-30.9002
 11
-33.5066
 21
-30.9017
  0
LINE
  8
0
 10
-33.5066
 20
-30.9017
 11
-33.4358
 21
-30.9091
  0
LINE
  8
0
 10
-33.4358
 20
-30.9091
 11
-33.3659
 21
-30.9225
  0
LINE
  8
0
 10
-33.3659
 20
-30.9225
 11
-33.2973
 21
-30.9416
  0
LINE
  8
0
 10
-33.2973
 20
-30.9416
 11
-33.2306
 21
-30.9664
  0
LINE
  8
0
 10
-33.2306
 20
-30.9664
 11
-33.1662
 21
-30.9967
  0
LINE
  8
0
 10
-33.1662
 20
-30.9967
 11
-33.1045
 21
-31.0323
  0
LINE
  8
0
 10
-33.1045
 20
-31.0323
 11
-33.0461
 21
-31.0729
  0
LINE
  8
0
 10
-33.0461
 20
-31.0729
 11
-32.9912
 21
-31.1183
  0
LINE
  8
0
 10
-32.9912
 20
-31.1183
 11
-32.9404
 21
-31.1681
  0
LINE
  8
0
 10
-32.9404
 20
-31.1681
 11
-32.8939
 21
-31.222
  0
LINE
  8
0
 10
-32.8939
 20
-31.222
 11
-32.852
 21
-31.2796
  0
LINE
  8
0
 10
-32.852
 20
-31.2796
 11
-32.8151
 21
-31.3405
  0
LINE
  8
0
 10
-32.8151
 20
-31.3405
 11
-32.7835
 21
-31.4043
  0
LINE
  8
0
 10
-32.7835
 20
-31.4043
 11
-32.7573
 21
-31.4705
  0
LINE
  8
0
 10
-32.7573
 20
-31.4705
 11
-32.7367
 21
-31.5386
  0
LINE
  8
0
 10
-32.7367
 20
-31.5386
 11
-32.7219
 21
-31.6082
  0
LINE
  8
0
 10
-32.7219
 20
-31.6082
 11
-32.713
 21
-31.6789
  0
LINE
  8
0
 10
-32.713
 20
-31.6789
 11
-32.71
 21
-31.75
  0
LINE
  8
0
 10
-32.71
 20
-31.75
 11
-32.713
 21
-31.8211
  0
LINE
  8
0
 10
-32.713
 20
-31.8211
 11
-32.7219
 21
-31.8918
  0
LINE
  8
0
 10
-32.7219
 20
-31.8918
 11
-32.7367
 21
-31.9614
  0
LINE
  8
0
 10
-32.7367
 20
-31.9614
 11
-32.7573
 21
-32.0295
  0
LINE
  8
0
 10
-32.7573
 20
-32.0295
 11
-32.7835
 21
-32.0957
  0
LINE
  8
0
 10
-32.7835
 20
-32.0957
 11
-32.8151
 21
-32.1595
  0
LINE
  8
0
 10
-32.8151
 20
-32.1595
 11
-32.852
 21
-32.2204
  0
LINE
  8
0
 10
-32.852
 20
-32.2204
 11
-32.8939
 21
-32.278
  0
LINE
  8
0
 10
-32.8939
 20
-32.278
 11
-32.9404
 21
-32.3319
  0
LINE
  8
0
 10
-32.9404
 20
-32.3319
 11
-32.9912
 21
-32.3817
  0
LINE
  8
0
 10
-32.9912
 20
-32.3817
 11
-33.0461
 21
-32.427
  0
LINE
  8
0
 10
-33.0461
 20
-32.427
 11
-33.1045
 21
-32.4677
  0
LINE
  8
0
 10
-33.1045
 20
-32.4677
 11
-33.1662
 21
-32.5033
  0
LINE
  8
0
 10
-33.1662
 20
-32.5033
 11
-33.2306
 21
-32.5336
  0
LINE
  8
0
 10
-33.2306
 20
-32.5336
 11
-33.2973
 21
-32.5584
  0
LINE
  8
0
 10
-33.2973
 20
-32.5584
 11
-33.3659
 21
-32.5775
  0
LINE
  8
0
 10
-33.3659
 20
-32.5775
 11
-33.4358
 21
-32.5909
  0
LINE
  8
0
 10
-33.4358
 20
-32.5909
 11
-33.5066
 21
-32.5983
  0
LINE
  8
0
 10
-33.5066
 20
-32.5983
 11
-33.5778
 21
-32.5998
  0
LINE
  8
0
 10
-33.5778
 20
-32.5998
 11
-33.6488
 21
-32.5953
  0
LINE
  8
0
 10
-33.6488
 20
-32.5953
 11
-33.7193
 21
-32.5849
  0
LINE
  8
0
 10
-33.7193
 20
-32.5849
 11
-33.7886
 21
-32.5687
  0
LINE
  8
0
 10
-33.7886
 20
-32.5687
 11
-33.8563
 21
-32.5467
  0
LINE
  8
0
 10
-33.8563
 20
-32.5467
 11
-33.9219
 21
-32.5191
  0
LINE
  8
0
 10
-33.9219
 20
-32.5191
 11
-33.985
 21
-32.4861
  0
LINE
  8
0
 10
-33.985
 20
-32.4861
 11
-34.0451
 21
-32.448
  0
LINE
  8
0
 10
-34.0451
 20
-32.448
 11
-34.1018
 21
-32.4049
  0
LINE
  8
0
 10
-34.1018
 20
-32.4049
 11
-34.1547
 21
-32.3573
  0
LINE
  8
0
 10
-34.1547
 20
-32.3573
 11
-34.2034
 21
-32.3054
  0
LINE
  8
0
 10
-34.2034
 20
-32.3054
 11
-34.2477
 21
-32.2496
  0
LINE
  8
0
 10
-34.2477
 20
-32.2496
 11
-34.2871
 21
-32.1903
  0
LINE
  8
0
 10
-34.2871
 20
-32.1903
 11
-34.3214
 21
-32.1279
  0
LINE
  8
0
 10
-34.3214
 20
-32.1279
 11
-34.3503
 21
-32.0629
  0
LINE
  8
0
 10
-34.3503
 20
-32.0629
 11
-34.3737
 21
-31.9957
  0
LINE
  8
0
 10
-34.3737
 20
-31.9957
 11
-34.3914
 21
-31.9267
  0
LINE
  8
0
 10
-34.3914
 20
-31.9267
 11
-34.4033
 21
-31.8565
  0
LINE
  8
0
 10
-34.4033
 20
-31.8565
 11
-34.4093
 21
-31.7856
  0
LINE
  8
0
 10
-34.4093
 20
-19.0356
 11
-34.4093
 21
-18.9644
  0
LINE
  8
0
 10
-34.4093
 20
-18.9644
 11
-34.4033
 21
-18.8935
  0
LINE
  8
0
 10
-34.4033
 20
-18.8935
 11
-34.3914
 21
-18.8233
  0
LINE
  8
0
 10
-34.3914
 20
-18.8233
 11
-34.3737
 21
-18.7543
  0
LINE
  8
0
 10
-34.3737
 20
-18.7543
 11
-34.3503
 21
-18.6871
  0
LINE
  8
0
 10
-34.3503
 20
-18.6871
 11
-34.3214
 21
-18.6221
  0
LINE
  8
0
 10
-34.3214
 20
-18.6221
 11
-34.2871
 21
-18.5597
  0
LINE
  8
0
 10
-34.2871
 20
-18.5597
 11
-34.2477
 21
-18.5004
  0
LINE
  8
0
 10
-34.2477
 20
-18.5004
 11
-34.2034
 21
-18.4446
  0
LINE
  8
0
 10
-34.2034
 20
-18.4446
 11
-34.1547
 21
-18.3927
  0
LINE
  8
0
 10
-34.1547
 20
-18.3927
 11
-34.1018
 21
-18.3451
  0
LINE
  8
0
 10
-34.1018
 20
-18.3451
 11
-34.0451
 21
-18.302
  0
LINE
  8
0
 10
-34.0451
 20
-18.302
 11
-33.985
 21
-18.2639
  0
LINE
  8
0
 10
-33.985
 20
-18.2639
 11
-33.9219
 21
-18.2309
  0
LINE
  8
0
 10
-33.9219
 20
-18.2309
 11
-33.8563
 21
-18.2033
  0
LINE
  8
0
 10
-33.8563
 20
-18.2033
 11
-33.7886
 21
-18.1813
  0
LINE
  8
0
 10
-33.7886
 20
-18.1813
 11
-33.7193
 21
-18.1651
  0
LINE
  8
0
 10
-33.7193
 20
-18.1651
 11
-33.6488
 21
-18.1547
  0
LINE
  8
0
 10
-33.6488
 20
-18.1547
 11
-33.5778
 21
-18.1502
  0
LINE
  8
0
 10
-33.5778
 20
-18.1502
 11
-33.5066
 21
-18.1517
  0
LINE
  8
0
 10
-33.5066
 20
-18.1517
 11
-33.4358
 21
-18.1591
  0
LINE
  8
0
 10
-33.4358
 20
-18.1591
 11
-33.3659
 21
-18.1725
  0
LINE
  8
0
 10
-33.3659
 20
-18.1725
 11
-33.2973
 21
-18.1916
  0
LINE
  8
0
 10
-33.2973
 20
-18.1916
 11
-33.2306
 21
-18.2164
  0
LINE
  8
0
 10
-33.2306
 20
-18.2164
 11
-33.1662
 21
-18.2467
  0
LINE
  8
0
 10
-33.1662
 20
-18.2467
 11
-33.1045
 21
-18.2823
  0
LINE
  8
0
 10
-33.1045
 20
-18.2823
 11
-33.0461
 21
-18.3229
  0
LINE
  8
0
 10
-33.0461
 20
-18.3229
 11
-32.9912
 21
-18.3683
  0
LINE
  8
0
 10
-32.9912
 20
-18.3683
 11
-32.9404
 21
-18.4181
  0
LINE
  8
0
 10
-32.9404
 20
-18.4181
 11
-32.8939
 21
-18.472
  0
LINE
  8
0
 10
-32.8939
 20
-18.472
 11
-32.852
 21
-18.5296
  0
LINE
  8
0
 10
-32.852
 20
-18.5296
 11
-32.8151
 21
-18.5905
  0
LINE
  8
0
 10
-32.8151
 20
-18.5905
 11
-32.7835
 21
-18.6543
  0
LINE
  8
0
 10
-32.7835
 20
-18.6543
 11
-32.7573
 21
-18.7205
  0
LINE
  8
0
 10
-32.7573
 20
-18.7205
 11
-32.7367
 21
-18.7886
  0
LINE
  8
0
 10
-32.7367
 20
-18.7886
 11
-32.7219
 21
-18.8582
  0
LINE
  8
0
 10
-32.7219
 20
-18.8582
 11
-32.713
 21
-18.9289
  0
LINE
  8
0
 10
-32.713
 20
-18.9289
 11
-32.71
 21
-19
  0
LINE
  8
0
 10
-32.71
 20
-19
 11
-32.713
 21
-19.0711
  0
LINE
  8
0
 10
-32.713
 20
-19.0711
 11
-32.7219
 21
-19.1418
  0
LINE
  8
0
 10
-32.7219
 20
-19.1418
 11
-32.7367
 21
-19.2114
  0
LINE
  8
0
 10
-32.7367
 20
-19.2114
 11
-32.7573
 21
-19.2795
  0
LINE
  8
0
 10
-32.7573
 20
-19.2795
 11
-32.7835
 21
-19.3457
  0
LINE
  8
0
 10
-32.7835
 20
-19.3457
 11
-32.8151
 21
-19.4095
  0
LINE
  8
0
 10
-32.8151
 20
-19.4095
 11
-32.852
 21
-19.4704
  0
LINE
  8
0
 10
-32.852
 20
-19.4704
 11
-32.8939
 21
-19.528
  0
LINE
  8
0
 10
-32.8939
 20
-19.528
 11
-32.9404
 21
-19.5819
  0
LINE
  8
0
 10
-32.9404
 20
-19.5819
 11
-32.9912
 21
-19.6317
  0
LINE
  8
0
 10
-32.9912
 20
-19.6317
 11
-33.0461
 21
-19.677
  0
LINE
  8
0
 10
-33.0461
 20
-19.677
 11
-33.1045
 21
-19.7177
  0
LINE
  8
0
 10
-33.1045
 20
-19.7177
 11
-33.1662
 21
-19.7533
  0
LINE
  8
0
 10
-33.1662
 20
-19.7533
 11
-33.2306
 21
-19.7836
  0
LINE
  8
0
 10
-33.2306
 20
-19.7836
 11
-33.2973
 21
-19.8084
  0
LINE
  8
0
 10
-33.2973
 20
-19.8084
 11
-33.3659
 21
-19.8275
  0
LINE
  8
0
 10
-33.3659
 20
-19.8275
 11
-33.4358
 21
-19.8409
  0
LINE
  8
0
 10
-33.4358
 20
-19.8409
 11
-33.5066
 21
-19.8483
  0
LINE
  8
0
 10
-33.5066
 20
-19.8483
 11
-33.5778
 21
-19.8498
  0
LINE
  8
0
 10
-33.5778
 20
-19.8498
 11
-33.6488
 21
-19.8453
  0
LINE
  8
0
 10
-33.6488
 20
-19.8453
 11
-33.7193
 21
-19.8349
  0
LINE
  8
0
 10
-33.7193
 20
-19.8349
 11
-33.7886
 21
-19.8187
  0
LINE
  8
0
 10
-33.7886
 20
-19.8187
 11
-33.8563
 21
-19.7967
  0
LINE
  8
0
 10
-33.8563
 20
-19.7967
 11
-33.9219
 21
-19.7691
  0
LINE
  8
0
 10
-33.9219
 20
-19.7691
 11
-33.985
 21
-19.7361
  0
LINE
  8
0
 10
-33.985
 20
-19.7361
 11
-34.0451
 21
-19.698
  0
LINE
  8
0
 10
-34.0451
 20
-19.698
 11
-34.1018
 21
-19.6549
  0
LINE
  8
0
 10
-34.1018
 20
-19.6549
 11
-34.1547
 21
-19.6073
  0
LINE
  8
0
 10
-34.1547
 20
-19.6073
 11
-34.2034
 21
-19.5554
  0
LINE
  8
0
 10
-34.2034
 20
-19.5554
 11
-34.2477
 21
-19.4996
  0
LINE
  8
0
 10
-34.2477
 20
-19.4996
 11
-34.2871
 21
-19.4403
  0
LINE
  8
0
 10
-34.2871
 20
-19.4403
 11
-34.3214
 21
-19.3779
  0
LINE
  8
0
 10
-34.3214
 20
-19.3779
 11
-34.3503
 21
-19.3129
  0
LINE
  8
0
 10
-34.3503
 20
-19.3129
 11
-34.3737
 21
-19.2457
  0
LINE
  8
0
 10
-34.3737
 20
-19.2457
 11
-34.3914
 21
-19.1767
  0
LINE
  8
0
 10
-34.3914
 20
-19.1767
 11
-34.4033
 21
-19.1065
  0
LINE
  8
0
 10
-34.4033
 20
-19.1065
 11
-34.4093
 21
-19.0356
  0
LINE
  8
0
 10
-34.4093
 20
-6.28559
 11
-34.4093
 21
-6.21441
  0
LINE
  8
0
 10
-34.4093
 20
-6.21441
 11
-34.4033
 21
-6.14347
  0
LINE
  8
0
 10
-34.4033
 20
-6.14347
 11
-34.3914
 21
-6.07327
  0
LINE
  8
0
 10
-34.3914
 20
-6.07327
 11
-34.3737
 21
-6.00432
  0
LINE
  8
0
 10
-34.3737
 20
-6.00432
 11
-34.3503
 21
-5.93709
  0
LINE
  8
0
 10
-34.3503
 20
-5.93709
 11
-34.3214
 21
-5.87206
  0
LINE
  8
0
 10
-34.3214
 20
-5.87206
 11
-34.2871
 21
-5.80968
  0
LINE
  8
0
 10
-34.2871
 20
-5.80968
 11
-34.2477
 21
-5.75038
  0
LINE
  8
0
 10
-34.2477
 20
-5.75038
 11
-34.2034
 21
-5.69459
  0
LINE
  8
0
 10
-34.2034
 20
-5.69459
 11
-34.1547
 21
-5.6427
  0
LINE
  8
0
 10
-34.1547
 20
-5.6427
 11
-34.1018
 21
-5.59506
  0
LINE
  8
0
 10
-34.1018
 20
-5.59506
 11
-34.0451
 21
-5.55202
  0
LINE
  8
0
 10
-34.0451
 20
-5.55202
 11
-33.985
 21
-5.51388
  0
LINE
  8
0
 10
-33.985
 20
-5.51388
 11
-33.9219
 21
-5.4809
  0
LINE
  8
0
 10
-33.9219
 20
-5.4809
 11
-33.8563
 21
-5.45331
  0
LINE
  8
0
 10
-33.8563
 20
-5.45331
 11
-33.7886
 21
-5.43131
  0
LINE
  8
0
 10
-33.7886
 20
-5.43131
 11
-33.7193
 21
-5.41506
  0
LINE
  8
0
 10
-33.7193
 20
-5.41506
 11
-33.6488
 21
-5.40466
  0
LINE
  8
0
 10
-33.6488
 20
-5.40466
 11
-33.5778
 21
-5.40019
  0
LINE
  8
0
 10
-33.5778
 20
-5.40019
 11
-33.5066
 21
-5.40168
  0
LINE
  8
0
 10
-33.5066
 20
-5.40168
 11
-33.4358
 21
-5.40912
  0
LINE
  8
0
 10
-33.4358
 20
-5.40912
 11
-33.3659
 21
-5.42246
  0
LINE
  8
0
 10
-33.3659
 20
-5.42246
 11
-33.2973
 21
-5.4416
  0
LINE
  8
0
 10
-33.2973
 20
-5.4416
 11
-33.2306
 21
-5.46642
  0
LINE
  8
0
 10
-33.2306
 20
-5.46642
 11
-33.1662
 21
-5.49673
  0
LINE
  8
0
 10
-33.1662
 20
-5.49673
 11
-33.1045
 21
-5.53232
  0
LINE
  8
0
 10
-33.1045
 20
-5.53232
 11
-33.0461
 21
-5.57295
  0
LINE
  8
0
 10
-33.0461
 20
-5.57295
 11
-32.9912
 21
-5.61833
  0
LINE
  8
0
 10
-32.9912
 20
-5.61833
 11
-32.9404
 21
-5.66813
  0
LINE
  8
0
 10
-32.9404
 20
-5.66813
 11
-32.8939
 21
-5.72202
  0
LINE
  8
0
 10
-32.8939
 20
-5.72202
 11
-32.852
 21
-5.77962
  0
LINE
  8
0
 10
-32.852
 20
-5.77962
 11
-32.8151
 21
-5.84051
  0
LINE
  8
0
 10
-32.8151
 20
-5.84051
 11
-32.7835
 21
-5.90427
  0
LINE
  8
0
 10
-32.7835
 20
-5.90427
 11
-32.7573
 21
-5.97046
  0
LINE
  8
0
 10
-32.7573
 20
-5.97046
 11
-32.7367
 21
-6.03861
  0
LINE
  8
0
 10
-32.7367
 20
-6.03861
 11
-32.7219
 21
-6.10825
  0
LINE
  8
0
 10
-32.7219
 20
-6.10825
 11
-32.713
 21
-6.17887
  0
LINE
  8
0
 10
-32.713
 20
-6.17887
 11
-32.71
 21
-6.25
  0
LINE
  8
0
 10
-32.71
 20
-6.25
 11
-32.713
 21
-6.32113
  0
LINE
  8
0
 10
-32.713
 20
-6.32113
 11
-32.7219
 21
-6.39175
  0
LINE
  8
0
 10
-32.7219
 20
-6.39175
 11
-32.7367
 21
-6.46139
  0
LINE
  8
0
 10
-32.7367
 20
-6.46139
 11
-32.7573
 21
-6.52954
  0
LINE
  8
0
 10
-32.7573
 20
-6.52954
 11
-32.7835
 21
-6.59573
  0
LINE
  8
0
 10
-32.7835
 20
-6.59573
 11
-32.8151
 21
-6.65949
  0
LINE
  8
0
 10
-32.8151
 20
-6.65949
 11
-32.852
 21
-6.72038
  0
LINE
  8
0
 10
-32.852
 20
-6.72038
 11
-32.8939
 21
-6.77798
  0
LINE
  8
0
 10
-32.8939
 20
-6.77798
 11
-32.9404
 21
-6.83186
  0
LINE
  8
0
 10
-32.9404
 20
-6.83186
 11
-32.9912
 21
-6.88167
  0
LINE
  8
0
 10
-32.9912
 20
-6.88167
 11
-33.0461
 21
-6.92705
  0
LINE
  8
0
 10
-33.0461
 20
-6.92705
 11
-33.1045
 21
-6.96768
  0
LINE
  8
0
 10
-33.1045
 20
-6.96768
 11
-33.1662
 21
-7.00327
  0
LINE
  8
0
 10
-33.1662
 20
-7.00327
 11
-33.2306
 21
-7.03358
  0
LINE
  8
0
 10
-33.2306
 20
-7.03358
 11
-33.2973
 21
-7.0584
  0
LINE
  8
0
 10
-33.2973
 20
-7.0584
 11
-33.3659
 21
-7.07754
  0
LINE
  8
0
 10
-33.3659
 20
-7.07754
 11
-33.4358
 21
-7.09088
  0
LINE
  8
0
 10
-33.4358
 20
-7.09088
 11
-33.5066
 21
-7.09832
  0
LINE
  8
0
 10
-33.5066
 20
-7.09832
 11
-33.5778
 21
-7.09981
  0
LINE
  8
0
 10
-33.5778
 20
-7.09981
 11
-33.6488
 21
-7.09534
  0
LINE
  8
0
 10
-33.6488
 20
-7.09534
 11
-33.7193
 21
-7.08494
  0
LINE
  8
0
 10
-33.7193
 20
-7.08494
 11
-33.7886
 21
-7.06869
  0
LINE
  8
0
 10
-33.7886
 20
-7.06869
 11
-33.8563
 21
-7.04669
  0
LINE
  8
0
 10
-33.8563
 20
-7.04669
 11
-33.9219
 21
-7.0191
  0
LINE
  8
0
 10
-33.9219
 20
-7.0191
 11
-33.985
 21
-6.98612
  0
LINE
  8
0
 10
-33.985
 20
-6.98612
 11
-34.0451
 21
-6.94798
  0
LINE
  8
0
 10
-34.0451
 20
-6.94798
 11
-34.1018
 21
-6.90494
  0
LINE
  8
0
 10
-34.1018
 20
-6.90494
 11
-34.1547
 21
-6.8573
  0
LINE
  8
0
 10
-34.1547
 20
-6.8573
 11
-34.2034
 21
-6.80541
  0
LINE
  8
0
 10
-34.2034
 20
-6.80541
 11
-34.2477
 21
-6.74962
  0
LINE
  8
0
 10
-34.2477
 20
-6.74962
 11
-34.2871
 21
-6.69032
  0
LINE
  8
0
 10
-34.2871
 20
-6.69032
 11
-34.3214
 21
-6.62794
  0
LINE
  8
0
 10
-34.3214
 20
-6.62794
 11
-34.3503
 21
-6.56291
  0
LINE
  8
0
 10
-34.3503
 20
-6.56291
 11
-34.3737
 21
-6.49568
  0
LINE
  8
0
 10
-34.3737
 20
-6.49568
 11
-34.3914
 21
-6.42672
  0
LINE
  8
0
 10
-34.3914
 20
-6.42672
 11
-34.4033
 21
-6.35653
  0
LINE
  8
0
 10
-34.4033
 20
-6.35653
 11
-34.4093
 21
-6.28559
  0
LINE
  8
0
 10
-34.4093
 20
6.21441
 11
-34.4093
 21
6.28559
  0
LINE
  8
0
 10
-34.4093
 20
6.28559
 11
-34.4033
 21
6.35653
  0
LINE
  8
0
 10
-34.4033
 20
6.35653
 11
-34.3914
 21
6.42673
  0
LINE
  8
0
 10
-34.3914
 20
6.42673
 11
-34.3737
 21
6.49568
  0
LINE
  8
0
 10
-34.3737
 20
6.49568
 11
-34.3503
 21
6.56291
  0
LINE
  8
0
 10
-34.3503
 20
6.56291
 11
-34.3214
 21
6.62794
  0
LINE
  8
0
 10
-34.3214
 20
6.62794
 11
-34.2871
 21
6.69032
  0
LINE
  8
0
 10
-34.2871
 20
6.69032
 11
-34.2477
 21
6.74962
  0
LINE
  8
0
 10
-34.2477
 20
6.74962
 11
-34.2034
 21
6.80541
  0
LINE
  8
0
 10
-34.2034
 20
6.80541
 11
-34.1547
 21
6.8573
  0
LINE
  8
0
 10
-34.1547
 20
6.8573
 11
-34.1018
 21
6.90494
  0
LINE
  8
0
 10
-34.1018
 20
6.90494
 11
-34.0451
 21
6.94798
  0
LINE
  8
0
 10
-34.0451
 20
6.94798
 11
-33.985
 21
6.98612
  0
LINE
  8
0
 10
-33.985
 20
6.98612
 11
-33.9219
 21
7.0191
  0
LINE
  8
0
 10
-33.9219
 20
7.0191
 11
-33.8563
 21
7.04669
  0
LINE
  8
0
 10
-33.8563
 20
7.04669
 11
-33.7886
 21
7.06869
  0
LINE
  8
0
 10
-33.7886
 20
7.06869
 11
-33.7193
 21
7.08494
  0
LINE
  8
0
 10
-33.7193
 20
7.08494
 11
-33.6488
 21
7.09534
  0
LINE
  8
0
 10
-33.6488
 20
7.09534
 11
-33.5778
 21
7.09981
  0
LINE
  8
0
 10
-33.5778
 20
7.09981
 11
-33.5066
 21
7.09832
  0
LINE
  8
0
 10
-33.5066
 20
7.09832
 11
-33.4358
 21
7.09088
  0
LINE
  8
0
 10
-33.4358
 20
7.09088
 11
-33.3659
 21
7.07754
  0
LINE
  8
0
 10
-33.3659
 20
7.07754
 11
-33.2973
 21
7.0584
  0
LINE
  8
0
 10
-33.2973
 20
7.0584
 11
-33.2306
 21
7.03358
  0
LINE
  8
0
 10
-33.2306
 20
7.03358
 11
-33.1662
 21
7.00327
  0
LINE
  8
0
 10
-33.1662
 20
7.00327
 11
-33.1045
 21
6.96768
  0
LINE
  8
0
 10
-33.1045
 20
6.96768
 11
-33.0461
 21
6.92705
  0
LINE
  8
0
 10
-33.0461
 20
6.92705
 11
-32.9912
 21
6.88167
  0
LINE
  8
0
 10
-32.9912
 20
6.88167
 11
-32.9404
 21
6.83187
  0
LINE
  8
0
 10
-32.9404
 20
6.83187
 11
-32.8939
 21
6.77798
  0
LINE
  8
0
 10
-32.8939
 20
6.77798
 11
-32.852
 21
6.72038
  0
LINE
  8
0
 10
-32.852
 20
6.72038
 11
-32.8151
 21
6.65949
  0
LINE
  8
0
 10
-32.8151
 20
6.65949
 11
-32.7835
 21
6.59573
  0
LINE
  8
0
 10
-32.7835
 20
6.59573
 11
-32.7573
 21
6.52954
  0
LINE
  8
0
 10
-32.7573
 20
6.52954
 11
-32.7367
 21
6.46139
  0
LINE
  8
0
 10
-32.7367
 20
6.46139
 11
-32.7219
 21
6.39175
  0
LINE
  8
0
 10
-32.7219
 20
6.39175
 11
-32.713
 21
6.32113
  0
LINE
  8
0
 10
-32.713
 20
6.32113
 11
-32.71
 21
6.25
  0
LINE
  8
0
 10
-32.71
 20
6.25
 11
-32.713
 21
6.17887
  0
LINE
  8
0
 10
-32.713
 20
6.17887
 11
-32.7219
 21
6.10825
  0
LINE
  8
0
 10
-32.7219
 20
6.10825
 11
-32.7367
 21
6.03861
  0
LINE
  8
0
 10
-32.7367
 20
6.03861
 11
-32.7573
 21
5.97046
  0
LINE
  8
0
 10
-32.7573
 20
5.97046
 11
-32.7835
 21
5.90427
  0
LINE
  8
0
 10
-32.7835
 20
5.90427
 11
-32.8151
 21
5.84051
  0
LINE
  8
0
 10
-32.8151
 20
5.84051
 11
-32.852
 21
5.77962
  0
LINE
  8
0
 10
-32.852
 20
5.77962
 11
-32.8939
 21
5.72202
  0
LINE
  8
0
 10
-32.8939
 20
5.72202
 11
-32.9404
 21
5.66814
  0
LINE
  8
0
 10
-32.9404
 20
5.66814
 11
-32.9912
 21
5.61833
  0
LINE
  8
0
 10
-32.9912
 20
5.61833
 11
-33.0461
 21
5.57295
  0
LINE
  8
0
 10
-33.0461
 20
5.57295
 11
-33.1045
 21
5.53232
  0
LINE
  8
0
 10
-33.1045
 20
5.53232
 11
-33.1662
 21
5.49673
  0
LINE
  8
0
 10
-33.1662
 20
5.49673
 11
-33.2306
 21
5.46642
  0
LINE
  8
0
 10
-33.2306
 20
5.46642
 11
-33.2973
 21
5.4416
  0
LINE
  8
0
 10
-33.2973
 20
5.4416
 11
-33.3659
 21
5.42246
  0
LINE
  8
0
 10
-33.3659
 20
5.42246
 11
-33.4358
 21
5.40912
  0
LINE
  8
0
 10
-33.4358
 20
5.40912
 11
-33.5066
 21
5.40168
  0
LINE
  8
0
 10
-33.5066
 20
5.40168
 11
-33.5778
 21
5.40019
  0
LINE
  8
0
 10
-33.5778
 20
5.40019
 11
-33.6488
 21
5.40466
  0
LINE
  8
0
 10
-33.6488
 20
5.40466
 11
-33.7193
 21
5.41506
  0
LINE
  8
0
 10
-33.7193
 20
5.41506
 11
-33.7886
 21
5.43131
  0
LINE
  8
0
 10
-33.7886
 20
5.43131
 11
-33.8563
 21
5.45331
  0
LINE
  8
0
 10
-33.8563
 20
5.45331
 11
-33.9219
 21
5.4809
  0
LINE
  8
0
 10
-33.9219
 20
5.4809
 11
-33.985
 21
5.51388
  0
LINE
  8
0
 10
-33.985
 20
5.51388
 11
-34.0451
 21
5.55202
  0
LINE
  8
0
 10
-34.0451
 20
5.55202
 11
-34.1018
 21
5.59506
  0
LINE
  8
0
 10
-34.1018
 20
5.59506
 11
-34.1547
 21
5.6427
  0
LINE
  8
0
 10
-34.1547
 20
5.6427
 11
-34.2034
 21
5.69459
  0
LINE
  8
0
 10
-34.2034
 20
5.69459
 11
-34.2477
 21
5.75038
  0
LINE
  8
0
 10
-34.2477
 20
5.75038
 11
-34.2871
 21
5.80968
  0
LINE
  8
0
 10
-34.2871
 20
5.80968
 11
-34.3214
 21
5.87206
  0
LINE
  8
0
 10
-34.3214
 20
5.87206
 11
-34.3503
 21
5.93709
  0
LINE
  8
0
 10
-34.3503
 20
5.93709
 11
-34.3737
 21
6.00432
  0
LINE
  8
0
 10
-34.3737
 20
6.00432
 11
-34.3914
 21
6.07328
  0
LINE
  8
0
 10
-34.3914
 20
6.07328
 11
-34.4033
 21
6.14347
  0
LINE
  8
0
 10
-34.4033
 20
6.14347
 11
-34.4093
 21
6.21441
  0
LINE
  8
0
 10
-34.4093
 20
18.9644
 11
-34.4093
 21
19.0356
  0
LINE
  8
0
 10
-34.4093
 20
19.0356
 11
-34.4033
 21
19.1065
  0
LINE
  8
0
 10
-34.4033
 20
19.1065
 11
-34.3914
 21
19.1767
  0
LINE
  8
0
 10
-34.3914
 20
19.1767
 11
-34.3737
 21
19.2457
  0
LINE
  8
0
 10
-34.3737
 20
19.2457
 11
-34.3503
 21
19.3129
  0
LINE
  8
0
 10
-34.3503
 20
19.3129
 11
-34.3214
 21
19.3779
  0
LINE
  8
0
 10
-34.3214
 20
19.3779
 11
-34.2871
 21
19.4403
  0
LINE
  8
0
 10
-34.2871
 20
19.4403
 11
-34.2477
 21
19.4996
  0
LINE
  8
0
 10
-34.2477
 20
19.4996
 11
-34.2034
 21
19.5554
  0
LINE
  8
0
 10
-34.2034
 20
19.5554
 11
-34.1547
 21
19.6073
  0
LINE
  8
0
 10
-34.1547
 20
19.6073
 11
-34.1018
 21
19.6549
  0
LINE
  8
0
 10
-34.1018
 20
19.6549
 11
-34.0451
 21
19.698
  0
LINE
  8
0
 10
-34.0451
 20
19.698
 11
-33.985
 21
19.7361
  0
LINE
  8
0
 10
-33.985
 20
19.7361
 11
-33.9219
 21
19.7691
  0
LINE
  8
0
 10
-33.9219
 20
19.7691
 11
-33.8563
 21
19.7967
  0
LINE
  8
0
 10
-33.8563
 20
19.7967
 11
-33.7886
 21
19.8187
  0
LINE
  8
0
 10
-33.7886
 20
19.8187
 11
-33.7193
 21
19.8349
  0
LINE
  8
0
 10
-33.7193
 20
19.8349
 11
-33.6488
 21
19.8453
  0
LINE
  8
0
 10
-33.6488
 20
19.8453
 11
-33.5778
 21
19.8498
  0
LINE
  8
0
 10
-33.5778
 20
19.8498
 11
-33.5066
 21
19.8483
  0
LINE
  8
0
 10
-33.5066
 20
19.8483
 11
-33.4358
 21
19.8409
  0
LINE
  8
0
 10
-33.4358
 20
19.8409
 11
-33.3659
 21
19.8275
  0
LINE
  8
0
 10
-33.3659
 20
19.8275
 11
-33.2973
 21
19.8084
  0
LINE
  8
0
 10
-33.2973
 20
19.8084
 11
-33.2306
 21
19.7836
  0
LINE
  8
0
 10
-33.2306
 20
19.7836
 11
-33.1662
 21
19.7533
  0
LINE
  8
0
 10
-33.1662
 20
19.7533
 11
-33.1045
 21
19.7177
  0
LINE
  8
0
 10
-33.1045
 20
19.7177
 11
-33.0461
 21
19.6771
  0
LINE
  8
0
 10
-33.0461
 20
19.6771
 11
-32.9912
 21
19.6317
  0
LINE
  8
0
 10
-32.9912
 20
19.6317
 11
-32.9404
 21
19.5819
  0
LINE
  8
0
 10
-32.9404
 20
19.5819
 11
-32.8939
 21
19.528
  0
LINE
  8
0
 10
-32.8939
 20
19.528
 11
-32.852
 21
19.4704
  0
LINE
  8
0
 10
-32.852
 20
19.4704
 11
-32.8151
 21
19.4095
  0
LINE
  8
0
 10
-32.8151
 20
19.4095
 11
-32.7835
 21
19.3457
  0
LINE
  8
0
 10
-32.7835
 20
19.3457
 11
-32.7573
 21
19.2795
  0
LINE
  8
0
 10
-32.7573
 20
19.2795
 11
-32.7367
 21
19.2114
  0
LINE
  8
0
 10
-32.7367
 20
19.2114
 11
-32.7219
 21
19.1418
  0
LINE
  8
0
 10
-32.7219
 20
19.1418
 11
-32.713
 21
19.0711
  0
LINE
  8
0
 10
-32.713
 20
19.0711
 11
-32.71
 21
19
  0
LINE
  8
0
 10
-32.71
 20
19
 11
-32.713
 21
18.9289
  0
LINE
  8
0
 10
-32.713
 20
18.9289
 11
-32.7219
 21
18.8582
  0
LINE
  8
0
 10
-32.7219
 20
18.8582
 11
-32.7367
 21
18.7886
  0
LINE
  8
0
 10
-32.7367
 20
18.7886
 11
-32.7573
 21
18.7205
  0
LINE
  8
0
 10
-32.7573
 20
18.7205
 11
-32.7835
 21
18.6543
  0
LINE
  8
0
 10
-32.7835
 20
18.6543
 11
-32.8151
 21
18.5905
  0
LINE
  8
0
 10
-32.8151
 20
18.5905
 11
-32.852
 21
18.5296
  0
LINE
  8
0
 10
-32.852
 20
18.5296
 11
-32.8939
 21
18.472
  0
LINE
  8
0
 10
-32.8939
 20
18.472
 11
-32.9404
 21
18.4181
  0
LINE
  8
0
 10
-32.9404
 20
18.4181
 11
-32.9912
 21
18.3683
  0
LINE
  8
0
 10
-32.9912
 20
18.3683
 11
-33.0461
 21
18.323
  0
LINE
  8
0
 10
-33.0461
 20
18.323
 11
-33.1045
 21
18.2823
  0
LINE
  8
0
 10
-33.1045
 20
18.2823
 11
-33.1662
 21
18.2467
  0
LINE
  8
0
 10
-33.1662
 20
18.2467
 11
-33.2306
 21
18.2164
  0
LINE
  8
0
 10
-33.2306
 20
18.2164
 11
-33.2973
 21
18.1916
  0
LINE
  8
0
 10
-33.2973
 20
18.1916
 11
-33.3659
 21
18.1725
  0
LINE
  8
0
 10
-33.3659
 20
18.1725
 11
-33.4358
 21
18.1591
  0
LINE
  8
0
 10
-33.4358
 20
18.1591
 11
-33.5066
 21
18.1517
  0
LINE
  8
0
 10
-33.5066
 20
18.1517
 11
-33.5778
 21
18.1502
  0
LINE
  8
0
 10
-33.5778
 20
18.1502
 11
-33.6488
 21
18.1547
  0
LINE
  8
0
 10
-33.6488
 20
18.1547
 11
-33.7193
 21
18.1651
  0
LINE
  8
0
 10
-33.7193
 20
18.1651
 11
-33.7886
 21
18.1813
  0
LINE
  8
0
 10
-33.7886
 20
18.1813
 11
-33.8563
 21
18.2033
  0
LINE
  8
0
 10
-33.8563
 20
18.2033
 11
-33.9219
 21
18.2309
  0
LINE
  8
0
 10
-33.9219
 20
18.2309
 11
-33.985
 21
18.2639
  0
LINE
  8
0
 10
-33.985
 20
18.2639
 11
-34.0451
 21
18.302
  0
LINE
  8
0
 10
-34.0451
 20
18.302
 11
-34.1018
 21
18.3451
  0
LINE
  8
0
 10
-34.1018
 20
18.3451
 11
-34.1547
 21
18.3927
  0
LINE
  8
0
 10
-34.1547
 20
18.3927
 11
-34.2034
 21
18.4446
  0
LINE
  8
0
 10
-34.2034
 20
18.4446
 11
-34.2477
 21
18.5004
  0
LINE
  8
0
 10
-34.2477
 20
18.5004
 11
-34.2871
 21
18.5597
  0
LINE
  8
0
 10
-34.2871
 20
18.5597
 11
-34.3214
 21
18.6221
  0
LINE
  8
0
 10
-34.3214
 20
18.6221
 11
-34.3503
 21
18.6871
  0
LINE
  8
0
 10
-34.3503
 20
18.6871
 11
-34.3737
 21
18.7543
  0
LINE
  8
0
 10
-34.3737
 20
18.7543
 11
-34.3914
 21
18.8233
  0
LINE
  8
0
 10
-34.3914
 20
18.8233
 11
-34.4033
 21
18.8935
  0
LINE
  8
0
 10
-34.4033
 20
18.8935
 11
-34.4093
 21
18.9644
  0
LINE
  8
0
 10
-34.4093
 20
31.7144
 11
-34.4093
 21
31.7856
  0
LINE
  8
0
 10
-34.4093
 20
31.7856
 11
-34.4033
 21
31.8565
  0
LINE
  8
0
 10
-34.4033
 20
31.8565
 11
-34.3914
 21
31.9267
  0
LINE
  8
0
 10
-34.3914
 20
31.9267
 11
-34.3737
 21
31.9957
  0
LINE
  8
0
 10
-34.3737
 20
31.9957
 11
-34.3503
 21
32.0629
  0
LINE
  8
0
 10
-34.3503
 20
32.0629
 11
-34.3214
 21
32.1279
  0
LINE
  8
0
 10
-34.3214
 20
32.1279
 11
-34.2871
 21
32.1903
  0
LINE
  8
0
 10
-34.2871
 20
32.1903
 11
-34.2477
 21
32.2496
  0
LINE
  8
0
 10
-34.2477
 20
32.2496
 11
-34.2034
 21
32.3054
  0
LINE
  8
0
 10
-34.2034
 20
32.3054
 11
-34.1547
 21
32.3573
  0
LINE
  8
0
 10
-34.1547
 20
32.3573
 11
-34.1018
 21
32.4049
  0
LINE
  8
0
 10
-34.1018
 20
32.4049
 11
-34.0451
 21
32.448
  0
LINE
  8
0
 10
-34.0451
 20
32.448
 11
-33.985
 21
32.4861
  0
LINE
  8
0
 10
-33.985
 20
32.4861
 11
-33.9219
 21
32.5191
  0
LINE
  8
0
 10
-33.9219
 20
32.5191
 11
-33.8563
 21
32.5467
  0
LINE
  8
0
 10
-33.8563
 20
32.5467
 11
-33.7886
 21
32.5687
  0
LINE
  8
0
 10
-33.7886
 20
32.5687
 11
-33.7193
 21
32.5849
  0
LINE
  8
0
 10
-33.7193
 20
32.5849
 11
-33.6488
 21
32.5953
  0
LINE
  8
0
 10
-33.6488
 20
32.5953
 11
-33.5778
 21
32.5998
  0
LINE
  8
0
 10
-33.5778
 20
32.5998
 11
-33.5066
 21
32.5983
  0
LINE
  8
0
 10
-33.5066
 20
32.5983
 11
-33.4358
 21
32.5909
  0
LINE
  8
0
 10
-33.4358
 20
32.5909
 11
-33.3659
 21
32.5775
  0
LINE
  8
0
 10
-33.3659
 20
32.5775
 11
-33.2973
 21
32.5584
  0
LINE
  8
0
 10
-33.2973
 20
32.5584
 11
-33.2306
 21
32.5336
  0
LINE
  8
0
 10
-33.2306
 20
32.5336
 11
-33.1662
 21
32.5033
  0
LINE
  8
0
 10
-33.1662
 20
32.5033
 11
-33.1045
 21
32.4677
  0
LINE
  8
0
 10
-33.1045
 20
32.4677
 11
-33.0461
 21
32.4271
  0
LINE
  8
0
 10
-33.0461
 20
32.4271
 11
-32.9912
 21
32.3817
  0
LINE
  8
0
 10
-32.9912
 20
32.3817
 11
-32.9404
 21
32.3319
  0
LINE
  8
0
 10
-32.9404
 20
32.3319
 11
-32.8939
 21
32.278
  0
LINE
  8
0
 10
-32.8939
 20
32.278
 11
-32.852
 21
32.2204
  0
LINE
  8
0
 10
-32.852
 20
32.2204
 11
-32.8151
 21
32.1595
  0
LINE
  8
0
 10
-32.8151
 20
32.1595
 11
-32.7835
 21
32.0957
  0
LINE
  8
0
 10
-32.7835
 20
32.0957
 11
-32.7573
 21
32.0295
  0
LINE
  8
0
 10
-32.7573
 20
32.0295
 11
-32.7367
 21
31.9614
  0
LINE
  8
0
 10
-32.7367
 20
31.9614
 11
-32.7219
 21
31.8918
  0
LINE
  8
0
 10
-32.7219
 20
31.8918
 11
-32.713
 21
31.8211
  0
LINE
  8
0
 10
-32.713
 20
31.8211
 11
-32.71
 21
31.75
  0
LINE
  8
0
 10
-32.71
 20
31.75
 11
-32.713
 21
31.6789
  0
LINE
  8
0
 10
-32.713
 20
31.6789
 11
-32.7219
 21
31.6082
  0
LINE
  8
0
 10
-32.7219
 20
31.6082
 11
-32.7367
 21
31.5386
  0
LINE
  8
0
 10
-32.7367
 20
31.5386
 11
-32.7573
 21
31.4705
  0
LINE
  8
0
 10
-32.7573
 20
31.4705
 11
-32.7835
 21
31.4043
  0
LINE
  8
0
 10
-32.7835
 20
31.4043
 11
-32.8151
 21
31.3405
  0
LINE
  8
0
 10
-32.8151
 20
31.3405
 11
-32.852
 21
31.2796
  0
LINE
  8
0
 10
-32.852
 20
31.2796
 11
-32.8939
 21
31.222
  0
LINE
  8
0
 10
-32.8939
 20
31.222
 11
-32.9404
 21
31.1681
  0
LINE
  8
0
 10
-32.9404
 20
31.1681
 11
-32.9912
 21
31.1183
  0
LINE
  8
0
 10
-32.9912
 20
31.1183
 11
-33.0461
 21
31.073
  0
LINE
  8
0
 10
-33.0461
 20
31.073
 11
-33.1045
 21
31.0323
  0
LINE
  8
0
 10
-33.1045
 20
31.0323
 11
-33.1662
 21
30.9967
  0
LINE
  8
0
 10
-33.1662
 20
30.9967
 11
-33.2306
 21
30.9664
  0
LINE
  8
0
 10
-33.2306
 20
30.9664
 11
-33.2973
 21
30.9416
  0
LINE
  8
0
 10
-33.2973
 20
30.9416
 11
-33.3659
 21
30.9225
  0
LINE
  8
0
 10
-33.3659
 20
30.9225
 11
-33.4358
 21
30.9091
  0
LINE
  8
0
 10
-33.4358
 20
30.9091
 11
-33.5066
 21
30.9017
  0
LINE
  8
0
 10
-33.5066
 20
30.9017
 11
-33.5778
 21
30.9002
  0
LINE
  8
0
 10
-33.5778
 20
30.9002
 11
-33.6488
 21
30.9047
  0
LINE
  8
0
 10
-33.6488
 20
30.9047
 11
-33.7193
 21
30.9151
  0
LINE
  8
0
 10
-33.7193
 20
30.9151
 11
-33.7886
 21
30.9313
  0
LINE
  8
0
 10
-33.7886
 20
30.9313
 11
-33.8563
 21
30.9533
  0
LINE
  8
0
 10
-33.8563
 20
30.9533
 11
-33.9219
 21
30.9809
  0
LINE
  8
0
 10
-33.9219
 20
30.9809
 11
-33.985
 21
31.0139
  0
LINE
  8
0
 10
-33.985
 20
31.0139
 11
-34.0451
 21
31.052
  0
LINE
  8
0
 10
-34.0451
 20
31.052
 11
-34.1018
 21
31.0951
  0
LINE
  8
0
 10
-34.1018
 20
31.0951
 11
-34.1547
 21
31.1427
  0
LINE
  8
0
 10
-34.1547
 20
31.1427
 11
-34.2034
 21
31.1946
  0
LINE
  8
0
 10
-34.2034
 20
31.1946
 11
-34.2477
 21
31.2504
  0
LINE
  8
0
 10
-34.2477
 20
31.2504
 11
-34.2871
 21
31.3097
  0
LINE
  8
0
 10
-34.2871
 20
31.3097
 11
-34.3214
 21
31.3721
  0
LINE
  8
0
 10
-34.3214
 20
31.3721
 11
-34.3503
 21
31.4371
  0
LINE
  8
0
 10
-34.3503
 20
31.4371
 11
-34.3737
 21
31.5043
  0
LINE
  8
0
 10
-34.3737
 20
31.5043
 11
-34.3914
 21
31.5733
  0
LINE
  8
0
 10
-34.3914
 20
31.5733
 11
-34.4033
 21
31.6435
  0
LINE
  8
0
 10
-34.4033
 20
31.6435
 11
-34.4093
 21
31.7144
  0
LINE
  8
0
 10
-36.06
 20
38.81
 11
-35.56
 21
38.81
  0
LINE
  8
0
 10
-35.56
 20
38.81
 11
-35.56
 21
35.95
  0
LINE
  8
0
 10
-35.56
 20
35.95
 11
-31.06
 21
35.95
  0
LINE
  8
0
 10
-31.06
 20
35.95
 11
-31.06
 21
41.5
  0
LINE
  8
0
 10
-31.06
 20
41.5
 11
-36.06
 21
41.5
  0
LINE
  8
0
 10
-36.06
 20
41.5
 11
-36.06
 21
38.81
  0
LINE
  8
0
 10
-34.4093
 20
37.9644
 11
-34.4093
 21
38.0356
  0
LINE
  8
0
 10
-34.4093
 20
38.0356
 11
-34.4033
 21
38.1065
  0
LINE
  8
0
 10
-34.4033
 20
38.1065
 11
-34.3914
 21
38.1767
  0
LINE
  8
0
 10
-34.3914
 20
38.1767
 11
-34.3737
 21
38.2457
  0
LINE
  8
0
 10
-34.3737
 20
38.2457
 11
-34.3503
 21
38.3129
  0
LINE
  8
0
 10
-34.3503
 20
38.3129
 11
-34.3214
 21
38.3779
  0
LINE
  8
0
 10
-34.3214
 20
38.3779
 11
-34.2871
 21
38.4403
  0
LINE
  8
0
 10
-34.2871
 20
38.4403
 11
-34.2477
 21
38.4996
  0
LINE
  8
0
 10
-34.2477
 20
38.4996
 11
-34.2034
 21
38.5554
  0
LINE
  8
0
 10
-34.2034
 20
38.5554
 11
-34.1547
 21
38.6073
  0
LINE
  8
0
 10
-34.1547
 20
38.6073
 11
-34.1018
 21
38.6549
  0
LINE
  8
0
 10
-34.1018
 20
38.6549
 11
-34.0451
 21
38.698
  0
LINE
  8
0
 10
-34.0451
 20
38.698
 11
-33.985
 21
38.7361
  0
LINE
  8
0
 10
-33.985
 20
38.7361
 11
-33.9219
 21
38.7691
  0
LINE
  8
0
 10
-33.9219
 20
38.7691
 11
-33.8563
 21
38.7967
  0
LINE
  8
0
 10
-33.8563
 20
38.7967
 11
-33.7886
 21
38.8187
  0
LINE
  8
0
 10
-33.7886
 20
38.8187
 11
-33.7193
 21
38.8349
  0
LINE
  8
0
 10
-33.7193
 20
38.8349
 11
-33.6488
 21
38.8453
  0
LINE
  8
0
 10
-33.6488
 20
38.8453
 11
-33.5778
 21
38.8498
  0
LINE
  8
0
 10
-33.5778
 20
38.8498
 11
-33.5066
 21
38.8483
  0
LINE
  8
0
 10
-33.5066
 20
38.8483
 11
-33.4358
 21
38.8409
  0
LINE
  8
0
 10
-33.4358
 20
38.8409
 11
-33.3659
 21
38.8275
  0
LINE
  8
0
 10
-33.3659
 20
38.8275
 11
-33.2973
 21
38.8084
  0
LINE
  8
0
 10
-33.2973
 20
38.8084
 11
-33.2306
 21
38.7836
  0
LINE
  8
0
 10
-33.2306
 20
38.7836
 11
-33.1662
 21
38.7533
  0
LINE
  8
0
 10
-33.1662
 20
38.7533
 11
-33.1045
 21
38.7177
  0
LINE
  8
0
 10
-33.1045
 20
38.7177
 11
-33.0461
 21
38.6771
  0
LINE
  8
0
 10
-33.0461
 20
38.6771
 11
-32.9912
 21
38.6317
  0
LINE
  8
0
 10
-32.9912
 20
38.6317
 11
-32.9404
 21
38.5819
  0
LINE
  8
0
 10
-32.9404
 20
38.5819
 11
-32.8939
 21
38.528
  0
LINE
  8
0
 10
-32.8939
 20
38.528
 11
-32.852
 21
38.4704
  0
LINE
  8
0
 10
-32.852
 20
38.4704
 11
-32.8151
 21
38.4095
  0
LINE
  8
0
 10
-32.8151
 20
38.4095
 11
-32.7835
 21
38.3457
  0
LINE
  8
0
 10
-32.7835
 20
38.3457
 11
-32.7573
 21
38.2795
  0
LINE
  8
0
 10
-32.7573
 20
38.2795
 11
-32.7367
 21
38.2114
  0
LINE
  8
0
 10
-32.7367
 20
38.2114
 11
-32.7219
 21
38.1418
  0
LINE
  8
0
 10
-32.7219
 20
38.1418
 11
-32.713
 21
38.0711
  0
LINE
  8
0
 10
-32.713
 20
38.0711
 11
-32.71
 21
38
  0
LINE
  8
0
 10
-32.71
 20
38
 11
-32.713
 21
37.9289
  0
LINE
  8
0
 10
-32.713
 20
37.9289
 11
-32.7219
 21
37.8582
  0
LINE
  8
0
 10
-32.7219
 20
37.8582
 11
-32.7367
 21
37.7886
  0
LINE
  8
0
 10
-32.7367
 20
37.7886
 11
-32.7573
 21
37.7205
  0
LINE
  8
0
 10
-32.7573
 20
37.7205
 11
-32.7835
 21
37.6543
  0
LINE
  8
0
 10
-32.7835
 20
37.6543
 11
-32.8151
 21
37.5905
  0
LINE
  8
0
 10
-32.8151
 20
37.5905
 11
-32.852
 21
37.5296
  0
LINE
  8
0
 10
-32.852
 20
37.5296
 11
-32.8939
 21
37.472
  0
LINE
  8
0
 10
-32.8939
 20
37.472
 11
-32.9404
 21
37.4181
  0
LINE
  8
0
 10
-32.9404
 20
37.4181
 11
-32.9912
 21
37.3683
  0
LINE
  8
0
 10
-32.9912
 20
37.3683
 11
-33.0461
 21
37.323
  0
LINE
  8
0
 10
-33.0461
 20
37.323
 11
-33.1045
 21
37.2823
  0
LINE
  8
0
 10
-33.1045
 20
37.2823
 11
-33.1662
 21
37.2467
  0
LINE
  8
0
 10
-33.1662
 20
37.2467
 11
-33.2306
 21
37.2164
  0
LINE
  8
0
 10
-33.2306
 20
37.2164
 11
-33.2973
 21
37.1916
  0
LINE
  8
0
 10
-33.2973
 20
37.1916
 11
-33.3659
 21
37.1725
  0
LINE
  8
0
 10
-33.3659
 20
37.1725
 11
-33.4358
 21
37.1591
  0
LINE
  8
0
 10
-33.4358
 20
37.1591
 11
-33.5066
 21
37.1517
  0
LINE
  8
0
 10
-33.5066
 20
37.1517
 11
-33.5778
 21
37.1502
  0
LINE
  8
0
 10
-33.5778
 20
37.1502
 11
-33.6488
 21
37.1547
  0
LINE
  8
0
 10
-33.6488
 20
37.1547
 11
-33.7193
 21
37.1651
  0
LINE
  8
0
 10
-33.7193
 20
37.1651
 11
-33.7886
 21
37.1813
  0
LINE
  8
0
 10
-33.7886
 20
37.1813
 11
-33.8563
 21
37.2033
  0
LINE
  8
0
 10
-33.8563
 20
37.2033
 11
-33.9219
 21
37.2309
  0
LINE
  8
0
 10
-33.9219
 20
37.2309
 11
-33.985
 21
37.2639
  0
LINE
  8
0
 10
-33.985
 20
37.2639
 11
-34.0451
 21
37.302
  0
LINE
  8
0
 10
-34.0451
 20
37.302
 11
-34.1018
 21
37.3451
  0
LINE
  8
0
 10
-34.1018
 20
37.3451
 11
-34.1547
 21
37.3927
  0
LINE
  8
0
 10
-34.1547
 20
37.3927
 11
-34.2034
 21
37.4446
  0
LINE
  8
0
 10
-34.2034
 20
37.4446
 11
-34.2477
 21
37.5004
  0
LINE
  8
0
 10
-34.2477
 20
37.5004
 11
-34.2871
 21
37.5597
  0
LINE
  8
0
 10
-34.2871
 20
37.5597
 11
-34.3214
 21
37.6221
  0
LINE
  8
0
 10
-34.3214
 20
37.6221
 11
-34.3503
 21
37.6871
  0
LINE
  8
0
 10
-34.3503
 20
37.6871
 11
-34.3737
 21
37.7543
  0
LINE
  8
0
 10
-34.3737
 20
37.7543
 11
-34.3914
 21
37.8233
  0
LINE
  8
0
 10
-34.3914
 20
37.8233
 11
-34.4033
 21
37.8935
  0
LINE
  8
0
 10
-34.4033
 20
37.8935
 11
-34.4093
 21
37.9644
  0
LINE
  8
0
 10
31.06
 20
-41.5
 11
36.06
 21
-41.5
  0
LINE
  8
0
 10
36.06
 20
-41.5
 11
36.06
 21
-38.81
  0
LINE
  8
0
 10
36.06
 20
-38.81
 11
35.56
 21
-38.81
  0
LINE
  8
0
 10
35.56
 20
-38.81
 11
35.56
 21
-35.95
  0
LINE
  8
0
 10
35.56
 20
-35.95
 11
31.06
 21
-35.95
  0
LINE
  8
0
 10
31.06
 20
-35.95
 11
31.06
 21
-41.5
  0
LINE
  8
0
 10
32.7107
 20
-38.0356
 11
32.7107
 21
-37.9644
  0
LINE
  8
0
 10
32.7107
 20
-37.9644
 11
32.7167
 21
-37.8935
  0
LINE
  8
0
 10
32.7167
 20
-37.8935
 11
32.7286
 21
-37.8233
  0
LINE
  8
0
 10
32.7286
 20
-37.8233
 11
32.7463
 21
-37.7543
  0
LINE
  8
0
 10
32.7463
 20
-37.7543
 11
32.7697
 21
-37.6871
  0
LINE
  8
0
 10
32.7697
 20
-37.6871
 11
32.7986
 21
-37.6221
  0
LINE
  8
0
 10
32.7986
 20
-37.6221
 11
32.8329
 21
-37.5597
  0
LINE
  8
0
 10
32.8329
 20
-37.5597
 11
32.8723
 21
-37.5004
  0
LINE
  8
0
 10
32.8723
 20
-37.5004
 11
32.9166
 21
-37.4446
  0
LINE
  8
0
 10
32.9166
 20
-37.4446
 11
32.9653
 21
-37.3927
  0
LINE
  8
0
 10
32.9653
 20
-37.3927
 11
33.0182
 21
-37.3451
  0
LINE
  8
0
 10
33.0182
 20
-37.3451
 11
33.0749
 21
-37.302
  0
LINE
  8
0
 10
33.0749
 20
-37.302
 11
33.135
 21
-37.2639
  0
LINE
  8
0
 10
33.135
 20
-37.2639
 11
33.1981
 21
-37.2309
  0
LINE
  8
0
 10
33.1981
 20
-37.2309
 11
33.2637
 21
-37.2033
  0
LINE
  8
0
 10
33.2637
 20
-37.2033
 11
33.3314
 21
-37.1813
  0
LINE
  8
0
 10
33.3314
 20
-37.1813
 11
33.4007
 21
-37.1651
  0
LINE
  8
0
 10
33.4007
 20
-37.1651
 11
33.4711
 21
-37.1547
  0
LINE
  8
0
 10
33.4711
 20
-37.1547
 11
33.5422
 21
-37.1502
  0
LINE
  8
0
 10
33.5422
 20
-37.1502
 11
33.6134
 21
-37.1517
  0
LINE
  8
0
 10
33.6134
 20
-37.1517
 11
33.6842
 21
-37.1591
  0
LINE
  8
0
 10
33.6842
 20
-37.1591
 11
33.7541
 21
-37.1725
  0
LINE
  8
0
 10
33.7541
 20
-37.1725
 11
33.8227
 21
-37.1916
  0
LINE
  8
0
 10
33.8227
 20
-37.1916
 11
33.8894
 21
-37.2164
  0
LINE
  8
0
 10
33.8894
 20
-37.2164
 11
33.9538
 21
-37.2467
  0
LINE
  8
0
 10
33.9538
 20
-37.2467
 11
34.0155
 21
-37.2823
  0
LINE
  8
0
 10
34.0155
 20
-37.2823
 11
34.0739
 21
-37.3229
  0
LINE
  8
0
 10
34.0739
 20
-37.3229
 11
34.1288
 21
-37.3683
  0
LINE
  8
0
 10
34.1288
 20
-37.3683
 11
34.1796
 21
-37.4181
  0
LINE
  8
0
 10
34.1796
 20
-37.4181
 11
34.2261
 21
-37.472
  0
LINE
  8
0
 10
34.2261
 20
-37.472
 11
34.268
 21
-37.5296
  0
LINE
  8
0
 10
34.268
 20
-37.5296
 11
34.3049
 21
-37.5905
  0
LINE
  8
0
 10
34.3049
 20
-37.5905
 11
34.3365
 21
-37.6543
  0
LINE
  8
0
 10
34.3365
 20
-37.6543
 11
34.3627
 21
-37.7205
  0
LINE
  8
0
 10
34.3627
 20
-37.7205
 11
34.3833
 21
-37.7886
  0
LINE
  8
0
 10
34.3833
 20
-37.7886
 11
34.3981
 21
-37.8582
  0
LINE
  8
0
 10
34.3981
 20
-37.8582
 11
34.407
 21
-37.9289
  0
LINE
  8
0
 10
34.407
 20
-37.9289
 11
34.41
 21
-38
  0
LINE
  8
0
 10
34.41
 20
-38
 11
34.407
 21
-38.0711
  0
LINE
  8
0
 10
34.407
 20
-38.0711
 11
34.3981
 21
-38.1418
  0
LINE
  8
0
 10
34.3981
 20
-38.1418
 11
34.3833
 21
-38.2114
  0
LINE
  8
0
 10
34.3833
 20
-38.2114
 11
34.3627
 21
-38.2795
  0
LINE
  8
0
 10
34.3627
 20
-38.2795
 11
34.3365
 21
-38.3457
  0
LINE
  8
0
 10
34.3365
 20
-38.3457
 11
34.3049
 21
-38.4095
  0
LINE
  8
0
 10
34.3049
 20
-38.4095
 11
34.268
 21
-38.4704
  0
LINE
  8
0
 10
34.268
 20
-38.4704
 11
34.2261
 21
-38.528
  0
LINE
  8
0
 10
34.2261
 20
-38.528
 11
34.1796
 21
-38.5819
  0
LINE
  8
0
 10
34.1796
 20
-38.5819
 11
34.1288
 21
-38.6317
  0
LINE
  8
0
 10
34.1288
 20
-38.6317
 11
34.0739
 21
-38.677
  0
LINE
  8
0
 10
34.0739
 20
-38.677
 11
34.0155
 21
-38.7177
  0
LINE
  8
0
 10
34.0155
 20
-38.7177
 11
33.9538
 21
-38.7533
  0
LINE
  8
0
 10
33.9538
 20
-38.7533
 11
33.8894
 21
-38.7836
  0
LINE
  8
0
 10
33.8894
 20
-38.7836
 11
33.8227
 21
-38.8084
  0
LINE
  8
0
 10
33.8227
 20
-38.8084
 11
33.7541
 21
-38.8275
  0
LINE
  8
0
 10
33.7541
 20
-38.8275
 11
33.6842
 21
-38.8409
  0
LINE
  8
0
 10
33.6842
 20
-38.8409
 11
33.6134
 21
-38.8483
  0
LINE
  8
0
 10
33.6134
 20
-38.8483
 11
33.5422
 21
-38.8498
  0
LINE
  8
0
 10
33.5422
 20
-38.8498
 11
33.4711
 21
-38.8453
  0
LINE
  8
0
 10
33.4711
 20
-38.8453
 11
33.4007
 21
-38.8349
  0
LINE
  8
0
 10
33.4007
 20
-38.8349
 11
33.3314
 21
-38.8187
  0
LINE
  8
0
 10
33.3314
 20
-38.8187
 11
33.2637
 21
-38.7967
  0
LINE
  8
0
 10
33.2637
 20
-38.7967
 11
33.1981
 21
-38.7691
  0
LINE
  8
0
 10
33.1981
 20
-38.7691
 11
33.135
 21
-38.7361
  0
LINE
  8
0
 10
33.135
 20
-38.7361
 11
33.0749
 21
-38.698
  0
LINE
  8
0
 10
33.0749
 20
-38.698
 11
33.0182
 21
-38.6549
  0
LINE
  8
0
 10
33.0182
 20
-38.6549
 11
32.9653
 21
-38.6073
  0
LINE
  8
0
 10
32.9653
 20
-38.6073
 11
32.9166
 21
-38.5554
  0
LINE
  8
0
 10
32.9166
 20
-38.5554
 11
32.8723
 21
-38.4996
  0
LINE
  8
0
 10
32.8723
 20
-38.4996
 11
32.8329
 21
-38.4403
  0
LINE
  8
0
 10
32.8329
 20
-38.4403
 11
32.7986
 21
-38.3779
  0
LINE
  8
0
 10
32.7986
 20
-38.3779
 11
32.7697
 21
-38.3129
  0
LINE
  8
0
 10
32.7697
 20
-38.3129
 11
32.7463
 21
-38.2457
  0
LINE
  8
0
 10
32.7463
 20
-38.2457
 11
32.7286
 21
-38.1767
  0
LINE
  8
0
 10
32.7286
 20
-38.1767
 11
32.7167
 21
-38.1065
  0
LINE
  8
0
 10
32.7167
 20
-38.1065
 11
32.7107
 21
-38.0356
  0
LINE
  8
0
 10
31.06
 20
-34.05
 11
35.56
 21
-34.05
  0
LINE
  8
0
 10
35.56
 20
-34.05
 11
35.56
 21
-31.19
  0
LINE
  8
0
 10
35.56
 20
-31.19
 11
36.06
 21
-31.19
  0
LINE
  8
0
 10
36.06
 20
-31.19
 11
36.06
 21
31.19
  0
LINE
  8
0
 10
36.06
 20
31.19
 11
35.56
 21
31.19
  0
LINE
  8
0
 10
35.56
 20
31.19
 11
35.56
 21
34.05
  0
LINE
  8
0
 10
35.56
 20
34.05
 11
31.06
 21
34.05
  0
LINE
  8
0
 10
31.06
 20
34.05
 11
31.06
 21
-34.05
  0
LINE
  8
0
 10
32.7107
 20
-31.7856
 11
32.7107
 21
-31.7144
  0
LINE
  8
0
 10
32.7107
 20
-31.7144
 11
32.7167
 21
-31.6435
  0
LINE
  8
0
 10
32.7167
 20
-31.6435
 11
32.7286
 21
-31.5733
  0
LINE
  8
0
 10
32.7286
 20
-31.5733
 11
32.7463
 21
-31.5043
  0
LINE
  8
0
 10
32.7463
 20
-31.5043
 11
32.7697
 21
-31.4371
  0
LINE
  8
0
 10
32.7697
 20
-31.4371
 11
32.7986
 21
-31.3721
  0
LINE
  8
0
 10
32.7986
 20
-31.3721
 11
32.8329
 21
-31.3097
  0
LINE
  8
0
 10
32.8329
 20
-31.3097
 11
32.8723
 21
-31.2504
  0
LINE
  8
0
 10
32.8723
 20
-31.2504
 11
32.9166
 21
-31.1946
  0
LINE
  8
0
 10
32.9166
 20
-31.1946
 11
32.9653
 21
-31.1427
  0
LINE
  8
0
 10
32.9653
 20
-31.1427
 11
33.0182
 21
-31.0951
  0
LINE
  8
0
 10
33.0182
 20
-31.0951
 11
33.0749
 21
-31.052
  0
LINE
  8
0
 10
33.0749
 20
-31.052
 11
33.135
 21
-31.0139
  0
LINE
  8
0
 10
33.135
 20
-31.0139
 11
33.1981
 21
-30.9809
  0
LINE
  8
0
 10
33.1981
 20
-30.9809
 11
33.2637
 21
-30.9533
  0
LINE
  8
0
 10
33.2637
 20
-30.9533
 11
33.3314
 21
-30.9313
  0
LINE
  8
0
 10
33.3314
 20
-30.9313
 11
33.4007
 21
-30.9151
  0
LINE
  8
0
 10
33.4007
 20
-30.9151
 11
33.4711
 21
-30.9047
  0
LINE
  8
0
 10
33.4711
 20
-30.9047
 11
33.5422
 21
-30.9002
  0
LINE
  8
0
 10
33.5422
 20
-30.9002
 11
33.6134
 21
-30.9017
  0
LINE
  8
0
 10
33.6134
 20
-30.9017
 11
33.6842
 21
-30.9091
  0
LINE
  8
0
 10
33.6842
 20
-30.9091
 11
33.7541
 21
-30.9225
  0
LINE
  8
0
 10
33.7541
 20
-30.9225
 11
33.8227
 21
-30.9416
  0
LINE
  8
0
 10
33.8227
 20
-30.9416
 11
33.8894
 21
-30.9664
  0
LINE
  8
0
 10
33.8894
 20
-30.9664
 11
33.9538
 21
-30.9967
  0
LINE
  8
0
 10
33.9538
 20
-30.9967
 11
34.0155
 21
-31.0323
  0
LINE
  8
0
 10
34.0155
 20
-31.0323
 11
34.0739
 21
-31.0729
  0
LINE
  8
0
 10
34.0739
 20
-31.0729
 11
34.1288
 21
-31.1183
  0
LINE
  8
0
 10
34.1288
 20
-31.1183
 11
34.1796
 21
-31.1681
  0
LINE
  8
0
 10
34.1796
 20
-31.1681
 11
34.2261
 21
-31.222
  0
LINE
  8
0
 10
34.2261
 20
-31.222
 11
34.268
 21
-31.2796
  0
LINE
  8
0
 10
34.268
 20
-31.2796
 11
34.3049
 21
-31.3405
  0
LINE
  8
0
 10
34.3049
 20
-31.3405
 11
34.3365
 21
-31.4043
  0
LINE
  8
0
 10
34.3365
 20
-31.4043
 11
34.3627
 21
-31.4705
  0
LINE
  8
0
 10
34.3627
 20
-31.4705
 11
34.3833
 21
-31.5386
  0
LINE
  8
0
 10
34.3833
 20
-31.5386
 11
34.3981
 21
-31.6082
  0
LINE
  8
0
 10
34.3981
 20
-31.6082
 11
34.407
 21
-31.6789
  0
LINE
  8
0
 10
34.407
 20
-31.6789
 11
34.41
 21
-31.75
  0
LINE
  8
0
 10
34.41
 20
-31.75
 11
34.407
 21
-31.8211
  0
LINE
  8
0
 10
34.407
 20
-31.8211
 11
34.3981
 21
-31.8918
  0
LINE
  8
0
 10
34.3981
 20
-31.8918
 11
34.3833
 21
-31.9614
  0
LINE
  8
0
 10
34.3833
 20
-31.9614
 11
34.3627
 21
-32.0295
  0
LINE
  8
0
 10
34.3627
 20
-32.0295
 11
34.3365
 21
-32.0957
  0
LINE
  8
0
 10
34.3365
 20
-32.0957
 11
34.3049
 21
-32.1595
  0
LINE
  8
0
 10
34.3049
 20
-32.1595
 11
34.268
 21
-32.2204
  0
LINE
  8
0
 10
34.268
 20
-32.2204
 11
34.2261
 21
-32.278
  0
LINE
  8
0
 10
34.2261
 20
-32.278
 11
34.1796
 21
-32.3319
  0
LINE
  8
0
 10
34.1796
 20
-32.3319
 11
34.1288
 21
-32.3817
  0
LINE
  8
0
 10
34.1288
 20
-32.3817
 11
34.0739
 21
-32.427
  0
LINE
  8
0
 10
34.0739
 20
-32.427
 11
34.0155
 21
-32.4677
  0
LINE
  8
0
 10
34.0155
 20
-32.4677
 11
33.9538
 21
-32.5033
  0
LINE
  8
0
 10
33.9538
 20
-32.5033
 11
33.8894
 21
-32.5336
  0
LINE
  8
0
 10
33.8894
 20
-32.5336
 11
33.8227
 21
-32.5584
  0
LINE
  8
0
 10
33.8227
 20
-32.5584
 11
33.7541
 21
-32.5775
  0
LINE
  8
0
 10
33.7541
 20
-32.5775
 11
33.6842
 21
-32.5909
  0
LINE
  8
0
 10
33.6842
 20
-32.5909
 11
33.6134
 21
-32.5983
  0
LINE
  8
0
 10
33.6134
 20
-32.5983
 11
33.5422
 21
-32.5998
  0
LINE
  8
0
 10
33.5422
 20
-32.5998
 11
33.4711
 21
-32.5953
  0
LINE
  8
0
 10
33.4711
 20
-32.5953
 11
33.4007
 21
-32.5849
  0
LINE
  8
0
 10
33.4007
 20
-32.5849
 11
33.3314
 21
-32.5687
  0
LINE
  8
0
 10
33.3314
 20
-32.5687
 11
33.2637
 21
-32.5467
  0
LINE
  8
0
 10
33.2637
 20
-32.5467
 11
33.1981
 21
-32.5191
  0
LINE
  8
0
 10
33.1981
 20
-32.5191
 11
33.135
 21
-32.4861
  0
LINE
  8
0
 10
33.135
 20
-32.4861
 11
33.0749
 21
-32.448
  0
LINE
  8
0
 10
33.0749
 20
-32.448
 11
33.0182
 21
-32.4049
  0
LINE
  8
0
 10
33.0182
 20
-32.4049
 11
32.9653
 21
-32.3573
  0
LINE
  8
0
 10
32.9653
 20
-32.3573
 11
32.9166
 21
-32.3054
  0
LINE
  8
0
 10
32.9166
 20
-32.3054
 11
32.8723
 21
-32.2496
  0
LINE
  8
0
 10
32.8723
 20
-32.2496
 11
32.8329
 21
-32.1903
  0
LINE
  8
0
 10
32.8329
 20
-32.1903
 11
32.7986
 21
-32.1279
  0
LINE
  8
0
 10
32.7986
 20
-32.1279
 11
32.7697
 21
-32.0629
  0
LINE
  8
0
 10
32.7697
 20
-32.0629
 11
32.7463
 21
-31.9957
  0
LINE
  8
0
 10
32.7463
 20
-31.9957
 11
32.7286
 21
-31.9267
  0
LINE
  8
0
 10
32.7286
 20
-31.9267
 11
32.7167
 21
-31.8565
  0
LINE
  8
0
 10
32.7167
 20
-31.8565
 11
32.7107
 21
-31.7856
  0
LINE
  8
0
 10
32.7107
 20
-19.0356
 11
32.7107
 21
-18.9644
  0
LINE
  8
0
 10
32.7107
 20
-18.9644
 11
32.7167
 21
-18.8935
  0
LINE
  8
0
 10
32.7167
 20
-18.8935
 11
32.7286
 21
-18.8233
  0
LINE
  8
0
 10
32.7286
 20
-18.8233
 11
32.7463
 21
-18.7543
  0
LINE
  8
0
 10
32.7463
 20
-18.7543
 11
32.7697
 21
-18.6871
  0
LINE
  8
0
 10
32.7697
 20
-18.6871
 11
32.7986
 21
-18.6221
  0
LINE
  8
0
 10
32.7986
 20
-18.6221
 11
32.8329
 21
-18.5597
  0
LINE
  8
0
 10
32.8329
 20
-18.5597
 11
32.8723
 21
-18.5004
  0
LINE
  8
0
 10
32.8723
 20
-18.5004
 11
32.9166
 21
-18.4446
  0
LINE
  8
0
 10
32.9166
 20
-18.4446
 11
32.9653
 21
-18.3927
  0
LINE
  8
0
 10
32.9653
 20
-18.3927
 11
33.0182
 21
-18.3451
  0
LINE
  8
0
 10
33.0182
 20
-18.3451
 11
33.0749
 21
-18.302
  0
LINE
  8
0
 10
33.0749
 20
-18.302
 11
33.135
 21
-18.2639
  0
LINE
  8
0
 10
33.135
 20
-18.2639
 11
33.1981
 21
-18.2309
  0
LINE
  8
0
 10
33.1981
 20
-18.2309
 11
33.2637
 21
-18.2033
  0
LINE
  8
0
 10
33.2637
 20
-18.2033
 11
33.3314
 21
-18.1813
  0
LINE
  8
0
 10
33.3314
 20
-18.1813
 11
33.4007
 21
-18.1651
  0
LINE
  8
0
 10
33.4007
 20
-18.1651
 11
33.4711
 21
-18.1547
  0
LINE
  8
0
 10
33.4711
 20
-18.1547
 11
33.5422
 21
-18.1502
  0
LINE
  8
0
 10
33.5422
 20
-18.1502
 11
33.6134
 21
-18.1517
  0
LINE
  8
0
 10
33.6134
 20
-18.1517
 11
33.6842
 21
-18.1591
  0
LINE
  8
0
 10
33.6842
 20
-18.1591
 11
33.7541
 21
-18.1725
  0
LINE
  8
0
 10
33.7541
 20
-18.1725
 11
33.8227
 21
-18.1916
  0
LINE
  8
0
 10
33.8227
 20
-18.1916
 11
33.8894
 21
-18.2164
  0
LINE
  8
0
 10
33.8894
 20
-18.2164
 11
33.9538
 21
-18.2467
  0
LINE
  8
0
 10
33.9538
 20
-18.2467
 11
34.0155
 21
-18.2823
  0
LINE
  8
0
 10
34.0155
 20
-18.2823
 11
34.0739
 21
-18.3229
  0
LINE
  8
0
 10
34.0739
 20
-18.3229
 11
34.1288
 21
-18.3683
  0
LINE
  8
0
 10
34.1288
 20
-18.3683
 11
34.1796
 21
-18.4181
  0
LINE
  8
0
 10
34.1796
 20
-18.4181
 11
34.2261
 21
-18.472
  0
LINE
  8
0
 10
34.2261
 20
-18.472
 11
34.268
 21
-18.5296
  0
LINE
  8
0
 10
34.268
 20
-18.5296
 11
34.3049
 21
-18.5905
  0
LINE
  8
0
 10
34.3049
 20
-18.5905
 11
34.3365
 21
-18.6543
  0
LINE
  8
0
 10
34.3365
 20
-18.6543
 11
34.3627
 21
-18.7205
  0
LINE
  8
0
 10
34.3627
 20
-18.7205
 11
34.3833
 21
-18.7886
  0
LINE
  8
0
 10
34.3833
 20
-18.7886
 11
34.3981
 21
-18.8582
  0
LINE
  8
0
 10
34.3981
 20
-18.8582
 11
34.407
 21
-18.9289
  0
LINE
  8
0
 10
34.407
 20
-18.9289
 11
34.41
 21
-19
  0
LINE
  8
0
 10
34.41
 20
-19
 11
34.407
 21
-19.0711
  0
LINE
  8
0
 10
34.407
 20
-19.0711
 11
34.3981
 21
-19.1418
  0
LINE
  8
0
 10
34.3981
 20
-19.1418
 11
34.3833
 21
-19.2114
  0
LINE
  8
0
 10
34.3833
 20
-19.2114
 11
34.3627
 21
-19.2795
  0
LINE
  8
0
 10
34.3627
 20
-19.2795
 11
34.3365
 21
-19.3457
  0
LINE
  8
0
 10
34.3365
 20
-19.3457
 11
34.3049
 21
-19.4095
  0
LINE
  8
0
 10
34.3049
 20
-19.4095
 11
34.268
 21
-19.4704
  0
LINE
  8
0
 10
34.268
 20
-19.4704
 11
34.2261
 21
-19.528
  0
LINE
  8
0
 10
34.2261
 20
-19.528
 11
34.1796
 21
-19.5819
  0
LINE
  8
0
 10
34.1796
 20
-19.5819
 11
34.1288
 21
-19.6317
  0
LINE
  8
0
 10
34.1288
 20
-19.6317
 11
34.0739
 21
-19.677
  0
LINE
  8
0
 10
34.0739
 20
-19.677
 11
34.0155
 21
-19.7177
  0
LINE
  8
0
 10
34.0155
 20
-19.7177
 11
33.9538
 21
-19.7533
  0
LINE
  8
0
 10
33.9538
 20
-19.7533
 11
33.8894
 21
-19.7836
  0
LINE
  8
0
 10
33.8894
 20
-19.7836
 11
33.8227
 21
-19.8084
  0
LINE
  8
0
 10
33.8227
 20
-19.8084
 11
33.7541
 21
-19.8275
  0
LINE
  8
0
 10
33.7541
 20
-19.8275
 11
33.6842
 21
-19.8409
  0
LINE
  8
0
 10
33.6842
 20
-19.8409
 11
33.6134
 21
-19.8483
  0
LINE
  8
0
 10
33.6134
 20
-19.8483
 11
33.5422
 21
-19.8498
  0
LINE
  8
0
 10
33.5422
 20
-19.8498
 11
33.4711
 21
-19.8453
  0
LINE
  8
0
 10
33.4711
 20
-19.8453
 11
33.4007
 21
-19.8349
  0
LINE
  8
0
 10
33.4007
 20
-19.8349
 11
33.3314
 21
-19.8187
  0
LINE
  8
0
 10
33.3314
 20
-19.8187
 11
33.2637
 21
-19.7967
  0
LINE
  8
0
 10
33.2637
 20
-19.7967
 11
33.1981
 21
-19.7691
  0
LINE
  8
0
 10
33.1981
 20
-19.7691
 11
33.135
 21
-19.7361
  0
LINE
  8
0
 10
33.135
 20
-19.7361
 11
33.0749
 21
-19.698
  0
LINE
  8
0
 10
33.0749
 20
-19.698
 11
33.0182
 21
-19.6549
  0
LINE
  8
0
 10
33.0182
 20
-19.6549
 11
32.9653
 21
-19.6073
  0
LINE
  8
0
 10
32.9653
 20
-19.6073
 11
32.9166
 21
-19.5554
  0
LINE
  8
0
 10
32.9166
 20
-19.5554
 11
32.8723
 21
-19.4996
  0
LINE
  8
0
 10
32.8723
 20
-19.4996
 11
32.8329
 21
-19.4403
  0
LINE
  8
0
 10
32.8329
 20
-19.4403
 11
32.7986
 21
-19.3779
  0
LINE
  8
0
 10
32.7986
 20
-19.3779
 11
32.7697
 21
-19.3129
  0
LINE
  8
0
 10
32.7697
 20
-19.3129
 11
32.7463
 21
-19.2457
  0
LINE
  8
0
 10
32.7463
 20
-19.2457
 11
32.7286
 21
-19.1767
  0
LINE
  8
0
 10
32.7286
 20
-19.1767
 11
32.7167
 21
-19.1065
  0
LINE
  8
0
 10
32.7167
 20
-19.1065
 11
32.7107
 21
-19.0356
  0
LINE
  8
0
 10
32.7107
 20
-6.28559
 11
32.7107
 21
-6.21441
  0
LINE
  8
0
 10
32.7107
 20
-6.21441
 11
32.7167
 21
-6.14347
  0
LINE
  8
0
 10
32.7167
 20
-6.14347
 11
32.7286
 21
-6.07327
  0
LINE
  8
0
 10
32.7286
 20
-6.07327
 11
32.7463
 21
-6.00432
  0
LINE
  8
0
 10
32.7463
 20
-6.00432
 11
32.7697
 21
-5.93709
  0
LINE
  8
0
 10
32.7697
 20
-5.93709
 11
32.7986
 21
-5.87206
  0
LINE
  8
0
 10
32.7986
 20
-5.87206
 11
32.8329
 21
-5.80968
  0
LINE
  8
0
 10
32.8329
 20
-5.80968
 11
32.8723
 21
-5.75038
  0
LINE
  8
0
 10
32.8723
 20
-5.75038
 11
32.9166
 21
-5.69459
  0
LINE
  8
0
 10
32.9166
 20
-5.69459
 11
32.9653
 21
-5.6427
  0
LINE
  8
0
 10
32.9653
 20
-5.6427
 11
33.0182
 21
-5.59506
  0
LINE
  8
0
 10
33.0182
 20
-5.59506
 11
33.0749
 21
-5.55202
  0
LINE
  8
0
 10
33.0749
 20
-5.55202
 11
33.135
 21
-5.51388
  0
LINE
  8
0
 10
33.135
 20
-5.51388
 11
33.1981
 21
-5.4809
  0
LINE
  8
0
 10
33.1981
 20
-5.4809
 11
33.2637
 21
-5.45331
  0
LINE
  8
0
 10
33.2637
 20
-5.45331
 11
33.3314
 21
-5.43131
  0
LINE
  8
0
 10
33.3314
 20
-5.43131
 11
33.4007
 21
-5.41506
  0
LINE
  8
0
 10
33.4007
 20
-5.41506
 11
33.4711
 21
-5.40466
  0
LINE
  8
0
 10
33.4711
 20
-5.40466
 11
33.5422
 21
-5.40019
  0
LINE
  8
0
 10
33.5422
 20
-5.40019
 11
33.6134
 21
-5.40168
  0
LINE
  8
0
 10
33.6134
 20
-5.40168
 11
33.6842
 21
-5.40912
  0
LINE
  8
0
 10
33.6842
 20
-5.40912
 11
33.7541
 21
-5.42246
  0
LINE
  8
0
 10
33.7541
 20
-5.42246
 11
33.8227
 21
-5.4416
  0
LINE
  8
0
 10
33.8227
 20
-5.4416
 11
33.8894
 21
-5.46642
  0
LINE
  8
0
 10
33.8894
 20
-5.46642
 11
33.9538
 21
-5.49673
  0
LINE
  8
0
 10
33.9538
 20
-5.49673
 11
34.0155
 21
-5.53232
  0
LINE
  8
0
 10
34.0155
 20
-5.53232
 11
34.0739
 21
-5.57295
  0
LINE
  8
0
 10
34.0739
 20
-5.57295
 11
34.1288
 21
-5.61833
  0
LINE
  8
0
 10
34.1288
 20
-5.61833
 11
34.1796
 21
-5.66813
  0
LINE
  8
0
 10
34.1796
 20
-5.66813
 11
34.2261
 21
-5.72202
  0
LINE
  8
0
 10
34.2261
 20
-5.72202
 11
34.268
 21
-5.77962
  0
LINE
  8
0
 10
34.268
 20
-5.77962
 11
34.3049
 21
-5.84051
  0
LINE
  8
0
 10
34.3049
 20
-5.84051
 11
34.3365
 21
-5.90427
  0
LINE
  8
0
 10
34.3365
 20
-5.90427
 11
34.3627
 21
-5.97046
  0
LINE
  8
0
 10
34.3627
 20
-5.97046
 11
34.3833
 21
-6.03861
  0
LINE
  8
0
 10
34.3833
 20
-6.03861
 11
34.3981
 21
-6.10825
  0
LINE
  8
0
 10
34.3981
 20
-6.10825
 11
34.407
 21
-6.17887
  0
LINE
  8
0
 10
34.407
 20
-6.17887
 11
34.41
 21
-6.25
  0
LINE
  8
0
 10
34.41
 20
-6.25
 11
34.407
 21
-6.32113
  0
LINE
  8
0
 10
34.407
 20
-6.32113
 11
34.3981
 21
-6.39175
  0
LINE
  8
0
 10
34.3981
 20
-6.39175
 11
34.3833
 21
-6.46139
  0
LINE
  8
0
 10
34.3833
 20
-6.46139
 11
34.3627
 21
-6.52954
  0
LINE
  8
0
 10
34.3627
 20
-6.52954
 11
34.3365
 21
-6.59573
  0
LINE
  8
0
 10
34.3365
 20
-6.59573
 11
34.3049
 21
-6.65949
  0
LINE
  8
0
 10
34.3049
 20
-6.65949
 11
34.268
 21
-6.72038
  0
LINE
  8
0
 10
34.268
 20
-6.72038
 11
34.2261
 21
-6.77798
  0
LINE
  8
0
 10
34.2261
 20
-6.77798
 11
34.1796
 21
-6.83186
  0
LINE
  8
0
 10
34.1796
 20
-6.83186
 11
34.1288
 21
-6.88167
  0
LINE
  8
0
 10
34.1288
 20
-6.88167
 11
34.0739
 21
-6.92705
  0
LINE
  8
0
 10
34.0739
 20
-6.92705
 11
34.0155
 21
-6.96768
  0
LINE
  8
0
 10
34.0155
 20
-6.96768
 11
33.9538
 21
-7.00327
  0
LINE
  8
0
 10
33.9538
 20
-7.00327
 11
33.8894
 21
-7.03358
  0
LINE
  8
0
 10
33.8894
 20
-7.03358
 11
33.8227
 21
-7.0584
  0
LINE
  8
0
 10
33.8227
 20
-7.0584
 11
33.7541
 21
-7.07754
  0
LINE
  8
0
 10
33.7541
 20
-7.07754
 11
33.6842
 21
-7.09088
  0
LINE
  8
0
 10
33.6842
 20
-7.09088
 11
33.6134
 21
-7.09832
  0
LINE
  8
0
 10
33.6134
 20
-7.09832
 11
33.5422
 21
-7.09981
  0
LINE
  8
0
 10
33.5422
 20
-7.09981
 11
33.4711
 21
-7.09534
  0
LINE
  8
0
 10
33.4711
 20
-7.09534
 11
33.4007
 21
-7.08494
  0
LINE
  8
0
 10
33.4007
 20
-7.08494
 11
33.3314
 21
-7.06869
  0
LINE
  8
0
 10
33.3314
 20
-7.06869
 11
33.2637
 21
-7.04669
  0
LINE
  8
0
 10
33.2637
 20
-7.04669
 11
33.1981
 21
-7.0191
  0
LINE
  8
0
 10
33.1981
 20
-7.0191
 11
33.135
 21
-6.98612
  0
LINE
  8
0
 10
33.135
 20
-6.98612
 11
33.0749
 21
-6.94798
  0
LINE
  8
0
 10
33.0749
 20
-6.94798
 11
33.0182
 21
-6.90494
  0
LINE
  8
0
 10
33.0182
 20
-6.90494
 11
32.9653
 21
-6.8573
  0
LINE
  8
0
 10
32.9653
 20
-6.8573
 11
32.9166
 21
-6.80541
  0
LINE
  8
0
 10
32.9166
 20
-6.80541
 11
32.8723
 21
-6.74962
  0
LINE
  8
0
 10
32.8723
 20
-6.74962
 11
32.8329
 21
-6.69032
  0
LINE
  8
0
 10
32.8329
 20
-6.69032
 11
32.7986
 21
-6.62794
  0
LINE
  8
0
 10
32.7986
 20
-6.62794
 11
32.7697
 21
-6.56291
  0
LINE
  8
0
 10
32.7697
 20
-6.56291
 11
32.7463
 21
-6.49568
  0
LINE
  8
0
 10
32.7463
 20
-6.49568
 11
32.7286
 21
-6.42672
  0
LINE
  8
0
 10
32.7286
 20
-6.42672
 11
32.7167
 21
-6.35653
  0
LINE
  8
0
 10
32.7167
 20
-6.35653
 11
32.7107
 21
-6.28559
  0
LINE
  8
0
 10
32.7107
 20
6.21441
 11
32.7107
 21
6.28559
  0
LINE
  8
0
 10
32.7107
 20
6.28559
 11
32.7167
 21
6.35653
  0
LINE
  8
0
 10
32.7167
 20
6.35653
 11
32.7286
 21
6.42673
  0
LINE
  8
0
 10
32.7286
 20
6.42673
 11
32.7463
 21
6.49568
  0
LINE
  8
0
 10
32.7463
 20
6.49568
 11
32.7697
 21
6.56291
  0
LINE
  8
0
 10
32.7697
 20
6.56291
 11
32.7986
 21
6.62794
  0
LINE
  8
0
 10
32.7986
 20
6.62794
 11
32.8329
 21
6.69032
  0
LINE
  8
0
 10
32.8329
 20
6.69032
 11
32.8723
 21
6.74962
  0
LINE
  8
0
 10
32.8723
 20
6.74962
 11
32.9166
 21
6.80541
  0
LINE
  8
0
 10
32.9166
 20
6.80541
 11
32.9653
 21
6.8573
  0
LINE
  8
0
 10
32.9653
 20
6.8573
 11
33.0182
 21
6.90494
  0
LINE
  8
0
 10
33.0182
 20
6.90494
 11
33.0749
 21
6.94798
  0
LINE
  8
0
 10
33.0749
 20
6.94798
 11
33.135
 21
6.98612
  0
LINE
  8
0
 10
33.135
 20
6.98612
 11
33.1981
 21
7.0191
  0
LINE
  8
0
 10
33.1981
 20
7.0191
 11
33.2637
 21
7.04669
  0
LINE
  8
0
 10
33.2637
 20
7.04669
 11
33.3314
 21
7.06869
  0
LINE
  8
0
 10
33.3314
 20
7.06869
 11
33.4007
 21
7.08494
  0
LINE
  8
0
 10
33.4007
 20
7.08494
 11
33.4711
 21
7.09534
  0
LINE
  8
0
 10
33.4711
 20
7.09534
 11
33.5422
 21
7.09981
  0
LINE
  8
0
 10
33.5422
 20
7.09981
 11
33.6134
 21
7.09832
  0
LINE
  8
0
 10
33.6134
 20
7.09832
 11
33.6842
 21
7.09088
  0
LINE
  8
0
 10
33.6842
 20
7.09088
 11
33.7541
 21
7.07754
  0
LINE
  8
0
 10
33.7541
 20
7.07754
 11
33.8227
 21
7.0584
  0
LINE
  8
0
 10
33.8227
 20
7.0584
 11
33.8894
 21
7.03358
  0
LINE
  8
0
 10
33.8894
 20
7.03358
 11
33.9538
 21
7.00327
  0
LINE
  8
0
 10
33.9538
 20
7.00327
 11
34.0155
 21
6.96768
  0
LINE
  8
0
 10
34.0155
 20
6.96768
 11
34.0739
 21
6.92705
  0
LINE
  8
0
 10
34.0739
 20
6.92705
 11
34.1288
 21
6.88167
  0
LINE
  8
0
 10
34.1288
 20
6.88167
 11
34.1796
 21
6.83187
  0
LINE
  8
0
 10
34.1796
 20
6.83187
 11
34.2261
 21
6.77798
  0
LINE
  8
0
 10
34.2261
 20
6.77798
 11
34.268
 21
6.72038
  0
LINE
  8
0
 10
34.268
 20
6.72038
 11
34.3049
 21
6.65949
  0
LINE
  8
0
 10
34.3049
 20
6.65949
 11
34.3365
 21
6.59573
  0
LINE
  8
0
 10
34.3365
 20
6.59573
 11
34.3627
 21
6.52954
  0
LINE
  8
0
 10
34.3627
 20
6.52954
 11
34.3833
 21
6.46139
  0
LINE
  8
0
 10
34.3833
 20
6.46139
 11
34.3981
 21
6.39175
  0
LINE
  8
0
 10
34.3981
 20
6.39175
 11
34.407
 21
6.32113
  0
LINE
  8
0
 10
34.407
 20
6.32113
 11
34.41
 21
6.25
  0
LINE
  8
0
 10
34.41
 20
6.25
 11
34.407
 21
6.17887
  0
LINE
  8
0
 10
34.407
 20
6.17887
 11
34.3981
 21
6.10825
  0
LINE
  8
0
 10
34.3981
 20
6.10825
 11
34.3833
 21
6.03861
  0
LINE
  8
0
 10
34.3833
 20
6.03861
 11
34.3627
 21
5.97046
  0
LINE
  8
0
 10
34.3627
 20
5.97046
 11
34.3365
 21
5.90427
  0
LINE
  8
0
 10
34.3365
 20
5.90427
 11
34.3049
 21
5.84051
  0
LINE
  8
0
 10
34.3049
 20
5.84051
 11
34.268
 21
5.77962
  0
LINE
  8
0
 10
34.268
 20
5.77962
 11
34.2261
 21
5.72202
  0
LINE
  8
0
 10
34.2261
 20
5.72202
 11
34.1796
 21
5.66814
  0
LINE
  8
0
 10
34.1796
 20
5.66814
 11
34.1288
 21
5.61833
  0
LINE
  8
0
 10
34.1288
 20
5.61833
 11
34.0739
 21
5.57295
  0
LINE
  8
0
 10
34.0739
 20
5.57295
 11
34.0155
 21
5.53232
  0
LINE
  8
0
 10
34.0155
 20
5.53232
 11
33.9538
 21
5.49673
  0
LINE
  8
0
 10
33.9538
 20
5.49673
 11
33.8894
 21
5.46642
  0
LINE
  8
0
 10
33.8894
 20
5.46642
 11
33.8227
 21
5.4416
  0
LINE
  8
0
 10
33.8227
 20
5.4416
 11
33.7541
 21
5.42246
  0
LINE
  8
0
 10
33.7541
 20
5.42246
 11
33.6842
 21
5.40912
  0
LINE
  8
0
 10
33.6842
 20
5.40912
 11
33.6134
 21
5.40168
  0
LINE
  8
0
 10
33.6134
 20
5.40168
 11
33.5422
 21
5.40019
  0
LINE
  8
0
 10
33.5422
 20
5.40019
 11
33.4711
 21
5.40466
  0
LINE
  8
0
 10
33.4711
 20
5.40466
 11
33.4007
 21
5.41506
  0
LINE
  8
0
 10
33.4007
 20
5.41506
 11
33.3314
 21
5.43131
  0
LINE
  8
0
 10
33.3314
 20
5.43131
 11
33.2637
 21
5.45331
  0
LINE
  8
0
 10
33.2637
 20
5.45331
 11
33.1981
 21
5.4809
  0
LINE
  8
0
 10
33.1981
 20
5.4809
 11
33.135
 21
5.51388
  0
LINE
  8
0
 10
33.135
 20
5.51388
 11
33.0749
 21
5.55202
  0
LINE
  8
0
 10
33.0749
 20
5.55202
 11
33.0182
 21
5.59506
  0
LINE
  8
0
 10
33.0182
 20
5.59506
 11
32.9653
 21
5.6427
  0
LINE
  8
0
 10
32.9653
 20
5.6427
 11
32.9166
 21
5.69459
  0
LINE
  8
0
 10
32.9166
 20
5.69459
 11
32.8723
 21
5.75038
  0
LINE
  8
0
 10
32.8723
 20
5.75038
 11
32.8329
 21
5.80968
  0
LINE
  8
0
 10
32.8329
 20
5.80968
 11
32.7986
 21
5.87206
  0
LINE
  8
0
 10
32.7986
 20
5.87206
 11
32.7697
 21
5.93709
  0
LINE
  8
0
 10
32.7697
 20
5.93709
 11
32.7463
 21
6.00432
  0
LINE
  8
0
 10
32.7463
 20
6.00432
 11
32.7286
 21
6.07328
  0
LINE
  8
0
 10
32.7286
 20
6.07328
 11
32.7167
 21
6.14347
  0
LINE
  8
0
 10
32.7167
 20
6.14347
 11
32.7107
 21
6.21441
  0
LINE
  8
0
 10
32.7107
 20
18.9644
 11
32.7107
 21
19.0356
  0
LINE
  8
0
 10
32.7107
 20
19.0356
 11
32.7167
 21
19.1065
  0
LINE
  8
0
 10
32.7167
 20
19.1065
 11
32.7286
 21
19.1767
  0
LINE
  8
0
 10
32.7286
 20
19.1767
 11
32.7463
 21
19.2457
  0
LINE
  8
0
 10
32.7463
 20
19.2457
 11
32.7697
 21
19.3129
  0
LINE
  8
0
 10
32.7697
 20
19.3129
 11
32.7986
 21
19.3779
  0
LINE
  8
0
 10
32.7986
 20
19.3779
 11
32.8329
 21
19.4403
  0
LINE
  8
0
 10
32.8329
 20
19.4403
 11
32.8723
 21
19.4996
  0
LINE
  8
0
 10
32.8723
 20
19.4996
 11
32.9166
 21
19.5554
  0
LINE
  8
0
 10
32.9166
 20
19.5554
 11
32.9653
 21
19.6073
  0
LINE
  8
0
 10
32.9653
 20
19.6073
 11
33.0182
 21
19.6549
  0
LINE
  8
0
 10
33.0182
 20
19.6549
 11
33.0749
 21
19.698
  0
LINE
  8
0
 10
33.0749
 20
19.698
 11
33.135
 21
19.7361
  0
LINE
  8
0
 10
33.135
 20
19.7361
 11
33.1981
 21
19.7691
  0
LINE
  8
0
 10
33.1981
 20
19.7691
 11
33.2637
 21
19.7967
  0
LINE
  8
0
 10
33.2637
 20
19.7967
 11
33.3314
 21
19.8187
  0
LINE
  8
0
 10
33.3314
 20
19.8187
 11
33.4007
 21
19.8349
  0
LINE
  8
0
 10
33.4007
 20
19.8349
 11
33.4711
 21
19.8453
  0
LINE
  8
0
 10
33.4711
 20
19.8453
 11
33.5422
 21
19.8498
  0
LINE
  8
0
 10
33.5422
 20
19.8498
 11
33.6134
 21
19.8483
  0
LINE
  8
0
 10
33.6134
 20
19.8483
 11
33.6842
 21
19.8409
  0
LINE
  8
0
 10
33.6842
 20
19.8409
 11
33.7541
 21
19.8275
  0
LINE
  8
0
 10
33.7541
 20
19.8275
 11
33.8227
 21
19.8084
  0
LINE
  8
0
 10
33.8227
 20
19.8084
 11
33.8894
 21
19.7836
  0
LINE
  8
0
 10
33.8894
 20
19.7836
 11
33.9538
 21
19.7533
  0
LINE
  8
0
 10
33.9538
 20
19.7533
 11
34.0155
 21
19.7177
  0
LINE
  8
0
 10
34.0155
 20
19.7177
 11
34.0739
 21
19.6771
  0
LINE
  8
0
 10
34.0739
 20
19.6771
 11
34.1288
 21
19.6317
  0
LINE
  8
0
 10
34.1288
 20
19.6317
 11
34.1796
 21
19.5819
  0
LINE
  8
0
 10
34.1796
 20
19.5819
 11
34.2261
 21
19.528
  0
LINE
  8
0
 10
34.2261
 20
19.528
 11
34.268
 21
19.4704
  0
LINE
  8
0
 10
34.268
 20
19.4704
 11
34.3049
 21
19.4095
  0
LINE
  8
0
 10
34.3049
 20
19.4095
 11
34.3365
 21
19.3457
  0
LINE
  8
0
 10
34.3365
 20
19.3457
 11
34.3627
 21
19.2795
  0
LINE
  8
0
 10
34.3627
 20
19.2795
 11
34.3833
 21
19.2114
  0
LINE
  8
0
 10
34.3833
 20
19.2114
 11
34.3981
 21
19.1418
  0
LINE
  8
0
 10
34.3981
 20
19.1418
 11
34.407
 21
19.0711
  0
LINE
  8
0
 10
34.407
 20
19.0711
 11
34.41
 21
19
  0
LINE
  8
0
 10
34.41
 20
19
 11
34.407
 21
18.9289
  0
LINE
  8
0
 10
34.407
 20
18.9289
 11
34.3981
 21
18.8582
  0
LINE
  8
0
 10
34.3981
 20
18.8582
 11
34.3833
 21
18.7886
  0
LINE
  8
0
 10
34.3833
 20
18.7886
 11
34.3627
 21
18.7205
  0
LINE
  8
0
 10
34.3627
 20
18.7205
 11
34.3365
 21
18.6543
  0
LINE
  8
0
 10
34.3365
 20
18.6543
 11
34.3049
 21
18.5905
  0
LINE
  8
0
 10
34.3049
 20
18.5905
 11
34.268
 21
18.5296
  0
LINE
  8
0
 10
34.268
 20
18.5296
 11
34.2261
 21
18.472
  0
LINE
  8
0
 10
34.2261
 20
18.472
 11
34.1796
 21
18.4181
  0
LINE
  8
0
 10
34.1796
 20
18.4181
 11
34.1288
 21
18.3683
  0
LINE
  8
0
 10
34.1288
 20
18.3683
 11
34.0739
 21
18.323
  0
LINE
  8
0
 10
34.0739
 20
18.323
 11
34.0155
 21
18.2823
  0
LINE
  8
0
 10
34.0155
 20
18.2823
 11
33.9538
 21
18.2467
  0
LINE
  8
0
 10
33.9538
 20
18.2467
 11
33.8894
 21
18.2164
  0
LINE
  8
0
 10
33.8894
 20
18.2164
 11
33.8227
 21
18.1916
  0
LINE
  8
0
 10
33.8227
 20
18.1916
 11
33.7541
 21
18.1725
  0
LINE
  8
0
 10
33.7541
 20
18.1725
 11
33.6842
 21
18.1591
  0
LINE
  8
0
 10
33.6842
 20
18.1591
 11
33.6134
 21
18.1517
  0
LINE
  8
0
 10
33.6134
 20
18.1517
 11
33.5422
 21
18.1502
  0
LINE
  8
0
 10
33.5422
 20
18.1502
 11
33.4711
 21
18.1547
  0
LINE
  8
0
 10
33.4711
 20
18.1547
 11
33.4007
 21
18.1651
  0
LINE
  8
0
 10
33.4007
 20
18.1651
 11
33.3314
 21
18.1813
  0
LINE
  8
0
 10
33.3314
 20
18.1813
 11
33.2637
 21
18.2033
  0
LINE
  8
0
 10
33.2637
 20
18.2033
 11
33.1981
 21
18.2309
  0
LINE
  8
0
 10
33.1981
 20
18.2309
 11
33.135
 21
18.2639
  0
LINE
  8
0
 10
33.135
 20
18.2639
 11
33.0749
 21
18.302
  0
LINE
  8
0
 10
33.0749
 20
18.302
 11
33.0182
 21
18.3451
  0
LINE
  8
0
 10
33.0182
 20
18.3451
 11
32.9653
 21
18.3927
  0
LINE
  8
0
 10
32.9653
 20
18.3927
 11
32.9166
 21
18.4446
  0
LINE
  8
0
 10
32.9166
 20
18.4446
 11
32.8723
 21
18.5004
  0
LINE
  8
0
 10
32.8723
 20
18.5004
 11
32.8329
 21
18.5597
  0
LINE
  8
0
 10
32.8329
 20
18.5597
 11
32.7986
 21
18.6221
  0
LINE
  8
0
 10
32.7986
 20
18.6221
 11
32.7697
 21
18.6871
  0
LINE
  8
0
 10
32.7697
 20
18.6871
 11
32.7463
 21
18.7543
  0
LINE
  8
0
 10
32.7463
 20
18.7543
 11
32.7286
 21
18.8233
  0
LINE
  8
0
 10
32.7286
 20
18.8233
 11
32.7167
 21
18.8935
  0
LINE
  8
0
 10
32.7167
 20
18.8935
 11
32.7107
 21
18.9644
  0
LINE
  8
0
 10
32.7107
 20
31.7144
 11
32.7107
 21
31.7856
  0
LINE
  8
0
 10
32.7107
 20
31.7856
 11
32.7167
 21
31.8565
  0
LINE
  8
0
 10
32.7167
 20
31.8565
 11
32.7286
 21
31.9267
  0
LINE
  8
0
 10
32.7286
 20
31.9267
 11
32.7463
 21
31.9957
  0
LINE
  8
0
 10
32.7463
 20
31.9957
 11
32.7697
 21
32.0629
  0
LINE
  8
0
 10
32.7697
 20
32.0629
 11
32.7986
 21
32.1279
  0
LINE
  8
0
 10
32.7986
 20
32.1279
 11
32.8329
 21
32.1903
  0
LINE
  8
0
 10
32.8329
 20
32.1903
 11
32.8723
 21
32.2496
  0
LINE
  8
0
 10
32.8723
 20
32.2496
 11
32.9166
 21
32.3054
  0
LINE
  8
0
 10
32.9166
 20
32.3054
 11
32.9653
 21
32.3573
  0
LINE
  8
0
 10
32.9653
 20
32.3573
 11
33.0182
 21
32.4049
  0
LINE
  8
0
 10
33.0182
 20
32.4049
 11
33.0749
 21
32.448
  0
LINE
  8
0
 10
33.0749
 20
32.448
 11
33.135
 21
32.4861
  0
LINE
  8
0
 10
33.135
 20
32.4861
 11
33.1981
 21
32.5191
  0
LINE
  8
0
 10
33.1981
 20
32.5191
 11
33.2637
 21
32.5467
  0
LINE
  8
0
 10
33.2637
 20
32.5467
 11
33.3314
 21
32.5687
  0
LINE
  8
0
 10
33.3314
 20
32.5687
 11
33.4007
 21
32.5849
  0
LINE
  8
0
 10
33.4007
 20
32.5849
 11
33.4711
 21
32.5953
  0
LINE
  8
0
 10
33.4711
 20
32.5953
 11
33.5422
 21
32.5998
  0
LINE
  8
0
 10
33.5422
 20
32.5998
 11
33.6134
 21
32.5983
  0
LINE
  8
0
 10
33.6134
 20
32.5983
 11
33.6842
 21
32.5909
  0
LINE
  8
0
 10
33.6842
 20
32.5909
 11
33.7541
 21
32.5775
  0
LINE
  8
0
 10
33.7541
 20
32.5775
 11
33.8227
 21
32.5584
  0
LINE
  8
0
 10
33.8227
 20
32.5584
 11
33.8894
 21
32.5336
  0
LINE
  8
0
 10
33.8894
 20
32.5336
 11
33.9538
 21
32.5033
  0
LINE
  8
0
 10
33.9538
 20
32.5033
 11
34.0155
 21
32.4677
  0
LINE
  8
0
 10
34.0155
 20
32.4677
 11
34.0739
 21
32.4271
  0
LINE
  8
0
 10
34.0739
 20
32.4271
 11
34.1288
 21
32.3817
  0
LINE
  8
0
 10
34.1288
 20
32.3817
 11
34.1796
 21
32.3319
  0
LINE
  8
0
 10
34.1796
 20
32.3319
 11
34.2261
 21
32.278
  0
LINE
  8
0
 10
34.2261
 20
32.278
 11
34.268
 21
32.2204
  0
LINE
  8
0
 10
34.268
 20
32.2204
 11
34.3049
 21
32.1595
  0
LINE
  8
0
 10
34.3049
 20
32.1595
 11
34.3365
 21
32.0957
  0
LINE
  8
0
 10
34.3365
 20
32.0957
 11
34.3627
 21
32.0295
  0
LINE
  8
0
 10
34.3627
 20
32.0295
 11
34.3833
 21
31.9614
  0
LINE
  8
0
 10
34.3833
 20
31.9614
 11
34.3981
 21
31.8918
  0
LINE
  8
0
 10
34.3981
 20
31.8918
 11
34.407
 21
31.8211
  0
LINE
  8
0
 10
34.407
 20
31.8211
 11
34.41
 21
31.75
  0
LINE
  8
0
 10
34.41
 20
31.75
 11
34.407
 21
31.6789
  0
LINE
  8
0
 10
34.407
 20
31.6789
 11
34.3981
 21
31.6082
  0
LINE
  8
0
 10
34.3981
 20
31.6082
 11
34.3833
 21
31.5386
  0
LINE
  8
0
 10
34.3833
 20
31.5386
 11
34.3627
 21
31.4705
  0
LINE
  8
0
 10
34.3627
 20
31.4705
 11
34.3365
 21
31.4043
  0
LINE
  8
0
 10
34.3365
 20
31.4043
 11
34.3049
 21
31.3405
  0
LINE
  8
0
 10
34.3049
 20
31.3405
 11
34.268
 21
31.2796
  0
LINE
  8
0
 10
34.268
 20
31.2796
 11
34.2261
 21
31.222
  0
LINE
  8
0
 10
34.2261
 20
31.222
 11
34.1796
 21
31.1681
  0
LINE
  8
0
 10
34.1796
 20
31.1681
 11
34.1288
 21
31.1183
  0
LINE
  8
0
 10
34.1288
 20
31.1183
 11
34.0739
 21
31.073
  0
LINE
  8
0
 10
34.0739
 20
31.073
 11
34.0155
 21
31.0323
  0
LINE
  8
0
 10
34.0155
 20
31.0323
 11
33.9538
 21
30.9967
  0
LINE
  8
0
 10
33.9538
 20
30.9967
 11
33.8894
 21
30.9664
  0
LINE
  8
0
 10
33.8894
 20
30.9664
 11
33.8227
 21
30.9416
  0
LINE
  8
0
 10
33.8227
 20
30.9416
 11
33.7541
 21
30.9225
  0
LINE
  8
0
 10
33.7541
 20
30.9225
 11
33.6842
 21
30.9091
  0
LINE
  8
0
 10
33.6842
 20
30.9091
 11
33.6134
 21
30.9017
  0
LINE
  8
0
 10
33.6134
 20
30.9017
 11
33.5422
 21
30.9002
  0
LINE
  8
0
 10
33.5422
 20
30.9002
 11
33.4711
 21
30.9047
  0
LINE
  8
0
 10
33.4711
 20
30.9047
 11
33.4007
 21
30.9151
  0
LINE
  8
0
 10
33.4007
 20
30.9151
 11
33.3314
 21
30.9313
  0
LINE
  8
0
 10
33.3314
 20
30.9313
 11
33.2637
 21
30.9533
  0
LINE
  8
0
 10
33.2637
 20
30.9533
 11
33.1981
 21
30.9809
  0
LINE
  8
0
 10
33.1981
 20
30.9809
 11
33.135
 21
31.0139
  0
LINE
  8
0
 10
33.135
 20
31.0139
 11
33.0749
 21
31.052
  0
LINE
  8
0
 10
33.0749
 20
31.052
 11
33.0182
 21
31.0951
  0
LINE
  8
0
 10
33.0182
 20
31.0951
 11
32.9653
 21
31.1427
  0
LINE
  8
0
 10
32.9653
 20
31.1427
 11
32.9166
 21
31.1946
  0
LINE
  8
0
 10
32.9166
 20
31.1946
 11
32.8723
 21
31.2504
  0
LINE
  8
0
 10
32.8723
 20
31.2504
 11
32.8329
 21
31.3097
  0
LINE
  8
0
 10
32.8329
 20
31.3097
 11
32.7986
 21
31.3721
  0
LINE
  8
0
 10
32.7986
 20
31.3721
 11
32.7697
 21
31.4371
  0
LINE
  8
0
 10
32.7697
 20
31.4371
 11
32.7463
 21
31.5043
  0
LINE
  8
0
 10
32.7463
 20
31.5043
 11
32.7286
 21
31.5733
  0
LINE
  8
0
 10
32.7286
 20
31.5733
 11
32.7167
 21
31.6435
  0
LINE
  8
0
 10
32.7167
 20
31.6435
 11
32.7107
 21
31.7144
  0
LINE
  8
0
 10
31.06
 20
35.95
 11
35.56
 21
35.95
  0
LINE
  8
0
 10
35.56
 20
35.95
 11
35.56
 21
38.81
  0
LINE
  8
0
 10
35.56
 20
38.81
 11
36.06
 21
38.81
  0
LINE
  8
0
 10
36.06
 20
38.81
 11
36.06
 21
41.5
  0
LINE
  8
0
 10
36.06
 20
41.5
 11
31.06
 21
41.5
  0
LINE
  8
0
 10
31.06
 20
41.5
 11
31.06
 21
35.95
  0
LINE
  8
0
 10
32.7107
 20
37.9644
 11
32.7107
 21
38.0356
  0
LINE
  8
0
 10
32.7107
 20
38.0356
 11
32.7167
 21
38.1065
  0
LINE
  8
0
 10
32.7167
 20
38.1065
 11
32.7286
 21
38.1767
  0
LINE
  8
0
 10
32.7286
 20
38.1767
 11
32.7463
 21
38.2457
  0
LINE
  8
0
 10
32.7463
 20
38.2457
 11
32.7697
 21
38.3129
  0
LINE
  8
0
 10
32.7697
 20
38.3129
 11
32.7986
 21
38.3779
  0
LINE
  8
0
 10
32.7986
 20
38.3779
 11
32.8329
 21
38.4403
  0
LINE
  8
0
 10
32.8329
 20
38.4403
 11
32.8723
 21
38.4996
  0
LINE
  8
0
 10
32.8723
 20
38.4996
 11
32.9166
 21
38.5554
  0
LINE
  8
0
 10
32.9166
 20
38.5554
 11
32.9653
 21
38.6073
  0
LINE
  8
0
 10
32.9653
 20
38.6073
 11
33.0182
 21
38.6549
  0
LINE
  8
0
 10
33.0182
 20
38.6549
 11
33.0749
 21
38.698
  0
LINE
  8
0
 10
33.0749
 20
38.698
 11
33.135
 21
38.7361
  0
LINE
  8
0
 10
33.135
 20
38.7361
 11
33.1981
 21
38.7691
  0
LINE
  8
0
 10
33.1981
 20
38.7691
 11
33.2637
 21
38.7967
  0
LINE
  8
0
 10
33.2637
 20
38.7967
 11
33.3314
 21
38.8187
  0
LINE
  8
0
 10
33.3314
 20
38.8187
 11
33.4007
 21
38.8349
  0
LINE
  8
0
 10
33.4007
 20
38.8349
 11
33.4711
 21
38.8453
  0
LINE
  8
0
 10
33.4711
 20
38.8453
 11
33.5422
 21
38.8498
  0
LINE
  8
0
 10
33.5422
 20
38.8498
 11
33.6134
 21
38.8483
  0
LINE
  8
0
 10
33.6134
 20
38.8483
 11
33.6842
 21
38.8409
  0
LINE
  8
0
 10
33.6842
 20
38.8409
 11
33.7541
 21
38.8275
  0
LINE
  8
0
 10
33.7541
 20
38.8275
 11
33.8227
 21
38.8084
  0
LINE
  8
0
 10
33.8227
 20
38.8084
 11
33.8894
 21
38.7836
  0
LINE
  8
0
 10
33.8894
 20
38.7836
 11
33.9538
 21
38.7533
  0
LINE
  8
0
 10
33.9538
 20
38.7533
 11
34.0155
 21
38.7177
  0
LINE
  8
0
 10
34.0155
 20
38.7177
 11
34.0739
 21
38.6771
  0
LINE
  8
0
 10
34.0739
 20
38.6771
 11
34.1288
 21
38.6317
  0
LINE
  8
0
 10
34.1288
 20
38.6317
 11
34.1796
 21
38.5819
  0
LINE
  8
0
 10
34.1796
 20
38.5819
 11
34.2261
 21
38.528
  0
LINE
  8
0
 10
34.2261
 20
38.528
 11
34.268
 21
38.4704
  0
LINE
  8
0
 10
34.268
 20
38.4704
 11
34.3049
 21
38.4095
  0
LINE
  8
0
 10
34.3049
 20
38.4095
 11
34.3365
 21
38.3457
  0
LINE
  8
0
 10
34.3365
 20
38.3457
 11
34.3627
 21
38.2795
  0
LINE
  8
0
 10
34.3627
 20
38.2795
 11
34.3833
 21
38.2114
  0
LINE
  8
0
 10
34.3833
 20
38.2114
 11
34.3981
 21
38.1418
  0
LINE
  8
0
 10
34.3981
 20
38.1418
 11
34.407
 21
38.0711
  0
LINE
  8
0
 10
34.407
 20
38.0711
 11
34.41
 21
38
  0
LINE
  8
0
 10
34.41
 20
38
 11
34.407
 21
37.9289
  0
LINE
  8
0
 10
34.407
 20
37.9289
 11
34.3981
 21
37.8582
  0
LINE
  8
0
 10
34.3981
 20
37.8582
 11
34.3833
 21
37.7886
  0
LINE
  8
0
 10
34.3833
 20
37.7886
 11
34.3627
 21
37.7205
  0
LINE
  8
0
 10
34.3627
 20
37.7205
 11
34.3365
 21
37.6543
  0
LINE
  8
0
 10
34.3365
 20
37.6543
 11
34.3049
 21
37.5905
  0
LINE
  8
0
 10
34.3049
 20
37.5905
 11
34.268
 21
37.5296
  0
LINE
  8
0
 10
34.268
 20
37.5296
 11
34.2261
 21
37.472
  0
LINE
  8
0
 10
34.2261
 20
37.472
 11
34.1796
 21
37.4181
  0
LINE
  8
0
 10
34.1796
 20
37.4181
 11
34.1288
 21
37.3683
  0
LINE
  8
0
 10
34.1288
 20
37.3683
 11
34.0739
 21
37.323
  0
LINE
  8
0
 10
34.0739
 20
37.323
 11
34.0155
 21
37.2823
  0
LINE
  8
0
 10
34.0155
 20
37.2823
 11
33.9538
 21
37.2467
  0
LINE
  8
0
 10
33.9538
 20
37.2467
 11
33.8894
 21
37.2164
  0
LINE
  8
0
 10
33.8894
 20
37.2164
 11
33.8227
 21
37.1916
  0
LINE
  8
0
 10
33.8227
 20
37.1916
 11
33.7541
 21
37.1725
  0
LINE
  8
0
 10
33.7541
 20
37.1725
 11
33.6842
 21
37.1591
  0
LINE
  8
0
 10
33.6842
 20
37.1591
 11
33.6134
 21
37.1517
  0
LINE
  8
0
 10
33.6134
 20
37.1517
 11
33.5422
 21
37.1502
  0
LINE
  8
0
 10
33.5422
 20
37.1502
 11
33.4711
 21
37.1547
  0
LINE
  8
0
 10
33.4711
 20
37.1547
 11
33.4007
 21
37.1651
  0
LINE
  8
0
 10
33.4007
 20
37.1651
 11
33.3314
 21
37.1813
  0
LINE
  8
0
 10
33.3314
 20
37.1813
 11
33.2637
 21
37.2033
  0
LINE
  8
0
 10
33.2637
 20
37.2033
 11
33.1981
 21
37.2309
  0
LINE
  8
0
 10
33.1981
 20
37.2309
 11
33.135
 21
37.2639
  0
LINE
  8
0
 10
33.135
 20
37.2639
 11
33.0749
 21
37.302
  0
LINE
  8
0
 10
33.0749
 20
37.302
 11
33.0182
 21
37.3451
  0
LINE
  8
0
 10
33.0182
 20
37.3451
 11
32.9653
 21
37.3927
  0
LINE
  8
0
 10
32.9653
 20
37.3927
 11
32.9166
 21
37.4446
  0
LINE
  8
0
 10
32.9166
 20
37.4446
 11
32.8723
 21
37.5004
  0
LINE
  8
0
 10
32.8723
 20
37.5004
 11
32.8329
 21
37.5597
  0
LINE
  8
0
 10
32.8329
 20
37.5597
 11
32.7986
 21
37.6221
  0
LINE
  8
0
 10
32.7986
 20
37.6221
 11
32.7697
 21
37.6871
  0
LINE
  8
0
 10
32.7697
 20
37.6871
 11
32.7463
 21
37.7543
  0
LINE
  8
0
 10
32.7463
 20
37.7543
 11
32.7286
 21
37.8233
  0
LINE
  8
0
 10
32.7286
 20
37.8233
 11
32.7167
 21
37.8935
  0
LINE
  8
0
 10
32.7167
 20
37.8935
 11
32.7107
 21
37.9644
  0
ENDSEC
  0
SECTION
  2
OBJECTS
  0
DICTIONARY
  0
ENDSEC
  0
EOF
