  0
SECTION
  2
BLOCKS
  0
ENDSEC
  0
SECTION
  2
ENTITIES
  0
LINE
  8
0
 10
36.06
 20
41.5
 11
31.06
 21
41.5
  0
LINE
  8
0
 10
31.06
 20
41.5
 11
31.06
 21
-41.5
  0
LINE
  8
0
 10
31.06
 20
-41.5
 11
36.06
 21
-41.5
  0
LINE
  8
0
 10
36.06
 20
-41.5
 11
36.06
 21
41.5
  0
LINE
  8
0
 10
33.5268
 20
37.6842
 11
33.5005
 21
37.6881
  0
LINE
  8
0
 10
33.5005
 20
37.6881
 11
33.4746
 21
37.6942
  0
LINE
  8
0
 10
33.4746
 20
37.6942
 11
33.4493
 21
37.7024
  0
LINE
  8
0
 10
33.4493
 20
37.7024
 11
33.4248
 21
37.7127
  0
LINE
  8
0
 10
33.4248
 20
37.7127
 11
33.4012
 21
37.725
  0
LINE
  8
0
 10
33.4012
 20
37.725
 11
33.3788
 21
37.7393
  0
LINE
  8
0
 10
33.3788
 20
37.7393
 11
33.3576
 21
37.7554
  0
LINE
  8
0
 10
33.3576
 20
37.7554
 11
33.3378
 21
37.7731
  0
LINE
  8
0
 10
33.3378
 20
37.7731
 11
33.3196
 21
37.7925
  0
LINE
  8
0
 10
33.3196
 20
37.7925
 11
33.3031
 21
37.8134
  0
LINE
  8
0
 10
33.3031
 20
37.8134
 11
33.2884
 21
37.8355
  0
LINE
  8
0
 10
33.2884
 20
37.8355
 11
33.2756
 21
37.8588
  0
LINE
  8
0
 10
33.2756
 20
37.8588
 11
33.2648
 21
37.8831
  0
LINE
  8
0
 10
33.2648
 20
37.8831
 11
33.256
 21
37.9082
  0
LINE
  8
0
 10
33.256
 20
37.9082
 11
33.2494
 21
37.934
  0
LINE
  8
0
 10
33.2494
 20
37.934
 11
33.245
 21
37.9602
  0
LINE
  8
0
 10
33.245
 20
37.9602
 11
33.2428
 21
37.9867
  0
LINE
  8
0
 10
33.2428
 20
37.9867
 11
33.2428
 21
38.0133
  0
LINE
  8
0
 10
33.2428
 20
38.0133
 11
33.245
 21
38.0398
  0
LINE
  8
0
 10
33.245
 20
38.0398
 11
33.2494
 21
38.066
  0
LINE
  8
0
 10
33.2494
 20
38.066
 11
33.256
 21
38.0918
  0
LINE
  8
0
 10
33.256
 20
38.0918
 11
33.2648
 21
38.1169
  0
LINE
  8
0
 10
33.2648
 20
38.1169
 11
33.2756
 21
38.1412
  0
LINE
  8
0
 10
33.2756
 20
38.1412
 11
33.2884
 21
38.1645
  0
LINE
  8
0
 10
33.2884
 20
38.1645
 11
33.3031
 21
38.1866
  0
LINE
  8
0
 10
33.3031
 20
38.1866
 11
33.3196
 21
38.2075
  0
LINE
  8
0
 10
33.3196
 20
38.2075
 11
33.3378
 21
38.2268
  0
LINE
  8
0
 10
33.3378
 20
38.2268
 11
33.3576
 21
38.2446
  0
LINE
  8
0
 10
33.3576
 20
38.2446
 11
33.3788
 21
38.2607
  0
LINE
  8
0
 10
33.3788
 20
38.2607
 11
33.4012
 21
38.275
  0
LINE
  8
0
 10
33.4012
 20
38.275
 11
33.4248
 21
38.2873
  0
LINE
  8
0
 10
33.4248
 20
38.2873
 11
33.4493
 21
38.2976
  0
LINE
  8
0
 10
33.4493
 20
38.2976
 11
33.4746
 21
38.3058
  0
LINE
  8
0
 10
33.4746
 20
38.3058
 11
33.5005
 21
38.3119
  0
LINE
  8
0
 10
33.5005
 20
38.3119
 11
33.5268
 21
38.3158
  0
LINE
  8
0
 10
33.5268
 20
38.3158
 11
33.5533
 21
38.3174
  0
LINE
  8
0
 10
33.5533
 20
38.3174
 11
33.5799
 21
38.3169
  0
LINE
  8
0
 10
33.5799
 20
38.3169
 11
33.6064
 21
38.3141
  0
LINE
  8
0
 10
33.6064
 20
38.3141
 11
33.6325
 21
38.3091
  0
LINE
  8
0
 10
33.6325
 20
38.3091
 11
33.6581
 21
38.302
  0
LINE
  8
0
 10
33.6581
 20
38.302
 11
33.683
 21
38.2927
  0
LINE
  8
0
 10
33.683
 20
38.2927
 11
33.7071
 21
38.2814
  0
LINE
  8
0
 10
33.7071
 20
38.2814
 11
33.7301
 21
38.2681
  0
LINE
  8
0
 10
33.7301
 20
38.2681
 11
33.752
 21
38.2529
  0
LINE
  8
0
 10
33.752
 20
38.2529
 11
33.7724
 21
38.2359
  0
LINE
  8
0
 10
33.7724
 20
38.2359
 11
33.7914
 21
38.2173
  0
LINE
  8
0
 10
33.7914
 20
38.2173
 11
33.8088
 21
38.1972
  0
LINE
  8
0
 10
33.8088
 20
38.1972
 11
33.8244
 21
38.1757
  0
LINE
  8
0
 10
33.8244
 20
38.1757
 11
33.8382
 21
38.153
  0
LINE
  8
0
 10
33.8382
 20
38.153
 11
33.8501
 21
38.1291
  0
LINE
  8
0
 10
33.8501
 20
38.1291
 11
33.8598
 21
38.1044
  0
LINE
  8
0
 10
33.8598
 20
38.1044
 11
33.8675
 21
38.0789
  0
LINE
  8
0
 10
33.8675
 20
38.0789
 11
33.873
 21
38.0529
  0
LINE
  8
0
 10
33.873
 20
38.0529
 11
33.8764
 21
38.0266
  0
LINE
  8
0
 10
33.8764
 20
38.0266
 11
33.8775
 21
38
  0
LINE
  8
0
 10
33.8775
 20
38
 11
33.8764
 21
37.9734
  0
LINE
  8
0
 10
33.8764
 20
37.9734
 11
33.873
 21
37.9471
  0
LINE
  8
0
 10
33.873
 20
37.9471
 11
33.8675
 21
37.921
  0
LINE
  8
0
 10
33.8675
 20
37.921
 11
33.8598
 21
37.8956
  0
LINE
  8
0
 10
33.8598
 20
37.8956
 11
33.8501
 21
37.8708
  0
LINE
  8
0
 10
33.8501
 20
37.8708
 11
33.8382
 21
37.847
  0
LINE
  8
0
 10
33.8382
 20
37.847
 11
33.8244
 21
37.8243
  0
LINE
  8
0
 10
33.8244
 20
37.8243
 11
33.8088
 21
37.8028
  0
LINE
  8
0
 10
33.8088
 20
37.8028
 11
33.7914
 21
37.7827
  0
LINE
  8
0
 10
33.7914
 20
37.7827
 11
33.7724
 21
37.7641
  0
LINE
  8
0
 10
33.7724
 20
37.7641
 11
33.752
 21
37.7471
  0
LINE
  8
0
 10
33.752
 20
37.7471
 11
33.7301
 21
37.7319
  0
LINE
  8
0
 10
33.7301
 20
37.7319
 11
33.7071
 21
37.7186
  0
LINE
  8
0
 10
33.7071
 20
37.7186
 11
33.683
 21
37.7073
  0
LINE
  8
0
 10
33.683
 20
37.7073
 11
33.6581
 21
37.698
  0
LINE
  8
0
 10
33.6581
 20
37.698
 11
33.6325
 21
37.6909
  0
LINE
  8
0
 10
33.6325
 20
37.6909
 11
33.6064
 21
37.6859
  0
LINE
  8
0
 10
33.6064
 20
37.6859
 11
33.5799
 21
37.6831
  0
LINE
  8
0
 10
33.5799
 20
37.6831
 11
33.5533
 21
37.6826
  0
LINE
  8
0
 10
33.5533
 20
37.6826
 11
33.5268
 21
37.6842
  0
LINE
  8
0
 10
33.5268
 20
31.4342
 11
33.5005
 21
31.4381
  0
LINE
  8
0
 10
33.5005
 20
31.4381
 11
33.4746
 21
31.4442
  0
LINE
  8
0
 10
33.4746
 20
31.4442
 11
33.4493
 21
31.4524
  0
LINE
  8
0
 10
33.4493
 20
31.4524
 11
33.4248
 21
31.4627
  0
LINE
  8
0
 10
33.4248
 20
31.4627
 11
33.4012
 21
31.475
  0
LINE
  8
0
 10
33.4012
 20
31.475
 11
33.3788
 21
31.4893
  0
LINE
  8
0
 10
33.3788
 20
31.4893
 11
33.3576
 21
31.5054
  0
LINE
  8
0
 10
33.3576
 20
31.5054
 11
33.3378
 21
31.5231
  0
LINE
  8
0
 10
33.3378
 20
31.5231
 11
33.3196
 21
31.5425
  0
LINE
  8
0
 10
33.3196
 20
31.5425
 11
33.3031
 21
31.5634
  0
LINE
  8
0
 10
33.3031
 20
31.5634
 11
33.2884
 21
31.5855
  0
LINE
  8
0
 10
33.2884
 20
31.5855
 11
33.2756
 21
31.6088
  0
LINE
  8
0
 10
33.2756
 20
31.6088
 11
33.2648
 21
31.6331
  0
LINE
  8
0
 10
33.2648
 20
31.6331
 11
33.256
 21
31.6582
  0
LINE
  8
0
 10
33.256
 20
31.6582
 11
33.2494
 21
31.684
  0
LINE
  8
0
 10
33.2494
 20
31.684
 11
33.245
 21
31.7102
  0
LINE
  8
0
 10
33.245
 20
31.7102
 11
33.2428
 21
31.7367
  0
LINE
  8
0
 10
33.2428
 20
31.7367
 11
33.2428
 21
31.7633
  0
LINE
  8
0
 10
33.2428
 20
31.7633
 11
33.245
 21
31.7898
  0
LINE
  8
0
 10
33.245
 20
31.7898
 11
33.2494
 21
31.816
  0
LINE
  8
0
 10
33.2494
 20
31.816
 11
33.256
 21
31.8418
  0
LINE
  8
0
 10
33.256
 20
31.8418
 11
33.2648
 21
31.8669
  0
LINE
  8
0
 10
33.2648
 20
31.8669
 11
33.2756
 21
31.8912
  0
LINE
  8
0
 10
33.2756
 20
31.8912
 11
33.2884
 21
31.9145
  0
LINE
  8
0
 10
33.2884
 20
31.9145
 11
33.3031
 21
31.9366
  0
LINE
  8
0
 10
33.3031
 20
31.9366
 11
33.3196
 21
31.9575
  0
LINE
  8
0
 10
33.3196
 20
31.9575
 11
33.3378
 21
31.9768
  0
LINE
  8
0
 10
33.3378
 20
31.9768
 11
33.3576
 21
31.9946
  0
LINE
  8
0
 10
33.3576
 20
31.9946
 11
33.3788
 21
32.0107
  0
LINE
  8
0
 10
33.3788
 20
32.0107
 11
33.4012
 21
32.025
  0
LINE
  8
0
 10
33.4012
 20
32.025
 11
33.4248
 21
32.0373
  0
LINE
  8
0
 10
33.4248
 20
32.0373
 11
33.4493
 21
32.0476
  0
LINE
  8
0
 10
33.4493
 20
32.0476
 11
33.4746
 21
32.0558
  0
LINE
  8
0
 10
33.4746
 20
32.0558
 11
33.5005
 21
32.0619
  0
LINE
  8
0
 10
33.5005
 20
32.0619
 11
33.5268
 21
32.0658
  0
LINE
  8
0
 10
33.5268
 20
32.0658
 11
33.5533
 21
32.0674
  0
LINE
  8
0
 10
33.5533
 20
32.0674
 11
33.5799
 21
32.0669
  0
LINE
  8
0
 10
33.5799
 20
32.0669
 11
33.6064
 21
32.0641
  0
LINE
  8
0
 10
33.6064
 20
32.0641
 11
33.6325
 21
32.0591
  0
LINE
  8
0
 10
33.6325
 20
32.0591
 11
33.6581
 21
32.052
  0
LINE
  8
0
 10
33.6581
 20
32.052
 11
33.683
 21
32.0427
  0
LINE
  8
0
 10
33.683
 20
32.0427
 11
33.7071
 21
32.0314
  0
LINE
  8
0
 10
33.7071
 20
32.0314
 11
33.7301
 21
32.0181
  0
LINE
  8
0
 10
33.7301
 20
32.0181
 11
33.752
 21
32.0029
  0
LINE
  8
0
 10
33.752
 20
32.0029
 11
33.7724
 21
31.9859
  0
LINE
  8
0
 10
33.7724
 20
31.9859
 11
33.7914
 21
31.9673
  0
LINE
  8
0
 10
33.7914
 20
31.9673
 11
33.8088
 21
31.9472
  0
LINE
  8
0
 10
33.8088
 20
31.9472
 11
33.8244
 21
31.9257
  0
LINE
  8
0
 10
33.8244
 20
31.9257
 11
33.8382
 21
31.903
  0
LINE
  8
0
 10
33.8382
 20
31.903
 11
33.8501
 21
31.8791
  0
LINE
  8
0
 10
33.8501
 20
31.8791
 11
33.8598
 21
31.8544
  0
LINE
  8
0
 10
33.8598
 20
31.8544
 11
33.8675
 21
31.8289
  0
LINE
  8
0
 10
33.8675
 20
31.8289
 11
33.873
 21
31.8029
  0
LINE
  8
0
 10
33.873
 20
31.8029
 11
33.8764
 21
31.7766
  0
LINE
  8
0
 10
33.8764
 20
31.7766
 11
33.8775
 21
31.75
  0
LINE
  8
0
 10
33.8775
 20
31.75
 11
33.8764
 21
31.7234
  0
LINE
  8
0
 10
33.8764
 20
31.7234
 11
33.873
 21
31.697
  0
LINE
  8
0
 10
33.873
 20
31.697
 11
33.8675
 21
31.671
  0
LINE
  8
0
 10
33.8675
 20
31.671
 11
33.8598
 21
31.6456
  0
LINE
  8
0
 10
33.8598
 20
31.6456
 11
33.8501
 21
31.6208
  0
LINE
  8
0
 10
33.8501
 20
31.6208
 11
33.8382
 21
31.597
  0
LINE
  8
0
 10
33.8382
 20
31.597
 11
33.8244
 21
31.5743
  0
LINE
  8
0
 10
33.8244
 20
31.5743
 11
33.8088
 21
31.5528
  0
LINE
  8
0
 10
33.8088
 20
31.5528
 11
33.7914
 21
31.5327
  0
LINE
  8
0
 10
33.7914
 20
31.5327
 11
33.7724
 21
31.514
  0
LINE
  8
0
 10
33.7724
 20
31.514
 11
33.752
 21
31.4971
  0
LINE
  8
0
 10
33.752
 20
31.4971
 11
33.7301
 21
31.4819
  0
LINE
  8
0
 10
33.7301
 20
31.4819
 11
33.7071
 21
31.4686
  0
LINE
  8
0
 10
33.7071
 20
31.4686
 11
33.683
 21
31.4573
  0
LINE
  8
0
 10
33.683
 20
31.4573
 11
33.6581
 21
31.448
  0
LINE
  8
0
 10
33.6581
 20
31.448
 11
33.6325
 21
31.4409
  0
LINE
  8
0
 10
33.6325
 20
31.4409
 11
33.6064
 21
31.4359
  0
LINE
  8
0
 10
33.6064
 20
31.4359
 11
33.5799
 21
31.4331
  0
LINE
  8
0
 10
33.5799
 20
31.4331
 11
33.5533
 21
31.4326
  0
LINE
  8
0
 10
33.5533
 20
31.4326
 11
33.5268
 21
31.4342
  0
LINE
  8
0
 10
33.5268
 20
18.6842
 11
33.5005
 21
18.6881
  0
LINE
  8
0
 10
33.5005
 20
18.6881
 11
33.4746
 21
18.6942
  0
LINE
  8
0
 10
33.4746
 20
18.6942
 11
33.4493
 21
18.7024
  0
LINE
  8
0
 10
33.4493
 20
18.7024
 11
33.4248
 21
18.7127
  0
LINE
  8
0
 10
33.4248
 20
18.7127
 11
33.4012
 21
18.725
  0
LINE
  8
0
 10
33.4012
 20
18.725
 11
33.3788
 21
18.7393
  0
LINE
  8
0
 10
33.3788
 20
18.7393
 11
33.3576
 21
18.7554
  0
LINE
  8
0
 10
33.3576
 20
18.7554
 11
33.3378
 21
18.7731
  0
LINE
  8
0
 10
33.3378
 20
18.7731
 11
33.3196
 21
18.7925
  0
LINE
  8
0
 10
33.3196
 20
18.7925
 11
33.3031
 21
18.8134
  0
LINE
  8
0
 10
33.3031
 20
18.8134
 11
33.2884
 21
18.8355
  0
LINE
  8
0
 10
33.2884
 20
18.8355
 11
33.2756
 21
18.8588
  0
LINE
  8
0
 10
33.2756
 20
18.8588
 11
33.2648
 21
18.8831
  0
LINE
  8
0
 10
33.2648
 20
18.8831
 11
33.256
 21
18.9082
  0
LINE
  8
0
 10
33.256
 20
18.9082
 11
33.2494
 21
18.934
  0
LINE
  8
0
 10
33.2494
 20
18.934
 11
33.245
 21
18.9602
  0
LINE
  8
0
 10
33.245
 20
18.9602
 11
33.2428
 21
18.9867
  0
LINE
  8
0
 10
33.2428
 20
18.9867
 11
33.2428
 21
19.0133
  0
LINE
  8
0
 10
33.2428
 20
19.0133
 11
33.245
 21
19.0398
  0
LINE
  8
0
 10
33.245
 20
19.0398
 11
33.2494
 21
19.066
  0
LINE
  8
0
 10
33.2494
 20
19.066
 11
33.256
 21
19.0918
  0
LINE
  8
0
 10
33.256
 20
19.0918
 11
33.2648
 21
19.1169
  0
LINE
  8
0
 10
33.2648
 20
19.1169
 11
33.2756
 21
19.1412
  0
LINE
  8
0
 10
33.2756
 20
19.1412
 11
33.2884
 21
19.1645
  0
LINE
  8
0
 10
33.2884
 20
19.1645
 11
33.3031
 21
19.1866
  0
LINE
  8
0
 10
33.3031
 20
19.1866
 11
33.3196
 21
19.2075
  0
LINE
  8
0
 10
33.3196
 20
19.2075
 11
33.3378
 21
19.2268
  0
LINE
  8
0
 10
33.3378
 20
19.2268
 11
33.3576
 21
19.2446
  0
LINE
  8
0
 10
33.3576
 20
19.2446
 11
33.3788
 21
19.2607
  0
LINE
  8
0
 10
33.3788
 20
19.2607
 11
33.4012
 21
19.275
  0
LINE
  8
0
 10
33.4012
 20
19.275
 11
33.4248
 21
19.2873
  0
LINE
  8
0
 10
33.4248
 20
19.2873
 11
33.4493
 21
19.2976
  0
LINE
  8
0
 10
33.4493
 20
19.2976
 11
33.4746
 21
19.3058
  0
LINE
  8
0
 10
33.4746
 20
19.3058
 11
33.5005
 21
19.3119
  0
LINE
  8
0
 10
33.5005
 20
19.3119
 11
33.5268
 21
19.3158
  0
LINE
  8
0
 10
33.5268
 20
19.3158
 11
33.5533
 21
19.3174
  0
LINE
  8
0
 10
33.5533
 20
19.3174
 11
33.5799
 21
19.3169
  0
LINE
  8
0
 10
33.5799
 20
19.3169
 11
33.6064
 21
19.3141
  0
LINE
  8
0
 10
33.6064
 20
19.3141
 11
33.6325
 21
19.3091
  0
LINE
  8
0
 10
33.6325
 20
19.3091
 11
33.6581
 21
19.302
  0
LINE
  8
0
 10
33.6581
 20
19.302
 11
33.683
 21
19.2927
  0
LINE
  8
0
 10
33.683
 20
19.2927
 11
33.7071
 21
19.2814
  0
LINE
  8
0
 10
33.7071
 20
19.2814
 11
33.7301
 21
19.2681
  0
LINE
  8
0
 10
33.7301
 20
19.2681
 11
33.752
 21
19.2529
  0
LINE
  8
0
 10
33.752
 20
19.2529
 11
33.7724
 21
19.2359
  0
LINE
  8
0
 10
33.7724
 20
19.2359
 11
33.7914
 21
19.2173
  0
LINE
  8
0
 10
33.7914
 20
19.2173
 11
33.8088
 21
19.1972
  0
LINE
  8
0
 10
33.8088
 20
19.1972
 11
33.8244
 21
19.1757
  0
LINE
  8
0
 10
33.8244
 20
19.1757
 11
33.8382
 21
19.153
  0
LINE
  8
0
 10
33.8382
 20
19.153
 11
33.8501
 21
19.1291
  0
LINE
  8
0
 10
33.8501
 20
19.1291
 11
33.8598
 21
19.1044
  0
LINE
  8
0
 10
33.8598
 20
19.1044
 11
33.8675
 21
19.0789
  0
LINE
  8
0
 10
33.8675
 20
19.0789
 11
33.873
 21
19.0529
  0
LINE
  8
0
 10
33.873
 20
19.0529
 11
33.8764
 21
19.0266
  0
LINE
  8
0
 10
33.8764
 20
19.0266
 11
33.8775
 21
19
  0
LINE
  8
0
 10
33.8775
 20
19
 11
33.8764
 21
18.9734
  0
LINE
  8
0
 10
33.8764
 20
18.9734
 11
33.873
 21
18.947
  0
LINE
  8
0
 10
33.873
 20
18.947
 11
33.8675
 21
18.921
  0
LINE
  8
0
 10
33.8675
 20
18.921
 11
33.8598
 21
18.8956
  0
LINE
  8
0
 10
33.8598
 20
18.8956
 11
33.8501
 21
18.8708
  0
LINE
  8
0
 10
33.8501
 20
18.8708
 11
33.8382
 21
18.847
  0
LINE
  8
0
 10
33.8382
 20
18.847
 11
33.8244
 21
18.8243
  0
LINE
  8
0
 10
33.8244
 20
18.8243
 11
33.8088
 21
18.8028
  0
LINE
  8
0
 10
33.8088
 20
18.8028
 11
33.7914
 21
18.7827
  0
LINE
  8
0
 10
33.7914
 20
18.7827
 11
33.7724
 21
18.764
  0
LINE
  8
0
 10
33.7724
 20
18.764
 11
33.752
 21
18.7471
  0
LINE
  8
0
 10
33.752
 20
18.7471
 11
33.7301
 21
18.7319
  0
LINE
  8
0
 10
33.7301
 20
18.7319
 11
33.7071
 21
18.7186
  0
LINE
  8
0
 10
33.7071
 20
18.7186
 11
33.683
 21
18.7073
  0
LINE
  8
0
 10
33.683
 20
18.7073
 11
33.6581
 21
18.698
  0
LINE
  8
0
 10
33.6581
 20
18.698
 11
33.6325
 21
18.6909
  0
LINE
  8
0
 10
33.6325
 20
18.6909
 11
33.6064
 21
18.6859
  0
LINE
  8
0
 10
33.6064
 20
18.6859
 11
33.5799
 21
18.6831
  0
LINE
  8
0
 10
33.5799
 20
18.6831
 11
33.5533
 21
18.6826
  0
LINE
  8
0
 10
33.5533
 20
18.6826
 11
33.5268
 21
18.6842
  0
LINE
  8
0
 10
33.5268
 20
5.93423
 11
33.5005
 21
5.93811
  0
LINE
  8
0
 10
33.5005
 20
5.93811
 11
33.4746
 21
5.94418
  0
LINE
  8
0
 10
33.4746
 20
5.94418
 11
33.4493
 21
5.95241
  0
LINE
  8
0
 10
33.4493
 20
5.95241
 11
33.4248
 21
5.96271
  0
LINE
  8
0
 10
33.4248
 20
5.96271
 11
33.4012
 21
5.97504
  0
LINE
  8
0
 10
33.4012
 20
5.97504
 11
33.3788
 21
5.98927
  0
LINE
  8
0
 10
33.3788
 20
5.98927
 11
33.3576
 21
6.00536
  0
LINE
  8
0
 10
33.3576
 20
6.00536
 11
33.3378
 21
6.02315
  0
LINE
  8
0
 10
33.3378
 20
6.02315
 11
33.3196
 21
6.04253
  0
LINE
  8
0
 10
33.3196
 20
6.04253
 11
33.3031
 21
6.06337
  0
LINE
  8
0
 10
33.3031
 20
6.06337
 11
33.2884
 21
6.08553
  0
LINE
  8
0
 10
33.2884
 20
6.08553
 11
33.2756
 21
6.10883
  0
LINE
  8
0
 10
33.2756
 20
6.10883
 11
33.2648
 21
6.13312
  0
LINE
  8
0
 10
33.2648
 20
6.13312
 11
33.256
 21
6.15822
  0
LINE
  8
0
 10
33.256
 20
6.15822
 11
33.2494
 21
6.18398
  0
LINE
  8
0
 10
33.2494
 20
6.18398
 11
33.245
 21
6.21021
  0
LINE
  8
0
 10
33.245
 20
6.21021
 11
33.2428
 21
6.23669
  0
LINE
  8
0
 10
33.2428
 20
6.23669
 11
33.2428
 21
6.26329
  0
LINE
  8
0
 10
33.2428
 20
6.26329
 11
33.245
 21
6.28978
  0
LINE
  8
0
 10
33.245
 20
6.28978
 11
33.2494
 21
6.31601
  0
LINE
  8
0
 10
33.2494
 20
6.31601
 11
33.256
 21
6.34177
  0
LINE
  8
0
 10
33.256
 20
6.34177
 11
33.2648
 21
6.36687
  0
LINE
  8
0
 10
33.2648
 20
6.36687
 11
33.2756
 21
6.39116
  0
LINE
  8
0
 10
33.2756
 20
6.39116
 11
33.2884
 21
6.41446
  0
LINE
  8
0
 10
33.2884
 20
6.41446
 11
33.3031
 21
6.43661
  0
LINE
  8
0
 10
33.3031
 20
6.43661
 11
33.3196
 21
6.45746
  0
LINE
  8
0
 10
33.3196
 20
6.45746
 11
33.3378
 21
6.47684
  0
LINE
  8
0
 10
33.3378
 20
6.47684
 11
33.3576
 21
6.49463
  0
LINE
  8
0
 10
33.3576
 20
6.49463
 11
33.3788
 21
6.51071
  0
LINE
  8
0
 10
33.3788
 20
6.51071
 11
33.4012
 21
6.52495
  0
LINE
  8
0
 10
33.4012
 20
6.52495
 11
33.4248
 21
6.53728
  0
LINE
  8
0
 10
33.4248
 20
6.53728
 11
33.4493
 21
6.54758
  0
LINE
  8
0
 10
33.4493
 20
6.54758
 11
33.4746
 21
6.5558
  0
LINE
  8
0
 10
33.4746
 20
6.5558
 11
33.5005
 21
6.56187
  0
LINE
  8
0
 10
33.5005
 20
6.56187
 11
33.5268
 21
6.56575
  0
LINE
  8
0
 10
33.5268
 20
6.56575
 11
33.5533
 21
6.56743
  0
LINE
  8
0
 10
33.5533
 20
6.56743
 11
33.5799
 21
6.56686
  0
LINE
  8
0
 10
33.5799
 20
6.56686
 11
33.6064
 21
6.56409
  0
LINE
  8
0
 10
33.6064
 20
6.56409
 11
33.6325
 21
6.5591
  0
LINE
  8
0
 10
33.6325
 20
6.5591
 11
33.6581
 21
6.55196
  0
LINE
  8
0
 10
33.6581
 20
6.55196
 11
33.683
 21
6.54268
  0
LINE
  8
0
 10
33.683
 20
6.54268
 11
33.7071
 21
6.53136
  0
LINE
  8
0
 10
33.7071
 20
6.53136
 11
33.7301
 21
6.51807
  0
LINE
  8
0
 10
33.7301
 20
6.51807
 11
33.752
 21
6.50288
  0
LINE
  8
0
 10
33.752
 20
6.50288
 11
33.7724
 21
6.48595
  0
LINE
  8
0
 10
33.7724
 20
6.48595
 11
33.7914
 21
6.46733
  0
LINE
  8
0
 10
33.7914
 20
6.46733
 11
33.8088
 21
6.4472
  0
LINE
  8
0
 10
33.8088
 20
6.4472
 11
33.8244
 21
6.42569
  0
LINE
  8
0
 10
33.8244
 20
6.42569
 11
33.8382
 21
6.40295
  0
LINE
  8
0
 10
33.8382
 20
6.40295
 11
33.8501
 21
6.37914
  0
LINE
  8
0
 10
33.8501
 20
6.37914
 11
33.8598
 21
6.3544
  0
LINE
  8
0
 10
33.8598
 20
6.3544
 11
33.8675
 21
6.32895
  0
LINE
  8
0
 10
33.8675
 20
6.32895
 11
33.873
 21
6.30295
  0
LINE
  8
0
 10
33.873
 20
6.30295
 11
33.8764
 21
6.27657
  0
LINE
  8
0
 10
33.8764
 20
6.27657
 11
33.8775
 21
6.25
  0
LINE
  8
0
 10
33.8775
 20
6.25
 11
33.8764
 21
6.22342
  0
LINE
  8
0
 10
33.8764
 20
6.22342
 11
33.873
 21
6.19704
  0
LINE
  8
0
 10
33.873
 20
6.19704
 11
33.8675
 21
6.17104
  0
LINE
  8
0
 10
33.8675
 20
6.17104
 11
33.8598
 21
6.14558
  0
LINE
  8
0
 10
33.8598
 20
6.14558
 11
33.8501
 21
6.12085
  0
LINE
  8
0
 10
33.8501
 20
6.12085
 11
33.8382
 21
6.09703
  0
LINE
  8
0
 10
33.8382
 20
6.09703
 11
33.8244
 21
6.0743
  0
LINE
  8
0
 10
33.8244
 20
6.0743
 11
33.8088
 21
6.05278
  0
LINE
  8
0
 10
33.8088
 20
6.05278
 11
33.7914
 21
6.03265
  0
LINE
  8
0
 10
33.7914
 20
6.03265
 11
33.7724
 21
6.01404
  0
LINE
  8
0
 10
33.7724
 20
6.01404
 11
33.752
 21
5.9971
  0
LINE
  8
0
 10
33.752
 20
5.9971
 11
33.7301
 21
5.98192
  0
LINE
  8
0
 10
33.7301
 20
5.98192
 11
33.7071
 21
5.96863
  0
LINE
  8
0
 10
33.7071
 20
5.96863
 11
33.683
 21
5.95731
  0
LINE
  8
0
 10
33.683
 20
5.95731
 11
33.6581
 21
5.94803
  0
LINE
  8
0
 10
33.6581
 20
5.94803
 11
33.6325
 21
5.94089
  0
LINE
  8
0
 10
33.6325
 20
5.94089
 11
33.6064
 21
5.9359
  0
LINE
  8
0
 10
33.6064
 20
5.9359
 11
33.5799
 21
5.93312
  0
LINE
  8
0
 10
33.5799
 20
5.93312
 11
33.5533
 21
5.93256
  0
LINE
  8
0
 10
33.5533
 20
5.93256
 11
33.5268
 21
5.93423
  0
LINE
  8
0
 10
33.5268
 20
-6.56575
 11
33.5005
 21
-6.56187
  0
LINE
  8
0
 10
33.5005
 20
-6.56187
 11
33.4746
 21
-6.5558
  0
LINE
  8
0
 10
33.4746
 20
-6.5558
 11
33.4493
 21
-6.54758
  0
LINE
  8
0
 10
33.4493
 20
-6.54758
 11
33.4248
 21
-6.53728
  0
LINE
  8
0
 10
33.4248
 20
-6.53728
 11
33.4012
 21
-6.52496
  0
LINE
  8
0
 10
33.4012
 20
-6.52496
 11
33.3788
 21
-6.51071
  0
LINE
  8
0
 10
33.3788
 20
-6.51071
 11
33.3576
 21
-6.49463
  0
LINE
  8
0
 10
33.3576
 20
-6.49463
 11
33.3378
 21
-6.47684
  0
LINE
  8
0
 10
33.3378
 20
-6.47684
 11
33.3196
 21
-6.45746
  0
LINE
  8
0
 10
33.3196
 20
-6.45746
 11
33.3031
 21
-6.43661
  0
LINE
  8
0
 10
33.3031
 20
-6.43661
 11
33.2884
 21
-6.41447
  0
LINE
  8
0
 10
33.2884
 20
-6.41447
 11
33.2756
 21
-6.39116
  0
LINE
  8
0
 10
33.2756
 20
-6.39116
 11
33.2648
 21
-6.36687
  0
LINE
  8
0
 10
33.2648
 20
-6.36687
 11
33.256
 21
-6.34177
  0
LINE
  8
0
 10
33.256
 20
-6.34177
 11
33.2494
 21
-6.31601
  0
LINE
  8
0
 10
33.2494
 20
-6.31601
 11
33.245
 21
-6.28978
  0
LINE
  8
0
 10
33.245
 20
-6.28978
 11
33.2428
 21
-6.26329
  0
LINE
  8
0
 10
33.2428
 20
-6.26329
 11
33.2428
 21
-6.23669
  0
LINE
  8
0
 10
33.2428
 20
-6.23669
 11
33.245
 21
-6.21021
  0
LINE
  8
0
 10
33.245
 20
-6.21021
 11
33.2494
 21
-6.18398
  0
LINE
  8
0
 10
33.2494
 20
-6.18398
 11
33.256
 21
-6.15822
  0
LINE
  8
0
 10
33.256
 20
-6.15822
 11
33.2648
 21
-6.13312
  0
LINE
  8
0
 10
33.2648
 20
-6.13312
 11
33.2756
 21
-6.10883
  0
LINE
  8
0
 10
33.2756
 20
-6.10883
 11
33.2884
 21
-6.08553
  0
LINE
  8
0
 10
33.2884
 20
-6.08553
 11
33.3031
 21
-6.06337
  0
LINE
  8
0
 10
33.3031
 20
-6.06337
 11
33.3196
 21
-6.04253
  0
LINE
  8
0
 10
33.3196
 20
-6.04253
 11
33.3378
 21
-6.02315
  0
LINE
  8
0
 10
33.3378
 20
-6.02315
 11
33.3576
 21
-6.00536
  0
LINE
  8
0
 10
33.3576
 20
-6.00536
 11
33.3788
 21
-5.98927
  0
LINE
  8
0
 10
33.3788
 20
-5.98927
 11
33.4012
 21
-5.97504
  0
LINE
  8
0
 10
33.4012
 20
-5.97504
 11
33.4248
 21
-5.96271
  0
LINE
  8
0
 10
33.4248
 20
-5.96271
 11
33.4493
 21
-5.95241
  0
LINE
  8
0
 10
33.4493
 20
-5.95241
 11
33.4746
 21
-5.94418
  0
LINE
  8
0
 10
33.4746
 20
-5.94418
 11
33.5005
 21
-5.93811
  0
LINE
  8
0
 10
33.5005
 20
-5.93811
 11
33.5268
 21
-5.93423
  0
LINE
  8
0
 10
33.5268
 20
-5.93423
 11
33.5533
 21
-5.93256
  0
LINE
  8
0
 10
33.5533
 20
-5.93256
 11
33.5799
 21
-5.93312
  0
LINE
  8
0
 10
33.5799
 20
-5.93312
 11
33.6064
 21
-5.9359
  0
LINE
  8
0
 10
33.6064
 20
-5.9359
 11
33.6325
 21
-5.94089
  0
LINE
  8
0
 10
33.6325
 20
-5.94089
 11
33.6581
 21
-5.94803
  0
LINE
  8
0
 10
33.6581
 20
-5.94803
 11
33.683
 21
-5.95731
  0
LINE
  8
0
 10
33.683
 20
-5.95731
 11
33.7071
 21
-5.96863
  0
LINE
  8
0
 10
33.7071
 20
-5.96863
 11
33.7301
 21
-5.98192
  0
LINE
  8
0
 10
33.7301
 20
-5.98192
 11
33.752
 21
-5.9971
  0
LINE
  8
0
 10
33.752
 20
-5.9971
 11
33.7724
 21
-6.01404
  0
LINE
  8
0
 10
33.7724
 20
-6.01404
 11
33.7914
 21
-6.03265
  0
LINE
  8
0
 10
33.7914
 20
-6.03265
 11
33.8088
 21
-6.05278
  0
LINE
  8
0
 10
33.8088
 20
-6.05278
 11
33.8244
 21
-6.0743
  0
LINE
  8
0
 10
33.8244
 20
-6.0743
 11
33.8382
 21
-6.09703
  0
LINE
  8
0
 10
33.8382
 20
-6.09703
 11
33.8501
 21
-6.12085
  0
LINE
  8
0
 10
33.8501
 20
-6.12085
 11
33.8598
 21
-6.14558
  0
LINE
  8
0
 10
33.8598
 20
-6.14558
 11
33.8675
 21
-6.17104
  0
LINE
  8
0
 10
33.8675
 20
-6.17104
 11
33.873
 21
-6.19704
  0
LINE
  8
0
 10
33.873
 20
-6.19704
 11
33.8764
 21
-6.22342
  0
LINE
  8
0
 10
33.8764
 20
-6.22342
 11
33.8775
 21
-6.25
  0
LINE
  8
0
 10
33.8775
 20
-6.25
 11
33.8764
 21
-6.27657
  0
LINE
  8
0
 10
33.8764
 20
-6.27657
 11
33.873
 21
-6.30295
  0
LINE
  8
0
 10
33.873
 20
-6.30295
 11
33.8675
 21
-6.32895
  0
LINE
  8
0
 10
33.8675
 20
-6.32895
 11
33.8598
 21
-6.35442
  0
LINE
  8
0
 10
33.8598
 20
-6.35442
 11
33.8501
 21
-6.37914
  0
LINE
  8
0
 10
33.8501
 20
-6.37914
 11
33.8382
 21
-6.40295
  0
LINE
  8
0
 10
33.8382
 20
-6.40295
 11
33.8244
 21
-6.42569
  0
LINE
  8
0
 10
33.8244
 20
-6.42569
 11
33.8088
 21
-6.4472
  0
LINE
  8
0
 10
33.8088
 20
-6.4472
 11
33.7914
 21
-6.46733
  0
LINE
  8
0
 10
33.7914
 20
-6.46733
 11
33.7724
 21
-6.48595
  0
LINE
  8
0
 10
33.7724
 20
-6.48595
 11
33.752
 21
-6.5029
  0
LINE
  8
0
 10
33.752
 20
-6.5029
 11
33.7301
 21
-6.51807
  0
LINE
  8
0
 10
33.7301
 20
-6.51807
 11
33.7071
 21
-6.53136
  0
LINE
  8
0
 10
33.7071
 20
-6.53136
 11
33.683
 21
-6.54268
  0
LINE
  8
0
 10
33.683
 20
-6.54268
 11
33.6581
 21
-6.55196
  0
LINE
  8
0
 10
33.6581
 20
-6.55196
 11
33.6325
 21
-6.5591
  0
LINE
  8
0
 10
33.6325
 20
-6.5591
 11
33.6064
 21
-6.56409
  0
LINE
  8
0
 10
33.6064
 20
-6.56409
 11
33.5799
 21
-6.56686
  0
LINE
  8
0
 10
33.5799
 20
-6.56686
 11
33.5533
 21
-6.56743
  0
LINE
  8
0
 10
33.5533
 20
-6.56743
 11
33.5268
 21
-6.56575
  0
LINE
  8
0
 10
33.5268
 20
-19.3158
 11
33.5005
 21
-19.3119
  0
LINE
  8
0
 10
33.5005
 20
-19.3119
 11
33.4746
 21
-19.3058
  0
LINE
  8
0
 10
33.4746
 20
-19.3058
 11
33.4493
 21
-19.2976
  0
LINE
  8
0
 10
33.4493
 20
-19.2976
 11
33.4248
 21
-19.2873
  0
LINE
  8
0
 10
33.4248
 20
-19.2873
 11
33.4012
 21
-19.275
  0
LINE
  8
0
 10
33.4012
 20
-19.275
 11
33.3788
 21
-19.2607
  0
LINE
  8
0
 10
33.3788
 20
-19.2607
 11
33.3576
 21
-19.2446
  0
LINE
  8
0
 10
33.3576
 20
-19.2446
 11
33.3378
 21
-19.2268
  0
LINE
  8
0
 10
33.3378
 20
-19.2268
 11
33.3196
 21
-19.2075
  0
LINE
  8
0
 10
33.3196
 20
-19.2075
 11
33.3031
 21
-19.1866
  0
LINE
  8
0
 10
33.3031
 20
-19.1866
 11
33.2884
 21
-19.1645
  0
LINE
  8
0
 10
33.2884
 20
-19.1645
 11
33.2756
 21
-19.1412
  0
LINE
  8
0
 10
33.2756
 20
-19.1412
 11
33.2648
 21
-19.1169
  0
LINE
  8
0
 10
33.2648
 20
-19.1169
 11
33.256
 21
-19.0918
  0
LINE
  8
0
 10
33.256
 20
-19.0918
 11
33.2494
 21
-19.066
  0
LINE
  8
0
 10
33.2494
 20
-19.066
 11
33.245
 21
-19.0398
  0
LINE
  8
0
 10
33.245
 20
-19.0398
 11
33.2428
 21
-19.0133
  0
LINE
  8
0
 10
33.2428
 20
-19.0133
 11
33.2428
 21
-18.9867
  0
LINE
  8
0
 10
33.2428
 20
-18.9867
 11
33.245
 21
-18.9602
  0
LINE
  8
0
 10
33.245
 20
-18.9602
 11
33.2494
 21
-18.934
  0
LINE
  8
0
 10
33.2494
 20
-18.934
 11
33.256
 21
-18.9082
  0
LINE
  8
0
 10
33.256
 20
-18.9082
 11
33.2648
 21
-18.8831
  0
LINE
  8
0
 10
33.2648
 20
-18.8831
 11
33.2756
 21
-18.8588
  0
LINE
  8
0
 10
33.2756
 20
-18.8588
 11
33.2884
 21
-18.8355
  0
LINE
  8
0
 10
33.2884
 20
-18.8355
 11
33.3031
 21
-18.8134
  0
LINE
  8
0
 10
33.3031
 20
-18.8134
 11
33.3196
 21
-18.7925
  0
LINE
  8
0
 10
33.3196
 20
-18.7925
 11
33.3378
 21
-18.7731
  0
LINE
  8
0
 10
33.3378
 20
-18.7731
 11
33.3576
 21
-18.7554
  0
LINE
  8
0
 10
33.3576
 20
-18.7554
 11
33.3788
 21
-18.7393
  0
LINE
  8
0
 10
33.3788
 20
-18.7393
 11
33.4012
 21
-18.725
  0
LINE
  8
0
 10
33.4012
 20
-18.725
 11
33.4248
 21
-18.7127
  0
LINE
  8
0
 10
33.4248
 20
-18.7127
 11
33.4493
 21
-18.7024
  0
LINE
  8
0
 10
33.4493
 20
-18.7024
 11
33.4746
 21
-18.6942
  0
LINE
  8
0
 10
33.4746
 20
-18.6942
 11
33.5005
 21
-18.6881
  0
LINE
  8
0
 10
33.5005
 20
-18.6881
 11
33.5268
 21
-18.6842
  0
LINE
  8
0
 10
33.5268
 20
-18.6842
 11
33.5533
 21
-18.6826
  0
LINE
  8
0
 10
33.5533
 20
-18.6826
 11
33.5799
 21
-18.6831
  0
LINE
  8
0
 10
33.5799
 20
-18.6831
 11
33.6064
 21
-18.6859
  0
LINE
  8
0
 10
33.6064
 20
-18.6859
 11
33.6325
 21
-18.6909
  0
LINE
  8
0
 10
33.6325
 20
-18.6909
 11
33.6581
 21
-18.698
  0
LINE
  8
0
 10
33.6581
 20
-18.698
 11
33.683
 21
-18.7073
  0
LINE
  8
0
 10
33.683
 20
-18.7073
 11
33.7071
 21
-18.7186
  0
LINE
  8
0
 10
33.7071
 20
-18.7186
 11
33.7301
 21
-18.7319
  0
LINE
  8
0
 10
33.7301
 20
-18.7319
 11
33.752
 21
-18.7471
  0
LINE
  8
0
 10
33.752
 20
-18.7471
 11
33.7724
 21
-18.7641
  0
LINE
  8
0
 10
33.7724
 20
-18.7641
 11
33.7914
 21
-18.7827
  0
LINE
  8
0
 10
33.7914
 20
-18.7827
 11
33.8088
 21
-18.8028
  0
LINE
  8
0
 10
33.8088
 20
-18.8028
 11
33.8244
 21
-18.8243
  0
LINE
  8
0
 10
33.8244
 20
-18.8243
 11
33.8382
 21
-18.847
  0
LINE
  8
0
 10
33.8382
 20
-18.847
 11
33.8501
 21
-18.8708
  0
LINE
  8
0
 10
33.8501
 20
-18.8708
 11
33.8598
 21
-18.8956
  0
LINE
  8
0
 10
33.8598
 20
-18.8956
 11
33.8675
 21
-18.921
  0
LINE
  8
0
 10
33.8675
 20
-18.921
 11
33.873
 21
-18.9471
  0
LINE
  8
0
 10
33.873
 20
-18.9471
 11
33.8764
 21
-18.9734
  0
LINE
  8
0
 10
33.8764
 20
-18.9734
 11
33.8775
 21
-19
  0
LINE
  8
0
 10
33.8775
 20
-19
 11
33.8764
 21
-19.0266
  0
LINE
  8
0
 10
33.8764
 20
-19.0266
 11
33.873
 21
-19.0529
  0
LINE
  8
0
 10
33.873
 20
-19.0529
 11
33.8675
 21
-19.0789
  0
LINE
  8
0
 10
33.8675
 20
-19.0789
 11
33.8598
 21
-19.1044
  0
LINE
  8
0
 10
33.8598
 20
-19.1044
 11
33.8501
 21
-19.1291
  0
LINE
  8
0
 10
33.8501
 20
-19.1291
 11
33.8382
 21
-19.153
  0
LINE
  8
0
 10
33.8382
 20
-19.153
 11
33.8244
 21
-19.1757
  0
LINE
  8
0
 10
33.8244
 20
-19.1757
 11
33.8088
 21
-19.1972
  0
LINE
  8
0
 10
33.8088
 20
-19.1972
 11
33.7914
 21
-19.2173
  0
LINE
  8
0
 10
33.7914
 20
-19.2173
 11
33.7724
 21
-19.2359
  0
LINE
  8
0
 10
33.7724
 20
-19.2359
 11
33.752
 21
-19.2529
  0
LINE
  8
0
 10
33.752
 20
-19.2529
 11
33.7301
 21
-19.2681
  0
LINE
  8
0
 10
33.7301
 20
-19.2681
 11
33.7071
 21
-19.2814
  0
LINE
  8
0
 10
33.7071
 20
-19.2814
 11
33.683
 21
-19.2927
  0
LINE
  8
0
 10
33.683
 20
-19.2927
 11
33.6581
 21
-19.302
  0
LINE
  8
0
 10
33.6581
 20
-19.302
 11
33.6325
 21
-19.3091
  0
LINE
  8
0
 10
33.6325
 20
-19.3091
 11
33.6064
 21
-19.3141
  0
LINE
  8
0
 10
33.6064
 20
-19.3141
 11
33.5799
 21
-19.3169
  0
LINE
  8
0
 10
33.5799
 20
-19.3169
 11
33.5533
 21
-19.3174
  0
LINE
  8
0
 10
33.5533
 20
-19.3174
 11
33.5268
 21
-19.3158
  0
LINE
  8
0
 10
33.5268
 20
-32.0658
 11
33.5005
 21
-32.0619
  0
LINE
  8
0
 10
33.5005
 20
-32.0619
 11
33.4746
 21
-32.0558
  0
LINE
  8
0
 10
33.4746
 20
-32.0558
 11
33.4493
 21
-32.0476
  0
LINE
  8
0
 10
33.4493
 20
-32.0476
 11
33.4248
 21
-32.0373
  0
LINE
  8
0
 10
33.4248
 20
-32.0373
 11
33.4012
 21
-32.025
  0
LINE
  8
0
 10
33.4012
 20
-32.025
 11
33.3788
 21
-32.0107
  0
LINE
  8
0
 10
33.3788
 20
-32.0107
 11
33.3576
 21
-31.9946
  0
LINE
  8
0
 10
33.3576
 20
-31.9946
 11
33.3378
 21
-31.9768
  0
LINE
  8
0
 10
33.3378
 20
-31.9768
 11
33.3196
 21
-31.9575
  0
LINE
  8
0
 10
33.3196
 20
-31.9575
 11
33.3031
 21
-31.9366
  0
LINE
  8
0
 10
33.3031
 20
-31.9366
 11
33.2884
 21
-31.9145
  0
LINE
  8
0
 10
33.2884
 20
-31.9145
 11
33.2756
 21
-31.8912
  0
LINE
  8
0
 10
33.2756
 20
-31.8912
 11
33.2648
 21
-31.8669
  0
LINE
  8
0
 10
33.2648
 20
-31.8669
 11
33.256
 21
-31.8418
  0
LINE
  8
0
 10
33.256
 20
-31.8418
 11
33.2494
 21
-31.816
  0
LINE
  8
0
 10
33.2494
 20
-31.816
 11
33.245
 21
-31.7898
  0
LINE
  8
0
 10
33.245
 20
-31.7898
 11
33.2428
 21
-31.7633
  0
LINE
  8
0
 10
33.2428
 20
-31.7633
 11
33.2428
 21
-31.7367
  0
LINE
  8
0
 10
33.2428
 20
-31.7367
 11
33.245
 21
-31.7102
  0
LINE
  8
0
 10
33.245
 20
-31.7102
 11
33.2494
 21
-31.684
  0
LINE
  8
0
 10
33.2494
 20
-31.684
 11
33.256
 21
-31.6582
  0
LINE
  8
0
 10
33.256
 20
-31.6582
 11
33.2648
 21
-31.6331
  0
LINE
  8
0
 10
33.2648
 20
-31.6331
 11
33.2756
 21
-31.6088
  0
LINE
  8
0
 10
33.2756
 20
-31.6088
 11
33.2884
 21
-31.5855
  0
LINE
  8
0
 10
33.2884
 20
-31.5855
 11
33.3031
 21
-31.5634
  0
LINE
  8
0
 10
33.3031
 20
-31.5634
 11
33.3196
 21
-31.5425
  0
LINE
  8
0
 10
33.3196
 20
-31.5425
 11
33.3378
 21
-31.5231
  0
LINE
  8
0
 10
33.3378
 20
-31.5231
 11
33.3576
 21
-31.5054
  0
LINE
  8
0
 10
33.3576
 20
-31.5054
 11
33.3788
 21
-31.4893
  0
LINE
  8
0
 10
33.3788
 20
-31.4893
 11
33.4012
 21
-31.475
  0
LINE
  8
0
 10
33.4012
 20
-31.475
 11
33.4248
 21
-31.4627
  0
LINE
  8
0
 10
33.4248
 20
-31.4627
 11
33.4493
 21
-31.4524
  0
LINE
  8
0
 10
33.4493
 20
-31.4524
 11
33.4746
 21
-31.4442
  0
LINE
  8
0
 10
33.4746
 20
-31.4442
 11
33.5005
 21
-31.4381
  0
LINE
  8
0
 10
33.5005
 20
-31.4381
 11
33.5268
 21
-31.4342
  0
LINE
  8
0
 10
33.5268
 20
-31.4342
 11
33.5533
 21
-31.4326
  0
LINE
  8
0
 10
33.5533
 20
-31.4326
 11
33.5799
 21
-31.4331
  0
LINE
  8
0
 10
33.5799
 20
-31.4331
 11
33.6064
 21
-31.4359
  0
LINE
  8
0
 10
33.6064
 20
-31.4359
 11
33.6325
 21
-31.4409
  0
LINE
  8
0
 10
33.6325
 20
-31.4409
 11
33.6581
 21
-31.448
  0
LINE
  8
0
 10
33.6581
 20
-31.448
 11
33.683
 21
-31.4573
  0
LINE
  8
0
 10
33.683
 20
-31.4573
 11
33.7071
 21
-31.4686
  0
LINE
  8
0
 10
33.7071
 20
-31.4686
 11
33.7301
 21
-31.4819
  0
LINE
  8
0
 10
33.7301
 20
-31.4819
 11
33.752
 21
-31.4971
  0
LINE
  8
0
 10
33.752
 20
-31.4971
 11
33.7724
 21
-31.5141
  0
LINE
  8
0
 10
33.7724
 20
-31.5141
 11
33.7914
 21
-31.5327
  0
LINE
  8
0
 10
33.7914
 20
-31.5327
 11
33.8088
 21
-31.5528
  0
LINE
  8
0
 10
33.8088
 20
-31.5528
 11
33.8244
 21
-31.5743
  0
LINE
  8
0
 10
33.8244
 20
-31.5743
 11
33.8382
 21
-31.597
  0
LINE
  8
0
 10
33.8382
 20
-31.597
 11
33.8501
 21
-31.6208
  0
LINE
  8
0
 10
33.8501
 20
-31.6208
 11
33.8598
 21
-31.6456
  0
LINE
  8
0
 10
33.8598
 20
-31.6456
 11
33.8675
 21
-31.671
  0
LINE
  8
0
 10
33.8675
 20
-31.671
 11
33.873
 21
-31.6971
  0
LINE
  8
0
 10
33.873
 20
-31.6971
 11
33.8764
 21
-31.7234
  0
LINE
  8
0
 10
33.8764
 20
-31.7234
 11
33.8775
 21
-31.75
  0
LINE
  8
0
 10
33.8775
 20
-31.75
 11
33.8764
 21
-31.7766
  0
LINE
  8
0
 10
33.8764
 20
-31.7766
 11
33.873
 21
-31.8029
  0
LINE
  8
0
 10
33.873
 20
-31.8029
 11
33.8675
 21
-31.8289
  0
LINE
  8
0
 10
33.8675
 20
-31.8289
 11
33.8598
 21
-31.8544
  0
LINE
  8
0
 10
33.8598
 20
-31.8544
 11
33.8501
 21
-31.8791
  0
LINE
  8
0
 10
33.8501
 20
-31.8791
 11
33.8382
 21
-31.903
  0
LINE
  8
0
 10
33.8382
 20
-31.903
 11
33.8244
 21
-31.9257
  0
LINE
  8
0
 10
33.8244
 20
-31.9257
 11
33.8088
 21
-31.9472
  0
LINE
  8
0
 10
33.8088
 20
-31.9472
 11
33.7914
 21
-31.9673
  0
LINE
  8
0
 10
33.7914
 20
-31.9673
 11
33.7724
 21
-31.9859
  0
LINE
  8
0
 10
33.7724
 20
-31.9859
 11
33.752
 21
-32.0029
  0
LINE
  8
0
 10
33.752
 20
-32.0029
 11
33.7301
 21
-32.0181
  0
LINE
  8
0
 10
33.7301
 20
-32.0181
 11
33.7071
 21
-32.0314
  0
LINE
  8
0
 10
33.7071
 20
-32.0314
 11
33.683
 21
-32.0427
  0
LINE
  8
0
 10
33.683
 20
-32.0427
 11
33.6581
 21
-32.052
  0
LINE
  8
0
 10
33.6581
 20
-32.052
 11
33.6325
 21
-32.0591
  0
LINE
  8
0
 10
33.6325
 20
-32.0591
 11
33.6064
 21
-32.0641
  0
LINE
  8
0
 10
33.6064
 20
-32.0641
 11
33.5799
 21
-32.0669
  0
LINE
  8
0
 10
33.5799
 20
-32.0669
 11
33.5533
 21
-32.0674
  0
LINE
  8
0
 10
33.5533
 20
-32.0674
 11
33.5268
 21
-32.0658
  0
LINE
  8
0
 10
33.5268
 20
-38.3158
 11
33.5005
 21
-38.3119
  0
LINE
  8
0
 10
33.5005
 20
-38.3119
 11
33.4746
 21
-38.3058
  0
LINE
  8
0
 10
33.4746
 20
-38.3058
 11
33.4493
 21
-38.2976
  0
LINE
  8
0
 10
33.4493
 20
-38.2976
 11
33.4248
 21
-38.2873
  0
LINE
  8
0
 10
33.4248
 20
-38.2873
 11
33.4012
 21
-38.275
  0
LINE
  8
0
 10
33.4012
 20
-38.275
 11
33.3788
 21
-38.2607
  0
LINE
  8
0
 10
33.3788
 20
-38.2607
 11
33.3576
 21
-38.2446
  0
LINE
  8
0
 10
33.3576
 20
-38.2446
 11
33.3378
 21
-38.2268
  0
LINE
  8
0
 10
33.3378
 20
-38.2268
 11
33.3196
 21
-38.2075
  0
LINE
  8
0
 10
33.3196
 20
-38.2075
 11
33.3031
 21
-38.1866
  0
LINE
  8
0
 10
33.3031
 20
-38.1866
 11
33.2884
 21
-38.1645
  0
LINE
  8
0
 10
33.2884
 20
-38.1645
 11
33.2756
 21
-38.1412
  0
LINE
  8
0
 10
33.2756
 20
-38.1412
 11
33.2648
 21
-38.1169
  0
LINE
  8
0
 10
33.2648
 20
-38.1169
 11
33.256
 21
-38.0918
  0
LINE
  8
0
 10
33.256
 20
-38.0918
 11
33.2494
 21
-38.066
  0
LINE
  8
0
 10
33.2494
 20
-38.066
 11
33.245
 21
-38.0398
  0
LINE
  8
0
 10
33.245
 20
-38.0398
 11
33.2428
 21
-38.0133
  0
LINE
  8
0
 10
33.2428
 20
-38.0133
 11
33.2428
 21
-37.9867
  0
LINE
  8
0
 10
33.2428
 20
-37.9867
 11
33.245
 21
-37.9602
  0
LINE
  8
0
 10
33.245
 20
-37.9602
 11
33.2494
 21
-37.934
  0
LINE
  8
0
 10
33.2494
 20
-37.934
 11
33.256
 21
-37.9082
  0
LINE
  8
0
 10
33.256
 20
-37.9082
 11
33.2648
 21
-37.8831
  0
LINE
  8
0
 10
33.2648
 20
-37.8831
 11
33.2756
 21
-37.8588
  0
LINE
  8
0
 10
33.2756
 20
-37.8588
 11
33.2884
 21
-37.8355
  0
LINE
  8
0
 10
33.2884
 20
-37.8355
 11
33.3031
 21
-37.8134
  0
LINE
  8
0
 10
33.3031
 20
-37.8134
 11
33.3196
 21
-37.7925
  0
LINE
  8
0
 10
33.3196
 20
-37.7925
 11
33.3378
 21
-37.7731
  0
LINE
  8
0
 10
33.3378
 20
-37.7731
 11
33.3576
 21
-37.7554
  0
LINE
  8
0
 10
33.3576
 20
-37.7554
 11
33.3788
 21
-37.7393
  0
LINE
  8
0
 10
33.3788
 20
-37.7393
 11
33.4012
 21
-37.725
  0
LINE
  8
0
 10
33.4012
 20
-37.725
 11
33.4248
 21
-37.7127
  0
LINE
  8
0
 10
33.4248
 20
-37.7127
 11
33.4493
 21
-37.7024
  0
LINE
  8
0
 10
33.4493
 20
-37.7024
 11
33.4746
 21
-37.6942
  0
LINE
  8
0
 10
33.4746
 20
-37.6942
 11
33.5005
 21
-37.6881
  0
LINE
  8
0
 10
33.5005
 20
-37.6881
 11
33.5268
 21
-37.6842
  0
LINE
  8
0
 10
33.5268
 20
-37.6842
 11
33.5533
 21
-37.6826
  0
LINE
  8
0
 10
33.5533
 20
-37.6826
 11
33.5799
 21
-37.6831
  0
LINE
  8
0
 10
33.5799
 20
-37.6831
 11
33.6064
 21
-37.6859
  0
LINE
  8
0
 10
33.6064
 20
-37.6859
 11
33.6325
 21
-37.6909
  0
LINE
  8
0
 10
33.6325
 20
-37.6909
 11
33.6581
 21
-37.698
  0
LINE
  8
0
 10
33.6581
 20
-37.698
 11
33.683
 21
-37.7073
  0
LINE
  8
0
 10
33.683
 20
-37.7073
 11
33.7071
 21
-37.7186
  0
LINE
  8
0
 10
33.7071
 20
-37.7186
 11
33.7301
 21
-37.7319
  0
LINE
  8
0
 10
33.7301
 20
-37.7319
 11
33.752
 21
-37.7471
  0
LINE
  8
0
 10
33.752
 20
-37.7471
 11
33.7724
 21
-37.7641
  0
LINE
  8
0
 10
33.7724
 20
-37.7641
 11
33.7914
 21
-37.7827
  0
LINE
  8
0
 10
33.7914
 20
-37.7827
 11
33.8088
 21
-37.8028
  0
LINE
  8
0
 10
33.8088
 20
-37.8028
 11
33.8244
 21
-37.8243
  0
LINE
  8
0
 10
33.8244
 20
-37.8243
 11
33.8382
 21
-37.847
  0
LINE
  8
0
 10
33.8382
 20
-37.847
 11
33.8501
 21
-37.8708
  0
LINE
  8
0
 10
33.8501
 20
-37.8708
 11
33.8598
 21
-37.8956
  0
LINE
  8
0
 10
33.8598
 20
-37.8956
 11
33.8675
 21
-37.921
  0
LINE
  8
0
 10
33.8675
 20
-37.921
 11
33.873
 21
-37.9471
  0
LINE
  8
0
 10
33.873
 20
-37.9471
 11
33.8764
 21
-37.9734
  0
LINE
  8
0
 10
33.8764
 20
-37.9734
 11
33.8775
 21
-38
  0
LINE
  8
0
 10
33.8775
 20
-38
 11
33.8764
 21
-38.0266
  0
LINE
  8
0
 10
33.8764
 20
-38.0266
 11
33.873
 21
-38.0529
  0
LINE
  8
0
 10
33.873
 20
-38.0529
 11
33.8675
 21
-38.0789
  0
LINE
  8
0
 10
33.8675
 20
-38.0789
 11
33.8598
 21
-38.1044
  0
LINE
  8
0
 10
33.8598
 20
-38.1044
 11
33.8501
 21
-38.1291
  0
LINE
  8
0
 10
33.8501
 20
-38.1291
 11
33.8382
 21
-38.153
  0
LINE
  8
0
 10
33.8382
 20
-38.153
 11
33.8244
 21
-38.1757
  0
LINE
  8
0
 10
33.8244
 20
-38.1757
 11
33.8088
 21
-38.1972
  0
LINE
  8
0
 10
33.8088
 20
-38.1972
 11
33.7914
 21
-38.2173
  0
LINE
  8
0
 10
33.7914
 20
-38.2173
 11
33.7724
 21
-38.2359
  0
LINE
  8
0
 10
33.7724
 20
-38.2359
 11
33.752
 21
-38.2529
  0
LINE
  8
0
 10
33.752
 20
-38.2529
 11
33.7301
 21
-38.2681
  0
LINE
  8
0
 10
33.7301
 20
-38.2681
 11
33.7071
 21
-38.2814
  0
LINE
  8
0
 10
33.7071
 20
-38.2814
 11
33.683
 21
-38.2927
  0
LINE
  8
0
 10
33.683
 20
-38.2927
 11
33.6581
 21
-38.302
  0
LINE
  8
0
 10
33.6581
 20
-38.302
 11
33.6325
 21
-38.3091
  0
LINE
  8
0
 10
33.6325
 20
-38.3091
 11
33.6064
 21
-38.3141
  0
LINE
  8
0
 10
33.6064
 20
-38.3141
 11
33.5799
 21
-38.3169
  0
LINE
  8
0
 10
33.5799
 20
-38.3169
 11
33.5533
 21
-38.3174
  0
LINE
  8
0
 10
33.5533
 20
-38.3174
 11
33.5268
 21
-38.3158
  0
LINE
  8
0
 10
-31.06
 20
41.5
 11
-36.06
 21
41.5
  0
LINE
  8
0
 10
-36.06
 20
41.5
 11
-36.06
 21
-41.5
  0
LINE
  8
0
 10
-36.06
 20
-41.5
 11
-31.06
 21
-41.5
  0
LINE
  8
0
 10
-31.06
 20
-41.5
 11
-31.06
 21
41.5
  0
LINE
  8
0
 10
-33.5932
 20
37.6842
 11
-33.6195
 21
37.6881
  0
LINE
  8
0
 10
-33.6195
 20
37.6881
 11
-33.6454
 21
37.6942
  0
LINE
  8
0
 10
-33.6454
 20
37.6942
 11
-33.6707
 21
37.7024
  0
LINE
  8
0
 10
-33.6707
 20
37.7024
 11
-33.6952
 21
37.7127
  0
LINE
  8
0
 10
-33.6952
 20
37.7127
 11
-33.7188
 21
37.725
  0
LINE
  8
0
 10
-33.7188
 20
37.725
 11
-33.7412
 21
37.7393
  0
LINE
  8
0
 10
-33.7412
 20
37.7393
 11
-33.7624
 21
37.7554
  0
LINE
  8
0
 10
-33.7624
 20
37.7554
 11
-33.7821
 21
37.7731
  0
LINE
  8
0
 10
-33.7821
 20
37.7731
 11
-33.8003
 21
37.7925
  0
LINE
  8
0
 10
-33.8003
 20
37.7925
 11
-33.8168
 21
37.8134
  0
LINE
  8
0
 10
-33.8168
 20
37.8134
 11
-33.8316
 21
37.8355
  0
LINE
  8
0
 10
-33.8316
 20
37.8355
 11
-33.8444
 21
37.8588
  0
LINE
  8
0
 10
-33.8444
 20
37.8588
 11
-33.8552
 21
37.8831
  0
LINE
  8
0
 10
-33.8552
 20
37.8831
 11
-33.8639
 21
37.9082
  0
LINE
  8
0
 10
-33.8639
 20
37.9082
 11
-33.8706
 21
37.934
  0
LINE
  8
0
 10
-33.8706
 20
37.934
 11
-33.875
 21
37.9602
  0
LINE
  8
0
 10
-33.875
 20
37.9602
 11
-33.8772
 21
37.9867
  0
LINE
  8
0
 10
-33.8772
 20
37.9867
 11
-33.8772
 21
38.0133
  0
LINE
  8
0
 10
-33.8772
 20
38.0133
 11
-33.875
 21
38.0398
  0
LINE
  8
0
 10
-33.875
 20
38.0398
 11
-33.8706
 21
38.066
  0
LINE
  8
0
 10
-33.8706
 20
38.066
 11
-33.8639
 21
38.0918
  0
LINE
  8
0
 10
-33.8639
 20
38.0918
 11
-33.8552
 21
38.1169
  0
LINE
  8
0
 10
-33.8552
 20
38.1169
 11
-33.8444
 21
38.1412
  0
LINE
  8
0
 10
-33.8444
 20
38.1412
 11
-33.8316
 21
38.1645
  0
LINE
  8
0
 10
-33.8316
 20
38.1645
 11
-33.8168
 21
38.1866
  0
LINE
  8
0
 10
-33.8168
 20
38.1866
 11
-33.8003
 21
38.2075
  0
LINE
  8
0
 10
-33.8003
 20
38.2075
 11
-33.7821
 21
38.2268
  0
LINE
  8
0
 10
-33.7821
 20
38.2268
 11
-33.7624
 21
38.2446
  0
LINE
  8
0
 10
-33.7624
 20
38.2446
 11
-33.7412
 21
38.2607
  0
LINE
  8
0
 10
-33.7412
 20
38.2607
 11
-33.7188
 21
38.275
  0
LINE
  8
0
 10
-33.7188
 20
38.275
 11
-33.6952
 21
38.2873
  0
LINE
  8
0
 10
-33.6952
 20
38.2873
 11
-33.6707
 21
38.2976
  0
LINE
  8
0
 10
-33.6707
 20
38.2976
 11
-33.6454
 21
38.3058
  0
LINE
  8
0
 10
-33.6454
 20
38.3058
 11
-33.6195
 21
38.3119
  0
LINE
  8
0
 10
-33.6195
 20
38.3119
 11
-33.5932
 21
38.3158
  0
LINE
  8
0
 10
-33.5932
 20
38.3158
 11
-33.5666
 21
38.3174
  0
LINE
  8
0
 10
-33.5666
 20
38.3174
 11
-33.5401
 21
38.3169
  0
LINE
  8
0
 10
-33.5401
 20
38.3169
 11
-33.5136
 21
38.3141
  0
LINE
  8
0
 10
-33.5136
 20
38.3141
 11
-33.4875
 21
38.3091
  0
LINE
  8
0
 10
-33.4875
 20
38.3091
 11
-33.4619
 21
38.302
  0
LINE
  8
0
 10
-33.4619
 20
38.302
 11
-33.437
 21
38.2927
  0
LINE
  8
0
 10
-33.437
 20
38.2927
 11
-33.4129
 21
38.2814
  0
LINE
  8
0
 10
-33.4129
 20
38.2814
 11
-33.3899
 21
38.2681
  0
LINE
  8
0
 10
-33.3899
 20
38.2681
 11
-33.368
 21
38.2529
  0
LINE
  8
0
 10
-33.368
 20
38.2529
 11
-33.3475
 21
38.2359
  0
LINE
  8
0
 10
-33.3475
 20
38.2359
 11
-33.3286
 21
38.2173
  0
LINE
  8
0
 10
-33.3286
 20
38.2173
 11
-33.3112
 21
38.1972
  0
LINE
  8
0
 10
-33.3112
 20
38.1972
 11
-33.2955
 21
38.1757
  0
LINE
  8
0
 10
-33.2955
 20
38.1757
 11
-33.2818
 21
38.153
  0
LINE
  8
0
 10
-33.2818
 20
38.153
 11
-33.2699
 21
38.1291
  0
LINE
  8
0
 10
-33.2699
 20
38.1291
 11
-33.2601
 21
38.1044
  0
LINE
  8
0
 10
-33.2601
 20
38.1044
 11
-33.2525
 21
38.0789
  0
LINE
  8
0
 10
-33.2525
 20
38.0789
 11
-33.2469
 21
38.0529
  0
LINE
  8
0
 10
-33.2469
 20
38.0529
 11
-33.2436
 21
38.0266
  0
LINE
  8
0
 10
-33.2436
 20
38.0266
 11
-33.2425
 21
38
  0
LINE
  8
0
 10
-33.2425
 20
38
 11
-33.2436
 21
37.9734
  0
LINE
  8
0
 10
-33.2436
 20
37.9734
 11
-33.2469
 21
37.9471
  0
LINE
  8
0
 10
-33.2469
 20
37.9471
 11
-33.2525
 21
37.921
  0
LINE
  8
0
 10
-33.2525
 20
37.921
 11
-33.2601
 21
37.8956
  0
LINE
  8
0
 10
-33.2601
 20
37.8956
 11
-33.2699
 21
37.8708
  0
LINE
  8
0
 10
-33.2699
 20
37.8708
 11
-33.2818
 21
37.847
  0
LINE
  8
0
 10
-33.2818
 20
37.847
 11
-33.2955
 21
37.8243
  0
LINE
  8
0
 10
-33.2955
 20
37.8243
 11
-33.3112
 21
37.8028
  0
LINE
  8
0
 10
-33.3112
 20
37.8028
 11
-33.3286
 21
37.7827
  0
LINE
  8
0
 10
-33.3286
 20
37.7827
 11
-33.3475
 21
37.7641
  0
LINE
  8
0
 10
-33.3475
 20
37.7641
 11
-33.368
 21
37.7471
  0
LINE
  8
0
 10
-33.368
 20
37.7471
 11
-33.3899
 21
37.7319
  0
LINE
  8
0
 10
-33.3899
 20
37.7319
 11
-33.4129
 21
37.7186
  0
LINE
  8
0
 10
-33.4129
 20
37.7186
 11
-33.437
 21
37.7073
  0
LINE
  8
0
 10
-33.437
 20
37.7073
 11
-33.4619
 21
37.698
  0
LINE
  8
0
 10
-33.4619
 20
37.698
 11
-33.4875
 21
37.6909
  0
LINE
  8
0
 10
-33.4875
 20
37.6909
 11
-33.5136
 21
37.6859
  0
LINE
  8
0
 10
-33.5136
 20
37.6859
 11
-33.5401
 21
37.6831
  0
LINE
  8
0
 10
-33.5401
 20
37.6831
 11
-33.5666
 21
37.6826
  0
LINE
  8
0
 10
-33.5666
 20
37.6826
 11
-33.5932
 21
37.6842
  0
LINE
  8
0
 10
-33.5932
 20
31.4342
 11
-33.6195
 21
31.4381
  0
LINE
  8
0
 10
-33.6195
 20
31.4381
 11
-33.6454
 21
31.4442
  0
LINE
  8
0
 10
-33.6454
 20
31.4442
 11
-33.6707
 21
31.4524
  0
LINE
  8
0
 10
-33.6707
 20
31.4524
 11
-33.6952
 21
31.4627
  0
LINE
  8
0
 10
-33.6952
 20
31.4627
 11
-33.7188
 21
31.475
  0
LINE
  8
0
 10
-33.7188
 20
31.475
 11
-33.7412
 21
31.4893
  0
LINE
  8
0
 10
-33.7412
 20
31.4893
 11
-33.7624
 21
31.5054
  0
LINE
  8
0
 10
-33.7624
 20
31.5054
 11
-33.7821
 21
31.5231
  0
LINE
  8
0
 10
-33.7821
 20
31.5231
 11
-33.8003
 21
31.5425
  0
LINE
  8
0
 10
-33.8003
 20
31.5425
 11
-33.8168
 21
31.5634
  0
LINE
  8
0
 10
-33.8168
 20
31.5634
 11
-33.8316
 21
31.5855
  0
LINE
  8
0
 10
-33.8316
 20
31.5855
 11
-33.8444
 21
31.6088
  0
LINE
  8
0
 10
-33.8444
 20
31.6088
 11
-33.8552
 21
31.6331
  0
LINE
  8
0
 10
-33.8552
 20
31.6331
 11
-33.8639
 21
31.6582
  0
LINE
  8
0
 10
-33.8639
 20
31.6582
 11
-33.8706
 21
31.684
  0
LINE
  8
0
 10
-33.8706
 20
31.684
 11
-33.875
 21
31.7102
  0
LINE
  8
0
 10
-33.875
 20
31.7102
 11
-33.8772
 21
31.7367
  0
LINE
  8
0
 10
-33.8772
 20
31.7367
 11
-33.8772
 21
31.7633
  0
LINE
  8
0
 10
-33.8772
 20
31.7633
 11
-33.875
 21
31.7898
  0
LINE
  8
0
 10
-33.875
 20
31.7898
 11
-33.8706
 21
31.816
  0
LINE
  8
0
 10
-33.8706
 20
31.816
 11
-33.8639
 21
31.8418
  0
LINE
  8
0
 10
-33.8639
 20
31.8418
 11
-33.8552
 21
31.8669
  0
LINE
  8
0
 10
-33.8552
 20
31.8669
 11
-33.8444
 21
31.8912
  0
LINE
  8
0
 10
-33.8444
 20
31.8912
 11
-33.8316
 21
31.9145
  0
LINE
  8
0
 10
-33.8316
 20
31.9145
 11
-33.8168
 21
31.9366
  0
LINE
  8
0
 10
-33.8168
 20
31.9366
 11
-33.8003
 21
31.9575
  0
LINE
  8
0
 10
-33.8003
 20
31.9575
 11
-33.7821
 21
31.9768
  0
LINE
  8
0
 10
-33.7821
 20
31.9768
 11
-33.7624
 21
31.9946
  0
LINE
  8
0
 10
-33.7624
 20
31.9946
 11
-33.7412
 21
32.0107
  0
LINE
  8
0
 10
-33.7412
 20
32.0107
 11
-33.7188
 21
32.025
  0
LINE
  8
0
 10
-33.7188
 20
32.025
 11
-33.6952
 21
32.0373
  0
LINE
  8
0
 10
-33.6952
 20
32.0373
 11
-33.6707
 21
32.0476
  0
LINE
  8
0
 10
-33.6707
 20
32.0476
 11
-33.6454
 21
32.0558
  0
LINE
  8
0
 10
-33.6454
 20
32.0558
 11
-33.6195
 21
32.0619
  0
LINE
  8
0
 10
-33.6195
 20
32.0619
 11
-33.5932
 21
32.0658
  0
LINE
  8
0
 10
-33.5932
 20
32.0658
 11
-33.5666
 21
32.0674
  0
LINE
  8
0
 10
-33.5666
 20
32.0674
 11
-33.5401
 21
32.0669
  0
LINE
  8
0
 10
-33.5401
 20
32.0669
 11
-33.5136
 21
32.0641
  0
LINE
  8
0
 10
-33.5136
 20
32.0641
 11
-33.4875
 21
32.0591
  0
LINE
  8
0
 10
-33.4875
 20
32.0591
 11
-33.4619
 21
32.052
  0
LINE
  8
0
 10
-33.4619
 20
32.052
 11
-33.437
 21
32.0427
  0
LINE
  8
0
 10
-33.437
 20
32.0427
 11
-33.4129
 21
32.0314
  0
LINE
  8
0
 10
-33.4129
 20
32.0314
 11
-33.3899
 21
32.0181
  0
LINE
  8
0
 10
-33.3899
 20
32.0181
 11
-33.368
 21
32.0029
  0
LINE
  8
0
 10
-33.368
 20
32.0029
 11
-33.3475
 21
31.9859
  0
LINE
  8
0
 10
-33.3475
 20
31.9859
 11
-33.3286
 21
31.9673
  0
LINE
  8
0
 10
-33.3286
 20
31.9673
 11
-33.3112
 21
31.9472
  0
LINE
  8
0
 10
-33.3112
 20
31.9472
 11
-33.2955
 21
31.9257
  0
LINE
  8
0
 10
-33.2955
 20
31.9257
 11
-33.2818
 21
31.903
  0
LINE
  8
0
 10
-33.2818
 20
31.903
 11
-33.2699
 21
31.8791
  0
LINE
  8
0
 10
-33.2699
 20
31.8791
 11
-33.2601
 21
31.8544
  0
LINE
  8
0
 10
-33.2601
 20
31.8544
 11
-33.2525
 21
31.8289
  0
LINE
  8
0
 10
-33.2525
 20
31.8289
 11
-33.2469
 21
31.8029
  0
LINE
  8
0
 10
-33.2469
 20
31.8029
 11
-33.2436
 21
31.7766
  0
LINE
  8
0
 10
-33.2436
 20
31.7766
 11
-33.2425
 21
31.75
  0
LINE
  8
0
 10
-33.2425
 20
31.75
 11
-33.2436
 21
31.7234
  0
LINE
  8
0
 10
-33.2436
 20
31.7234
 11
-33.2469
 21
31.697
  0
LINE
  8
0
 10
-33.2469
 20
31.697
 11
-33.2525
 21
31.671
  0
LINE
  8
0
 10
-33.2525
 20
31.671
 11
-33.2601
 21
31.6456
  0
LINE
  8
0
 10
-33.2601
 20
31.6456
 11
-33.2699
 21
31.6208
  0
LINE
  8
0
 10
-33.2699
 20
31.6208
 11
-33.2818
 21
31.597
  0
LINE
  8
0
 10
-33.2818
 20
31.597
 11
-33.2955
 21
31.5743
  0
LINE
  8
0
 10
-33.2955
 20
31.5743
 11
-33.3112
 21
31.5528
  0
LINE
  8
0
 10
-33.3112
 20
31.5528
 11
-33.3286
 21
31.5327
  0
LINE
  8
0
 10
-33.3286
 20
31.5327
 11
-33.3475
 21
31.514
  0
LINE
  8
0
 10
-33.3475
 20
31.514
 11
-33.368
 21
31.4971
  0
LINE
  8
0
 10
-33.368
 20
31.4971
 11
-33.3899
 21
31.4819
  0
LINE
  8
0
 10
-33.3899
 20
31.4819
 11
-33.4129
 21
31.4686
  0
LINE
  8
0
 10
-33.4129
 20
31.4686
 11
-33.437
 21
31.4573
  0
LINE
  8
0
 10
-33.437
 20
31.4573
 11
-33.4619
 21
31.448
  0
LINE
  8
0
 10
-33.4619
 20
31.448
 11
-33.4875
 21
31.4409
  0
LINE
  8
0
 10
-33.4875
 20
31.4409
 11
-33.5136
 21
31.4359
  0
LINE
  8
0
 10
-33.5136
 20
31.4359
 11
-33.5401
 21
31.4331
  0
LINE
  8
0
 10
-33.5401
 20
31.4331
 11
-33.5666
 21
31.4326
  0
LINE
  8
0
 10
-33.5666
 20
31.4326
 11
-33.5932
 21
31.4342
  0
LINE
  8
0
 10
-33.5932
 20
18.6842
 11
-33.6195
 21
18.6881
  0
LINE
  8
0
 10
-33.6195
 20
18.6881
 11
-33.6454
 21
18.6942
  0
LINE
  8
0
 10
-33.6454
 20
18.6942
 11
-33.6707
 21
18.7024
  0
LINE
  8
0
 10
-33.6707
 20
18.7024
 11
-33.6952
 21
18.7127
  0
LINE
  8
0
 10
-33.6952
 20
18.7127
 11
-33.7188
 21
18.725
  0
LINE
  8
0
 10
-33.7188
 20
18.725
 11
-33.7412
 21
18.7393
  0
LINE
  8
0
 10
-33.7412
 20
18.7393
 11
-33.7624
 21
18.7554
  0
LINE
  8
0
 10
-33.7624
 20
18.7554
 11
-33.7821
 21
18.7731
  0
LINE
  8
0
 10
-33.7821
 20
18.7731
 11
-33.8003
 21
18.7925
  0
LINE
  8
0
 10
-33.8003
 20
18.7925
 11
-33.8168
 21
18.8134
  0
LINE
  8
0
 10
-33.8168
 20
18.8134
 11
-33.8316
 21
18.8355
  0
LINE
  8
0
 10
-33.8316
 20
18.8355
 11
-33.8444
 21
18.8588
  0
LINE
  8
0
 10
-33.8444
 20
18.8588
 11
-33.8552
 21
18.8831
  0
LINE
  8
0
 10
-33.8552
 20
18.8831
 11
-33.8639
 21
18.9082
  0
LINE
  8
0
 10
-33.8639
 20
18.9082
 11
-33.8706
 21
18.934
  0
LINE
  8
0
 10
-33.8706
 20
18.934
 11
-33.875
 21
18.9602
  0
LINE
  8
0
 10
-33.875
 20
18.9602
 11
-33.8772
 21
18.9867
  0
LINE
  8
0
 10
-33.8772
 20
18.9867
 11
-33.8772
 21
19.0133
  0
LINE
  8
0
 10
-33.8772
 20
19.0133
 11
-33.875
 21
19.0398
  0
LINE
  8
0
 10
-33.875
 20
19.0398
 11
-33.8706
 21
19.066
  0
LINE
  8
0
 10
-33.8706
 20
19.066
 11
-33.8639
 21
19.0918
  0
LINE
  8
0
 10
-33.8639
 20
19.0918
 11
-33.8552
 21
19.1169
  0
LINE
  8
0
 10
-33.8552
 20
19.1169
 11
-33.8444
 21
19.1412
  0
LINE
  8
0
 10
-33.8444
 20
19.1412
 11
-33.8316
 21
19.1645
  0
LINE
  8
0
 10
-33.8316
 20
19.1645
 11
-33.8168
 21
19.1866
  0
LINE
  8
0
 10
-33.8168
 20
19.1866
 11
-33.8003
 21
19.2075
  0
LINE
  8
0
 10
-33.8003
 20
19.2075
 11
-33.7821
 21
19.2268
  0
LINE
  8
0
 10
-33.7821
 20
19.2268
 11
-33.7624
 21
19.2446
  0
LINE
  8
0
 10
-33.7624
 20
19.2446
 11
-33.7412
 21
19.2607
  0
LINE
  8
0
 10
-33.7412
 20
19.2607
 11
-33.7188
 21
19.275
  0
LINE
  8
0
 10
-33.7188
 20
19.275
 11
-33.6952
 21
19.2873
  0
LINE
  8
0
 10
-33.6952
 20
19.2873
 11
-33.6707
 21
19.2976
  0
LINE
  8
0
 10
-33.6707
 20
19.2976
 11
-33.6454
 21
19.3058
  0
LINE
  8
0
 10
-33.6454
 20
19.3058
 11
-33.6195
 21
19.3119
  0
LINE
  8
0
 10
-33.6195
 20
19.3119
 11
-33.5932
 21
19.3158
  0
LINE
  8
0
 10
-33.5932
 20
19.3158
 11
-33.5666
 21
19.3174
  0
LINE
  8
0
 10
-33.5666
 20
19.3174
 11
-33.5401
 21
19.3169
  0
LINE
  8
0
 10
-33.5401
 20
19.3169
 11
-33.5136
 21
19.3141
  0
LINE
  8
0
 10
-33.5136
 20
19.3141
 11
-33.4875
 21
19.3091
  0
LINE
  8
0
 10
-33.4875
 20
19.3091
 11
-33.4619
 21
19.302
  0
LINE
  8
0
 10
-33.4619
 20
19.302
 11
-33.437
 21
19.2927
  0
LINE
  8
0
 10
-33.437
 20
19.2927
 11
-33.4129
 21
19.2814
  0
LINE
  8
0
 10
-33.4129
 20
19.2814
 11
-33.3899
 21
19.2681
  0
LINE
  8
0
 10
-33.3899
 20
19.2681
 11
-33.368
 21
19.2529
  0
LINE
  8
0
 10
-33.368
 20
19.2529
 11
-33.3475
 21
19.2359
  0
LINE
  8
0
 10
-33.3475
 20
19.2359
 11
-33.3286
 21
19.2173
  0
LINE
  8
0
 10
-33.3286
 20
19.2173
 11
-33.3112
 21
19.1972
  0
LINE
  8
0
 10
-33.3112
 20
19.1972
 11
-33.2955
 21
19.1757
  0
LINE
  8
0
 10
-33.2955
 20
19.1757
 11
-33.2818
 21
19.153
  0
LINE
  8
0
 10
-33.2818
 20
19.153
 11
-33.2699
 21
19.1291
  0
LINE
  8
0
 10
-33.2699
 20
19.1291
 11
-33.2601
 21
19.1044
  0
LINE
  8
0
 10
-33.2601
 20
19.1044
 11
-33.2525
 21
19.0789
  0
LINE
  8
0
 10
-33.2525
 20
19.0789
 11
-33.2469
 21
19.0529
  0
LINE
  8
0
 10
-33.2469
 20
19.0529
 11
-33.2436
 21
19.0266
  0
LINE
  8
0
 10
-33.2436
 20
19.0266
 11
-33.2425
 21
19
  0
LINE
  8
0
 10
-33.2425
 20
19
 11
-33.2436
 21
18.9734
  0
LINE
  8
0
 10
-33.2436
 20
18.9734
 11
-33.2469
 21
18.947
  0
LINE
  8
0
 10
-33.2469
 20
18.947
 11
-33.2525
 21
18.921
  0
LINE
  8
0
 10
-33.2525
 20
18.921
 11
-33.2601
 21
18.8956
  0
LINE
  8
0
 10
-33.2601
 20
18.8956
 11
-33.2699
 21
18.8708
  0
LINE
  8
0
 10
-33.2699
 20
18.8708
 11
-33.2818
 21
18.847
  0
LINE
  8
0
 10
-33.2818
 20
18.847
 11
-33.2955
 21
18.8243
  0
LINE
  8
0
 10
-33.2955
 20
18.8243
 11
-33.3112
 21
18.8028
  0
LINE
  8
0
 10
-33.3112
 20
18.8028
 11
-33.3286
 21
18.7827
  0
LINE
  8
0
 10
-33.3286
 20
18.7827
 11
-33.3475
 21
18.764
  0
LINE
  8
0
 10
-33.3475
 20
18.764
 11
-33.368
 21
18.7471
  0
LINE
  8
0
 10
-33.368
 20
18.7471
 11
-33.3899
 21
18.7319
  0
LINE
  8
0
 10
-33.3899
 20
18.7319
 11
-33.4129
 21
18.7186
  0
LINE
  8
0
 10
-33.4129
 20
18.7186
 11
-33.437
 21
18.7073
  0
LINE
  8
0
 10
-33.437
 20
18.7073
 11
-33.4619
 21
18.698
  0
LINE
  8
0
 10
-33.4619
 20
18.698
 11
-33.4875
 21
18.6909
  0
LINE
  8
0
 10
-33.4875
 20
18.6909
 11
-33.5136
 21
18.6859
  0
LINE
  8
0
 10
-33.5136
 20
18.6859
 11
-33.5401
 21
18.6831
  0
LINE
  8
0
 10
-33.5401
 20
18.6831
 11
-33.5666
 21
18.6826
  0
LINE
  8
0
 10
-33.5666
 20
18.6826
 11
-33.5932
 21
18.6842
  0
LINE
  8
0
 10
-33.5932
 20
5.93423
 11
-33.6195
 21
5.93811
  0
LINE
  8
0
 10
-33.6195
 20
5.93811
 11
-33.6454
 21
5.94418
  0
LINE
  8
0
 10
-33.6454
 20
5.94418
 11
-33.6707
 21
5.95241
  0
LINE
  8
0
 10
-33.6707
 20
5.95241
 11
-33.6952
 21
5.96271
  0
LINE
  8
0
 10
-33.6952
 20
5.96271
 11
-33.7188
 21
5.97504
  0
LINE
  8
0
 10
-33.7188
 20
5.97504
 11
-33.7412
 21
5.98927
  0
LINE
  8
0
 10
-33.7412
 20
5.98927
 11
-33.7624
 21
6.00536
  0
LINE
  8
0
 10
-33.7624
 20
6.00536
 11
-33.7821
 21
6.02315
  0
LINE
  8
0
 10
-33.7821
 20
6.02315
 11
-33.8003
 21
6.04253
  0
LINE
  8
0
 10
-33.8003
 20
6.04253
 11
-33.8168
 21
6.06337
  0
LINE
  8
0
 10
-33.8168
 20
6.06337
 11
-33.8316
 21
6.08553
  0
LINE
  8
0
 10
-33.8316
 20
6.08553
 11
-33.8444
 21
6.10883
  0
LINE
  8
0
 10
-33.8444
 20
6.10883
 11
-33.8552
 21
6.13312
  0
LINE
  8
0
 10
-33.8552
 20
6.13312
 11
-33.8639
 21
6.15822
  0
LINE
  8
0
 10
-33.8639
 20
6.15822
 11
-33.8706
 21
6.18398
  0
LINE
  8
0
 10
-33.8706
 20
6.18398
 11
-33.875
 21
6.21021
  0
LINE
  8
0
 10
-33.875
 20
6.21021
 11
-33.8772
 21
6.23669
  0
LINE
  8
0
 10
-33.8772
 20
6.23669
 11
-33.8772
 21
6.26329
  0
LINE
  8
0
 10
-33.8772
 20
6.26329
 11
-33.875
 21
6.28978
  0
LINE
  8
0
 10
-33.875
 20
6.28978
 11
-33.8706
 21
6.31601
  0
LINE
  8
0
 10
-33.8706
 20
6.31601
 11
-33.8639
 21
6.34177
  0
LINE
  8
0
 10
-33.8639
 20
6.34177
 11
-33.8552
 21
6.36687
  0
LINE
  8
0
 10
-33.8552
 20
6.36687
 11
-33.8444
 21
6.39116
  0
LINE
  8
0
 10
-33.8444
 20
6.39116
 11
-33.8316
 21
6.41446
  0
LINE
  8
0
 10
-33.8316
 20
6.41446
 11
-33.8168
 21
6.43661
  0
LINE
  8
0
 10
-33.8168
 20
6.43661
 11
-33.8003
 21
6.45746
  0
LINE
  8
0
 10
-33.8003
 20
6.45746
 11
-33.7821
 21
6.47684
  0
LINE
  8
0
 10
-33.7821
 20
6.47684
 11
-33.7624
 21
6.49463
  0
LINE
  8
0
 10
-33.7624
 20
6.49463
 11
-33.7412
 21
6.51071
  0
LINE
  8
0
 10
-33.7412
 20
6.51071
 11
-33.7188
 21
6.52495
  0
LINE
  8
0
 10
-33.7188
 20
6.52495
 11
-33.6952
 21
6.53728
  0
LINE
  8
0
 10
-33.6952
 20
6.53728
 11
-33.6707
 21
6.54758
  0
LINE
  8
0
 10
-33.6707
 20
6.54758
 11
-33.6454
 21
6.5558
  0
LINE
  8
0
 10
-33.6454
 20
6.5558
 11
-33.6195
 21
6.56187
  0
LINE
  8
0
 10
-33.6195
 20
6.56187
 11
-33.5932
 21
6.56575
  0
LINE
  8
0
 10
-33.5932
 20
6.56575
 11
-33.5666
 21
6.56743
  0
LINE
  8
0
 10
-33.5666
 20
6.56743
 11
-33.5401
 21
6.56686
  0
LINE
  8
0
 10
-33.5401
 20
6.56686
 11
-33.5136
 21
6.56409
  0
LINE
  8
0
 10
-33.5136
 20
6.56409
 11
-33.4875
 21
6.5591
  0
LINE
  8
0
 10
-33.4875
 20
6.5591
 11
-33.4619
 21
6.55196
  0
LINE
  8
0
 10
-33.4619
 20
6.55196
 11
-33.437
 21
6.54268
  0
LINE
  8
0
 10
-33.437
 20
6.54268
 11
-33.4129
 21
6.53136
  0
LINE
  8
0
 10
-33.4129
 20
6.53136
 11
-33.3899
 21
6.51807
  0
LINE
  8
0
 10
-33.3899
 20
6.51807
 11
-33.368
 21
6.50288
  0
LINE
  8
0
 10
-33.368
 20
6.50288
 11
-33.3475
 21
6.48595
  0
LINE
  8
0
 10
-33.3475
 20
6.48595
 11
-33.3286
 21
6.46733
  0
LINE
  8
0
 10
-33.3286
 20
6.46733
 11
-33.3112
 21
6.4472
  0
LINE
  8
0
 10
-33.3112
 20
6.4472
 11
-33.2955
 21
6.42569
  0
LINE
  8
0
 10
-33.2955
 20
6.42569
 11
-33.2818
 21
6.40295
  0
LINE
  8
0
 10
-33.2818
 20
6.40295
 11
-33.2699
 21
6.37914
  0
LINE
  8
0
 10
-33.2699
 20
6.37914
 11
-33.2601
 21
6.3544
  0
LINE
  8
0
 10
-33.2601
 20
6.3544
 11
-33.2525
 21
6.32895
  0
LINE
  8
0
 10
-33.2525
 20
6.32895
 11
-33.2469
 21
6.30295
  0
LINE
  8
0
 10
-33.2469
 20
6.30295
 11
-33.2436
 21
6.27657
  0
LINE
  8
0
 10
-33.2436
 20
6.27657
 11
-33.2425
 21
6.25
  0
LINE
  8
0
 10
-33.2425
 20
6.25
 11
-33.2436
 21
6.22342
  0
LINE
  8
0
 10
-33.2436
 20
6.22342
 11
-33.2469
 21
6.19704
  0
LINE
  8
0
 10
-33.2469
 20
6.19704
 11
-33.2525
 21
6.17104
  0
LINE
  8
0
 10
-33.2525
 20
6.17104
 11
-33.2601
 21
6.14558
  0
LINE
  8
0
 10
-33.2601
 20
6.14558
 11
-33.2699
 21
6.12085
  0
LINE
  8
0
 10
-33.2699
 20
6.12085
 11
-33.2818
 21
6.09703
  0
LINE
  8
0
 10
-33.2818
 20
6.09703
 11
-33.2955
 21
6.0743
  0
LINE
  8
0
 10
-33.2955
 20
6.0743
 11
-33.3112
 21
6.05278
  0
LINE
  8
0
 10
-33.3112
 20
6.05278
 11
-33.3286
 21
6.03265
  0
LINE
  8
0
 10
-33.3286
 20
6.03265
 11
-33.3475
 21
6.01404
  0
LINE
  8
0
 10
-33.3475
 20
6.01404
 11
-33.368
 21
5.9971
  0
LINE
  8
0
 10
-33.368
 20
5.9971
 11
-33.3899
 21
5.98192
  0
LINE
  8
0
 10
-33.3899
 20
5.98192
 11
-33.4129
 21
5.96863
  0
LINE
  8
0
 10
-33.4129
 20
5.96863
 11
-33.437
 21
5.95731
  0
LINE
  8
0
 10
-33.437
 20
5.95731
 11
-33.4619
 21
5.94803
  0
LINE
  8
0
 10
-33.4619
 20
5.94803
 11
-33.4875
 21
5.94089
  0
LINE
  8
0
 10
-33.4875
 20
5.94089
 11
-33.5136
 21
5.9359
  0
LINE
  8
0
 10
-33.5136
 20
5.9359
 11
-33.5401
 21
5.93312
  0
LINE
  8
0
 10
-33.5401
 20
5.93312
 11
-33.5666
 21
5.93256
  0
LINE
  8
0
 10
-33.5666
 20
5.93256
 11
-33.5932
 21
5.93423
  0
LINE
  8
0
 10
-33.5932
 20
-6.56575
 11
-33.6195
 21
-6.56187
  0
LINE
  8
0
 10
-33.6195
 20
-6.56187
 11
-33.6454
 21
-6.5558
  0
LINE
  8
0
 10
-33.6454
 20
-6.5558
 11
-33.6707
 21
-6.54758
  0
LINE
  8
0
 10
-33.6707
 20
-6.54758
 11
-33.6952
 21
-6.53728
  0
LINE
  8
0
 10
-33.6952
 20
-6.53728
 11
-33.7188
 21
-6.52496
  0
LINE
  8
0
 10
-33.7188
 20
-6.52496
 11
-33.7412
 21
-6.51071
  0
LINE
  8
0
 10
-33.7412
 20
-6.51071
 11
-33.7624
 21
-6.49463
  0
LINE
  8
0
 10
-33.7624
 20
-6.49463
 11
-33.7821
 21
-6.47684
  0
LINE
  8
0
 10
-33.7821
 20
-6.47684
 11
-33.8003
 21
-6.45746
  0
LINE
  8
0
 10
-33.8003
 20
-6.45746
 11
-33.8168
 21
-6.43661
  0
LINE
  8
0
 10
-33.8168
 20
-6.43661
 11
-33.8316
 21
-6.41447
  0
LINE
  8
0
 10
-33.8316
 20
-6.41447
 11
-33.8444
 21
-6.39116
  0
LINE
  8
0
 10
-33.8444
 20
-6.39116
 11
-33.8552
 21
-6.36687
  0
LINE
  8
0
 10
-33.8552
 20
-6.36687
 11
-33.8639
 21
-6.34177
  0
LINE
  8
0
 10
-33.8639
 20
-6.34177
 11
-33.8706
 21
-6.31601
  0
LINE
  8
0
 10
-33.8706
 20
-6.31601
 11
-33.875
 21
-6.28978
  0
LINE
  8
0
 10
-33.875
 20
-6.28978
 11
-33.8772
 21
-6.26329
  0
LINE
  8
0
 10
-33.8772
 20
-6.26329
 11
-33.8772
 21
-6.23669
  0
LINE
  8
0
 10
-33.8772
 20
-6.23669
 11
-33.875
 21
-6.21021
  0
LINE
  8
0
 10
-33.875
 20
-6.21021
 11
-33.8706
 21
-6.18398
  0
LINE
  8
0
 10
-33.8706
 20
-6.18398
 11
-33.8639
 21
-6.15822
  0
LINE
  8
0
 10
-33.8639
 20
-6.15822
 11
-33.8552
 21
-6.13312
  0
LINE
  8
0
 10
-33.8552
 20
-6.13312
 11
-33.8444
 21
-6.10883
  0
LINE
  8
0
 10
-33.8444
 20
-6.10883
 11
-33.8316
 21
-6.08553
  0
LINE
  8
0
 10
-33.8316
 20
-6.08553
 11
-33.8168
 21
-6.06337
  0
LINE
  8
0
 10
-33.8168
 20
-6.06337
 11
-33.8003
 21
-6.04253
  0
LINE
  8
0
 10
-33.8003
 20
-6.04253
 11
-33.7821
 21
-6.02315
  0
LINE
  8
0
 10
-33.7821
 20
-6.02315
 11
-33.7624
 21
-6.00536
  0
LINE
  8
0
 10
-33.7624
 20
-6.00536
 11
-33.7412
 21
-5.98927
  0
LINE
  8
0
 10
-33.7412
 20
-5.98927
 11
-33.7188
 21
-5.97504
  0
LINE
  8
0
 10
-33.7188
 20
-5.97504
 11
-33.6952
 21
-5.96271
  0
LINE
  8
0
 10
-33.6952
 20
-5.96271
 11
-33.6707
 21
-5.95241
  0
LINE
  8
0
 10
-33.6707
 20
-5.95241
 11
-33.6454
 21
-5.94418
  0
LINE
  8
0
 10
-33.6454
 20
-5.94418
 11
-33.6195
 21
-5.93811
  0
LINE
  8
0
 10
-33.6195
 20
-5.93811
 11
-33.5932
 21
-5.93423
  0
LINE
  8
0
 10
-33.5932
 20
-5.93423
 11
-33.5666
 21
-5.93256
  0
LINE
  8
0
 10
-33.5666
 20
-5.93256
 11
-33.5401
 21
-5.93312
  0
LINE
  8
0
 10
-33.5401
 20
-5.93312
 11
-33.5136
 21
-5.9359
  0
LINE
  8
0
 10
-33.5136
 20
-5.9359
 11
-33.4875
 21
-5.94089
  0
LINE
  8
0
 10
-33.4875
 20
-5.94089
 11
-33.4619
 21
-5.94803
  0
LINE
  8
0
 10
-33.4619
 20
-5.94803
 11
-33.437
 21
-5.95731
  0
LINE
  8
0
 10
-33.437
 20
-5.95731
 11
-33.4129
 21
-5.96863
  0
LINE
  8
0
 10
-33.4129
 20
-5.96863
 11
-33.3899
 21
-5.98192
  0
LINE
  8
0
 10
-33.3899
 20
-5.98192
 11
-33.368
 21
-5.9971
  0
LINE
  8
0
 10
-33.368
 20
-5.9971
 11
-33.3475
 21
-6.01404
  0
LINE
  8
0
 10
-33.3475
 20
-6.01404
 11
-33.3286
 21
-6.03265
  0
LINE
  8
0
 10
-33.3286
 20
-6.03265
 11
-33.3112
 21
-6.05278
  0
LINE
  8
0
 10
-33.3112
 20
-6.05278
 11
-33.2955
 21
-6.0743
  0
LINE
  8
0
 10
-33.2955
 20
-6.0743
 11
-33.2818
 21
-6.09703
  0
LINE
  8
0
 10
-33.2818
 20
-6.09703
 11
-33.2699
 21
-6.12085
  0
LINE
  8
0
 10
-33.2699
 20
-6.12085
 11
-33.2601
 21
-6.14558
  0
LINE
  8
0
 10
-33.2601
 20
-6.14558
 11
-33.2525
 21
-6.17104
  0
LINE
  8
0
 10
-33.2525
 20
-6.17104
 11
-33.2469
 21
-6.19704
  0
LINE
  8
0
 10
-33.2469
 20
-6.19704
 11
-33.2436
 21
-6.22342
  0
LINE
  8
0
 10
-33.2436
 20
-6.22342
 11
-33.2425
 21
-6.25
  0
LINE
  8
0
 10
-33.2425
 20
-6.25
 11
-33.2436
 21
-6.27657
  0
LINE
  8
0
 10
-33.2436
 20
-6.27657
 11
-33.2469
 21
-6.30295
  0
LINE
  8
0
 10
-33.2469
 20
-6.30295
 11
-33.2525
 21
-6.32895
  0
LINE
  8
0
 10
-33.2525
 20
-6.32895
 11
-33.2601
 21
-6.35442
  0
LINE
  8
0
 10
-33.2601
 20
-6.35442
 11
-33.2699
 21
-6.37914
  0
LINE
  8
0
 10
-33.2699
 20
-6.37914
 11
-33.2818
 21
-6.40295
  0
LINE
  8
0
 10
-33.2818
 20
-6.40295
 11
-33.2955
 21
-6.42569
  0
LINE
  8
0
 10
-33.2955
 20
-6.42569
 11
-33.3112
 21
-6.4472
  0
LINE
  8
0
 10
-33.3112
 20
-6.4472
 11
-33.3286
 21
-6.46733
  0
LINE
  8
0
 10
-33.3286
 20
-6.46733
 11
-33.3475
 21
-6.48595
  0
LINE
  8
0
 10
-33.3475
 20
-6.48595
 11
-33.368
 21
-6.5029
  0
LINE
  8
0
 10
-33.368
 20
-6.5029
 11
-33.3899
 21
-6.51807
  0
LINE
  8
0
 10
-33.3899
 20
-6.51807
 11
-33.4129
 21
-6.53136
  0
LINE
  8
0
 10
-33.4129
 20
-6.53136
 11
-33.437
 21
-6.54268
  0
LINE
  8
0
 10
-33.437
 20
-6.54268
 11
-33.4619
 21
-6.55196
  0
LINE
  8
0
 10
-33.4619
 20
-6.55196
 11
-33.4875
 21
-6.5591
  0
LINE
  8
0
 10
-33.4875
 20
-6.5591
 11
-33.5136
 21
-6.56409
  0
LINE
  8
0
 10
-33.5136
 20
-6.56409
 11
-33.5401
 21
-6.56686
  0
LINE
  8
0
 10
-33.5401
 20
-6.56686
 11
-33.5666
 21
-6.56743
  0
LINE
  8
0
 10
-33.5666
 20
-6.56743
 11
-33.5932
 21
-6.56575
  0
LINE
  8
0
 10
-33.5932
 20
-19.3158
 11
-33.6195
 21
-19.3119
  0
LINE
  8
0
 10
-33.6195
 20
-19.3119
 11
-33.6454
 21
-19.3058
  0
LINE
  8
0
 10
-33.6454
 20
-19.3058
 11
-33.6707
 21
-19.2976
  0
LINE
  8
0
 10
-33.6707
 20
-19.2976
 11
-33.6952
 21
-19.2873
  0
LINE
  8
0
 10
-33.6952
 20
-19.2873
 11
-33.7188
 21
-19.275
  0
LINE
  8
0
 10
-33.7188
 20
-19.275
 11
-33.7412
 21
-19.2607
  0
LINE
  8
0
 10
-33.7412
 20
-19.2607
 11
-33.7624
 21
-19.2446
  0
LINE
  8
0
 10
-33.7624
 20
-19.2446
 11
-33.7821
 21
-19.2268
  0
LINE
  8
0
 10
-33.7821
 20
-19.2268
 11
-33.8003
 21
-19.2075
  0
LINE
  8
0
 10
-33.8003
 20
-19.2075
 11
-33.8168
 21
-19.1866
  0
LINE
  8
0
 10
-33.8168
 20
-19.1866
 11
-33.8316
 21
-19.1645
  0
LINE
  8
0
 10
-33.8316
 20
-19.1645
 11
-33.8444
 21
-19.1412
  0
LINE
  8
0
 10
-33.8444
 20
-19.1412
 11
-33.8552
 21
-19.1169
  0
LINE
  8
0
 10
-33.8552
 20
-19.1169
 11
-33.8639
 21
-19.0918
  0
LINE
  8
0
 10
-33.8639
 20
-19.0918
 11
-33.8706
 21
-19.066
  0
LINE
  8
0
 10
-33.8706
 20
-19.066
 11
-33.875
 21
-19.0398
  0
LINE
  8
0
 10
-33.875
 20
-19.0398
 11
-33.8772
 21
-19.0133
  0
LINE
  8
0
 10
-33.8772
 20
-19.0133
 11
-33.8772
 21
-18.9867
  0
LINE
  8
0
 10
-33.8772
 20
-18.9867
 11
-33.875
 21
-18.9602
  0
LINE
  8
0
 10
-33.875
 20
-18.9602
 11
-33.8706
 21
-18.934
  0
LINE
  8
0
 10
-33.8706
 20
-18.934
 11
-33.8639
 21
-18.9082
  0
LINE
  8
0
 10
-33.8639
 20
-18.9082
 11
-33.8552
 21
-18.8831
  0
LINE
  8
0
 10
-33.8552
 20
-18.8831
 11
-33.8444
 21
-18.8588
  0
LINE
  8
0
 10
-33.8444
 20
-18.8588
 11
-33.8316
 21
-18.8355
  0
LINE
  8
0
 10
-33.8316
 20
-18.8355
 11
-33.8168
 21
-18.8134
  0
LINE
  8
0
 10
-33.8168
 20
-18.8134
 11
-33.8003
 21
-18.7925
  0
LINE
  8
0
 10
-33.8003
 20
-18.7925
 11
-33.7821
 21
-18.7731
  0
LINE
  8
0
 10
-33.7821
 20
-18.7731
 11
-33.7624
 21
-18.7554
  0
LINE
  8
0
 10
-33.7624
 20
-18.7554
 11
-33.7412
 21
-18.7393
  0
LINE
  8
0
 10
-33.7412
 20
-18.7393
 11
-33.7188
 21
-18.725
  0
LINE
  8
0
 10
-33.7188
 20
-18.725
 11
-33.6952
 21
-18.7127
  0
LINE
  8
0
 10
-33.6952
 20
-18.7127
 11
-33.6707
 21
-18.7024
  0
LINE
  8
0
 10
-33.6707
 20
-18.7024
 11
-33.6454
 21
-18.6942
  0
LINE
  8
0
 10
-33.6454
 20
-18.6942
 11
-33.6195
 21
-18.6881
  0
LINE
  8
0
 10
-33.6195
 20
-18.6881
 11
-33.5932
 21
-18.6842
  0
LINE
  8
0
 10
-33.5932
 20
-18.6842
 11
-33.5666
 21
-18.6826
  0
LINE
  8
0
 10
-33.5666
 20
-18.6826
 11
-33.5401
 21
-18.6831
  0
LINE
  8
0
 10
-33.5401
 20
-18.6831
 11
-33.5136
 21
-18.6859
  0
LINE
  8
0
 10
-33.5136
 20
-18.6859
 11
-33.4875
 21
-18.6909
  0
LINE
  8
0
 10
-33.4875
 20
-18.6909
 11
-33.4619
 21
-18.698
  0
LINE
  8
0
 10
-33.4619
 20
-18.698
 11
-33.437
 21
-18.7073
  0
LINE
  8
0
 10
-33.437
 20
-18.7073
 11
-33.4129
 21
-18.7186
  0
LINE
  8
0
 10
-33.4129
 20
-18.7186
 11
-33.3899
 21
-18.7319
  0
LINE
  8
0
 10
-33.3899
 20
-18.7319
 11
-33.368
 21
-18.7471
  0
LINE
  8
0
 10
-33.368
 20
-18.7471
 11
-33.3475
 21
-18.7641
  0
LINE
  8
0
 10
-33.3475
 20
-18.7641
 11
-33.3286
 21
-18.7827
  0
LINE
  8
0
 10
-33.3286
 20
-18.7827
 11
-33.3112
 21
-18.8028
  0
LINE
  8
0
 10
-33.3112
 20
-18.8028
 11
-33.2955
 21
-18.8243
  0
LINE
  8
0
 10
-33.2955
 20
-18.8243
 11
-33.2818
 21
-18.847
  0
LINE
  8
0
 10
-33.2818
 20
-18.847
 11
-33.2699
 21
-18.8708
  0
LINE
  8
0
 10
-33.2699
 20
-18.8708
 11
-33.2601
 21
-18.8956
  0
LINE
  8
0
 10
-33.2601
 20
-18.8956
 11
-33.2525
 21
-18.921
  0
LINE
  8
0
 10
-33.2525
 20
-18.921
 11
-33.2469
 21
-18.9471
  0
LINE
  8
0
 10
-33.2469
 20
-18.9471
 11
-33.2436
 21
-18.9734
  0
LINE
  8
0
 10
-33.2436
 20
-18.9734
 11
-33.2425
 21
-19
  0
LINE
  8
0
 10
-33.2425
 20
-19
 11
-33.2436
 21
-19.0266
  0
LINE
  8
0
 10
-33.2436
 20
-19.0266
 11
-33.2469
 21
-19.0529
  0
LINE
  8
0
 10
-33.2469
 20
-19.0529
 11
-33.2525
 21
-19.0789
  0
LINE
  8
0
 10
-33.2525
 20
-19.0789
 11
-33.2601
 21
-19.1044
  0
LINE
  8
0
 10
-33.2601
 20
-19.1044
 11
-33.2699
 21
-19.1291
  0
LINE
  8
0
 10
-33.2699
 20
-19.1291
 11
-33.2818
 21
-19.153
  0
LINE
  8
0
 10
-33.2818
 20
-19.153
 11
-33.2955
 21
-19.1757
  0
LINE
  8
0
 10
-33.2955
 20
-19.1757
 11
-33.3112
 21
-19.1972
  0
LINE
  8
0
 10
-33.3112
 20
-19.1972
 11
-33.3286
 21
-19.2173
  0
LINE
  8
0
 10
-33.3286
 20
-19.2173
 11
-33.3475
 21
-19.2359
  0
LINE
  8
0
 10
-33.3475
 20
-19.2359
 11
-33.368
 21
-19.2529
  0
LINE
  8
0
 10
-33.368
 20
-19.2529
 11
-33.3899
 21
-19.2681
  0
LINE
  8
0
 10
-33.3899
 20
-19.2681
 11
-33.4129
 21
-19.2814
  0
LINE
  8
0
 10
-33.4129
 20
-19.2814
 11
-33.437
 21
-19.2927
  0
LINE
  8
0
 10
-33.437
 20
-19.2927
 11
-33.4619
 21
-19.302
  0
LINE
  8
0
 10
-33.4619
 20
-19.302
 11
-33.4875
 21
-19.3091
  0
LINE
  8
0
 10
-33.4875
 20
-19.3091
 11
-33.5136
 21
-19.3141
  0
LINE
  8
0
 10
-33.5136
 20
-19.3141
 11
-33.5401
 21
-19.3169
  0
LINE
  8
0
 10
-33.5401
 20
-19.3169
 11
-33.5666
 21
-19.3174
  0
LINE
  8
0
 10
-33.5666
 20
-19.3174
 11
-33.5932
 21
-19.3158
  0
LINE
  8
0
 10
-33.5932
 20
-32.0658
 11
-33.6195
 21
-32.0619
  0
LINE
  8
0
 10
-33.6195
 20
-32.0619
 11
-33.6454
 21
-32.0558
  0
LINE
  8
0
 10
-33.6454
 20
-32.0558
 11
-33.6707
 21
-32.0476
  0
LINE
  8
0
 10
-33.6707
 20
-32.0476
 11
-33.6952
 21
-32.0373
  0
LINE
  8
0
 10
-33.6952
 20
-32.0373
 11
-33.7188
 21
-32.025
  0
LINE
  8
0
 10
-33.7188
 20
-32.025
 11
-33.7412
 21
-32.0107
  0
LINE
  8
0
 10
-33.7412
 20
-32.0107
 11
-33.7624
 21
-31.9946
  0
LINE
  8
0
 10
-33.7624
 20
-31.9946
 11
-33.7821
 21
-31.9768
  0
LINE
  8
0
 10
-33.7821
 20
-31.9768
 11
-33.8003
 21
-31.9575
  0
LINE
  8
0
 10
-33.8003
 20
-31.9575
 11
-33.8168
 21
-31.9366
  0
LINE
  8
0
 10
-33.8168
 20
-31.9366
 11
-33.8316
 21
-31.9145
  0
LINE
  8
0
 10
-33.8316
 20
-31.9145
 11
-33.8444
 21
-31.8912
  0
LINE
  8
0
 10
-33.8444
 20
-31.8912
 11
-33.8552
 21
-31.8669
  0
LINE
  8
0
 10
-33.8552
 20
-31.8669
 11
-33.8639
 21
-31.8418
  0
LINE
  8
0
 10
-33.8639
 20
-31.8418
 11
-33.8706
 21
-31.816
  0
LINE
  8
0
 10
-33.8706
 20
-31.816
 11
-33.875
 21
-31.7898
  0
LINE
  8
0
 10
-33.875
 20
-31.7898
 11
-33.8772
 21
-31.7633
  0
LINE
  8
0
 10
-33.8772
 20
-31.7633
 11
-33.8772
 21
-31.7367
  0
LINE
  8
0
 10
-33.8772
 20
-31.7367
 11
-33.875
 21
-31.7102
  0
LINE
  8
0
 10
-33.875
 20
-31.7102
 11
-33.8706
 21
-31.684
  0
LINE
  8
0
 10
-33.8706
 20
-31.684
 11
-33.8639
 21
-31.6582
  0
LINE
  8
0
 10
-33.8639
 20
-31.6582
 11
-33.8552
 21
-31.6331
  0
LINE
  8
0
 10
-33.8552
 20
-31.6331
 11
-33.8444
 21
-31.6088
  0
LINE
  8
0
 10
-33.8444
 20
-31.6088
 11
-33.8316
 21
-31.5855
  0
LINE
  8
0
 10
-33.8316
 20
-31.5855
 11
-33.8168
 21
-31.5634
  0
LINE
  8
0
 10
-33.8168
 20
-31.5634
 11
-33.8003
 21
-31.5425
  0
LINE
  8
0
 10
-33.8003
 20
-31.5425
 11
-33.7821
 21
-31.5231
  0
LINE
  8
0
 10
-33.7821
 20
-31.5231
 11
-33.7624
 21
-31.5054
  0
LINE
  8
0
 10
-33.7624
 20
-31.5054
 11
-33.7412
 21
-31.4893
  0
LINE
  8
0
 10
-33.7412
 20
-31.4893
 11
-33.7188
 21
-31.475
  0
LINE
  8
0
 10
-33.7188
 20
-31.475
 11
-33.6952
 21
-31.4627
  0
LINE
  8
0
 10
-33.6952
 20
-31.4627
 11
-33.6707
 21
-31.4524
  0
LINE
  8
0
 10
-33.6707
 20
-31.4524
 11
-33.6454
 21
-31.4442
  0
LINE
  8
0
 10
-33.6454
 20
-31.4442
 11
-33.6195
 21
-31.4381
  0
LINE
  8
0
 10
-33.6195
 20
-31.4381
 11
-33.5932
 21
-31.4342
  0
LINE
  8
0
 10
-33.5932
 20
-31.4342
 11
-33.5666
 21
-31.4326
  0
LINE
  8
0
 10
-33.5666
 20
-31.4326
 11
-33.5401
 21
-31.4331
  0
LINE
  8
0
 10
-33.5401
 20
-31.4331
 11
-33.5136
 21
-31.4359
  0
LINE
  8
0
 10
-33.5136
 20
-31.4359
 11
-33.4875
 21
-31.4409
  0
LINE
  8
0
 10
-33.4875
 20
-31.4409
 11
-33.4619
 21
-31.448
  0
LINE
  8
0
 10
-33.4619
 20
-31.448
 11
-33.437
 21
-31.4573
  0
LINE
  8
0
 10
-33.437
 20
-31.4573
 11
-33.4129
 21
-31.4686
  0
LINE
  8
0
 10
-33.4129
 20
-31.4686
 11
-33.3899
 21
-31.4819
  0
LINE
  8
0
 10
-33.3899
 20
-31.4819
 11
-33.368
 21
-31.4971
  0
LINE
  8
0
 10
-33.368
 20
-31.4971
 11
-33.3475
 21
-31.5141
  0
LINE
  8
0
 10
-33.3475
 20
-31.5141
 11
-33.3286
 21
-31.5327
  0
LINE
  8
0
 10
-33.3286
 20
-31.5327
 11
-33.3112
 21
-31.5528
  0
LINE
  8
0
 10
-33.3112
 20
-31.5528
 11
-33.2955
 21
-31.5743
  0
LINE
  8
0
 10
-33.2955
 20
-31.5743
 11
-33.2818
 21
-31.597
  0
LINE
  8
0
 10
-33.2818
 20
-31.597
 11
-33.2699
 21
-31.6208
  0
LINE
  8
0
 10
-33.2699
 20
-31.6208
 11
-33.2601
 21
-31.6456
  0
LINE
  8
0
 10
-33.2601
 20
-31.6456
 11
-33.2525
 21
-31.671
  0
LINE
  8
0
 10
-33.2525
 20
-31.671
 11
-33.2469
 21
-31.6971
  0
LINE
  8
0
 10
-33.2469
 20
-31.6971
 11
-33.2436
 21
-31.7234
  0
LINE
  8
0
 10
-33.2436
 20
-31.7234
 11
-33.2425
 21
-31.75
  0
LINE
  8
0
 10
-33.2425
 20
-31.75
 11
-33.2436
 21
-31.7766
  0
LINE
  8
0
 10
-33.2436
 20
-31.7766
 11
-33.2469
 21
-31.8029
  0
LINE
  8
0
 10
-33.2469
 20
-31.8029
 11
-33.2525
 21
-31.8289
  0
LINE
  8
0
 10
-33.2525
 20
-31.8289
 11
-33.2601
 21
-31.8544
  0
LINE
  8
0
 10
-33.2601
 20
-31.8544
 11
-33.2699
 21
-31.8791
  0
LINE
  8
0
 10
-33.2699
 20
-31.8791
 11
-33.2818
 21
-31.903
  0
LINE
  8
0
 10
-33.2818
 20
-31.903
 11
-33.2955
 21
-31.9257
  0
LINE
  8
0
 10
-33.2955
 20
-31.9257
 11
-33.3112
 21
-31.9472
  0
LINE
  8
0
 10
-33.3112
 20
-31.9472
 11
-33.3286
 21
-31.9673
  0
LINE
  8
0
 10
-33.3286
 20
-31.9673
 11
-33.3475
 21
-31.9859
  0
LINE
  8
0
 10
-33.3475
 20
-31.9859
 11
-33.368
 21
-32.0029
  0
LINE
  8
0
 10
-33.368
 20
-32.0029
 11
-33.3899
 21
-32.0181
  0
LINE
  8
0
 10
-33.3899
 20
-32.0181
 11
-33.4129
 21
-32.0314
  0
LINE
  8
0
 10
-33.4129
 20
-32.0314
 11
-33.437
 21
-32.0427
  0
LINE
  8
0
 10
-33.437
 20
-32.0427
 11
-33.4619
 21
-32.052
  0
LINE
  8
0
 10
-33.4619
 20
-32.052
 11
-33.4875
 21
-32.0591
  0
LINE
  8
0
 10
-33.4875
 20
-32.0591
 11
-33.5136
 21
-32.0641
  0
LINE
  8
0
 10
-33.5136
 20
-32.0641
 11
-33.5401
 21
-32.0669
  0
LINE
  8
0
 10
-33.5401
 20
-32.0669
 11
-33.5666
 21
-32.0674
  0
LINE
  8
0
 10
-33.5666
 20
-32.0674
 11
-33.5932
 21
-32.0658
  0
LINE
  8
0
 10
-33.5932
 20
-38.3158
 11
-33.6195
 21
-38.3119
  0
LINE
  8
0
 10
-33.6195
 20
-38.3119
 11
-33.6454
 21
-38.3058
  0
LINE
  8
0
 10
-33.6454
 20
-38.3058
 11
-33.6707
 21
-38.2976
  0
LINE
  8
0
 10
-33.6707
 20
-38.2976
 11
-33.6952
 21
-38.2873
  0
LINE
  8
0
 10
-33.6952
 20
-38.2873
 11
-33.7188
 21
-38.275
  0
LINE
  8
0
 10
-33.7188
 20
-38.275
 11
-33.7412
 21
-38.2607
  0
LINE
  8
0
 10
-33.7412
 20
-38.2607
 11
-33.7624
 21
-38.2446
  0
LINE
  8
0
 10
-33.7624
 20
-38.2446
 11
-33.7821
 21
-38.2268
  0
LINE
  8
0
 10
-33.7821
 20
-38.2268
 11
-33.8003
 21
-38.2075
  0
LINE
  8
0
 10
-33.8003
 20
-38.2075
 11
-33.8168
 21
-38.1866
  0
LINE
  8
0
 10
-33.8168
 20
-38.1866
 11
-33.8316
 21
-38.1645
  0
LINE
  8
0
 10
-33.8316
 20
-38.1645
 11
-33.8444
 21
-38.1412
  0
LINE
  8
0
 10
-33.8444
 20
-38.1412
 11
-33.8552
 21
-38.1169
  0
LINE
  8
0
 10
-33.8552
 20
-38.1169
 11
-33.8639
 21
-38.0918
  0
LINE
  8
0
 10
-33.8639
 20
-38.0918
 11
-33.8706
 21
-38.066
  0
LINE
  8
0
 10
-33.8706
 20
-38.066
 11
-33.875
 21
-38.0398
  0
LINE
  8
0
 10
-33.875
 20
-38.0398
 11
-33.8772
 21
-38.0133
  0
LINE
  8
0
 10
-33.8772
 20
-38.0133
 11
-33.8772
 21
-37.9867
  0
LINE
  8
0
 10
-33.8772
 20
-37.9867
 11
-33.875
 21
-37.9602
  0
LINE
  8
0
 10
-33.875
 20
-37.9602
 11
-33.8706
 21
-37.934
  0
LINE
  8
0
 10
-33.8706
 20
-37.934
 11
-33.8639
 21
-37.9082
  0
LINE
  8
0
 10
-33.8639
 20
-37.9082
 11
-33.8552
 21
-37.8831
  0
LINE
  8
0
 10
-33.8552
 20
-37.8831
 11
-33.8444
 21
-37.8588
  0
LINE
  8
0
 10
-33.8444
 20
-37.8588
 11
-33.8316
 21
-37.8355
  0
LINE
  8
0
 10
-33.8316
 20
-37.8355
 11
-33.8168
 21
-37.8134
  0
LINE
  8
0
 10
-33.8168
 20
-37.8134
 11
-33.8003
 21
-37.7925
  0
LINE
  8
0
 10
-33.8003
 20
-37.7925
 11
-33.7821
 21
-37.7731
  0
LINE
  8
0
 10
-33.7821
 20
-37.7731
 11
-33.7624
 21
-37.7554
  0
LINE
  8
0
 10
-33.7624
 20
-37.7554
 11
-33.7412
 21
-37.7393
  0
LINE
  8
0
 10
-33.7412
 20
-37.7393
 11
-33.7188
 21
-37.725
  0
LINE
  8
0
 10
-33.7188
 20
-37.725
 11
-33.6952
 21
-37.7127
  0
LINE
  8
0
 10
-33.6952
 20
-37.7127
 11
-33.6707
 21
-37.7024
  0
LINE
  8
0
 10
-33.6707
 20
-37.7024
 11
-33.6454
 21
-37.6942
  0
LINE
  8
0
 10
-33.6454
 20
-37.6942
 11
-33.6195
 21
-37.6881
  0
LINE
  8
0
 10
-33.6195
 20
-37.6881
 11
-33.5932
 21
-37.6842
  0
LINE
  8
0
 10
-33.5932
 20
-37.6842
 11
-33.5666
 21
-37.6826
  0
LINE
  8
0
 10
-33.5666
 20
-37.6826
 11
-33.5401
 21
-37.6831
  0
LINE
  8
0
 10
-33.5401
 20
-37.6831
 11
-33.5136
 21
-37.6859
  0
LINE
  8
0
 10
-33.5136
 20
-37.6859
 11
-33.4875
 21
-37.6909
  0
LINE
  8
0
 10
-33.4875
 20
-37.6909
 11
-33.4619
 21
-37.698
  0
LINE
  8
0
 10
-33.4619
 20
-37.698
 11
-33.437
 21
-37.7073
  0
LINE
  8
0
 10
-33.437
 20
-37.7073
 11
-33.4129
 21
-37.7186
  0
LINE
  8
0
 10
-33.4129
 20
-37.7186
 11
-33.3899
 21
-37.7319
  0
LINE
  8
0
 10
-33.3899
 20
-37.7319
 11
-33.368
 21
-37.7471
  0
LINE
  8
0
 10
-33.368
 20
-37.7471
 11
-33.3475
 21
-37.7641
  0
LINE
  8
0
 10
-33.3475
 20
-37.7641
 11
-33.3286
 21
-37.7827
  0
LINE
  8
0
 10
-33.3286
 20
-37.7827
 11
-33.3112
 21
-37.8028
  0
LINE
  8
0
 10
-33.3112
 20
-37.8028
 11
-33.2955
 21
-37.8243
  0
LINE
  8
0
 10
-33.2955
 20
-37.8243
 11
-33.2818
 21
-37.847
  0
LINE
  8
0
 10
-33.2818
 20
-37.847
 11
-33.2699
 21
-37.8708
  0
LINE
  8
0
 10
-33.2699
 20
-37.8708
 11
-33.2601
 21
-37.8956
  0
LINE
  8
0
 10
-33.2601
 20
-37.8956
 11
-33.2525
 21
-37.921
  0
LINE
  8
0
 10
-33.2525
 20
-37.921
 11
-33.2469
 21
-37.9471
  0
LINE
  8
0
 10
-33.2469
 20
-37.9471
 11
-33.2436
 21
-37.9734
  0
LINE
  8
0
 10
-33.2436
 20
-37.9734
 11
-33.2425
 21
-38
  0
LINE
  8
0
 10
-33.2425
 20
-38
 11
-33.2436
 21
-38.0266
  0
LINE
  8
0
 10
-33.2436
 20
-38.0266
 11
-33.2469
 21
-38.0529
  0
LINE
  8
0
 10
-33.2469
 20
-38.0529
 11
-33.2525
 21
-38.0789
  0
LINE
  8
0
 10
-33.2525
 20
-38.0789
 11
-33.2601
 21
-38.1044
  0
LINE
  8
0
 10
-33.2601
 20
-38.1044
 11
-33.2699
 21
-38.1291
  0
LINE
  8
0
 10
-33.2699
 20
-38.1291
 11
-33.2818
 21
-38.153
  0
LINE
  8
0
 10
-33.2818
 20
-38.153
 11
-33.2955
 21
-38.1757
  0
LINE
  8
0
 10
-33.2955
 20
-38.1757
 11
-33.3112
 21
-38.1972
  0
LINE
  8
0
 10
-33.3112
 20
-38.1972
 11
-33.3286
 21
-38.2173
  0
LINE
  8
0
 10
-33.3286
 20
-38.2173
 11
-33.3475
 21
-38.2359
  0
LINE
  8
0
 10
-33.3475
 20
-38.2359
 11
-33.368
 21
-38.2529
  0
LINE
  8
0
 10
-33.368
 20
-38.2529
 11
-33.3899
 21
-38.2681
  0
LINE
  8
0
 10
-33.3899
 20
-38.2681
 11
-33.4129
 21
-38.2814
  0
LINE
  8
0
 10
-33.4129
 20
-38.2814
 11
-33.437
 21
-38.2927
  0
LINE
  8
0
 10
-33.437
 20
-38.2927
 11
-33.4619
 21
-38.302
  0
LINE
  8
0
 10
-33.4619
 20
-38.302
 11
-33.4875
 21
-38.3091
  0
LINE
  8
0
 10
-33.4875
 20
-38.3091
 11
-33.5136
 21
-38.3141
  0
LINE
  8
0
 10
-33.5136
 20
-38.3141
 11
-33.5401
 21
-38.3169
  0
LINE
  8
0
 10
-33.5401
 20
-38.3169
 11
-33.5666
 21
-38.3174
  0
LINE
  8
0
 10
-33.5666
 20
-38.3174
 11
-33.5932
 21
-38.3158
  0
ENDSEC
  0
SECTION
  2
OBJECTS
  0
DICTIONARY
  0
ENDSEC
  0
EOF
