solid OpenSCAD_Model
  facet normal -1 0 0
    outer loop
      vertex 0 4.14048 0
      vertex 0 7.62 3.47952
      vertex 0 7.62 0
    endloop
  endfacet
  facet normal -1 -0 0
    outer loop
      vertex 0 7.62 3.47952
      vertex 0 4.14048 0
      vertex 0 4.14048 3.47952
    endloop
  endfacet
  facet normal 0 0 1
    outer loop
      vertex 78 7.62 7.62
      vertex 74.475 4.76 7.62
      vertex 78 0 7.62
    endloop
  endfacet
  facet normal -0 0 1
    outer loop
      vertex 64.7854 7.62 7.62
      vertex 74.475 4.76 7.62
      vertex 78 7.62 7.62
    endloop
  endfacet
  facet normal 0 0 1
    outer loop
      vertex 68.225 4.76 7.62
      vertex 64.7854 7.62 7.62
      vertex 68.225 2.86 7.62
    endloop
  endfacet
  facet normal 0 0 1
    outer loop
      vertex 74.475 4.76 7.62
      vertex 64.7854 7.62 7.62
      vertex 68.225 4.76 7.62
    endloop
  endfacet
  facet normal -0 0 1
    outer loop
      vertex 74.475 2.86 7.62
      vertex 78 0 7.62
      vertex 74.475 4.76 7.62
    endloop
  endfacet
  facet normal 0 0 1
    outer loop
      vertex 64.7854 0 7.62
      vertex 74.475 2.86 7.62
      vertex 68.225 2.86 7.62
    endloop
  endfacet
  facet normal 0 0 1
    outer loop
      vertex 74.475 2.86 7.62
      vertex 64.7854 0 7.62
      vertex 78 0 7.62
    endloop
  endfacet
  facet normal 0 0 1
    outer loop
      vertex 64.7854 0 7.62
      vertex 68.225 2.86 7.62
      vertex 64.7854 7.62 7.62
    endloop
  endfacet
  facet normal 1 -0 0
    outer loop
      vertex 78 0 7.62
      vertex 78 7.62 0
      vertex 78 7.62 7.62
    endloop
  endfacet
  facet normal 1 0 0
    outer loop
      vertex 78 7.62 0
      vertex 78 0 7.62
      vertex 78 0 0
    endloop
  endfacet
  facet normal 0 0 -1
    outer loop
      vertex 78 0 0
      vertex 74.475 2.86 0
      vertex 78 7.62 0
    endloop
  endfacet
  facet normal 0 0 -1
    outer loop
      vertex 64.7854 0 0
      vertex 74.475 2.86 0
      vertex 78 0 0
    endloop
  endfacet
  facet normal -0 0 -1
    outer loop
      vertex 66.35 2.86 0
      vertex 64.7854 0 0
      vertex 66.35 4.76 0
    endloop
  endfacet
  facet normal -0 0 -1
    outer loop
      vertex 74.475 2.86 0
      vertex 64.7854 0 0
      vertex 66.35 2.86 0
    endloop
  endfacet
  facet normal 0 0 -1
    outer loop
      vertex 74.475 4.76 0
      vertex 78 7.62 0
      vertex 74.475 2.86 0
    endloop
  endfacet
  facet normal 0 0 -1
    outer loop
      vertex 66.35 4.76 0
      vertex 78 7.62 0
      vertex 74.475 4.76 0
    endloop
  endfacet
  facet normal 0 0 -1
    outer loop
      vertex 0 7.62 0
      vertex 64.7854 0 0
      vertex 0 4.14048 0
    endloop
  endfacet
  facet normal 0 0 -1
    outer loop
      vertex 64.7854 0 0
      vertex 0 7.62 0
      vertex 66.35 4.76 0
    endloop
  endfacet
  facet normal 0 0 -1
    outer loop
      vertex 66.35 4.76 0
      vertex 0 7.62 0
      vertex 78 7.62 0
    endloop
  endfacet
  facet normal 0 -1 0
    outer loop
      vertex 76.35 0 4.76
      vertex 64.7854 0 7.62
      vertex 66.35 0 4.76
    endloop
  endfacet
  facet normal 0 -1 0
    outer loop
      vertex 64.7854 0 7.62
      vertex 66.35 0 2.86
      vertex 66.35 0 4.76
    endloop
  endfacet
  facet normal 0 -1 -0
    outer loop
      vertex 66.35 0 2.86
      vertex 64.7854 0 0
      vertex 76.35 0 2.86
    endloop
  endfacet
  facet normal 0 -1 0
    outer loop
      vertex 64.7854 0 0
      vertex 66.35 0 2.86
      vertex 64.7854 0 7.62
    endloop
  endfacet
  facet normal 0 -1 0
    outer loop
      vertex 64.7854 0 7.62
      vertex 76.35 0 4.76
      vertex 78 0 7.62
    endloop
  endfacet
  facet normal 0 -1 0
    outer loop
      vertex 76.35 0 2.86
      vertex 78 0 7.62
      vertex 76.35 0 4.76
    endloop
  endfacet
  facet normal 0 -1 0
    outer loop
      vertex 76.35 0 2.86
      vertex 78 0 0
      vertex 78 0 7.62
    endloop
  endfacet
  facet normal 0 -1 0
    outer loop
      vertex 78 0 0
      vertex 76.35 0 2.86
      vertex 64.7854 0 0
    endloop
  endfacet
  facet normal 0 1 0
    outer loop
      vertex 78 7.62 7.62
      vertex 76.35 7.62 4.76
      vertex 64.7854 7.62 7.62
    endloop
  endfacet
  facet normal 0 1 0
    outer loop
      vertex 78 7.62 7.62
      vertex 76.35 7.62 2.86
      vertex 76.35 7.62 4.76
    endloop
  endfacet
  facet normal 0 1 0
    outer loop
      vertex 76.35 7.62 2.86
      vertex 78 7.62 0
      vertex 66.35 7.62 2.86
    endloop
  endfacet
  facet normal 0 1 -0
    outer loop
      vertex 78 7.62 0
      vertex 76.35 7.62 2.86
      vertex 78 7.62 7.62
    endloop
  endfacet
  facet normal 0 1 -0
    outer loop
      vertex 66.35 7.62 4.76
      vertex 64.7854 7.62 7.62
      vertex 76.35 7.62 4.76
    endloop
  endfacet
  facet normal 0 1 -0
    outer loop
      vertex 66.35 7.62 2.86
      vertex 64.7854 7.62 7.62
      vertex 66.35 7.62 4.76
    endloop
  endfacet
  facet normal 0 1 0
    outer loop
      vertex 0 7.62 0
      vertex 64.7854 7.62 7.62
      vertex 66.35 7.62 2.86
    endloop
  endfacet
  facet normal 0 1 0
    outer loop
      vertex 0 7.62 0
      vertex 66.35 7.62 2.86
      vertex 78 7.62 0
    endloop
  endfacet
  facet normal 0 1 0
    outer loop
      vertex 64.7854 7.62 7.62
      vertex 0 7.62 0
      vertex 0 7.62 3.47952
    endloop
  endfacet
  facet normal -0.0637806 -0.997964 0
    outer loop
      vertex 64.7854 0 0
      vertex 0 4.14048 3.47952
      vertex 0 4.14048 0
    endloop
  endfacet
  facet normal -0.0637806 -0.997964 0
    outer loop
      vertex 0 4.14048 3.47952
      vertex 64.7854 0 0
      vertex 64.7854 0 7.62
    endloop
  endfacet
  facet normal -0.0637806 0 0.997964
    outer loop
      vertex 0 4.14048 3.47952
      vertex 64.7854 7.62 7.62
      vertex 0 7.62 3.47952
    endloop
  endfacet
  facet normal -0.0637806 0 0.997964
    outer loop
      vertex 64.7854 7.62 7.62
      vertex 0 4.14048 3.47952
      vertex 64.7854 0 7.62
    endloop
  endfacet
  facet normal 1 0 0
    outer loop
      vertex 66.35 7.62 4.76
      vertex 66.35 4.76 2.86
      vertex 66.35 7.62 2.86
    endloop
  endfacet
  facet normal 1 0 0
    outer loop
      vertex 66.35 4.76 2.86
      vertex 66.35 2.86 2.86
      vertex 66.35 4.76 0
    endloop
  endfacet
  facet normal 1 0 0
    outer loop
      vertex 66.35 7.62 4.76
      vertex 66.35 2.86 2.86
      vertex 66.35 4.76 2.86
    endloop
  endfacet
  facet normal 1 -0 0
    outer loop
      vertex 66.35 0 4.76
      vertex 66.35 2.86 2.86
      vertex 66.35 7.62 4.76
    endloop
  endfacet
  facet normal 1 0 0
    outer loop
      vertex 66.35 2.86 2.86
      vertex 66.35 0 4.76
      vertex 66.35 0 2.86
    endloop
  endfacet
  facet normal 1 0 0
    outer loop
      vertex 66.35 4.76 0
      vertex 66.35 2.86 2.86
      vertex 66.35 2.86 0
    endloop
  endfacet
  facet normal 0 0 -1
    outer loop
      vertex 76.35 0 4.76
      vertex 74.475 2.86 4.76
      vertex 76.35 7.62 4.76
    endloop
  endfacet
  facet normal 0 0 -1
    outer loop
      vertex 76.35 0 4.76
      vertex 68.225 2.86 4.76
      vertex 74.475 2.86 4.76
    endloop
  endfacet
  facet normal -0 0 -1
    outer loop
      vertex 68.225 2.86 4.76
      vertex 66.35 0 4.76
      vertex 68.225 4.76 4.76
    endloop
  endfacet
  facet normal 0 0 -1
    outer loop
      vertex 66.35 0 4.76
      vertex 68.225 2.86 4.76
      vertex 76.35 0 4.76
    endloop
  endfacet
  facet normal 0 0 -1
    outer loop
      vertex 74.475 4.76 4.76
      vertex 76.35 7.62 4.76
      vertex 74.475 2.86 4.76
    endloop
  endfacet
  facet normal 0 0 -1
    outer loop
      vertex 68.225 4.76 4.76
      vertex 76.35 7.62 4.76
      vertex 74.475 4.76 4.76
    endloop
  endfacet
  facet normal 0 0 -1
    outer loop
      vertex 68.225 4.76 4.76
      vertex 66.35 7.62 4.76
      vertex 76.35 7.62 4.76
    endloop
  endfacet
  facet normal 0 0 -1
    outer loop
      vertex 66.35 7.62 4.76
      vertex 68.225 4.76 4.76
      vertex 66.35 0 4.76
    endloop
  endfacet
  facet normal -1 0 0
    outer loop
      vertex 76.35 0 2.86
      vertex 76.35 7.62 4.76
      vertex 76.35 7.62 2.86
    endloop
  endfacet
  facet normal -1 -0 0
    outer loop
      vertex 76.35 7.62 4.76
      vertex 76.35 0 2.86
      vertex 76.35 0 4.76
    endloop
  endfacet
  facet normal 0 0 1
    outer loop
      vertex 76.35 7.62 2.86
      vertex 74.475 4.76 2.86
      vertex 76.35 0 2.86
    endloop
  endfacet
  facet normal -0 0 1
    outer loop
      vertex 66.35 7.62 2.86
      vertex 74.475 4.76 2.86
      vertex 76.35 7.62 2.86
    endloop
  endfacet
  facet normal 0 0 1
    outer loop
      vertex 74.475 4.76 2.86
      vertex 66.35 7.62 2.86
      vertex 66.35 4.76 2.86
    endloop
  endfacet
  facet normal -0 0 1
    outer loop
      vertex 74.475 2.86 2.86
      vertex 76.35 0 2.86
      vertex 74.475 4.76 2.86
    endloop
  endfacet
  facet normal 0 0 1
    outer loop
      vertex 66.35 0 2.86
      vertex 74.475 2.86 2.86
      vertex 66.35 2.86 2.86
    endloop
  endfacet
  facet normal 0 0 1
    outer loop
      vertex 74.475 2.86 2.86
      vertex 66.35 0 2.86
      vertex 76.35 0 2.86
    endloop
  endfacet
  facet normal 1 -0 0
    outer loop
      vertex 68.225 2.86 7.62
      vertex 68.225 4.76 4.76
      vertex 68.225 4.76 7.62
    endloop
  endfacet
  facet normal 1 0 0
    outer loop
      vertex 68.225 4.76 4.76
      vertex 68.225 2.86 7.62
      vertex 68.225 2.86 4.76
    endloop
  endfacet
  facet normal -1 0 0
    outer loop
      vertex 74.475 2.86 0
      vertex 74.475 4.76 2.86
      vertex 74.475 4.76 0
    endloop
  endfacet
  facet normal -1 -0 0
    outer loop
      vertex 74.475 4.76 2.86
      vertex 74.475 2.86 0
      vertex 74.475 2.86 2.86
    endloop
  endfacet
  facet normal -1 0 0
    outer loop
      vertex 74.475 2.86 4.76
      vertex 74.475 4.76 7.62
      vertex 74.475 4.76 4.76
    endloop
  endfacet
  facet normal -1 -0 0
    outer loop
      vertex 74.475 4.76 7.62
      vertex 74.475 2.86 4.76
      vertex 74.475 2.86 7.62
    endloop
  endfacet
  facet normal 0 -1 0
    outer loop
      vertex 66.35 4.76 0
      vertex 74.475 4.76 2.86
      vertex 66.35 4.76 2.86
    endloop
  endfacet
  facet normal 0 -1 -0
    outer loop
      vertex 74.475 4.76 2.86
      vertex 66.35 4.76 0
      vertex 74.475 4.76 0
    endloop
  endfacet
  facet normal 0 -1 0
    outer loop
      vertex 68.225 4.76 4.76
      vertex 74.475 4.76 7.62
      vertex 68.225 4.76 7.62
    endloop
  endfacet
  facet normal 0 -1 -0
    outer loop
      vertex 74.475 4.76 7.62
      vertex 68.225 4.76 4.76
      vertex 74.475 4.76 4.76
    endloop
  endfacet
  facet normal 0 1 -0
    outer loop
      vertex 74.475 2.86 0
      vertex 66.35 2.86 2.86
      vertex 74.475 2.86 2.86
    endloop
  endfacet
  facet normal 0 1 0
    outer loop
      vertex 66.35 2.86 2.86
      vertex 74.475 2.86 0
      vertex 66.35 2.86 0
    endloop
  endfacet
  facet normal 0 1 -0
    outer loop
      vertex 74.475 2.86 4.76
      vertex 68.225 2.86 7.62
      vertex 74.475 2.86 7.62
    endloop
  endfacet
  facet normal 0 1 0
    outer loop
      vertex 68.225 2.86 7.62
      vertex 74.475 2.86 4.76
      vertex 68.225 2.86 4.76
    endloop
  endfacet
endsolid OpenSCAD_Model
