solid OpenSCAD_Model
  facet normal -1 0 0
    outer loop
      vertex 0 4.08736 0
      vertex 0 8.89 4.80264
      vertex 0 8.89 0
    endloop
  endfacet
  facet normal -1 -0 0
    outer loop
      vertex 0 8.89 4.80264
      vertex 0 4.08736 0
      vertex 0 4.08736 4.80264
    endloop
  endfacet
  facet normal 0 0 1
    outer loop
      vertex 78 8.89 8.89
      vertex 73.625 5.395 8.89
      vertex 78 0 8.89
    endloop
  endfacet
  facet normal -0 0 1
    outer loop
      vertex 63.9359 8.89 8.89
      vertex 73.625 5.395 8.89
      vertex 78 8.89 8.89
    endloop
  endfacet
  facet normal 0 0 1
    outer loop
      vertex 67.375 5.395 8.89
      vertex 63.9359 8.89 8.89
      vertex 67.375 3.495 8.89
    endloop
  endfacet
  facet normal 0 0 1
    outer loop
      vertex 73.625 5.395 8.89
      vertex 63.9359 8.89 8.89
      vertex 67.375 5.395 8.89
    endloop
  endfacet
  facet normal -0 0 1
    outer loop
      vertex 73.625 3.495 8.89
      vertex 78 0 8.89
      vertex 73.625 5.395 8.89
    endloop
  endfacet
  facet normal 0 0 1
    outer loop
      vertex 63.9359 0 8.89
      vertex 73.625 3.495 8.89
      vertex 67.375 3.495 8.89
    endloop
  endfacet
  facet normal 0 0 1
    outer loop
      vertex 73.625 3.495 8.89
      vertex 63.9359 0 8.89
      vertex 78 0 8.89
    endloop
  endfacet
  facet normal 0 0 1
    outer loop
      vertex 63.9359 0 8.89
      vertex 67.375 3.495 8.89
      vertex 63.9359 8.89 8.89
    endloop
  endfacet
  facet normal 1 -0 0
    outer loop
      vertex 78 0 8.89
      vertex 78 8.89 0
      vertex 78 8.89 8.89
    endloop
  endfacet
  facet normal 1 0 0
    outer loop
      vertex 78 8.89 0
      vertex 78 0 8.89
      vertex 78 0 0
    endloop
  endfacet
  facet normal 0 0 -1
    outer loop
      vertex 78 0 0
      vertex 73.625 3.495 0
      vertex 78 8.89 0
    endloop
  endfacet
  facet normal 0 0 -1
    outer loop
      vertex 63.9359 0 0
      vertex 73.625 3.495 0
      vertex 78 0 0
    endloop
  endfacet
  facet normal -0 0 -1
    outer loop
      vertex 67.375 3.495 0
      vertex 63.9359 0 0
      vertex 67.375 5.395 0
    endloop
  endfacet
  facet normal -0 0 -1
    outer loop
      vertex 73.625 3.495 0
      vertex 63.9359 0 0
      vertex 67.375 3.495 0
    endloop
  endfacet
  facet normal 0 0 -1
    outer loop
      vertex 73.625 5.395 0
      vertex 78 8.89 0
      vertex 73.625 3.495 0
    endloop
  endfacet
  facet normal 0 0 -1
    outer loop
      vertex 67.375 5.395 0
      vertex 78 8.89 0
      vertex 73.625 5.395 0
    endloop
  endfacet
  facet normal 0 0 -1
    outer loop
      vertex 0 8.89 0
      vertex 63.9359 0 0
      vertex 0 4.08736 0
    endloop
  endfacet
  facet normal 0 0 -1
    outer loop
      vertex 63.9359 0 0
      vertex 0 8.89 0
      vertex 67.375 5.395 0
    endloop
  endfacet
  facet normal 0 0 -1
    outer loop
      vertex 67.375 5.395 0
      vertex 0 8.89 0
      vertex 78 8.89 0
    endloop
  endfacet
  facet normal 0 -1 0
    outer loop
      vertex 75.5 0 5.395
      vertex 63.9359 0 8.89
      vertex 65.5 0 5.395
    endloop
  endfacet
  facet normal 0 -1 0
    outer loop
      vertex 63.9359 0 8.89
      vertex 65.5 0 3.495
      vertex 65.5 0 5.395
    endloop
  endfacet
  facet normal 0 -1 -0
    outer loop
      vertex 65.5 0 3.495
      vertex 63.9359 0 0
      vertex 75.5 0 3.495
    endloop
  endfacet
  facet normal 0 -1 0
    outer loop
      vertex 63.9359 0 0
      vertex 65.5 0 3.495
      vertex 63.9359 0 8.89
    endloop
  endfacet
  facet normal 0 -1 0
    outer loop
      vertex 63.9359 0 8.89
      vertex 75.5 0 5.395
      vertex 78 0 8.89
    endloop
  endfacet
  facet normal 0 -1 0
    outer loop
      vertex 75.5 0 3.495
      vertex 78 0 8.89
      vertex 75.5 0 5.395
    endloop
  endfacet
  facet normal 0 -1 0
    outer loop
      vertex 75.5 0 3.495
      vertex 78 0 0
      vertex 78 0 8.89
    endloop
  endfacet
  facet normal 0 -1 0
    outer loop
      vertex 78 0 0
      vertex 75.5 0 3.495
      vertex 63.9359 0 0
    endloop
  endfacet
  facet normal 0 1 0
    outer loop
      vertex 78 8.89 8.89
      vertex 75.5 8.89 5.395
      vertex 63.9359 8.89 8.89
    endloop
  endfacet
  facet normal 0 1 0
    outer loop
      vertex 78 8.89 8.89
      vertex 75.5 8.89 3.495
      vertex 75.5 8.89 5.395
    endloop
  endfacet
  facet normal 0 1 0
    outer loop
      vertex 75.5 8.89 3.495
      vertex 78 8.89 0
      vertex 65.5 8.89 3.495
    endloop
  endfacet
  facet normal 0 1 -0
    outer loop
      vertex 78 8.89 0
      vertex 75.5 8.89 3.495
      vertex 78 8.89 8.89
    endloop
  endfacet
  facet normal 0 1 -0
    outer loop
      vertex 65.5 8.89 5.395
      vertex 63.9359 8.89 8.89
      vertex 75.5 8.89 5.395
    endloop
  endfacet
  facet normal 0 1 -0
    outer loop
      vertex 65.5 8.89 3.495
      vertex 63.9359 8.89 8.89
      vertex 65.5 8.89 5.395
    endloop
  endfacet
  facet normal 0 1 0
    outer loop
      vertex 0 8.89 0
      vertex 63.9359 8.89 8.89
      vertex 65.5 8.89 3.495
    endloop
  endfacet
  facet normal 0 1 0
    outer loop
      vertex 0 8.89 0
      vertex 65.5 8.89 3.495
      vertex 78 8.89 0
    endloop
  endfacet
  facet normal 0 1 0
    outer loop
      vertex 63.9359 8.89 8.89
      vertex 0 8.89 0
      vertex 0 8.89 4.80264
    endloop
  endfacet
  facet normal -0.0637988 -0.997963 0
    outer loop
      vertex 63.9359 0 0
      vertex 0 4.08736 4.80264
      vertex 0 4.08736 0
    endloop
  endfacet
  facet normal -0.0637988 -0.997963 0
    outer loop
      vertex 0 4.08736 4.80264
      vertex 63.9359 0 0
      vertex 63.9359 0 8.89
    endloop
  endfacet
  facet normal -0.0637988 0 0.997963
    outer loop
      vertex 0 4.08736 4.80264
      vertex 63.9359 8.89 8.89
      vertex 0 8.89 4.80264
    endloop
  endfacet
  facet normal -0.0637988 0 0.997963
    outer loop
      vertex 63.9359 8.89 8.89
      vertex 0 4.08736 4.80264
      vertex 63.9359 0 8.89
    endloop
  endfacet
  facet normal 1 -0 0
    outer loop
      vertex 65.5 0 5.395
      vertex 65.5 8.89 3.495
      vertex 65.5 8.89 5.395
    endloop
  endfacet
  facet normal 1 0 0
    outer loop
      vertex 65.5 8.89 3.495
      vertex 65.5 0 5.395
      vertex 65.5 0 3.495
    endloop
  endfacet
  facet normal 0 0 -1
    outer loop
      vertex 75.5 0 5.395
      vertex 73.625 3.495 5.395
      vertex 75.5 8.89 5.395
    endloop
  endfacet
  facet normal 0 0 -1
    outer loop
      vertex 75.5 0 5.395
      vertex 67.375 3.495 5.395
      vertex 73.625 3.495 5.395
    endloop
  endfacet
  facet normal -0 0 -1
    outer loop
      vertex 67.375 3.495 5.395
      vertex 65.5 0 5.395
      vertex 67.375 5.395 5.395
    endloop
  endfacet
  facet normal 0 0 -1
    outer loop
      vertex 65.5 0 5.395
      vertex 67.375 3.495 5.395
      vertex 75.5 0 5.395
    endloop
  endfacet
  facet normal 0 0 -1
    outer loop
      vertex 73.625 5.395 5.395
      vertex 75.5 8.89 5.395
      vertex 73.625 3.495 5.395
    endloop
  endfacet
  facet normal 0 0 -1
    outer loop
      vertex 67.375 5.395 5.395
      vertex 75.5 8.89 5.395
      vertex 73.625 5.395 5.395
    endloop
  endfacet
  facet normal 0 0 -1
    outer loop
      vertex 67.375 5.395 5.395
      vertex 65.5 8.89 5.395
      vertex 75.5 8.89 5.395
    endloop
  endfacet
  facet normal 0 0 -1
    outer loop
      vertex 65.5 8.89 5.395
      vertex 67.375 5.395 5.395
      vertex 65.5 0 5.395
    endloop
  endfacet
  facet normal -1 0 0
    outer loop
      vertex 75.5 0 3.495
      vertex 75.5 8.89 5.395
      vertex 75.5 8.89 3.495
    endloop
  endfacet
  facet normal -1 -0 0
    outer loop
      vertex 75.5 8.89 5.395
      vertex 75.5 0 3.495
      vertex 75.5 0 5.395
    endloop
  endfacet
  facet normal 0 0 1
    outer loop
      vertex 75.5 8.89 3.495
      vertex 73.625 5.395 3.495
      vertex 75.5 0 3.495
    endloop
  endfacet
  facet normal 0 0 1
    outer loop
      vertex 75.5 8.89 3.495
      vertex 67.375 5.395 3.495
      vertex 73.625 5.395 3.495
    endloop
  endfacet
  facet normal 0 0 1
    outer loop
      vertex 67.375 5.395 3.495
      vertex 65.5 8.89 3.495
      vertex 67.375 3.495 3.495
    endloop
  endfacet
  facet normal -0 0 1
    outer loop
      vertex 65.5 8.89 3.495
      vertex 67.375 5.395 3.495
      vertex 75.5 8.89 3.495
    endloop
  endfacet
  facet normal -0 0 1
    outer loop
      vertex 73.625 3.495 3.495
      vertex 75.5 0 3.495
      vertex 73.625 5.395 3.495
    endloop
  endfacet
  facet normal -0 0 1
    outer loop
      vertex 67.375 3.495 3.495
      vertex 75.5 0 3.495
      vertex 73.625 3.495 3.495
    endloop
  endfacet
  facet normal 0 0 1
    outer loop
      vertex 67.375 3.495 3.495
      vertex 65.5 0 3.495
      vertex 75.5 0 3.495
    endloop
  endfacet
  facet normal 0 0 1
    outer loop
      vertex 65.5 0 3.495
      vertex 67.375 3.495 3.495
      vertex 65.5 8.89 3.495
    endloop
  endfacet
  facet normal 1 -0 0
    outer loop
      vertex 67.375 3.495 3.495
      vertex 67.375 5.395 0
      vertex 67.375 5.395 3.495
    endloop
  endfacet
  facet normal 1 0 0
    outer loop
      vertex 67.375 5.395 0
      vertex 67.375 3.495 3.495
      vertex 67.375 3.495 0
    endloop
  endfacet
  facet normal 1 -0 0
    outer loop
      vertex 67.375 3.495 8.89
      vertex 67.375 5.395 5.395
      vertex 67.375 5.395 8.89
    endloop
  endfacet
  facet normal 1 0 0
    outer loop
      vertex 67.375 5.395 5.395
      vertex 67.375 3.495 8.89
      vertex 67.375 3.495 5.395
    endloop
  endfacet
  facet normal -1 0 0
    outer loop
      vertex 73.625 3.495 0
      vertex 73.625 5.395 3.495
      vertex 73.625 5.395 0
    endloop
  endfacet
  facet normal -1 -0 0
    outer loop
      vertex 73.625 5.395 3.495
      vertex 73.625 3.495 0
      vertex 73.625 3.495 3.495
    endloop
  endfacet
  facet normal -1 0 0
    outer loop
      vertex 73.625 3.495 5.395
      vertex 73.625 5.395 8.89
      vertex 73.625 5.395 5.395
    endloop
  endfacet
  facet normal -1 -0 0
    outer loop
      vertex 73.625 5.395 8.89
      vertex 73.625 3.495 5.395
      vertex 73.625 3.495 8.89
    endloop
  endfacet
  facet normal 0 -1 0
    outer loop
      vertex 67.375 5.395 0
      vertex 73.625 5.395 3.495
      vertex 67.375 5.395 3.495
    endloop
  endfacet
  facet normal 0 -1 -0
    outer loop
      vertex 73.625 5.395 3.495
      vertex 67.375 5.395 0
      vertex 73.625 5.395 0
    endloop
  endfacet
  facet normal 0 -1 0
    outer loop
      vertex 67.375 5.395 5.395
      vertex 73.625 5.395 8.89
      vertex 67.375 5.395 8.89
    endloop
  endfacet
  facet normal 0 -1 -0
    outer loop
      vertex 73.625 5.395 8.89
      vertex 67.375 5.395 5.395
      vertex 73.625 5.395 5.395
    endloop
  endfacet
  facet normal 0 1 -0
    outer loop
      vertex 73.625 3.495 0
      vertex 67.375 3.495 3.495
      vertex 73.625 3.495 3.495
    endloop
  endfacet
  facet normal 0 1 0
    outer loop
      vertex 67.375 3.495 3.495
      vertex 73.625 3.495 0
      vertex 67.375 3.495 0
    endloop
  endfacet
  facet normal 0 1 -0
    outer loop
      vertex 73.625 3.495 5.395
      vertex 67.375 3.495 8.89
      vertex 73.625 3.495 8.89
    endloop
  endfacet
  facet normal 0 1 0
    outer loop
      vertex 67.375 3.495 8.89
      vertex 73.625 3.495 5.395
      vertex 67.375 3.495 5.395
    endloop
  endfacet
endsolid OpenSCAD_Model
