solid OpenSCAD_Model
  facet normal -1 0 0
    outer loop
      vertex 0 4.32798 0
      vertex 0 7.62 3.29202
      vertex 0 7.62 0
    endloop
  endfacet
  facet normal -1 -0 0
    outer loop
      vertex 0 7.62 3.29202
      vertex 0 4.32798 0
      vertex 0 4.32798 3.29202
    endloop
  endfacet
  facet normal 0 0 1
    outer loop
      vertex 81 7.62 7.62
      vertex 79.35 4.76 7.62
      vertex 81 0 7.62
    endloop
  endfacet
  facet normal -0 0 1
    outer loop
      vertex 67.784 7.62 7.62
      vertex 79.35 4.76 7.62
      vertex 81 7.62 7.62
    endloop
  endfacet
  facet normal 0 0 1
    outer loop
      vertex 69.35 4.76 7.62
      vertex 67.784 7.62 7.62
      vertex 69.35 2.86 7.62
    endloop
  endfacet
  facet normal 0 0 1
    outer loop
      vertex 79.35 4.76 7.62
      vertex 67.784 7.62 7.62
      vertex 69.35 4.76 7.62
    endloop
  endfacet
  facet normal -0 0 1
    outer loop
      vertex 79.35 2.86 7.62
      vertex 81 0 7.62
      vertex 79.35 4.76 7.62
    endloop
  endfacet
  facet normal 0 0 1
    outer loop
      vertex 67.784 0 7.62
      vertex 79.35 2.86 7.62
      vertex 69.35 2.86 7.62
    endloop
  endfacet
  facet normal 0 0 1
    outer loop
      vertex 79.35 2.86 7.62
      vertex 67.784 0 7.62
      vertex 81 0 7.62
    endloop
  endfacet
  facet normal 0 0 1
    outer loop
      vertex 67.784 0 7.62
      vertex 69.35 2.86 7.62
      vertex 67.784 7.62 7.62
    endloop
  endfacet
  facet normal 1 -0 0
    outer loop
      vertex 81 0 7.62
      vertex 81 7.62 0
      vertex 81 7.62 7.62
    endloop
  endfacet
  facet normal 1 0 0
    outer loop
      vertex 81 7.62 0
      vertex 81 0 7.62
      vertex 81 0 0
    endloop
  endfacet
  facet normal 0 1 0
    outer loop
      vertex 81 7.62 7.62
      vertex 77.475 7.62 4.76
      vertex 67.784 7.62 7.62
    endloop
  endfacet
  facet normal 0 1 0
    outer loop
      vertex 81 7.62 7.62
      vertex 77.475 7.62 2.86
      vertex 77.475 7.62 4.76
    endloop
  endfacet
  facet normal 0 1 0
    outer loop
      vertex 77.475 7.62 2.86
      vertex 81 7.62 0
      vertex 69.35 7.62 2.86
    endloop
  endfacet
  facet normal 0 1 -0
    outer loop
      vertex 81 7.62 0
      vertex 77.475 7.62 2.86
      vertex 81 7.62 7.62
    endloop
  endfacet
  facet normal 0 1 -0
    outer loop
      vertex 69.35 7.62 4.76
      vertex 67.784 7.62 7.62
      vertex 77.475 7.62 4.76
    endloop
  endfacet
  facet normal 0 1 -0
    outer loop
      vertex 69.35 7.62 2.86
      vertex 67.784 7.62 7.62
      vertex 69.35 7.62 4.76
    endloop
  endfacet
  facet normal 0 1 0
    outer loop
      vertex 0 7.62 0
      vertex 67.784 7.62 7.62
      vertex 69.35 7.62 2.86
    endloop
  endfacet
  facet normal 0 1 0
    outer loop
      vertex 0 7.62 0
      vertex 69.35 7.62 2.86
      vertex 81 7.62 0
    endloop
  endfacet
  facet normal 0 1 0
    outer loop
      vertex 67.784 7.62 7.62
      vertex 0 7.62 0
      vertex 0 7.62 3.29202
    endloop
  endfacet
  facet normal 0 0 -1
    outer loop
      vertex 81 0 0
      vertex 79.35 2.86 0
      vertex 81 7.62 0
    endloop
  endfacet
  facet normal 0 0 -1
    outer loop
      vertex 67.784 0 0
      vertex 79.35 2.86 0
      vertex 81 0 0
    endloop
  endfacet
  facet normal -0 0 -1
    outer loop
      vertex 69.35 2.86 0
      vertex 67.784 0 0
      vertex 69.35 4.76 0
    endloop
  endfacet
  facet normal -0 0 -1
    outer loop
      vertex 79.35 2.86 0
      vertex 67.784 0 0
      vertex 69.35 2.86 0
    endloop
  endfacet
  facet normal 0 0 -1
    outer loop
      vertex 79.35 4.76 0
      vertex 81 7.62 0
      vertex 79.35 2.86 0
    endloop
  endfacet
  facet normal 0 0 -1
    outer loop
      vertex 69.35 4.76 0
      vertex 81 7.62 0
      vertex 79.35 4.76 0
    endloop
  endfacet
  facet normal 0 0 -1
    outer loop
      vertex 0 7.62 0
      vertex 67.784 0 0
      vertex 0 4.32798 0
    endloop
  endfacet
  facet normal 0 0 -1
    outer loop
      vertex 67.784 0 0
      vertex 0 7.62 0
      vertex 69.35 4.76 0
    endloop
  endfacet
  facet normal 0 0 -1
    outer loop
      vertex 69.35 4.76 0
      vertex 0 7.62 0
      vertex 81 7.62 0
    endloop
  endfacet
  facet normal 0 -1 0
    outer loop
      vertex 77.475 0 4.76
      vertex 67.784 0 7.62
      vertex 71.225 0 4.76
    endloop
  endfacet
  facet normal 0 -1 0
    outer loop
      vertex 67.784 0 7.62
      vertex 71.225 0 2.86
      vertex 71.225 0 4.76
    endloop
  endfacet
  facet normal 0 -1 -0
    outer loop
      vertex 71.225 0 2.86
      vertex 67.784 0 0
      vertex 77.475 0 2.86
    endloop
  endfacet
  facet normal 0 -1 0
    outer loop
      vertex 67.784 0 0
      vertex 71.225 0 2.86
      vertex 67.784 0 7.62
    endloop
  endfacet
  facet normal 0 -1 0
    outer loop
      vertex 67.784 0 7.62
      vertex 77.475 0 4.76
      vertex 81 0 7.62
    endloop
  endfacet
  facet normal 0 -1 0
    outer loop
      vertex 77.475 0 2.86
      vertex 81 0 7.62
      vertex 77.475 0 4.76
    endloop
  endfacet
  facet normal 0 -1 0
    outer loop
      vertex 77.475 0 2.86
      vertex 81 0 0
      vertex 81 0 7.62
    endloop
  endfacet
  facet normal 0 -1 0
    outer loop
      vertex 81 0 0
      vertex 77.475 0 2.86
      vertex 67.784 0 0
    endloop
  endfacet
  facet normal -0.0637198 -0.997968 0
    outer loop
      vertex 67.784 0 0
      vertex 0 4.32798 3.29202
      vertex 0 4.32798 0
    endloop
  endfacet
  facet normal -0.0637198 -0.997968 0
    outer loop
      vertex 0 4.32798 3.29202
      vertex 67.784 0 0
      vertex 67.784 0 7.62
    endloop
  endfacet
  facet normal -0.0637198 0 0.997968
    outer loop
      vertex 0 4.32798 3.29202
      vertex 67.784 7.62 7.62
      vertex 0 7.62 3.29202
    endloop
  endfacet
  facet normal -0.0637198 0 0.997968
    outer loop
      vertex 67.784 7.62 7.62
      vertex 0 4.32798 3.29202
      vertex 67.784 0 7.62
    endloop
  endfacet
  facet normal 1 -0 0
    outer loop
      vertex 69.35 2.86 7.62
      vertex 69.35 4.76 4.76
      vertex 69.35 4.76 7.62
    endloop
  endfacet
  facet normal 1 0 0
    outer loop
      vertex 69.35 4.76 4.76
      vertex 69.35 2.86 7.62
      vertex 69.35 4.76 2.86
    endloop
  endfacet
  facet normal 1 0 0
    outer loop
      vertex 69.35 2.86 0
      vertex 69.35 4.76 2.86
      vertex 69.35 2.86 7.62
    endloop
  endfacet
  facet normal 1 0 0
    outer loop
      vertex 69.35 4.76 2.86
      vertex 69.35 2.86 0
      vertex 69.35 4.76 0
    endloop
  endfacet
  facet normal 1 -0 0
    outer loop
      vertex 69.35 4.76 4.76
      vertex 69.35 7.62 2.86
      vertex 69.35 7.62 4.76
    endloop
  endfacet
  facet normal 1 0 0
    outer loop
      vertex 69.35 7.62 2.86
      vertex 69.35 4.76 4.76
      vertex 69.35 4.76 2.86
    endloop
  endfacet
  facet normal -1 0 0
    outer loop
      vertex 79.35 2.86 0
      vertex 79.35 4.76 7.62
      vertex 79.35 4.76 0
    endloop
  endfacet
  facet normal -1 -0 0
    outer loop
      vertex 79.35 4.76 7.62
      vertex 79.35 2.86 0
      vertex 79.35 2.86 7.62
    endloop
  endfacet
  facet normal 0 1 0
    outer loop
      vertex 79.35 2.86 7.62
      vertex 77.475 2.86 4.76
      vertex 69.35 2.86 7.62
    endloop
  endfacet
  facet normal 0 1 0
    outer loop
      vertex 79.35 2.86 7.62
      vertex 77.475 2.86 2.86
      vertex 77.475 2.86 4.76
    endloop
  endfacet
  facet normal 0 1 0
    outer loop
      vertex 77.475 2.86 2.86
      vertex 79.35 2.86 0
      vertex 71.225 2.86 2.86
    endloop
  endfacet
  facet normal 0 1 -0
    outer loop
      vertex 79.35 2.86 0
      vertex 77.475 2.86 2.86
      vertex 79.35 2.86 7.62
    endloop
  endfacet
  facet normal 0 1 -0
    outer loop
      vertex 71.225 2.86 4.76
      vertex 69.35 2.86 7.62
      vertex 77.475 2.86 4.76
    endloop
  endfacet
  facet normal 0 1 -0
    outer loop
      vertex 71.225 2.86 2.86
      vertex 69.35 2.86 7.62
      vertex 71.225 2.86 4.76
    endloop
  endfacet
  facet normal 0 1 0
    outer loop
      vertex 71.225 2.86 2.86
      vertex 69.35 2.86 0
      vertex 69.35 2.86 7.62
    endloop
  endfacet
  facet normal 0 1 0
    outer loop
      vertex 69.35 2.86 0
      vertex 71.225 2.86 2.86
      vertex 79.35 2.86 0
    endloop
  endfacet
  facet normal 0 -1 0
    outer loop
      vertex 69.35 4.76 2.86
      vertex 69.35 4.76 0
      vertex 77.475 4.76 2.86
    endloop
  endfacet
  facet normal 0 -1 0
    outer loop
      vertex 77.475 4.76 4.76
      vertex 69.35 4.76 7.62
      vertex 69.35 4.76 4.76
    endloop
  endfacet
  facet normal 0 -1 0
    outer loop
      vertex 69.35 4.76 7.62
      vertex 77.475 4.76 4.76
      vertex 79.35 4.76 7.62
    endloop
  endfacet
  facet normal 0 -1 0
    outer loop
      vertex 77.475 4.76 2.86
      vertex 79.35 4.76 7.62
      vertex 77.475 4.76 4.76
    endloop
  endfacet
  facet normal 0 -1 0
    outer loop
      vertex 77.475 4.76 2.86
      vertex 79.35 4.76 0
      vertex 79.35 4.76 7.62
    endloop
  endfacet
  facet normal 0 -1 0
    outer loop
      vertex 79.35 4.76 0
      vertex 77.475 4.76 2.86
      vertex 69.35 4.76 0
    endloop
  endfacet
  facet normal 1 -0 0
    outer loop
      vertex 71.225 0 4.76
      vertex 71.225 2.86 2.86
      vertex 71.225 2.86 4.76
    endloop
  endfacet
  facet normal 1 0 0
    outer loop
      vertex 71.225 2.86 2.86
      vertex 71.225 0 4.76
      vertex 71.225 0 2.86
    endloop
  endfacet
  facet normal 0 0 -1
    outer loop
      vertex 69.35 4.76 4.76
      vertex 77.475 7.62 4.76
      vertex 77.475 4.76 4.76
    endloop
  endfacet
  facet normal -0 0 -1
    outer loop
      vertex 77.475 7.62 4.76
      vertex 69.35 4.76 4.76
      vertex 69.35 7.62 4.76
    endloop
  endfacet
  facet normal 0 0 -1
    outer loop
      vertex 71.225 0 4.76
      vertex 77.475 2.86 4.76
      vertex 77.475 0 4.76
    endloop
  endfacet
  facet normal -0 0 -1
    outer loop
      vertex 77.475 2.86 4.76
      vertex 71.225 0 4.76
      vertex 71.225 2.86 4.76
    endloop
  endfacet
  facet normal -1 0 0
    outer loop
      vertex 77.475 4.76 2.86
      vertex 77.475 7.62 4.76
      vertex 77.475 7.62 2.86
    endloop
  endfacet
  facet normal -1 -0 0
    outer loop
      vertex 77.475 7.62 4.76
      vertex 77.475 4.76 2.86
      vertex 77.475 4.76 4.76
    endloop
  endfacet
  facet normal -1 0 0
    outer loop
      vertex 77.475 0 2.86
      vertex 77.475 2.86 4.76
      vertex 77.475 2.86 2.86
    endloop
  endfacet
  facet normal -1 -0 0
    outer loop
      vertex 77.475 2.86 4.76
      vertex 77.475 0 2.86
      vertex 77.475 0 4.76
    endloop
  endfacet
  facet normal -0 0 1
    outer loop
      vertex 69.35 7.62 2.86
      vertex 77.475 4.76 2.86
      vertex 77.475 7.62 2.86
    endloop
  endfacet
  facet normal 0 0 1
    outer loop
      vertex 77.475 4.76 2.86
      vertex 69.35 7.62 2.86
      vertex 69.35 4.76 2.86
    endloop
  endfacet
  facet normal -0 0 1
    outer loop
      vertex 71.225 2.86 2.86
      vertex 77.475 0 2.86
      vertex 77.475 2.86 2.86
    endloop
  endfacet
  facet normal 0 0 1
    outer loop
      vertex 77.475 0 2.86
      vertex 71.225 2.86 2.86
      vertex 71.225 0 2.86
    endloop
  endfacet
endsolid OpenSCAD_Model
