solid OpenSCAD_Model
  facet normal -1 0 0
    outer loop
      vertex -57.5 12.4331 0.211922
      vertex -57.5 12.5 1.65
      vertex -57.5 12.5 0.211922
    endloop
  endfacet
  facet normal -1 0 0
    outer loop
      vertex -57.5 -12.5 1.65
      vertex -57.5 12.4331 0.211922
      vertex -57.5 -12.5 0.211922
    endloop
  endfacet
  facet normal -1 0 0
    outer loop
      vertex -57.5 12.4331 0.211922
      vertex -57.5 -12.5 1.65
      vertex -57.5 12.5 1.65
    endloop
  endfacet
  facet normal -0 0 1
    outer loop
      vertex -57.5 12.5 1.65
      vertex 57.5 -12.5 1.65
      vertex 57.5 12.5 1.65
    endloop
  endfacet
  facet normal 0 0 1
    outer loop
      vertex 57.5 -12.5 1.65
      vertex -57.5 12.5 1.65
      vertex -57.5 -12.5 1.65
    endloop
  endfacet
  facet normal 1 0 0
    outer loop
      vertex 57.5 12.5 1.65
      vertex 57.5 -12.4331 0.211922
      vertex 57.5 12.5 0.211922
    endloop
  endfacet
  facet normal 1 -0 0
    outer loop
      vertex 57.5 -12.5 1.65
      vertex 57.5 -12.4331 0.211922
      vertex 57.5 12.5 1.65
    endloop
  endfacet
  facet normal 1 0 0
    outer loop
      vertex 57.5 -12.4331 0.211922
      vertex 57.5 -12.5 1.65
      vertex 57.5 -12.5 0.211922
    endloop
  endfacet
  facet normal 0 1 0
    outer loop
      vertex 43.2645 12.5 -1.65
      vertex 57.5 12.5 1.65
      vertex 57.5 12.5 0.211922
    endloop
  endfacet
  facet normal 0 1 0
    outer loop
      vertex 57.5 12.5 1.65
      vertex 43.2645 12.5 -1.65
      vertex -57.5 12.5 1.65
    endloop
  endfacet
  facet normal 0 1 -0
    outer loop
      vertex -43.2645 12.5 -1.65
      vertex -57.5 12.5 1.65
      vertex 43.2645 12.5 -1.65
    endloop
  endfacet
  facet normal 0 1 0
    outer loop
      vertex -57.5 12.5 1.65
      vertex -43.2645 12.5 -1.65
      vertex -57.5 12.5 0.211922
    endloop
  endfacet
  facet normal 0 0 -1
    outer loop
      vertex -43.2645 -11.3242 -1.65
      vertex 43.2645 -12.5 -1.65
      vertex -43.2645 -12.5 -1.65
    endloop
  endfacet
  facet normal 0 0 -1
    outer loop
      vertex 43.2645 -12.5 -1.65
      vertex -43.2645 -11.3242 -1.65
      vertex 43.2645 11.3242 -1.65
    endloop
  endfacet
  facet normal 0 0 -1
    outer loop
      vertex -43.2645 12.5 -1.65
      vertex 43.2645 11.3242 -1.65
      vertex -43.2645 -11.3242 -1.65
    endloop
  endfacet
  facet normal 0 0 -1
    outer loop
      vertex 43.2645 11.3242 -1.65
      vertex -43.2645 12.5 -1.65
      vertex 43.2645 12.5 -1.65
    endloop
  endfacet
  facet normal 0 -1 0
    outer loop
      vertex -43.2645 -12.5 -1.65
      vertex -57.5 -12.5 1.65
      vertex -57.5 -12.5 0.211922
    endloop
  endfacet
  facet normal 0 -1 0
    outer loop
      vertex -57.5 -12.5 1.65
      vertex -43.2645 -12.5 -1.65
      vertex 57.5 -12.5 1.65
    endloop
  endfacet
  facet normal 0 -1 0
    outer loop
      vertex 43.2645 -12.5 -1.65
      vertex 57.5 -12.5 1.65
      vertex -43.2645 -12.5 -1.65
    endloop
  endfacet
  facet normal 0 -1 -0
    outer loop
      vertex 57.5 -12.5 1.65
      vertex 43.2645 -12.5 -1.65
      vertex 57.5 -12.5 0.211922
    endloop
  endfacet
  facet normal -0.12969 0 -0.991555
    outer loop
      vertex -57.5 12.4331 0.211922
      vertex -43.2645 12.5 -1.65
      vertex -43.2645 -11.3242 -1.65
    endloop
  endfacet
  facet normal -0.12969 0 -0.991555
    outer loop
      vertex -43.2645 12.5 -1.65
      vertex -57.5 12.4331 0.211922
      vertex -57.5 12.5 0.211922
    endloop
  endfacet
  facet normal -0.12969 0 -0.991555
    outer loop
      vertex -57.5 -12.5 0.211922
      vertex -43.2645 -11.3242 -1.65
      vertex -43.2645 -12.5 -1.65
    endloop
  endfacet
  facet normal -0.12969 0 -0.991555
    outer loop
      vertex -43.2645 -11.3242 -1.65
      vertex -57.5 -12.5 0.211922
      vertex -57.5 12.4331 0.211922
    endloop
  endfacet
  facet normal 0.12969 0 -0.991555
    outer loop
      vertex 43.2645 -12.5 -1.65
      vertex 57.5 -12.4331 0.211922
      vertex 57.5 -12.5 0.211922
    endloop
  endfacet
  facet normal 0.12969 0 -0.991555
    outer loop
      vertex 57.5 -12.4331 0.211922
      vertex 43.2645 -12.5 -1.65
      vertex 43.2645 11.3242 -1.65
    endloop
  endfacet
  facet normal 0.12969 0 -0.991555
    outer loop
      vertex 43.2645 11.3242 -1.65
      vertex 57.5 12.5 0.211922
      vertex 57.5 -12.4331 0.211922
    endloop
  endfacet
  facet normal 0.12969 0 -0.991555
    outer loop
      vertex 57.5 12.5 0.211922
      vertex 43.2645 11.3242 -1.65
      vertex 43.2645 12.5 -1.65
    endloop
  endfacet
endsolid OpenSCAD_Model
