solid OpenSCAD_Model
  facet normal -1 0 0
    outer loop
      vertex -57.5 -6.5 0.211922
      vertex -57.5 6.5 1.65
      vertex -57.5 6.5 0.211922
    endloop
  endfacet
  facet normal -1 -0 0
    outer loop
      vertex -57.5 6.5 1.65
      vertex -57.5 -6.5 0.211922
      vertex -57.5 -6.5 1.65
    endloop
  endfacet
  facet normal -0 0 1
    outer loop
      vertex -57.5 6.5 1.65
      vertex 57.5 -6.5 1.65
      vertex 57.5 6.5 1.65
    endloop
  endfacet
  facet normal 0 0 1
    outer loop
      vertex 57.5 -6.5 1.65
      vertex -57.5 6.5 1.65
      vertex -57.5 -6.5 1.65
    endloop
  endfacet
  facet normal 1 -0 0
    outer loop
      vertex 57.5 -6.5 1.65
      vertex 57.5 6.5 0.211922
      vertex 57.5 6.5 1.65
    endloop
  endfacet
  facet normal 1 0 0
    outer loop
      vertex 57.5 6.5 0.211922
      vertex 57.5 -6.5 1.65
      vertex 57.5 -6.5 0.211922
    endloop
  endfacet
  facet normal 0 1 0
    outer loop
      vertex 43.2645 6.5 -1.65
      vertex 57.5 6.5 1.65
      vertex 57.5 6.5 0.211922
    endloop
  endfacet
  facet normal 0 1 0
    outer loop
      vertex 57.5 6.5 1.65
      vertex 43.2645 6.5 -1.65
      vertex -57.5 6.5 1.65
    endloop
  endfacet
  facet normal 0 1 0
    outer loop
      vertex -57.5 6.5 1.65
      vertex -57.4856 6.5 0.210038
      vertex -57.5 6.5 0.211922
    endloop
  endfacet
  facet normal 0 1 -0
    outer loop
      vertex -43.2645 6.5 -1.65
      vertex -57.5 6.5 1.65
      vertex 43.2645 6.5 -1.65
    endloop
  endfacet
  facet normal 0 1 0
    outer loop
      vertex -57.5 6.5 1.65
      vertex -43.2645 6.5 -1.65
      vertex -57.4856 6.5 0.210038
    endloop
  endfacet
  facet normal 0 0 -1
    outer loop
      vertex -43.2645 -5.93171 -1.65
      vertex 43.2645 -6.5 -1.65
      vertex -43.2645 -6.5 -1.65
    endloop
  endfacet
  facet normal 0 0 -1
    outer loop
      vertex 43.2645 -6.5 -1.65
      vertex -43.2645 -5.93171 -1.65
      vertex 43.2645 5.93171 -1.65
    endloop
  endfacet
  facet normal 0 0 -1
    outer loop
      vertex -43.2645 6.5 -1.65
      vertex 43.2645 5.93171 -1.65
      vertex -43.2645 -5.93171 -1.65
    endloop
  endfacet
  facet normal 0 0 -1
    outer loop
      vertex 43.2645 5.93171 -1.65
      vertex -43.2645 6.5 -1.65
      vertex 43.2645 6.5 -1.65
    endloop
  endfacet
  facet normal 0 -1 0
    outer loop
      vertex -43.2645 -6.5 -1.65
      vertex -57.5 -6.5 1.65
      vertex -57.5 -6.5 0.211922
    endloop
  endfacet
  facet normal 0 -1 0
    outer loop
      vertex -57.5 -6.5 1.65
      vertex -43.2645 -6.5 -1.65
      vertex 57.5 -6.5 1.65
    endloop
  endfacet
  facet normal 0 -1 -0
    outer loop
      vertex 57.5 -6.5 1.65
      vertex 57.4856 -6.5 0.210038
      vertex 57.5 -6.5 0.211922
    endloop
  endfacet
  facet normal 0 -1 0
    outer loop
      vertex 43.2645 -6.5 -1.65
      vertex 57.5 -6.5 1.65
      vertex -43.2645 -6.5 -1.65
    endloop
  endfacet
  facet normal 0 -1 0
    outer loop
      vertex 57.5 -6.5 1.65
      vertex 43.2645 -6.5 -1.65
      vertex 57.4856 -6.5 0.210038
    endloop
  endfacet
  facet normal -0.12969 -0 -0.991555
    outer loop
      vertex -43.2645 6.5 -1.65
      vertex -43.2645 -5.93171 -1.65
      vertex -57.4856 6.5 0.210038
    endloop
  endfacet
  facet normal -0.12969 0 -0.991555
    outer loop
      vertex -57.5 -6.5 0.211922
      vertex -43.2645 -5.93171 -1.65
      vertex -43.2645 -6.5 -1.65
    endloop
  endfacet
  facet normal -0.12969 -4.28935e-08 -0.991555
    outer loop
      vertex -43.2645 -5.93171 -1.65
      vertex -57.5 -6.5 0.211922
      vertex -57.4856 6.5 0.210038
    endloop
  endfacet
  facet normal -0.129728 0 -0.99155
    outer loop
      vertex -57.4856 6.5 0.210038
      vertex -57.5 -6.5 0.211922
      vertex -57.5 6.5 0.211922
    endloop
  endfacet
  facet normal 0.12969 0 -0.991555
    outer loop
      vertex 57.4856 -6.5 0.210038
      vertex 43.2645 -6.5 -1.65
      vertex 43.2645 5.93171 -1.65
    endloop
  endfacet
  facet normal 0.129728 0 -0.99155
    outer loop
      vertex 57.4856 -6.5 0.210038
      vertex 57.5 6.5 0.211922
      vertex 57.5 -6.5 0.211922
    endloop
  endfacet
  facet normal 0.12969 4.28935e-08 -0.991555
    outer loop
      vertex 43.2645 5.93171 -1.65
      vertex 57.5 6.5 0.211922
      vertex 57.4856 -6.5 0.210038
    endloop
  endfacet
  facet normal 0.12969 0 -0.991555
    outer loop
      vertex 57.5 6.5 0.211922
      vertex 43.2645 5.93171 -1.65
      vertex 43.2645 6.5 -1.65
    endloop
  endfacet
endsolid OpenSCAD_Model
