solid OpenSCAD_Model
  facet normal -1 0 0
    outer loop
      vertex 0 0 1.86192
      vertex 0 13 3.3
      vertex 0 13 1.86192
    endloop
  endfacet
  facet normal -1 -0 0
    outer loop
      vertex 0 13 3.3
      vertex 0 0 1.86192
      vertex 0 0 3.3
    endloop
  endfacet
  facet normal -0 0 1
    outer loop
      vertex 0 13 3.3
      vertex 115 0 3.3
      vertex 115 13 3.3
    endloop
  endfacet
  facet normal 0 0 1
    outer loop
      vertex 115 0 3.3
      vertex 0 13 3.3
      vertex 0 0 3.3
    endloop
  endfacet
  facet normal 1 -0 0
    outer loop
      vertex 115 0 3.3
      vertex 115 13 1.86192
      vertex 115 13 3.3
    endloop
  endfacet
  facet normal 1 0 0
    outer loop
      vertex 115 13 1.86192
      vertex 115 0 3.3
      vertex 115 0 1.86192
    endloop
  endfacet
  facet normal 0 0 -1
    outer loop
      vertex 14.2355 0.568291 0
      vertex 100.764 0 0
      vertex 14.2355 0 0
    endloop
  endfacet
  facet normal 0 0 -1
    outer loop
      vertex 100.764 0 0
      vertex 14.2355 0.568291 0
      vertex 100.764 12.4317 0
    endloop
  endfacet
  facet normal 0 0 -1
    outer loop
      vertex 14.2355 13 0
      vertex 100.764 12.4317 0
      vertex 14.2355 0.568291 0
    endloop
  endfacet
  facet normal 0 0 -1
    outer loop
      vertex 100.764 12.4317 0
      vertex 14.2355 13 0
      vertex 100.764 13 0
    endloop
  endfacet
  facet normal 0 -1 0
    outer loop
      vertex 14.2355 0 0
      vertex 0 0 3.3
      vertex 0 0 1.86192
    endloop
  endfacet
  facet normal 0 -1 0
    outer loop
      vertex 0 0 3.3
      vertex 14.2355 0 0
      vertex 115 0 3.3
    endloop
  endfacet
  facet normal 0 -1 -0
    outer loop
      vertex 115 0 3.3
      vertex 114.986 0 1.86004
      vertex 115 0 1.86192
    endloop
  endfacet
  facet normal 0 -1 0
    outer loop
      vertex 100.764 0 0
      vertex 115 0 3.3
      vertex 14.2355 0 0
    endloop
  endfacet
  facet normal 0 -1 0
    outer loop
      vertex 115 0 3.3
      vertex 100.764 0 0
      vertex 114.986 0 1.86004
    endloop
  endfacet
  facet normal 0 1 0
    outer loop
      vertex 100.764 13 0
      vertex 115 13 3.3
      vertex 115 13 1.86192
    endloop
  endfacet
  facet normal 0 1 0
    outer loop
      vertex 115 13 3.3
      vertex 100.764 13 0
      vertex 0 13 3.3
    endloop
  endfacet
  facet normal 0 1 0
    outer loop
      vertex 0 13 3.3
      vertex 0.0144024 13 1.86004
      vertex 0 13 1.86192
    endloop
  endfacet
  facet normal 0 1 -0
    outer loop
      vertex 14.2355 13 0
      vertex 0 13 3.3
      vertex 100.764 13 0
    endloop
  endfacet
  facet normal 0 1 0
    outer loop
      vertex 0 13 3.3
      vertex 14.2355 13 0
      vertex 0.0144024 13 1.86004
    endloop
  endfacet
  facet normal -0.12969 -0 -0.991555
    outer loop
      vertex 14.2355 13 0
      vertex 14.2355 0.568291 0
      vertex 0.0144024 13 1.86004
    endloop
  endfacet
  facet normal -0.12969 0 -0.991555
    outer loop
      vertex 0 0 1.86192
      vertex 14.2355 0.568291 0
      vertex 14.2355 0 0
    endloop
  endfacet
  facet normal -0.12969 2.86003e-07 -0.991555
    outer loop
      vertex 14.2355 0.568291 0
      vertex 0 0 1.86192
      vertex 0.0144024 13 1.86004
    endloop
  endfacet
  facet normal -0.129436 0 -0.991588
    outer loop
      vertex 0.0144024 13 1.86004
      vertex 0 0 1.86192
      vertex 0 13 1.86192
    endloop
  endfacet
  facet normal 0.129682 0 -0.991556
    outer loop
      vertex 114.986 0 1.86004
      vertex 100.764 0 0
      vertex 100.764 12.4317 0
    endloop
  endfacet
  facet normal 0.133091 0 -0.991104
    outer loop
      vertex 114.986 0 1.86004
      vertex 115 13 1.86192
      vertex 115 0 1.86192
    endloop
  endfacet
  facet normal 0.129685 3.73347e-06 -0.991555
    outer loop
      vertex 100.764 12.4317 0
      vertex 115 13 1.86192
      vertex 114.986 0 1.86004
    endloop
  endfacet
  facet normal 0.129685 0 -0.991555
    outer loop
      vertex 115 13 1.86192
      vertex 100.764 12.4317 0
      vertex 100.764 13 0
    endloop
  endfacet
endsolid OpenSCAD_Model
