solid OpenSCAD_Model
  facet normal 0 -1 0
    outer loop
      vertex -0.95 -39.81 -5
      vertex 0.95 -39.81 5
      vertex -0.95 -39.81 5
    endloop
  endfacet
  facet normal 0 -1 -0
    outer loop
      vertex 0.95 -39.81 5
      vertex -0.95 -39.81 -5
      vertex 0.95 -39.81 -5
    endloop
  endfacet
  facet normal 1 0 0
    outer loop
      vertex 0.95 39.81 5
      vertex 0.95 35.95 3.125
      vertex 0.95 39.81 -5
    endloop
  endfacet
  facet normal 1 0 0
    outer loop
      vertex 0.95 39.81 5
      vertex 0.95 34.05 3.125
      vertex 0.95 35.95 3.125
    endloop
  endfacet
  facet normal 1 0 0
    outer loop
      vertex 0.95 34.05 3.125
      vertex 0.95 -34.05 3.125
      vertex 0.95 34.05 -3.125
    endloop
  endfacet
  facet normal 1 0 0
    outer loop
      vertex 0.95 39.81 5
      vertex 0.95 -34.05 3.125
      vertex 0.95 34.05 3.125
    endloop
  endfacet
  facet normal 1 -0 0
    outer loop
      vertex 0.95 -39.81 5
      vertex 0.95 -34.05 3.125
      vertex 0.95 39.81 5
    endloop
  endfacet
  facet normal 1 0 0
    outer loop
      vertex 0.95 -35.95 3.125
      vertex 0.95 -39.81 5
      vertex 0.95 -35.95 -3.125
    endloop
  endfacet
  facet normal 1 0 0
    outer loop
      vertex 0.95 -34.05 3.125
      vertex 0.95 -39.81 5
      vertex 0.95 -35.95 3.125
    endloop
  endfacet
  facet normal 1 -0 0
    outer loop
      vertex 0.95 35.95 -3.125
      vertex 0.95 39.81 -5
      vertex 0.95 35.95 3.125
    endloop
  endfacet
  facet normal 1 -0 0
    outer loop
      vertex 0.95 34.05 -3.125
      vertex 0.95 39.81 -5
      vertex 0.95 35.95 -3.125
    endloop
  endfacet
  facet normal 1 0 0
    outer loop
      vertex 0.95 -34.05 -3.125
      vertex 0.95 34.05 -3.125
      vertex 0.95 -34.05 3.125
    endloop
  endfacet
  facet normal 1 0 0
    outer loop
      vertex 0.95 34.05 -3.125
      vertex 0.95 -34.05 -3.125
      vertex 0.95 39.81 -5
    endloop
  endfacet
  facet normal 1 0 0
    outer loop
      vertex 0.95 -39.81 -5
      vertex 0.95 -34.05 -3.125
      vertex 0.95 -35.95 -3.125
    endloop
  endfacet
  facet normal 1 0 0
    outer loop
      vertex 0.95 -34.05 -3.125
      vertex 0.95 -39.81 -5
      vertex 0.95 39.81 -5
    endloop
  endfacet
  facet normal 1 0 0
    outer loop
      vertex 0.95 -39.81 -5
      vertex 0.95 -35.95 -3.125
      vertex 0.95 -39.81 5
    endloop
  endfacet
  facet normal 0 1 -0
    outer loop
      vertex 0.95 39.81 -5
      vertex -0.95 39.81 5
      vertex 0.95 39.81 5
    endloop
  endfacet
  facet normal 0 1 0
    outer loop
      vertex -0.95 39.81 5
      vertex 0.95 39.81 -5
      vertex -0.95 39.81 -5
    endloop
  endfacet
  facet normal -1 0 0
    outer loop
      vertex -0.95 39.81 -5
      vertex -0.95 35.95 -3.125
      vertex -0.95 39.81 5
    endloop
  endfacet
  facet normal -1 0 0
    outer loop
      vertex -0.95 39.81 -5
      vertex -0.95 34.05 -3.125
      vertex -0.95 35.95 -3.125
    endloop
  endfacet
  facet normal -1 0 0
    outer loop
      vertex -0.95 34.05 -3.125
      vertex -0.95 -34.05 -3.125
      vertex -0.95 34.05 3.125
    endloop
  endfacet
  facet normal -1 0 0
    outer loop
      vertex -0.95 39.81 -5
      vertex -0.95 -34.05 -3.125
      vertex -0.95 34.05 -3.125
    endloop
  endfacet
  facet normal -1 0 0
    outer loop
      vertex -0.95 -39.81 -5
      vertex -0.95 -34.05 -3.125
      vertex -0.95 39.81 -5
    endloop
  endfacet
  facet normal -1 -0 0
    outer loop
      vertex -0.95 -35.95 -3.125
      vertex -0.95 -39.81 -5
      vertex -0.95 -35.95 3.125
    endloop
  endfacet
  facet normal -1 -0 0
    outer loop
      vertex -0.95 -34.05 -3.125
      vertex -0.95 -39.81 -5
      vertex -0.95 -35.95 -3.125
    endloop
  endfacet
  facet normal -1 0 0
    outer loop
      vertex -0.95 35.95 3.125
      vertex -0.95 39.81 5
      vertex -0.95 35.95 -3.125
    endloop
  endfacet
  facet normal -1 0 0
    outer loop
      vertex -0.95 34.05 3.125
      vertex -0.95 39.81 5
      vertex -0.95 35.95 3.125
    endloop
  endfacet
  facet normal -1 0 0
    outer loop
      vertex -0.95 -34.05 3.125
      vertex -0.95 34.05 3.125
      vertex -0.95 -34.05 -3.125
    endloop
  endfacet
  facet normal -1 0 0
    outer loop
      vertex -0.95 34.05 3.125
      vertex -0.95 -34.05 3.125
      vertex -0.95 39.81 5
    endloop
  endfacet
  facet normal -1 0 0
    outer loop
      vertex -0.95 -39.81 5
      vertex -0.95 -34.05 3.125
      vertex -0.95 -35.95 3.125
    endloop
  endfacet
  facet normal -1 0 0
    outer loop
      vertex -0.95 -34.05 3.125
      vertex -0.95 -39.81 5
      vertex -0.95 39.81 5
    endloop
  endfacet
  facet normal -1 0 0
    outer loop
      vertex -0.95 -39.81 5
      vertex -0.95 -35.95 3.125
      vertex -0.95 -39.81 -5
    endloop
  endfacet
  facet normal 0 0 -1
    outer loop
      vertex -0.95 -39.81 -5
      vertex 0.95 39.81 -5
      vertex 0.95 -39.81 -5
    endloop
  endfacet
  facet normal -0 0 -1
    outer loop
      vertex 0.95 39.81 -5
      vertex -0.95 -39.81 -5
      vertex -0.95 39.81 -5
    endloop
  endfacet
  facet normal -0 0 1
    outer loop
      vertex -0.95 39.81 5
      vertex 0.95 -39.81 5
      vertex 0.95 39.81 5
    endloop
  endfacet
  facet normal 0 0 1
    outer loop
      vertex 0.95 -39.81 5
      vertex -0.95 39.81 5
      vertex -0.95 -39.81 5
    endloop
  endfacet
  facet normal 0 1 -0
    outer loop
      vertex 0.95 -35.95 -3.125
      vertex -0.95 -35.95 3.125
      vertex 0.95 -35.95 3.125
    endloop
  endfacet
  facet normal 0 1 0
    outer loop
      vertex -0.95 -35.95 3.125
      vertex 0.95 -35.95 -3.125
      vertex -0.95 -35.95 -3.125
    endloop
  endfacet
  facet normal 0 -1 0
    outer loop
      vertex -0.95 -34.05 -3.125
      vertex 0.95 -34.05 3.125
      vertex -0.95 -34.05 3.125
    endloop
  endfacet
  facet normal 0 -1 -0
    outer loop
      vertex 0.95 -34.05 3.125
      vertex -0.95 -34.05 -3.125
      vertex 0.95 -34.05 -3.125
    endloop
  endfacet
  facet normal 0 0 -1
    outer loop
      vertex -0.95 -35.95 3.125
      vertex 0.95 -34.05 3.125
      vertex 0.95 -35.95 3.125
    endloop
  endfacet
  facet normal -0 0 -1
    outer loop
      vertex 0.95 -34.05 3.125
      vertex -0.95 -35.95 3.125
      vertex -0.95 -34.05 3.125
    endloop
  endfacet
  facet normal -0 0 1
    outer loop
      vertex -0.95 -34.05 -3.125
      vertex 0.95 -35.95 -3.125
      vertex 0.95 -34.05 -3.125
    endloop
  endfacet
  facet normal 0 0 1
    outer loop
      vertex 0.95 -35.95 -3.125
      vertex -0.95 -34.05 -3.125
      vertex -0.95 -35.95 -3.125
    endloop
  endfacet
  facet normal 0 1 -0
    outer loop
      vertex 0.95 34.05 -3.125
      vertex -0.95 34.05 3.125
      vertex 0.95 34.05 3.125
    endloop
  endfacet
  facet normal 0 1 0
    outer loop
      vertex -0.95 34.05 3.125
      vertex 0.95 34.05 -3.125
      vertex -0.95 34.05 -3.125
    endloop
  endfacet
  facet normal 0 -1 0
    outer loop
      vertex -0.95 35.95 -3.125
      vertex 0.95 35.95 3.125
      vertex -0.95 35.95 3.125
    endloop
  endfacet
  facet normal 0 -1 -0
    outer loop
      vertex 0.95 35.95 3.125
      vertex -0.95 35.95 -3.125
      vertex 0.95 35.95 -3.125
    endloop
  endfacet
  facet normal -0 0 1
    outer loop
      vertex -0.95 35.95 -3.125
      vertex 0.95 34.05 -3.125
      vertex 0.95 35.95 -3.125
    endloop
  endfacet
  facet normal 0 0 1
    outer loop
      vertex 0.95 34.05 -3.125
      vertex -0.95 35.95 -3.125
      vertex -0.95 34.05 -3.125
    endloop
  endfacet
  facet normal 0 0 -1
    outer loop
      vertex -0.95 34.05 3.125
      vertex 0.95 35.95 3.125
      vertex 0.95 34.05 3.125
    endloop
  endfacet
  facet normal -0 0 -1
    outer loop
      vertex 0.95 35.95 3.125
      vertex -0.95 34.05 3.125
      vertex -0.95 35.95 3.125
    endloop
  endfacet
endsolid OpenSCAD_Model
