solid OpenSCAD_Model
  facet normal -1 0 0
    outer loop
      vertex 13.89 0 0
      vertex 13.89 2.5 1.9
      vertex 13.89 2.5 0
    endloop
  endfacet
  facet normal -1 -0 0
    outer loop
      vertex 13.89 2.5 1.9
      vertex 13.89 0 0
      vertex 13.89 0 1.9
    endloop
  endfacet
  facet normal 0 -1 0
    outer loop
      vertex 0 2.5 0
      vertex 13.89 2.5 1.9
      vertex 0 2.5 1.9
    endloop
  endfacet
  facet normal 0 -1 -0
    outer loop
      vertex 13.89 2.5 1.9
      vertex 0 2.5 0
      vertex 13.89 2.5 0
    endloop
  endfacet
  facet normal -1 0 0
    outer loop
      vertex 13.89 7.5 0
      vertex 13.89 10 1.9
      vertex 13.89 10 0
    endloop
  endfacet
  facet normal -1 -0 0
    outer loop
      vertex 13.89 10 1.9
      vertex 13.89 7.5 0
      vertex 13.89 7.5 1.9
    endloop
  endfacet
  facet normal 0 1 -0
    outer loop
      vertex 13.89 7.5 0
      vertex 0 7.5 1.9
      vertex 13.89 7.5 1.9
    endloop
  endfacet
  facet normal 0 1 0
    outer loop
      vertex 0 7.5 1.9
      vertex 13.89 7.5 0
      vertex 0 7.5 0
    endloop
  endfacet
  facet normal 1 -0 0
    outer loop
      vertex 75 0 1.9
      vertex 75 2.5 0
      vertex 75 2.5 1.9
    endloop
  endfacet
  facet normal 1 0 0
    outer loop
      vertex 75 2.5 0
      vertex 75 0 1.9
      vertex 75 0 0
    endloop
  endfacet
  facet normal 0 -1 0
    outer loop
      vertex 75 2.5 0
      vertex 88.89 2.5 1.9
      vertex 75 2.5 1.9
    endloop
  endfacet
  facet normal 0 -1 -0
    outer loop
      vertex 88.89 2.5 1.9
      vertex 75 2.5 0
      vertex 88.89 2.5 0
    endloop
  endfacet
  facet normal 1 -0 0
    outer loop
      vertex 75 7.5 1.9
      vertex 75 10 0
      vertex 75 10 1.9
    endloop
  endfacet
  facet normal 1 0 0
    outer loop
      vertex 75 10 0
      vertex 75 7.5 1.9
      vertex 75 7.5 0
    endloop
  endfacet
  facet normal 0 1 -0
    outer loop
      vertex 88.89 7.5 0
      vertex 75 7.5 1.9
      vertex 88.89 7.5 1.9
    endloop
  endfacet
  facet normal 0 1 0
    outer loop
      vertex 75 7.5 1.9
      vertex 88.89 7.5 0
      vertex 75 7.5 0
    endloop
  endfacet
  facet normal -1 0 0
    outer loop
      vertex 0 2.5 0
      vertex 0 7.5 1.9
      vertex 0 7.5 0
    endloop
  endfacet
  facet normal -1 -0 0
    outer loop
      vertex 0 7.5 1.9
      vertex 0 2.5 0
      vertex 0 2.5 1.9
    endloop
  endfacet
  facet normal 0 0 1
    outer loop
      vertex 13.89 7.5 1.9
      vertex 5 5.95 1.9
      vertex 13.89 2.5 1.9
    endloop
  endfacet
  facet normal -0 0 1
    outer loop
      vertex 0 7.5 1.9
      vertex 5 5.95 1.9
      vertex 13.89 7.5 1.9
    endloop
  endfacet
  facet normal 0 0 1
    outer loop
      vertex 3.5 5.95 1.9
      vertex 0 7.5 1.9
      vertex 3.5 4.05 1.9
    endloop
  endfacet
  facet normal 0 0 1
    outer loop
      vertex 5 5.95 1.9
      vertex 0 7.5 1.9
      vertex 3.5 5.95 1.9
    endloop
  endfacet
  facet normal 0 0 1
    outer loop
      vertex 13.89 7.5 1.9
      vertex 75 7.5 1.9
      vertex 75 10 1.9
    endloop
  endfacet
  facet normal 0 0 1
    outer loop
      vertex 75 7.5 1.9
      vertex 13.89 7.5 1.9
      vertex 75 2.5 1.9
    endloop
  endfacet
  facet normal 0 0 1
    outer loop
      vertex 13.89 7.5 1.9
      vertex 75 10 1.9
      vertex 13.89 10 1.9
    endloop
  endfacet
  facet normal 0 0 1
    outer loop
      vertex 13.89 2.5 1.9
      vertex 75 2.5 1.9
      vertex 13.89 7.5 1.9
    endloop
  endfacet
  facet normal 0 0 1
    outer loop
      vertex 75 2.5 1.9
      vertex 13.89 2.5 1.9
      vertex 75 0 1.9
    endloop
  endfacet
  facet normal 0 0 1
    outer loop
      vertex 75 0 1.9
      vertex 13.89 2.5 1.9
      vertex 13.89 0 1.9
    endloop
  endfacet
  facet normal -0 0 1
    outer loop
      vertex 5 4.05 1.9
      vertex 13.89 2.5 1.9
      vertex 5 5.95 1.9
    endloop
  endfacet
  facet normal 0 0 1
    outer loop
      vertex 0 2.5 1.9
      vertex 5 4.05 1.9
      vertex 3.5 4.05 1.9
    endloop
  endfacet
  facet normal 0 0 1
    outer loop
      vertex 5 4.05 1.9
      vertex 0 2.5 1.9
      vertex 13.89 2.5 1.9
    endloop
  endfacet
  facet normal 0 0 1
    outer loop
      vertex 0 2.5 1.9
      vertex 3.5 4.05 1.9
      vertex 0 7.5 1.9
    endloop
  endfacet
  facet normal 0 0 1
    outer loop
      vertex 88.89 7.5 1.9
      vertex 85.39 5.95 1.9
      vertex 88.89 2.5 1.9
    endloop
  endfacet
  facet normal 0 0 1
    outer loop
      vertex 88.89 7.5 1.9
      vertex 83.89 5.95 1.9
      vertex 85.39 5.95 1.9
    endloop
  endfacet
  facet normal 0 0 1
    outer loop
      vertex 83.89 5.95 1.9
      vertex 75 7.5 1.9
      vertex 83.89 4.05 1.9
    endloop
  endfacet
  facet normal -0 0 1
    outer loop
      vertex 75 7.5 1.9
      vertex 83.89 5.95 1.9
      vertex 88.89 7.5 1.9
    endloop
  endfacet
  facet normal -0 0 1
    outer loop
      vertex 85.39 4.05 1.9
      vertex 88.89 2.5 1.9
      vertex 85.39 5.95 1.9
    endloop
  endfacet
  facet normal -0 0 1
    outer loop
      vertex 83.89 4.05 1.9
      vertex 88.89 2.5 1.9
      vertex 85.39 4.05 1.9
    endloop
  endfacet
  facet normal 0 0 1
    outer loop
      vertex 83.89 4.05 1.9
      vertex 75 2.5 1.9
      vertex 88.89 2.5 1.9
    endloop
  endfacet
  facet normal 0 0 1
    outer loop
      vertex 75 2.5 1.9
      vertex 83.89 4.05 1.9
      vertex 75 7.5 1.9
    endloop
  endfacet
  facet normal 1 -0 0
    outer loop
      vertex 88.89 2.5 1.9
      vertex 88.89 7.5 0
      vertex 88.89 7.5 1.9
    endloop
  endfacet
  facet normal 1 0 0
    outer loop
      vertex 88.89 7.5 0
      vertex 88.89 2.5 1.9
      vertex 88.89 2.5 0
    endloop
  endfacet
  facet normal 0 1 -0
    outer loop
      vertex 75 10 0
      vertex 13.89 10 1.9
      vertex 75 10 1.9
    endloop
  endfacet
  facet normal 0 1 0
    outer loop
      vertex 13.89 10 1.9
      vertex 75 10 0
      vertex 13.89 10 0
    endloop
  endfacet
  facet normal 0 0 -1
    outer loop
      vertex 13.89 2.5 0
      vertex 5 4.05 0
      vertex 13.89 7.5 0
    endloop
  endfacet
  facet normal 0 0 -1
    outer loop
      vertex 0 2.5 0
      vertex 5 4.05 0
      vertex 13.89 2.5 0
    endloop
  endfacet
  facet normal -0 0 -1
    outer loop
      vertex 3.5 4.05 0
      vertex 0 2.5 0
      vertex 3.5 5.95 0
    endloop
  endfacet
  facet normal -0 0 -1
    outer loop
      vertex 5 4.05 0
      vertex 0 2.5 0
      vertex 3.5 4.05 0
    endloop
  endfacet
  facet normal 0 0 -1
    outer loop
      vertex 13.89 2.5 0
      vertex 75 2.5 0
      vertex 75 0 0
    endloop
  endfacet
  facet normal 0 0 -1
    outer loop
      vertex 75 2.5 0
      vertex 13.89 2.5 0
      vertex 75 7.5 0
    endloop
  endfacet
  facet normal 0 0 -1
    outer loop
      vertex 13.89 2.5 0
      vertex 75 0 0
      vertex 13.89 0 0
    endloop
  endfacet
  facet normal 0 0 -1
    outer loop
      vertex 13.89 7.5 0
      vertex 75 7.5 0
      vertex 13.89 2.5 0
    endloop
  endfacet
  facet normal 0 0 -1
    outer loop
      vertex 75 7.5 0
      vertex 13.89 7.5 0
      vertex 75 10 0
    endloop
  endfacet
  facet normal -0 0 -1
    outer loop
      vertex 75 10 0
      vertex 13.89 7.5 0
      vertex 13.89 10 0
    endloop
  endfacet
  facet normal 0 0 -1
    outer loop
      vertex 5 5.95 0
      vertex 13.89 7.5 0
      vertex 5 4.05 0
    endloop
  endfacet
  facet normal 0 0 -1
    outer loop
      vertex 0 7.5 0
      vertex 5 5.95 0
      vertex 3.5 5.95 0
    endloop
  endfacet
  facet normal 0 0 -1
    outer loop
      vertex 5 5.95 0
      vertex 0 7.5 0
      vertex 13.89 7.5 0
    endloop
  endfacet
  facet normal 0 0 -1
    outer loop
      vertex 0 7.5 0
      vertex 3.5 5.95 0
      vertex 0 2.5 0
    endloop
  endfacet
  facet normal 0 0 -1
    outer loop
      vertex 88.89 2.5 0
      vertex 85.39 4.05 0
      vertex 88.89 7.5 0
    endloop
  endfacet
  facet normal 0 0 -1
    outer loop
      vertex 88.89 2.5 0
      vertex 83.89 4.05 0
      vertex 85.39 4.05 0
    endloop
  endfacet
  facet normal -0 0 -1
    outer loop
      vertex 83.89 4.05 0
      vertex 75 2.5 0
      vertex 83.89 5.95 0
    endloop
  endfacet
  facet normal 0 0 -1
    outer loop
      vertex 75 2.5 0
      vertex 83.89 4.05 0
      vertex 88.89 2.5 0
    endloop
  endfacet
  facet normal 0 0 -1
    outer loop
      vertex 85.39 5.95 0
      vertex 88.89 7.5 0
      vertex 85.39 4.05 0
    endloop
  endfacet
  facet normal 0 0 -1
    outer loop
      vertex 83.89 5.95 0
      vertex 88.89 7.5 0
      vertex 85.39 5.95 0
    endloop
  endfacet
  facet normal 0 0 -1
    outer loop
      vertex 83.89 5.95 0
      vertex 75 7.5 0
      vertex 88.89 7.5 0
    endloop
  endfacet
  facet normal 0 0 -1
    outer loop
      vertex 75 7.5 0
      vertex 83.89 5.95 0
      vertex 75 2.5 0
    endloop
  endfacet
  facet normal 0 -1 0
    outer loop
      vertex 13.89 0 0
      vertex 75 0 1.9
      vertex 13.89 0 1.9
    endloop
  endfacet
  facet normal 0 -1 -0
    outer loop
      vertex 75 0 1.9
      vertex 13.89 0 0
      vertex 75 0 0
    endloop
  endfacet
  facet normal 1 -0 0
    outer loop
      vertex 3.5 4.05 1.9
      vertex 3.5 5.95 0
      vertex 3.5 5.95 1.9
    endloop
  endfacet
  facet normal 1 0 0
    outer loop
      vertex 3.5 5.95 0
      vertex 3.5 4.05 1.9
      vertex 3.5 4.05 0
    endloop
  endfacet
  facet normal -1 0 0
    outer loop
      vertex 5 4.05 0
      vertex 5 5.95 1.9
      vertex 5 5.95 0
    endloop
  endfacet
  facet normal -1 -0 0
    outer loop
      vertex 5 5.95 1.9
      vertex 5 4.05 0
      vertex 5 4.05 1.9
    endloop
  endfacet
  facet normal 0 1 -0
    outer loop
      vertex 5 4.05 0
      vertex 3.5 4.05 1.9
      vertex 5 4.05 1.9
    endloop
  endfacet
  facet normal 0 1 0
    outer loop
      vertex 3.5 4.05 1.9
      vertex 5 4.05 0
      vertex 3.5 4.05 0
    endloop
  endfacet
  facet normal 0 -1 0
    outer loop
      vertex 3.5 5.95 0
      vertex 5 5.95 1.9
      vertex 3.5 5.95 1.9
    endloop
  endfacet
  facet normal 0 -1 -0
    outer loop
      vertex 5 5.95 1.9
      vertex 3.5 5.95 0
      vertex 5 5.95 0
    endloop
  endfacet
  facet normal 1 -0 0
    outer loop
      vertex 83.89 4.05 1.9
      vertex 83.89 5.95 0
      vertex 83.89 5.95 1.9
    endloop
  endfacet
  facet normal 1 0 0
    outer loop
      vertex 83.89 5.95 0
      vertex 83.89 4.05 1.9
      vertex 83.89 4.05 0
    endloop
  endfacet
  facet normal -1 0 0
    outer loop
      vertex 85.39 4.05 0
      vertex 85.39 5.95 1.9
      vertex 85.39 5.95 0
    endloop
  endfacet
  facet normal -1 -0 0
    outer loop
      vertex 85.39 5.95 1.9
      vertex 85.39 4.05 0
      vertex 85.39 4.05 1.9
    endloop
  endfacet
  facet normal 0 -1 0
    outer loop
      vertex 83.89 5.95 0
      vertex 85.39 5.95 1.9
      vertex 83.89 5.95 1.9
    endloop
  endfacet
  facet normal 0 -1 -0
    outer loop
      vertex 85.39 5.95 1.9
      vertex 83.89 5.95 0
      vertex 85.39 5.95 0
    endloop
  endfacet
  facet normal 0 1 -0
    outer loop
      vertex 85.39 4.05 0
      vertex 83.89 4.05 1.9
      vertex 85.39 4.05 1.9
    endloop
  endfacet
  facet normal 0 1 0
    outer loop
      vertex 83.89 4.05 1.9
      vertex 85.39 4.05 0
      vertex 83.89 4.05 0
    endloop
  endfacet
endsolid OpenSCAD_Model
