solid OpenSCAD_Model
  facet normal -1 0 0
    outer loop
      vertex 13 0 0
      vertex 13 2.5 2.5
      vertex 13 2.5 0
    endloop
  endfacet
  facet normal -1 -0 0
    outer loop
      vertex 13 2.5 2.5
      vertex 13 0 0
      vertex 13 0 2.5
    endloop
  endfacet
  facet normal 0 -1 0
    outer loop
      vertex 0 2.5 0
      vertex 13 2.5 2.5
      vertex 0 2.5 2.5
    endloop
  endfacet
  facet normal 0 -1 -0
    outer loop
      vertex 13 2.5 2.5
      vertex 0 2.5 0
      vertex 13 2.5 0
    endloop
  endfacet
  facet normal -1 0 0
    outer loop
      vertex 13 7.5 0
      vertex 13 10 2.5
      vertex 13 10 0
    endloop
  endfacet
  facet normal -1 -0 0
    outer loop
      vertex 13 10 2.5
      vertex 13 7.5 0
      vertex 13 7.5 2.5
    endloop
  endfacet
  facet normal 0 1 -0
    outer loop
      vertex 13 7.5 0
      vertex 0 7.5 2.5
      vertex 13 7.5 2.5
    endloop
  endfacet
  facet normal 0 1 0
    outer loop
      vertex 0 7.5 2.5
      vertex 13 7.5 0
      vertex 0 7.5 0
    endloop
  endfacet
  facet normal 1 -0 0
    outer loop
      vertex 75 0 2.5
      vertex 75 2.5 0
      vertex 75 2.5 2.5
    endloop
  endfacet
  facet normal 1 0 0
    outer loop
      vertex 75 2.5 0
      vertex 75 0 2.5
      vertex 75 0 0
    endloop
  endfacet
  facet normal 0 -1 0
    outer loop
      vertex 75 2.5 0
      vertex 88 2.5 2.5
      vertex 75 2.5 2.5
    endloop
  endfacet
  facet normal 0 -1 -0
    outer loop
      vertex 88 2.5 2.5
      vertex 75 2.5 0
      vertex 88 2.5 0
    endloop
  endfacet
  facet normal 1 -0 0
    outer loop
      vertex 75 7.5 2.5
      vertex 75 10 0
      vertex 75 10 2.5
    endloop
  endfacet
  facet normal 1 0 0
    outer loop
      vertex 75 10 0
      vertex 75 7.5 2.5
      vertex 75 7.5 0
    endloop
  endfacet
  facet normal 0 1 -0
    outer loop
      vertex 88 7.5 0
      vertex 75 7.5 2.5
      vertex 88 7.5 2.5
    endloop
  endfacet
  facet normal 0 1 0
    outer loop
      vertex 75 7.5 2.5
      vertex 88 7.5 0
      vertex 75 7.5 0
    endloop
  endfacet
  facet normal -1 0 0
    outer loop
      vertex 0 2.5 0
      vertex 0 7.5 2.5
      vertex 0 7.5 0
    endloop
  endfacet
  facet normal -1 -0 0
    outer loop
      vertex 0 7.5 2.5
      vertex 0 2.5 0
      vertex 0 2.5 2.5
    endloop
  endfacet
  facet normal -0 0 1
    outer loop
      vertex 0 7.5 2.5
      vertex 13 2.5 2.5
      vertex 13 7.5 2.5
    endloop
  endfacet
  facet normal 0 0 1
    outer loop
      vertex 13 2.5 2.5
      vertex 0 7.5 2.5
      vertex 0 2.5 2.5
    endloop
  endfacet
  facet normal 0 0 1
    outer loop
      vertex 13 7.5 2.5
      vertex 75 7.5 2.5
      vertex 75 10 2.5
    endloop
  endfacet
  facet normal 0 0 1
    outer loop
      vertex 75 7.5 2.5
      vertex 13 7.5 2.5
      vertex 75 2.5 2.5
    endloop
  endfacet
  facet normal 0 0 1
    outer loop
      vertex 13 7.5 2.5
      vertex 75 10 2.5
      vertex 13 10 2.5
    endloop
  endfacet
  facet normal 0 0 1
    outer loop
      vertex 13 2.5 2.5
      vertex 75 2.5 2.5
      vertex 13 7.5 2.5
    endloop
  endfacet
  facet normal 0 0 1
    outer loop
      vertex 75 2.5 2.5
      vertex 13 2.5 2.5
      vertex 75 0 2.5
    endloop
  endfacet
  facet normal 0 0 1
    outer loop
      vertex 75 0 2.5
      vertex 13 2.5 2.5
      vertex 13 0 2.5
    endloop
  endfacet
  facet normal -0 0 1
    outer loop
      vertex 75 7.5 2.5
      vertex 88 2.5 2.5
      vertex 88 7.5 2.5
    endloop
  endfacet
  facet normal 0 0 1
    outer loop
      vertex 88 2.5 2.5
      vertex 75 7.5 2.5
      vertex 75 2.5 2.5
    endloop
  endfacet
  facet normal 1 -0 0
    outer loop
      vertex 88 2.5 2.5
      vertex 88 7.5 0
      vertex 88 7.5 2.5
    endloop
  endfacet
  facet normal 1 0 0
    outer loop
      vertex 88 7.5 0
      vertex 88 2.5 2.5
      vertex 88 2.5 0
    endloop
  endfacet
  facet normal 0 1 -0
    outer loop
      vertex 75 10 0
      vertex 13 10 2.5
      vertex 75 10 2.5
    endloop
  endfacet
  facet normal 0 1 0
    outer loop
      vertex 13 10 2.5
      vertex 75 10 0
      vertex 13 10 0
    endloop
  endfacet
  facet normal 0 0 -1
    outer loop
      vertex 0 2.5 0
      vertex 13 7.5 0
      vertex 13 2.5 0
    endloop
  endfacet
  facet normal -0 0 -1
    outer loop
      vertex 13 7.5 0
      vertex 0 2.5 0
      vertex 0 7.5 0
    endloop
  endfacet
  facet normal 0 0 -1
    outer loop
      vertex 13 2.5 0
      vertex 75 2.5 0
      vertex 75 0 0
    endloop
  endfacet
  facet normal 0 0 -1
    outer loop
      vertex 75 2.5 0
      vertex 13 2.5 0
      vertex 75 7.5 0
    endloop
  endfacet
  facet normal 0 0 -1
    outer loop
      vertex 13 2.5 0
      vertex 75 0 0
      vertex 13 0 0
    endloop
  endfacet
  facet normal 0 0 -1
    outer loop
      vertex 13 7.5 0
      vertex 75 7.5 0
      vertex 13 2.5 0
    endloop
  endfacet
  facet normal 0 0 -1
    outer loop
      vertex 75 7.5 0
      vertex 13 7.5 0
      vertex 75 10 0
    endloop
  endfacet
  facet normal -0 0 -1
    outer loop
      vertex 75 10 0
      vertex 13 7.5 0
      vertex 13 10 0
    endloop
  endfacet
  facet normal 0 0 -1
    outer loop
      vertex 75 2.5 0
      vertex 88 7.5 0
      vertex 88 2.5 0
    endloop
  endfacet
  facet normal -0 0 -1
    outer loop
      vertex 88 7.5 0
      vertex 75 2.5 0
      vertex 75 7.5 0
    endloop
  endfacet
  facet normal 0 -1 0
    outer loop
      vertex 13 0 0
      vertex 75 0 2.5
      vertex 13 0 2.5
    endloop
  endfacet
  facet normal 0 -1 -0
    outer loop
      vertex 75 0 2.5
      vertex 13 0 0
      vertex 75 0 0
    endloop
  endfacet
endsolid OpenSCAD_Model
