solid OpenSCAD_Model
  facet normal -1 0 0
    outer loop
      vertex -38.42 -0.95 -5
      vertex -38.42 0.95 -3.125
      vertex -38.42 0.95 -5
    endloop
  endfacet
  facet normal -1 -0 0
    outer loop
      vertex -38.42 0.95 -3.125
      vertex -38.42 -0.95 -5
      vertex -38.42 -0.95 -3.125
    endloop
  endfacet
  facet normal 0 0 -1
    outer loop
      vertex -45.72 -0.95 -3.125
      vertex -38.42 0.95 -3.125
      vertex -38.42 -0.95 -3.125
    endloop
  endfacet
  facet normal -0 0 -1
    outer loop
      vertex -38.42 0.95 -3.125
      vertex -45.72 -0.95 -3.125
      vertex -45.72 0.95 -3.125
    endloop
  endfacet
  facet normal -1 0 0
    outer loop
      vertex -35.56 -0.95 3.125
      vertex -35.56 0.95 5
      vertex -35.56 0.95 3.125
    endloop
  endfacet
  facet normal -1 -0 0
    outer loop
      vertex -35.56 0.95 5
      vertex -35.56 -0.95 3.125
      vertex -35.56 -0.95 5
    endloop
  endfacet
  facet normal -0 0 1
    outer loop
      vertex -45.72 0.95 3.125
      vertex -35.56 -0.95 3.125
      vertex -35.56 0.95 3.125
    endloop
  endfacet
  facet normal 0 0 1
    outer loop
      vertex -35.56 -0.95 3.125
      vertex -45.72 0.95 3.125
      vertex -45.72 -0.95 3.125
    endloop
  endfacet
  facet normal 1 -0 0
    outer loop
      vertex 38.42 -0.95 -3.125
      vertex 38.42 0.95 -5
      vertex 38.42 0.95 -3.125
    endloop
  endfacet
  facet normal 1 0 0
    outer loop
      vertex 38.42 0.95 -5
      vertex 38.42 -0.95 -3.125
      vertex 38.42 -0.95 -5
    endloop
  endfacet
  facet normal 0 0 -1
    outer loop
      vertex 38.42 -0.95 -3.125
      vertex 45.72 0.95 -3.125
      vertex 45.72 -0.95 -3.125
    endloop
  endfacet
  facet normal -0 0 -1
    outer loop
      vertex 45.72 0.95 -3.125
      vertex 38.42 -0.95 -3.125
      vertex 38.42 0.95 -3.125
    endloop
  endfacet
  facet normal 1 -0 0
    outer loop
      vertex 35.56 -0.95 5
      vertex 35.56 0.95 3.125
      vertex 35.56 0.95 5
    endloop
  endfacet
  facet normal 1 0 0
    outer loop
      vertex 35.56 0.95 3.125
      vertex 35.56 -0.95 5
      vertex 35.56 -0.95 3.125
    endloop
  endfacet
  facet normal -0 0 1
    outer loop
      vertex 35.56 0.95 3.125
      vertex 45.72 -0.95 3.125
      vertex 45.72 0.95 3.125
    endloop
  endfacet
  facet normal 0 0 1
    outer loop
      vertex 45.72 -0.95 3.125
      vertex 35.56 0.95 3.125
      vertex 35.56 -0.95 3.125
    endloop
  endfacet
  facet normal -1 0 0
    outer loop
      vertex -45.72 -0.95 -3.125
      vertex -45.72 0.95 3.125
      vertex -45.72 0.95 -3.125
    endloop
  endfacet
  facet normal -1 -0 0
    outer loop
      vertex -45.72 0.95 3.125
      vertex -45.72 -0.95 -3.125
      vertex -45.72 -0.95 3.125
    endloop
  endfacet
  facet normal 0 -1 0
    outer loop
      vertex 38.42 -0.95 -5
      vertex 35.56 -0.95 3.125
      vertex -38.42 -0.95 -5
    endloop
  endfacet
  facet normal 0 -1 0
    outer loop
      vertex 35.56 -0.95 3.125
      vertex 38.42 -0.95 -5
      vertex 38.42 -0.95 -3.125
    endloop
  endfacet
  facet normal 0 -1 0
    outer loop
      vertex -38.42 -0.95 -5
      vertex -35.56 -0.95 3.125
      vertex -38.42 -0.95 -3.125
    endloop
  endfacet
  facet normal 0 -1 -0
    outer loop
      vertex -35.56 -0.95 3.125
      vertex -38.42 -0.95 -5
      vertex 35.56 -0.95 3.125
    endloop
  endfacet
  facet normal 0 -1 0
    outer loop
      vertex -43.18 -0.95 0.95
      vertex -35.56 -0.95 3.125
      vertex -45.72 -0.95 3.125
    endloop
  endfacet
  facet normal 0 -1 0
    outer loop
      vertex -38.42 -0.95 -3.125
      vertex -43.18 -0.95 0.95
      vertex -43.18 -0.95 -0.950001
    endloop
  endfacet
  facet normal 0 -1 0
    outer loop
      vertex -43.18 -0.95 0.95
      vertex -45.72 -0.95 3.125
      vertex -43.78 -0.95 0.95
    endloop
  endfacet
  facet normal 0 -1 0
    outer loop
      vertex -45.72 -0.95 3.125
      vertex -43.78 -0.95 -0.950001
      vertex -43.78 -0.95 0.95
    endloop
  endfacet
  facet normal 0 -1 0
    outer loop
      vertex -45.72 -0.95 -3.125
      vertex -43.18 -0.95 -0.950001
      vertex -43.78 -0.95 -0.950001
    endloop
  endfacet
  facet normal 0 -1 0
    outer loop
      vertex 35.56 -0.95 3.125
      vertex 38.42 -0.95 -3.125
      vertex 43.18 -0.95 0.95
    endloop
  endfacet
  facet normal 0 -1 -0
    outer loop
      vertex -43.18 -0.95 -0.950001
      vertex -45.72 -0.95 -3.125
      vertex -38.42 -0.95 -3.125
    endloop
  endfacet
  facet normal 0 -1 0
    outer loop
      vertex -45.72 -0.95 -3.125
      vertex -43.78 -0.95 -0.950001
      vertex -45.72 -0.95 3.125
    endloop
  endfacet
  facet normal 0 -1 0
    outer loop
      vertex -35.56 -0.95 3.125
      vertex 35.56 -0.95 5
      vertex -35.56 -0.95 5
    endloop
  endfacet
  facet normal 0 -1 -0
    outer loop
      vertex 35.56 -0.95 5
      vertex -35.56 -0.95 3.125
      vertex 35.56 -0.95 3.125
    endloop
  endfacet
  facet normal 0 -1 0
    outer loop
      vertex -43.18 -0.95 0.95
      vertex -38.42 -0.95 -3.125
      vertex -35.56 -0.95 3.125
    endloop
  endfacet
  facet normal 0 -1 0
    outer loop
      vertex 35.56 -0.95 3.125
      vertex 43.18 -0.95 0.95
      vertex 45.72 -0.95 3.125
    endloop
  endfacet
  facet normal 0 -1 0
    outer loop
      vertex 43.78 -0.95 0.95
      vertex 45.72 -0.95 3.125
      vertex 43.18 -0.95 0.95
    endloop
  endfacet
  facet normal 0 -1 0
    outer loop
      vertex 43.78 -0.95 -0.950001
      vertex 45.72 -0.95 3.125
      vertex 43.78 -0.95 0.95
    endloop
  endfacet
  facet normal 0 -1 -0
    outer loop
      vertex 43.18 -0.95 0.95
      vertex 38.42 -0.95 -3.125
      vertex 43.18 -0.95 -0.950001
    endloop
  endfacet
  facet normal 0 -1 0
    outer loop
      vertex 45.72 -0.95 -3.125
      vertex 43.18 -0.95 -0.950001
      vertex 38.42 -0.95 -3.125
    endloop
  endfacet
  facet normal 0 -1 0
    outer loop
      vertex 43.78 -0.95 -0.950001
      vertex 45.72 -0.95 -3.125
      vertex 45.72 -0.95 3.125
    endloop
  endfacet
  facet normal 0 -1 0
    outer loop
      vertex 43.18 -0.95 -0.950001
      vertex 45.72 -0.95 -3.125
      vertex 43.78 -0.95 -0.950001
    endloop
  endfacet
  facet normal 1 -0 0
    outer loop
      vertex 45.72 -0.95 3.125
      vertex 45.72 0.95 -3.125
      vertex 45.72 0.95 3.125
    endloop
  endfacet
  facet normal 1 0 0
    outer loop
      vertex 45.72 0.95 -3.125
      vertex 45.72 -0.95 3.125
      vertex 45.72 -0.95 -3.125
    endloop
  endfacet
  facet normal 0 1 0
    outer loop
      vertex -38.42 0.95 -5
      vertex -35.56 0.95 3.125
      vertex 38.42 0.95 -5
    endloop
  endfacet
  facet normal 0 1 0
    outer loop
      vertex -35.56 0.95 3.125
      vertex -38.42 0.95 -5
      vertex -38.42 0.95 -3.125
    endloop
  endfacet
  facet normal 0 1 -0
    outer loop
      vertex 38.42 0.95 -5
      vertex 35.56 0.95 3.125
      vertex 38.42 0.95 -3.125
    endloop
  endfacet
  facet normal 0 1 0
    outer loop
      vertex 35.56 0.95 3.125
      vertex 38.42 0.95 -5
      vertex -35.56 0.95 3.125
    endloop
  endfacet
  facet normal 0 1 -0
    outer loop
      vertex 43.18 0.95 0.95
      vertex 35.56 0.95 3.125
      vertex 45.72 0.95 3.125
    endloop
  endfacet
  facet normal 0 1 0
    outer loop
      vertex 38.42 0.95 -3.125
      vertex 43.18 0.95 0.95
      vertex 43.18 0.95 -0.950001
    endloop
  endfacet
  facet normal 0 1 0
    outer loop
      vertex 43.18 0.95 0.95
      vertex 45.72 0.95 3.125
      vertex 43.78 0.95 0.95
    endloop
  endfacet
  facet normal 0 1 0
    outer loop
      vertex 45.72 0.95 3.125
      vertex 43.78 0.95 -0.950001
      vertex 43.78 0.95 0.95
    endloop
  endfacet
  facet normal 0 1 0
    outer loop
      vertex 45.72 0.95 -3.125
      vertex 43.18 0.95 -0.950001
      vertex 43.78 0.95 -0.950001
    endloop
  endfacet
  facet normal 0 1 0
    outer loop
      vertex -35.56 0.95 3.125
      vertex -38.42 0.95 -3.125
      vertex -43.18 0.95 0.95
    endloop
  endfacet
  facet normal 0 1 0
    outer loop
      vertex 43.18 0.95 -0.950001
      vertex 45.72 0.95 -3.125
      vertex 38.42 0.95 -3.125
    endloop
  endfacet
  facet normal 0 1 -0
    outer loop
      vertex 45.72 0.95 -3.125
      vertex 43.78 0.95 -0.950001
      vertex 45.72 0.95 3.125
    endloop
  endfacet
  facet normal 0 1 -0
    outer loop
      vertex 35.56 0.95 3.125
      vertex -35.56 0.95 5
      vertex 35.56 0.95 5
    endloop
  endfacet
  facet normal 0 1 0
    outer loop
      vertex -35.56 0.95 5
      vertex 35.56 0.95 3.125
      vertex -35.56 0.95 3.125
    endloop
  endfacet
  facet normal 0 1 0
    outer loop
      vertex 43.18 0.95 0.95
      vertex 38.42 0.95 -3.125
      vertex 35.56 0.95 3.125
    endloop
  endfacet
  facet normal 0 1 0
    outer loop
      vertex -35.56 0.95 3.125
      vertex -43.18 0.95 0.95
      vertex -45.72 0.95 3.125
    endloop
  endfacet
  facet normal 0 1 -0
    outer loop
      vertex -43.78 0.95 0.95
      vertex -45.72 0.95 3.125
      vertex -43.18 0.95 0.95
    endloop
  endfacet
  facet normal 0 1 -0
    outer loop
      vertex -43.78 0.95 -0.950001
      vertex -45.72 0.95 3.125
      vertex -43.78 0.95 0.95
    endloop
  endfacet
  facet normal 0 1 0
    outer loop
      vertex -43.18 0.95 0.95
      vertex -38.42 0.95 -3.125
      vertex -43.18 0.95 -0.950001
    endloop
  endfacet
  facet normal 0 1 0
    outer loop
      vertex -45.72 0.95 -3.125
      vertex -43.18 0.95 -0.950001
      vertex -38.42 0.95 -3.125
    endloop
  endfacet
  facet normal 0 1 0
    outer loop
      vertex -43.78 0.95 -0.950001
      vertex -45.72 0.95 -3.125
      vertex -45.72 0.95 3.125
    endloop
  endfacet
  facet normal 0 1 0
    outer loop
      vertex -43.18 0.95 -0.950001
      vertex -45.72 0.95 -3.125
      vertex -43.78 0.95 -0.950001
    endloop
  endfacet
  facet normal 0 0 -1
    outer loop
      vertex -38.42 -0.95 -5
      vertex 38.42 0.95 -5
      vertex 38.42 -0.95 -5
    endloop
  endfacet
  facet normal -0 0 -1
    outer loop
      vertex 38.42 0.95 -5
      vertex -38.42 -0.95 -5
      vertex -38.42 0.95 -5
    endloop
  endfacet
  facet normal -0 0 1
    outer loop
      vertex -35.56 0.95 5
      vertex 35.56 -0.95 5
      vertex 35.56 0.95 5
    endloop
  endfacet
  facet normal 0 0 1
    outer loop
      vertex 35.56 -0.95 5
      vertex -35.56 0.95 5
      vertex -35.56 -0.95 5
    endloop
  endfacet
  facet normal 1 -0 0
    outer loop
      vertex -43.78 -0.95 0.95
      vertex -43.78 0.95 -0.950001
      vertex -43.78 0.95 0.95
    endloop
  endfacet
  facet normal 1 0 0
    outer loop
      vertex -43.78 0.95 -0.950001
      vertex -43.78 -0.95 0.95
      vertex -43.78 -0.95 -0.950001
    endloop
  endfacet
  facet normal -1 0 0
    outer loop
      vertex -43.18 -0.95 -0.950001
      vertex -43.18 0.95 0.95
      vertex -43.18 0.95 -0.950001
    endloop
  endfacet
  facet normal -1 -0 0
    outer loop
      vertex -43.18 0.95 0.95
      vertex -43.18 -0.95 -0.950001
      vertex -43.18 -0.95 0.95
    endloop
  endfacet
  facet normal 0 0 -1
    outer loop
      vertex -43.78 -0.95 0.95
      vertex -43.18 0.95 0.95
      vertex -43.18 -0.95 0.95
    endloop
  endfacet
  facet normal -0 0 -1
    outer loop
      vertex -43.18 0.95 0.95
      vertex -43.78 -0.95 0.95
      vertex -43.78 0.95 0.95
    endloop
  endfacet
  facet normal -0 0 1
    outer loop
      vertex -43.78 0.95 -0.950001
      vertex -43.18 -0.95 -0.950001
      vertex -43.18 0.95 -0.950001
    endloop
  endfacet
  facet normal 0 0 1
    outer loop
      vertex -43.18 -0.95 -0.950001
      vertex -43.78 0.95 -0.950001
      vertex -43.78 -0.95 -0.950001
    endloop
  endfacet
  facet normal 1 -0 0
    outer loop
      vertex 43.18 -0.95 0.95
      vertex 43.18 0.95 -0.950001
      vertex 43.18 0.95 0.95
    endloop
  endfacet
  facet normal 1 0 0
    outer loop
      vertex 43.18 0.95 -0.950001
      vertex 43.18 -0.95 0.95
      vertex 43.18 -0.95 -0.950001
    endloop
  endfacet
  facet normal -1 0 0
    outer loop
      vertex 43.78 -0.95 -0.950001
      vertex 43.78 0.95 0.95
      vertex 43.78 0.95 -0.950001
    endloop
  endfacet
  facet normal -1 -0 0
    outer loop
      vertex 43.78 0.95 0.95
      vertex 43.78 -0.95 -0.950001
      vertex 43.78 -0.95 0.95
    endloop
  endfacet
  facet normal 0 0 -1
    outer loop
      vertex 43.18 -0.95 0.95
      vertex 43.78 0.95 0.95
      vertex 43.78 -0.95 0.95
    endloop
  endfacet
  facet normal -0 0 -1
    outer loop
      vertex 43.78 0.95 0.95
      vertex 43.18 -0.95 0.95
      vertex 43.18 0.95 0.95
    endloop
  endfacet
  facet normal -0 0 1
    outer loop
      vertex 43.18 0.95 -0.950001
      vertex 43.78 -0.95 -0.950001
      vertex 43.78 0.95 -0.950001
    endloop
  endfacet
  facet normal 0 0 1
    outer loop
      vertex 43.78 -0.95 -0.950001
      vertex 43.18 0.95 -0.950001
      vertex 43.18 -0.95 -0.950001
    endloop
  endfacet
endsolid OpenSCAD_Model
