solid OpenSCAD_Model
  facet normal -1 0 0
    outer loop
      vertex 12 0 0
      vertex 12 2.5 2.5
      vertex 12 2.5 0
    endloop
  endfacet
  facet normal -1 -0 0
    outer loop
      vertex 12 2.5 2.5
      vertex 12 0 0
      vertex 12 0 2.5
    endloop
  endfacet
  facet normal 0 -1 0
    outer loop
      vertex 0 2.5 0
      vertex 12 2.5 2.5
      vertex 0 2.5 2.5
    endloop
  endfacet
  facet normal 0 -1 -0
    outer loop
      vertex 12 2.5 2.5
      vertex 0 2.5 0
      vertex 12 2.5 0
    endloop
  endfacet
  facet normal -1 0 0
    outer loop
      vertex 12 7.5 0
      vertex 12 10 2.5
      vertex 12 10 0
    endloop
  endfacet
  facet normal -1 -0 0
    outer loop
      vertex 12 10 2.5
      vertex 12 7.5 0
      vertex 12 7.5 2.5
    endloop
  endfacet
  facet normal 0 1 -0
    outer loop
      vertex 12 7.5 0
      vertex 0 7.5 2.5
      vertex 12 7.5 2.5
    endloop
  endfacet
  facet normal 0 1 0
    outer loop
      vertex 0 7.5 2.5
      vertex 12 7.5 0
      vertex 0 7.5 0
    endloop
  endfacet
  facet normal 1 -0 0
    outer loop
      vertex 79 0 2.5
      vertex 79 2.5 0
      vertex 79 2.5 2.5
    endloop
  endfacet
  facet normal 1 0 0
    outer loop
      vertex 79 2.5 0
      vertex 79 0 2.5
      vertex 79 0 0
    endloop
  endfacet
  facet normal 0 -1 0
    outer loop
      vertex 79 2.5 0
      vertex 91 2.5 2.5
      vertex 79 2.5 2.5
    endloop
  endfacet
  facet normal 0 -1 -0
    outer loop
      vertex 91 2.5 2.5
      vertex 79 2.5 0
      vertex 91 2.5 0
    endloop
  endfacet
  facet normal 1 -0 0
    outer loop
      vertex 79 7.5 2.5
      vertex 79 10 0
      vertex 79 10 2.5
    endloop
  endfacet
  facet normal 1 0 0
    outer loop
      vertex 79 10 0
      vertex 79 7.5 2.5
      vertex 79 7.5 0
    endloop
  endfacet
  facet normal 0 1 -0
    outer loop
      vertex 91 7.5 0
      vertex 79 7.5 2.5
      vertex 91 7.5 2.5
    endloop
  endfacet
  facet normal 0 1 0
    outer loop
      vertex 79 7.5 2.5
      vertex 91 7.5 0
      vertex 79 7.5 0
    endloop
  endfacet
  facet normal -1 0 0
    outer loop
      vertex 0 2.5 0
      vertex 0 7.5 2.5
      vertex 0 7.5 0
    endloop
  endfacet
  facet normal -1 -0 0
    outer loop
      vertex 0 7.5 2.5
      vertex 0 2.5 0
      vertex 0 2.5 2.5
    endloop
  endfacet
  facet normal -0 0 1
    outer loop
      vertex 0 7.5 2.5
      vertex 12 2.5 2.5
      vertex 12 7.5 2.5
    endloop
  endfacet
  facet normal 0 0 1
    outer loop
      vertex 12 2.5 2.5
      vertex 0 7.5 2.5
      vertex 0 2.5 2.5
    endloop
  endfacet
  facet normal 0 0 1
    outer loop
      vertex 12 7.5 2.5
      vertex 79 7.5 2.5
      vertex 79 10 2.5
    endloop
  endfacet
  facet normal 0 0 1
    outer loop
      vertex 79 7.5 2.5
      vertex 12 7.5 2.5
      vertex 79 2.5 2.5
    endloop
  endfacet
  facet normal 0 0 1
    outer loop
      vertex 12 7.5 2.5
      vertex 79 10 2.5
      vertex 12 10 2.5
    endloop
  endfacet
  facet normal 0 0 1
    outer loop
      vertex 12 2.5 2.5
      vertex 79 2.5 2.5
      vertex 12 7.5 2.5
    endloop
  endfacet
  facet normal 0 0 1
    outer loop
      vertex 79 2.5 2.5
      vertex 12 2.5 2.5
      vertex 79 0 2.5
    endloop
  endfacet
  facet normal 0 0 1
    outer loop
      vertex 79 0 2.5
      vertex 12 2.5 2.5
      vertex 12 0 2.5
    endloop
  endfacet
  facet normal -0 0 1
    outer loop
      vertex 79 7.5 2.5
      vertex 91 2.5 2.5
      vertex 91 7.5 2.5
    endloop
  endfacet
  facet normal 0 0 1
    outer loop
      vertex 91 2.5 2.5
      vertex 79 7.5 2.5
      vertex 79 2.5 2.5
    endloop
  endfacet
  facet normal 1 -0 0
    outer loop
      vertex 91 2.5 2.5
      vertex 91 7.5 0
      vertex 91 7.5 2.5
    endloop
  endfacet
  facet normal 1 0 0
    outer loop
      vertex 91 7.5 0
      vertex 91 2.5 2.5
      vertex 91 2.5 0
    endloop
  endfacet
  facet normal 0 1 -0
    outer loop
      vertex 79 10 0
      vertex 12 10 2.5
      vertex 79 10 2.5
    endloop
  endfacet
  facet normal 0 1 0
    outer loop
      vertex 12 10 2.5
      vertex 79 10 0
      vertex 12 10 0
    endloop
  endfacet
  facet normal 0 0 -1
    outer loop
      vertex 0 2.5 0
      vertex 12 7.5 0
      vertex 12 2.5 0
    endloop
  endfacet
  facet normal -0 0 -1
    outer loop
      vertex 12 7.5 0
      vertex 0 2.5 0
      vertex 0 7.5 0
    endloop
  endfacet
  facet normal 0 0 -1
    outer loop
      vertex 12 2.5 0
      vertex 79 2.5 0
      vertex 79 0 0
    endloop
  endfacet
  facet normal 0 0 -1
    outer loop
      vertex 79 2.5 0
      vertex 12 2.5 0
      vertex 79 7.5 0
    endloop
  endfacet
  facet normal 0 0 -1
    outer loop
      vertex 12 2.5 0
      vertex 79 0 0
      vertex 12 0 0
    endloop
  endfacet
  facet normal 0 0 -1
    outer loop
      vertex 12 7.5 0
      vertex 79 7.5 0
      vertex 12 2.5 0
    endloop
  endfacet
  facet normal 0 0 -1
    outer loop
      vertex 79 7.5 0
      vertex 12 7.5 0
      vertex 79 10 0
    endloop
  endfacet
  facet normal -0 0 -1
    outer loop
      vertex 79 10 0
      vertex 12 7.5 0
      vertex 12 10 0
    endloop
  endfacet
  facet normal 0 0 -1
    outer loop
      vertex 79 2.5 0
      vertex 91 7.5 0
      vertex 91 2.5 0
    endloop
  endfacet
  facet normal -0 0 -1
    outer loop
      vertex 91 7.5 0
      vertex 79 2.5 0
      vertex 79 7.5 0
    endloop
  endfacet
  facet normal 0 -1 0
    outer loop
      vertex 12 0 0
      vertex 79 0 2.5
      vertex 12 0 2.5
    endloop
  endfacet
  facet normal 0 -1 -0
    outer loop
      vertex 79 0 2.5
      vertex 12 0 0
      vertex 79 0 0
    endloop
  endfacet
endsolid OpenSCAD_Model
