solid OpenSCAD_Model
  facet normal 0 0 1
    outer loop
      vertex 5 101 5
      vertex 6.18447e-15 0 5
      vertex 5 0 5
    endloop
  endfacet
  facet normal 0 -0 1
    outer loop
      vertex 6.18447e-15 0 5
      vertex 5 101 5
      vertex 0 101 5
    endloop
  endfacet
  facet normal 0 0 -1
    outer loop
      vertex 6.18447e-15 0 0
      vertex 5 101 0
      vertex 5 0 0
    endloop
  endfacet
  facet normal -0 0 -1
    outer loop
      vertex 5 101 0
      vertex 6.18447e-15 0 0
      vertex 0 101 0
    endloop
  endfacet
  facet normal -1 -6.12324e-17 0
    outer loop
      vertex 6.18447e-15 0 0
      vertex 0 101 5
      vertex 0 101 0
    endloop
  endfacet
  facet normal -1 -6.12324e-17 0
    outer loop
      vertex 0 101 5
      vertex 6.18447e-15 0 0
      vertex 6.18447e-15 0 5
    endloop
  endfacet
  facet normal 0 -1 0
    outer loop
      vertex 6.18447e-15 0 0
      vertex 5 0 5
      vertex 6.18447e-15 0 5
    endloop
  endfacet
  facet normal 0 -1 -0
    outer loop
      vertex 5 0 5
      vertex 6.18447e-15 0 0
      vertex 5 0 0
    endloop
  endfacet
  facet normal 1 -0 0
    outer loop
      vertex 5 0 5
      vertex 5 101 0
      vertex 5 101 5
    endloop
  endfacet
  facet normal 1 0 0
    outer loop
      vertex 5 101 0
      vertex 5 0 5
      vertex 5 0 0
    endloop
  endfacet
  facet normal 0 1 -0
    outer loop
      vertex 5 101 0
      vertex 0 101 5
      vertex 5 101 5
    endloop
  endfacet
  facet normal 0 1 0
    outer loop
      vertex 0 101 5
      vertex 5 101 0
      vertex 0 101 0
    endloop
  endfacet
endsolid OpenSCAD_Model
