solid OpenSCAD_Model
  facet normal 1 -0 0
    outer loop
      vertex 1.5 1.22465e-16 2
      vertex 1.5 6 -2.75546e-16
      vertex 1.5 6 2
    endloop
  endfacet
  facet normal 1 0 0
    outer loop
      vertex 1.5 6 -2.75546e-16
      vertex 1.5 1.22465e-16 2
      vertex 1.5 0 9.18485e-17
    endloop
  endfacet
  facet normal -1 0 -6.12325e-17
    outer loop
      vertex 2.24964e-32 6 -3.67394e-16
      vertex -1.22465e-16 1.22465e-16 2
      vertex -1.22465e-16 6 2
    endloop
  endfacet
  facet normal -1 0 -6.12325e-17
    outer loop
      vertex -1.22465e-16 1.22465e-16 2
      vertex 2.24964e-32 6 -3.67394e-16
      vertex 0 0 0
    endloop
  endfacet
  facet normal 6.1232e-17 -6.12324e-17 -1
    outer loop
      vertex 1.5 0 9.18485e-17
      vertex 2.24964e-32 6 -3.67394e-16
      vertex 1.5 6 -2.75546e-16
    endloop
  endfacet
  facet normal 6.12323e-17 -6.12323e-17 -1
    outer loop
      vertex 2.24964e-32 6 -3.67394e-16
      vertex 1.5 0 9.18485e-17
      vertex 0 0 0
    endloop
  endfacet
  facet normal 0 1 -0
    outer loop
      vertex 1.5 6 -2.75546e-16
      vertex -1.22465e-16 6 2
      vertex 1.5 6 2
    endloop
  endfacet
  facet normal 0 1 0
    outer loop
      vertex -1.22465e-16 6 2
      vertex 1.5 6 -2.75546e-16
      vertex 2.24964e-32 6 -3.67394e-16
    endloop
  endfacet
  facet normal -0 0 1
    outer loop
      vertex -1.22465e-16 6 2
      vertex 1.5 1.22465e-16 2
      vertex 1.5 6 2
    endloop
  endfacet
  facet normal 0 0 1
    outer loop
      vertex 1.5 1.22465e-16 2
      vertex -1.22465e-16 6 2
      vertex -1.22465e-16 1.22465e-16 2
    endloop
  endfacet
  facet normal 0 -1 6.12325e-17
    outer loop
      vertex -1.22465e-16 1.22465e-16 2
      vertex 1.5 0 9.18485e-17
      vertex 1.5 1.22465e-16 2
    endloop
  endfacet
  facet normal -3.74941e-33 -1 6.12325e-17
    outer loop
      vertex 1.5 0 9.18485e-17
      vertex -1.22465e-16 1.22465e-16 2
      vertex 0 0 0
    endloop
  endfacet
endsolid OpenSCAD_Model
