solid OpenSCAD_Model
  facet normal -6.12324e-17 0 -1
    outer loop
      vertex 2.28882e-07 0 9.33181e-16
      vertex 15.24 15.24 0
      vertex 15.24 0 0
    endloop
  endfacet
  facet normal -6.12324e-17 0 -1
    outer loop
      vertex 15.24 15.24 0
      vertex 2.28882e-07 0 9.33181e-16
      vertex 2.28882e-07 15.24 9.33181e-16
    endloop
  endfacet
  facet normal -1 0 0
    outer loop
      vertex 2.28882e-07 10.16 30.48
      vertex 2.28882e-07 15.24 9.33181e-16
      vertex 2.28882e-07 10.16 19.05
    endloop
  endfacet
  facet normal -1 0 0
    outer loop
      vertex 2.28882e-07 15.24 9.33181e-16
      vertex 2.28882e-07 5.08 19.05
      vertex 2.28882e-07 10.16 19.05
    endloop
  endfacet
  facet normal -1 -0 0
    outer loop
      vertex 2.28882e-07 5.08 19.05
      vertex 2.28882e-07 0 9.33181e-16
      vertex 2.28882e-07 5.08 30.48
    endloop
  endfacet
  facet normal -1 0 0
    outer loop
      vertex 2.28882e-07 0 9.33181e-16
      vertex 2.28882e-07 5.08 19.05
      vertex 2.28882e-07 15.24 9.33181e-16
    endloop
  endfacet
  facet normal -1 0 0
    outer loop
      vertex 2.28882e-07 15.24 9.33181e-16
      vertex 2.28882e-07 10.16 30.48
      vertex 2.28882e-07 15.24 76.2
    endloop
  endfacet
  facet normal -1 0 0
    outer loop
      vertex 2.28882e-07 5.08 30.48
      vertex 2.28882e-07 15.24 76.2
      vertex 2.28882e-07 10.16 30.48
    endloop
  endfacet
  facet normal -1 0 0
    outer loop
      vertex 2.28882e-07 5.08 30.48
      vertex 2.28882e-07 0 76.2
      vertex 2.28882e-07 15.24 76.2
    endloop
  endfacet
  facet normal -1 0 0
    outer loop
      vertex 2.28882e-07 0 76.2
      vertex 2.28882e-07 5.08 30.48
      vertex 2.28882e-07 0 9.33181e-16
    endloop
  endfacet
  facet normal -0 0 1
    outer loop
      vertex 2.28882e-07 15.24 76.2
      vertex 15.24 0 76.2
      vertex 15.24 15.24 76.2
    endloop
  endfacet
  facet normal 0 0 1
    outer loop
      vertex 15.24 0 76.2
      vertex 2.28882e-07 15.24 76.2
      vertex 2.28882e-07 0 76.2
    endloop
  endfacet
  facet normal 0 1 0
    outer loop
      vertex 15.24 15.24 76.2
      vertex 10.16 15.24 66.04
      vertex 2.28882e-07 15.24 76.2
    endloop
  endfacet
  facet normal 0 1 0
    outer loop
      vertex 15.24 15.24 76.2
      vertex 10.16 15.24 55.88
      vertex 10.16 15.24 66.04
    endloop
  endfacet
  facet normal 0 1 0
    outer loop
      vertex 10.16 15.24 55.88
      vertex 10.16 15.24 45.72
      vertex 5.08 15.24 55.88
    endloop
  endfacet
  facet normal 0 1 0
    outer loop
      vertex 15.24 15.24 76.2
      vertex 10.16 15.24 45.72
      vertex 10.16 15.24 55.88
    endloop
  endfacet
  facet normal 0 1 0
    outer loop
      vertex 15.24 15.24 76.2
      vertex 10.16 15.24 35.56
      vertex 10.16 15.24 45.72
    endloop
  endfacet
  facet normal 0 1 0
    outer loop
      vertex 10.16 15.24 35.56
      vertex 2.28882e-07 15.24 9.33181e-16
      vertex 5.08 15.24 35.56
    endloop
  endfacet
  facet normal 0 1 0
    outer loop
      vertex 10.16 15.24 35.56
      vertex 15.24 15.24 0
      vertex 2.28882e-07 15.24 9.33181e-16
    endloop
  endfacet
  facet normal 0 1 -0
    outer loop
      vertex 15.24 15.24 0
      vertex 10.16 15.24 35.56
      vertex 15.24 15.24 76.2
    endloop
  endfacet
  facet normal 0 1 -0
    outer loop
      vertex 5.08 15.24 66.04
      vertex 2.28882e-07 15.24 76.2
      vertex 10.16 15.24 66.04
    endloop
  endfacet
  facet normal 0 1 -0
    outer loop
      vertex 5.08 15.24 55.88
      vertex 2.28882e-07 15.24 76.2
      vertex 5.08 15.24 66.04
    endloop
  endfacet
  facet normal 0 1 0
    outer loop
      vertex 5.08 15.24 45.72
      vertex 5.08 15.24 55.88
      vertex 10.16 15.24 45.72
    endloop
  endfacet
  facet normal 0 1 -0
    outer loop
      vertex 5.08 15.24 45.72
      vertex 2.28882e-07 15.24 76.2
      vertex 5.08 15.24 55.88
    endloop
  endfacet
  facet normal 0 1 -0
    outer loop
      vertex 5.08 15.24 35.56
      vertex 2.28882e-07 15.24 76.2
      vertex 5.08 15.24 45.72
    endloop
  endfacet
  facet normal 0 1 0
    outer loop
      vertex 2.28882e-07 15.24 76.2
      vertex 5.08 15.24 35.56
      vertex 2.28882e-07 15.24 9.33181e-16
    endloop
  endfacet
  facet normal 1 0 0
    outer loop
      vertex 15.24 15.24 76.2
      vertex 15.24 10.16 30.48
      vertex 15.24 15.24 0
    endloop
  endfacet
  facet normal 1 0 0
    outer loop
      vertex 15.24 15.24 76.2
      vertex 15.24 5.08 30.48
      vertex 15.24 10.16 30.48
    endloop
  endfacet
  facet normal 1 0 0
    outer loop
      vertex 15.24 0 0
      vertex 15.24 5.08 30.48
      vertex 15.24 0 76.2
    endloop
  endfacet
  facet normal 1 -0 0
    outer loop
      vertex 15.24 0 76.2
      vertex 15.24 5.08 30.48
      vertex 15.24 15.24 76.2
    endloop
  endfacet
  facet normal 1 -0 0
    outer loop
      vertex 15.24 10.16 19.05
      vertex 15.24 15.24 0
      vertex 15.24 10.16 30.48
    endloop
  endfacet
  facet normal 1 -0 0
    outer loop
      vertex 15.24 5.08 19.05
      vertex 15.24 15.24 0
      vertex 15.24 10.16 19.05
    endloop
  endfacet
  facet normal 1 0 0
    outer loop
      vertex 15.24 5.08 19.05
      vertex 15.24 0 0
      vertex 15.24 15.24 0
    endloop
  endfacet
  facet normal 1 0 0
    outer loop
      vertex 15.24 5.08 30.48
      vertex 15.24 0 0
      vertex 15.24 5.08 19.05
    endloop
  endfacet
  facet normal 0 -1 0
    outer loop
      vertex 2.28882e-07 0 76.2
      vertex 5.08 0 66.04
      vertex 15.24 0 76.2
    endloop
  endfacet
  facet normal 0 -1 0
    outer loop
      vertex 2.28882e-07 0 76.2
      vertex 5.08 0 55.88
      vertex 5.08 0 66.04
    endloop
  endfacet
  facet normal 0 -1 0
    outer loop
      vertex 5.08 0 55.88
      vertex 5.08 0 45.72
      vertex 10.16 0 55.88
    endloop
  endfacet
  facet normal 0 -1 0
    outer loop
      vertex 2.28882e-07 0 76.2
      vertex 5.08 0 45.72
      vertex 5.08 0 55.88
    endloop
  endfacet
  facet normal 0 -1 0
    outer loop
      vertex 2.28882e-07 0 76.2
      vertex 5.08 0 35.56
      vertex 5.08 0 45.72
    endloop
  endfacet
  facet normal 0 -1 -0
    outer loop
      vertex 5.08 0 35.56
      vertex 2.28882e-07 0 9.33181e-16
      vertex 10.16 0 35.56
    endloop
  endfacet
  facet normal 0 -1 0
    outer loop
      vertex 2.28882e-07 0 9.33181e-16
      vertex 5.08 0 35.56
      vertex 2.28882e-07 0 76.2
    endloop
  endfacet
  facet normal 0 -1 0
    outer loop
      vertex 10.16 0 66.04
      vertex 15.24 0 76.2
      vertex 5.08 0 66.04
    endloop
  endfacet
  facet normal 0 -1 0
    outer loop
      vertex 10.16 0 55.88
      vertex 15.24 0 76.2
      vertex 10.16 0 66.04
    endloop
  endfacet
  facet normal 0 -1 0
    outer loop
      vertex 10.16 0 45.72
      vertex 10.16 0 55.88
      vertex 5.08 0 45.72
    endloop
  endfacet
  facet normal 0 -1 0
    outer loop
      vertex 10.16 0 45.72
      vertex 15.24 0 76.2
      vertex 10.16 0 55.88
    endloop
  endfacet
  facet normal 0 -1 0
    outer loop
      vertex 10.16 0 35.56
      vertex 15.24 0 76.2
      vertex 10.16 0 45.72
    endloop
  endfacet
  facet normal 0 -1 0
    outer loop
      vertex 10.16 0 35.56
      vertex 15.24 0 0
      vertex 15.24 0 76.2
    endloop
  endfacet
  facet normal 0 -1 0
    outer loop
      vertex 15.24 0 0
      vertex 10.16 0 35.56
      vertex 2.28882e-07 0 9.33181e-16
    endloop
  endfacet
  facet normal -0 0 1
    outer loop
      vertex 5.08 15.24 35.56
      vertex 10.16 0 35.56
      vertex 10.16 15.24 35.56
    endloop
  endfacet
  facet normal 0 0 1
    outer loop
      vertex 10.16 0 35.56
      vertex 5.08 15.24 35.56
      vertex 5.08 0 35.56
    endloop
  endfacet
  facet normal 1 -0 0
    outer loop
      vertex 5.08 0 45.72
      vertex 5.08 15.24 35.56
      vertex 5.08 15.24 45.72
    endloop
  endfacet
  facet normal 1 0 0
    outer loop
      vertex 5.08 15.24 35.56
      vertex 5.08 0 45.72
      vertex 5.08 0 35.56
    endloop
  endfacet
  facet normal 0 0 -1
    outer loop
      vertex 5.08 0 45.72
      vertex 10.16 15.24 45.72
      vertex 10.16 0 45.72
    endloop
  endfacet
  facet normal -0 0 -1
    outer loop
      vertex 10.16 15.24 45.72
      vertex 5.08 0 45.72
      vertex 5.08 15.24 45.72
    endloop
  endfacet
  facet normal -1 0 0
    outer loop
      vertex 10.16 0 35.56
      vertex 10.16 15.24 45.72
      vertex 10.16 15.24 35.56
    endloop
  endfacet
  facet normal -1 -0 0
    outer loop
      vertex 10.16 15.24 45.72
      vertex 10.16 0 35.56
      vertex 10.16 0 45.72
    endloop
  endfacet
  facet normal -0 0 1
    outer loop
      vertex 2.28882e-07 10.16 19.05
      vertex 15.24 5.08 19.05
      vertex 15.24 10.16 19.05
    endloop
  endfacet
  facet normal 0 0 1
    outer loop
      vertex 15.24 5.08 19.05
      vertex 2.28882e-07 10.16 19.05
      vertex 2.28882e-07 5.08 19.05
    endloop
  endfacet
  facet normal 0 0 -1
    outer loop
      vertex 2.28882e-07 5.08 30.48
      vertex 15.24 10.16 30.48
      vertex 15.24 5.08 30.48
    endloop
  endfacet
  facet normal -0 0 -1
    outer loop
      vertex 15.24 10.16 30.48
      vertex 2.28882e-07 5.08 30.48
      vertex 2.28882e-07 10.16 30.48
    endloop
  endfacet
  facet normal 0 1 -0
    outer loop
      vertex 15.24 5.08 19.05
      vertex 2.28882e-07 5.08 30.48
      vertex 15.24 5.08 30.48
    endloop
  endfacet
  facet normal 0 1 0
    outer loop
      vertex 2.28882e-07 5.08 30.48
      vertex 15.24 5.08 19.05
      vertex 2.28882e-07 5.08 19.05
    endloop
  endfacet
  facet normal 0 -1 0
    outer loop
      vertex 2.28882e-07 10.16 19.05
      vertex 15.24 10.16 30.48
      vertex 2.28882e-07 10.16 30.48
    endloop
  endfacet
  facet normal 0 -1 -0
    outer loop
      vertex 15.24 10.16 30.48
      vertex 2.28882e-07 10.16 19.05
      vertex 15.24 10.16 19.05
    endloop
  endfacet
  facet normal -0 0 1
    outer loop
      vertex 5.08 15.24 55.88
      vertex 10.16 0 55.88
      vertex 10.16 15.24 55.88
    endloop
  endfacet
  facet normal 0 0 1
    outer loop
      vertex 10.16 0 55.88
      vertex 5.08 15.24 55.88
      vertex 5.08 0 55.88
    endloop
  endfacet
  facet normal 1 -0 0
    outer loop
      vertex 5.08 0 66.04
      vertex 5.08 15.24 55.88
      vertex 5.08 15.24 66.04
    endloop
  endfacet
  facet normal 1 0 0
    outer loop
      vertex 5.08 15.24 55.88
      vertex 5.08 0 66.04
      vertex 5.08 0 55.88
    endloop
  endfacet
  facet normal 0 0 -1
    outer loop
      vertex 5.08 0 66.04
      vertex 10.16 15.24 66.04
      vertex 10.16 0 66.04
    endloop
  endfacet
  facet normal -0 0 -1
    outer loop
      vertex 10.16 15.24 66.04
      vertex 5.08 0 66.04
      vertex 5.08 15.24 66.04
    endloop
  endfacet
  facet normal -1 0 0
    outer loop
      vertex 10.16 0 55.88
      vertex 10.16 15.24 66.04
      vertex 10.16 15.24 55.88
    endloop
  endfacet
  facet normal -1 -0 0
    outer loop
      vertex 10.16 15.24 66.04
      vertex 10.16 0 55.88
      vertex 10.16 0 66.04
    endloop
  endfacet
  facet normal -6.12323e-17 0 -1
    outer loop
      vertex 320.04 0 9.33181e-16
      vertex 335.28 15.24 0
      vertex 335.28 0 0
    endloop
  endfacet
  facet normal -6.12323e-17 0 -1
    outer loop
      vertex 335.28 15.24 0
      vertex 320.04 0 9.33181e-16
      vertex 320.04 15.24 9.33181e-16
    endloop
  endfacet
  facet normal -1 0 0
    outer loop
      vertex 320.04 10.16 30.48
      vertex 320.04 15.24 9.33181e-16
      vertex 320.04 10.16 19.05
    endloop
  endfacet
  facet normal -1 0 0
    outer loop
      vertex 320.04 15.24 9.33181e-16
      vertex 320.04 5.08 19.05
      vertex 320.04 10.16 19.05
    endloop
  endfacet
  facet normal -1 -0 0
    outer loop
      vertex 320.04 5.08 19.05
      vertex 320.04 0 9.33181e-16
      vertex 320.04 5.08 30.48
    endloop
  endfacet
  facet normal -1 0 0
    outer loop
      vertex 320.04 0 9.33181e-16
      vertex 320.04 5.08 19.05
      vertex 320.04 15.24 9.33181e-16
    endloop
  endfacet
  facet normal -1 0 0
    outer loop
      vertex 320.04 15.24 9.33181e-16
      vertex 320.04 10.16 30.48
      vertex 320.04 15.24 76.2
    endloop
  endfacet
  facet normal -1 0 0
    outer loop
      vertex 320.04 5.08 30.48
      vertex 320.04 15.24 76.2
      vertex 320.04 10.16 30.48
    endloop
  endfacet
  facet normal -1 0 0
    outer loop
      vertex 320.04 5.08 30.48
      vertex 320.04 0 76.2
      vertex 320.04 15.24 76.2
    endloop
  endfacet
  facet normal -1 0 0
    outer loop
      vertex 320.04 0 76.2
      vertex 320.04 5.08 30.48
      vertex 320.04 0 9.33181e-16
    endloop
  endfacet
  facet normal -0 0 1
    outer loop
      vertex 320.04 15.24 76.2
      vertex 335.28 0 76.2
      vertex 335.28 15.24 76.2
    endloop
  endfacet
  facet normal 0 0 1
    outer loop
      vertex 335.28 0 76.2
      vertex 320.04 15.24 76.2
      vertex 320.04 0 76.2
    endloop
  endfacet
  facet normal 0 1 0
    outer loop
      vertex 335.28 15.24 76.2
      vertex 330.2 15.24 66.04
      vertex 320.04 15.24 76.2
    endloop
  endfacet
  facet normal 0 1 0
    outer loop
      vertex 335.28 15.24 76.2
      vertex 330.2 15.24 55.88
      vertex 330.2 15.24 66.04
    endloop
  endfacet
  facet normal 0 1 0
    outer loop
      vertex 330.2 15.24 55.88
      vertex 330.2 15.24 45.72
      vertex 325.12 15.24 55.88
    endloop
  endfacet
  facet normal 0 1 0
    outer loop
      vertex 335.28 15.24 76.2
      vertex 330.2 15.24 45.72
      vertex 330.2 15.24 55.88
    endloop
  endfacet
  facet normal 0 1 0
    outer loop
      vertex 335.28 15.24 76.2
      vertex 330.2 15.24 35.56
      vertex 330.2 15.24 45.72
    endloop
  endfacet
  facet normal 0 1 0
    outer loop
      vertex 330.2 15.24 35.56
      vertex 320.04 15.24 9.33181e-16
      vertex 325.12 15.24 35.56
    endloop
  endfacet
  facet normal 0 1 0
    outer loop
      vertex 330.2 15.24 35.56
      vertex 335.28 15.24 0
      vertex 320.04 15.24 9.33181e-16
    endloop
  endfacet
  facet normal 0 1 -0
    outer loop
      vertex 335.28 15.24 0
      vertex 330.2 15.24 35.56
      vertex 335.28 15.24 76.2
    endloop
  endfacet
  facet normal 0 1 -0
    outer loop
      vertex 325.12 15.24 66.04
      vertex 320.04 15.24 76.2
      vertex 330.2 15.24 66.04
    endloop
  endfacet
  facet normal 0 1 -0
    outer loop
      vertex 325.12 15.24 55.88
      vertex 320.04 15.24 76.2
      vertex 325.12 15.24 66.04
    endloop
  endfacet
  facet normal 0 1 0
    outer loop
      vertex 325.12 15.24 45.72
      vertex 325.12 15.24 55.88
      vertex 330.2 15.24 45.72
    endloop
  endfacet
  facet normal 0 1 -0
    outer loop
      vertex 325.12 15.24 45.72
      vertex 320.04 15.24 76.2
      vertex 325.12 15.24 55.88
    endloop
  endfacet
  facet normal 0 1 -0
    outer loop
      vertex 325.12 15.24 35.56
      vertex 320.04 15.24 76.2
      vertex 325.12 15.24 45.72
    endloop
  endfacet
  facet normal 0 1 0
    outer loop
      vertex 320.04 15.24 76.2
      vertex 325.12 15.24 35.56
      vertex 320.04 15.24 9.33181e-16
    endloop
  endfacet
  facet normal 1 0 0
    outer loop
      vertex 335.28 15.24 76.2
      vertex 335.28 10.16 30.48
      vertex 335.28 15.24 0
    endloop
  endfacet
  facet normal 1 0 0
    outer loop
      vertex 335.28 15.24 76.2
      vertex 335.28 5.08 30.48
      vertex 335.28 10.16 30.48
    endloop
  endfacet
  facet normal 1 0 0
    outer loop
      vertex 335.28 0 0
      vertex 335.28 5.08 30.48
      vertex 335.28 0 76.2
    endloop
  endfacet
  facet normal 1 -0 0
    outer loop
      vertex 335.28 0 76.2
      vertex 335.28 5.08 30.48
      vertex 335.28 15.24 76.2
    endloop
  endfacet
  facet normal 1 -0 0
    outer loop
      vertex 335.28 10.16 19.05
      vertex 335.28 15.24 0
      vertex 335.28 10.16 30.48
    endloop
  endfacet
  facet normal 1 -0 0
    outer loop
      vertex 335.28 5.08 19.05
      vertex 335.28 15.24 0
      vertex 335.28 10.16 19.05
    endloop
  endfacet
  facet normal 1 0 0
    outer loop
      vertex 335.28 5.08 19.05
      vertex 335.28 0 0
      vertex 335.28 15.24 0
    endloop
  endfacet
  facet normal 1 0 0
    outer loop
      vertex 335.28 5.08 30.48
      vertex 335.28 0 0
      vertex 335.28 5.08 19.05
    endloop
  endfacet
  facet normal 0 -1 0
    outer loop
      vertex 320.04 0 76.2
      vertex 325.12 0 66.04
      vertex 335.28 0 76.2
    endloop
  endfacet
  facet normal 0 -1 0
    outer loop
      vertex 320.04 0 76.2
      vertex 325.12 0 55.88
      vertex 325.12 0 66.04
    endloop
  endfacet
  facet normal 0 -1 0
    outer loop
      vertex 325.12 0 55.88
      vertex 325.12 0 45.72
      vertex 330.2 0 55.88
    endloop
  endfacet
  facet normal 0 -1 0
    outer loop
      vertex 320.04 0 76.2
      vertex 325.12 0 45.72
      vertex 325.12 0 55.88
    endloop
  endfacet
  facet normal 0 -1 0
    outer loop
      vertex 320.04 0 76.2
      vertex 325.12 0 35.56
      vertex 325.12 0 45.72
    endloop
  endfacet
  facet normal 0 -1 -0
    outer loop
      vertex 325.12 0 35.56
      vertex 320.04 0 9.33181e-16
      vertex 330.2 0 35.56
    endloop
  endfacet
  facet normal 0 -1 0
    outer loop
      vertex 320.04 0 9.33181e-16
      vertex 325.12 0 35.56
      vertex 320.04 0 76.2
    endloop
  endfacet
  facet normal 0 -1 0
    outer loop
      vertex 330.2 0 66.04
      vertex 335.28 0 76.2
      vertex 325.12 0 66.04
    endloop
  endfacet
  facet normal 0 -1 0
    outer loop
      vertex 330.2 0 55.88
      vertex 335.28 0 76.2
      vertex 330.2 0 66.04
    endloop
  endfacet
  facet normal 0 -1 0
    outer loop
      vertex 330.2 0 45.72
      vertex 330.2 0 55.88
      vertex 325.12 0 45.72
    endloop
  endfacet
  facet normal 0 -1 0
    outer loop
      vertex 330.2 0 45.72
      vertex 335.28 0 76.2
      vertex 330.2 0 55.88
    endloop
  endfacet
  facet normal 0 -1 0
    outer loop
      vertex 330.2 0 35.56
      vertex 335.28 0 76.2
      vertex 330.2 0 45.72
    endloop
  endfacet
  facet normal 0 -1 0
    outer loop
      vertex 330.2 0 35.56
      vertex 335.28 0 0
      vertex 335.28 0 76.2
    endloop
  endfacet
  facet normal 0 -1 0
    outer loop
      vertex 335.28 0 0
      vertex 330.2 0 35.56
      vertex 320.04 0 9.33181e-16
    endloop
  endfacet
  facet normal -0 0 1
    outer loop
      vertex 325.12 15.24 35.56
      vertex 330.2 0 35.56
      vertex 330.2 15.24 35.56
    endloop
  endfacet
  facet normal 0 0 1
    outer loop
      vertex 330.2 0 35.56
      vertex 325.12 15.24 35.56
      vertex 325.12 0 35.56
    endloop
  endfacet
  facet normal 1 -0 0
    outer loop
      vertex 325.12 0 45.72
      vertex 325.12 15.24 35.56
      vertex 325.12 15.24 45.72
    endloop
  endfacet
  facet normal 1 0 0
    outer loop
      vertex 325.12 15.24 35.56
      vertex 325.12 0 45.72
      vertex 325.12 0 35.56
    endloop
  endfacet
  facet normal 0 0 -1
    outer loop
      vertex 325.12 0 45.72
      vertex 330.2 15.24 45.72
      vertex 330.2 0 45.72
    endloop
  endfacet
  facet normal -0 0 -1
    outer loop
      vertex 330.2 15.24 45.72
      vertex 325.12 0 45.72
      vertex 325.12 15.24 45.72
    endloop
  endfacet
  facet normal -1 0 0
    outer loop
      vertex 330.2 0 35.56
      vertex 330.2 15.24 45.72
      vertex 330.2 15.24 35.56
    endloop
  endfacet
  facet normal -1 -0 0
    outer loop
      vertex 330.2 15.24 45.72
      vertex 330.2 0 35.56
      vertex 330.2 0 45.72
    endloop
  endfacet
  facet normal -0 0 1
    outer loop
      vertex 320.04 10.16 19.05
      vertex 335.28 5.08 19.05
      vertex 335.28 10.16 19.05
    endloop
  endfacet
  facet normal 0 0 1
    outer loop
      vertex 335.28 5.08 19.05
      vertex 320.04 10.16 19.05
      vertex 320.04 5.08 19.05
    endloop
  endfacet
  facet normal 0 0 -1
    outer loop
      vertex 320.04 5.08 30.48
      vertex 335.28 10.16 30.48
      vertex 335.28 5.08 30.48
    endloop
  endfacet
  facet normal -0 0 -1
    outer loop
      vertex 335.28 10.16 30.48
      vertex 320.04 5.08 30.48
      vertex 320.04 10.16 30.48
    endloop
  endfacet
  facet normal 0 1 -0
    outer loop
      vertex 335.28 5.08 19.05
      vertex 320.04 5.08 30.48
      vertex 335.28 5.08 30.48
    endloop
  endfacet
  facet normal 0 1 0
    outer loop
      vertex 320.04 5.08 30.48
      vertex 335.28 5.08 19.05
      vertex 320.04 5.08 19.05
    endloop
  endfacet
  facet normal 0 -1 0
    outer loop
      vertex 320.04 10.16 19.05
      vertex 335.28 10.16 30.48
      vertex 320.04 10.16 30.48
    endloop
  endfacet
  facet normal 0 -1 -0
    outer loop
      vertex 335.28 10.16 30.48
      vertex 320.04 10.16 19.05
      vertex 335.28 10.16 19.05
    endloop
  endfacet
  facet normal -0 0 1
    outer loop
      vertex 325.12 15.24 55.88
      vertex 330.2 0 55.88
      vertex 330.2 15.24 55.88
    endloop
  endfacet
  facet normal 0 0 1
    outer loop
      vertex 330.2 0 55.88
      vertex 325.12 15.24 55.88
      vertex 325.12 0 55.88
    endloop
  endfacet
  facet normal 1 -0 0
    outer loop
      vertex 325.12 0 66.04
      vertex 325.12 15.24 55.88
      vertex 325.12 15.24 66.04
    endloop
  endfacet
  facet normal 1 0 0
    outer loop
      vertex 325.12 15.24 55.88
      vertex 325.12 0 66.04
      vertex 325.12 0 55.88
    endloop
  endfacet
  facet normal 0 0 -1
    outer loop
      vertex 325.12 0 66.04
      vertex 330.2 15.24 66.04
      vertex 330.2 0 66.04
    endloop
  endfacet
  facet normal -0 0 -1
    outer loop
      vertex 330.2 15.24 66.04
      vertex 325.12 0 66.04
      vertex 325.12 15.24 66.04
    endloop
  endfacet
  facet normal -1 0 0
    outer loop
      vertex 330.2 0 55.88
      vertex 330.2 15.24 66.04
      vertex 330.2 15.24 55.88
    endloop
  endfacet
  facet normal -1 -0 0
    outer loop
      vertex 330.2 15.24 66.04
      vertex 330.2 0 55.88
      vertex 330.2 0 66.04
    endloop
  endfacet
  facet normal -6.12324e-17 0 -1
    outer loop
      vertex 2.28882e-07 106.68 9.33181e-16
      vertex 15.24 121.92 0
      vertex 15.24 106.68 0
    endloop
  endfacet
  facet normal -6.12324e-17 0 -1
    outer loop
      vertex 15.24 121.92 0
      vertex 2.28882e-07 106.68 9.33181e-16
      vertex 2.28882e-07 121.92 9.33181e-16
    endloop
  endfacet
  facet normal -1 0 0
    outer loop
      vertex 2.28882e-07 111.76 30.48
      vertex 2.28882e-07 116.84 64.77
      vertex 2.28882e-07 116.84 30.48
    endloop
  endfacet
  facet normal -1 -0 0
    outer loop
      vertex 2.28882e-07 116.84 64.77
      vertex 2.28882e-07 111.76 30.48
      vertex 2.28882e-07 111.76 64.77
    endloop
  endfacet
  facet normal -1 0 0
    outer loop
      vertex 2.28882e-07 116.84 30.48
      vertex 2.28882e-07 121.92 9.33181e-16
      vertex 2.28882e-07 116.84 19.05
    endloop
  endfacet
  facet normal -1 0 0
    outer loop
      vertex 2.28882e-07 121.92 9.33181e-16
      vertex 2.28882e-07 111.76 19.05
      vertex 2.28882e-07 116.84 19.05
    endloop
  endfacet
  facet normal -1 0 0
    outer loop
      vertex 2.28882e-07 106.68 9.33181e-16
      vertex 2.28882e-07 111.76 30.48
      vertex 2.28882e-07 111.76 19.05
    endloop
  endfacet
  facet normal -1 0 0
    outer loop
      vertex 2.28882e-07 111.76 30.48
      vertex 2.28882e-07 106.68 76.2
      vertex 2.28882e-07 111.76 64.77
    endloop
  endfacet
  facet normal -1 0 0
    outer loop
      vertex 2.28882e-07 106.68 9.33181e-16
      vertex 2.28882e-07 111.76 19.05
      vertex 2.28882e-07 121.92 9.33181e-16
    endloop
  endfacet
  facet normal -1 -0 0
    outer loop
      vertex 2.28882e-07 111.76 30.48
      vertex 2.28882e-07 106.68 9.33181e-16
      vertex 2.28882e-07 106.68 76.2
    endloop
  endfacet
  facet normal -1 0 0
    outer loop
      vertex 2.28882e-07 111.76 64.77
      vertex 2.28882e-07 106.68 76.2
      vertex 2.28882e-07 111.76 76.2
    endloop
  endfacet
  facet normal -1 0 0
    outer loop
      vertex 2.28882e-07 121.92 9.33181e-16
      vertex 2.28882e-07 116.84 30.48
      vertex 2.28882e-07 121.92 76.2
    endloop
  endfacet
  facet normal -1 0 0
    outer loop
      vertex 2.28882e-07 116.84 64.77
      vertex 2.28882e-07 121.92 76.2
      vertex 2.28882e-07 116.84 30.48
    endloop
  endfacet
  facet normal -1 -0 0
    outer loop
      vertex 2.28882e-07 121.92 76.2
      vertex 2.28882e-07 116.84 64.77
      vertex 2.28882e-07 116.84 76.2
    endloop
  endfacet
  facet normal -0 0 1
    outer loop
      vertex 2.28882e-07 111.76 76.2
      vertex 15.24 106.68 76.2
      vertex 15.24 111.76 76.2
    endloop
  endfacet
  facet normal 0 0 1
    outer loop
      vertex 15.24 106.68 76.2
      vertex 2.28882e-07 111.76 76.2
      vertex 2.28882e-07 106.68 76.2
    endloop
  endfacet
  facet normal -0 0 1
    outer loop
      vertex 2.28882e-07 121.92 76.2
      vertex 15.24 116.84 76.2
      vertex 15.24 121.92 76.2
    endloop
  endfacet
  facet normal 0 0 1
    outer loop
      vertex 15.24 116.84 76.2
      vertex 2.28882e-07 121.92 76.2
      vertex 2.28882e-07 116.84 76.2
    endloop
  endfacet
  facet normal 1 -0 0
    outer loop
      vertex 15.24 106.68 76.2
      vertex 15.24 111.76 64.77
      vertex 15.24 111.76 76.2
    endloop
  endfacet
  facet normal 1 0 0
    outer loop
      vertex 15.24 111.76 64.77
      vertex 15.24 106.68 76.2
      vertex 15.24 111.76 30.48
    endloop
  endfacet
  facet normal 1 0 0
    outer loop
      vertex 15.24 106.68 0
      vertex 15.24 111.76 30.48
      vertex 15.24 106.68 76.2
    endloop
  endfacet
  facet normal 1 -0 0
    outer loop
      vertex 15.24 111.76 64.77
      vertex 15.24 116.84 30.48
      vertex 15.24 116.84 64.77
    endloop
  endfacet
  facet normal 1 0 0
    outer loop
      vertex 15.24 116.84 30.48
      vertex 15.24 111.76 64.77
      vertex 15.24 111.76 30.48
    endloop
  endfacet
  facet normal 1 0 0
    outer loop
      vertex 15.24 116.84 64.77
      vertex 15.24 121.92 76.2
      vertex 15.24 116.84 76.2
    endloop
  endfacet
  facet normal 1 0 0
    outer loop
      vertex 15.24 116.84 30.48
      vertex 15.24 121.92 76.2
      vertex 15.24 116.84 64.77
    endloop
  endfacet
  facet normal 1 0 0
    outer loop
      vertex 15.24 121.92 76.2
      vertex 15.24 116.84 30.48
      vertex 15.24 121.92 0
    endloop
  endfacet
  facet normal 1 -0 0
    outer loop
      vertex 15.24 116.84 19.05
      vertex 15.24 121.92 0
      vertex 15.24 116.84 30.48
    endloop
  endfacet
  facet normal 1 -0 0
    outer loop
      vertex 15.24 111.76 19.05
      vertex 15.24 121.92 0
      vertex 15.24 116.84 19.05
    endloop
  endfacet
  facet normal 1 0 0
    outer loop
      vertex 15.24 111.76 19.05
      vertex 15.24 106.68 0
      vertex 15.24 121.92 0
    endloop
  endfacet
  facet normal 1 0 0
    outer loop
      vertex 15.24 111.76 30.48
      vertex 15.24 106.68 0
      vertex 15.24 111.76 19.05
    endloop
  endfacet
  facet normal 0 -1 0
    outer loop
      vertex 2.28882e-07 106.68 76.2
      vertex 5.08 106.68 63.5
      vertex 15.24 106.68 76.2
    endloop
  endfacet
  facet normal 0 -1 0
    outer loop
      vertex 2.28882e-07 106.68 76.2
      vertex 5.08 106.68 55.88
      vertex 5.08 106.68 63.5
    endloop
  endfacet
  facet normal 0 -1 0
    outer loop
      vertex 5.08 106.68 55.88
      vertex 5.08 106.68 45.72
      vertex 10.16 106.68 55.88
    endloop
  endfacet
  facet normal 0 -1 0
    outer loop
      vertex 2.28882e-07 106.68 76.2
      vertex 5.08 106.68 45.72
      vertex 5.08 106.68 55.88
    endloop
  endfacet
  facet normal 0 -1 0
    outer loop
      vertex 2.28882e-07 106.68 76.2
      vertex 5.08 106.68 35.56
      vertex 5.08 106.68 45.72
    endloop
  endfacet
  facet normal 0 -1 -0
    outer loop
      vertex 5.08 106.68 35.56
      vertex 2.28882e-07 106.68 9.33181e-16
      vertex 10.16 106.68 35.56
    endloop
  endfacet
  facet normal 0 -1 0
    outer loop
      vertex 2.28882e-07 106.68 9.33181e-16
      vertex 5.08 106.68 35.56
      vertex 2.28882e-07 106.68 76.2
    endloop
  endfacet
  facet normal 0 -1 0
    outer loop
      vertex 10.16 106.68 63.5
      vertex 15.24 106.68 76.2
      vertex 5.08 106.68 63.5
    endloop
  endfacet
  facet normal 0 -1 0
    outer loop
      vertex 10.16 106.68 55.88
      vertex 15.24 106.68 76.2
      vertex 10.16 106.68 63.5
    endloop
  endfacet
  facet normal 0 -1 0
    outer loop
      vertex 10.16 106.68 45.72
      vertex 10.16 106.68 55.88
      vertex 5.08 106.68 45.72
    endloop
  endfacet
  facet normal 0 -1 0
    outer loop
      vertex 10.16 106.68 45.72
      vertex 15.24 106.68 76.2
      vertex 10.16 106.68 55.88
    endloop
  endfacet
  facet normal 0 -1 0
    outer loop
      vertex 10.16 106.68 35.56
      vertex 15.24 106.68 76.2
      vertex 10.16 106.68 45.72
    endloop
  endfacet
  facet normal 0 -1 0
    outer loop
      vertex 10.16 106.68 35.56
      vertex 15.24 106.68 0
      vertex 15.24 106.68 76.2
    endloop
  endfacet
  facet normal 0 -1 0
    outer loop
      vertex 15.24 106.68 0
      vertex 10.16 106.68 35.56
      vertex 2.28882e-07 106.68 9.33181e-16
    endloop
  endfacet
  facet normal 0 1 0
    outer loop
      vertex 15.24 121.92 76.2
      vertex 10.16 121.92 63.5
      vertex 2.28882e-07 121.92 76.2
    endloop
  endfacet
  facet normal 0 1 0
    outer loop
      vertex 15.24 121.92 76.2
      vertex 10.16 121.92 55.88
      vertex 10.16 121.92 63.5
    endloop
  endfacet
  facet normal 0 1 0
    outer loop
      vertex 10.16 121.92 55.88
      vertex 10.16 121.92 45.72
      vertex 5.08 121.92 55.88
    endloop
  endfacet
  facet normal 0 1 0
    outer loop
      vertex 15.24 121.92 76.2
      vertex 10.16 121.92 45.72
      vertex 10.16 121.92 55.88
    endloop
  endfacet
  facet normal 0 1 0
    outer loop
      vertex 15.24 121.92 76.2
      vertex 10.16 121.92 35.56
      vertex 10.16 121.92 45.72
    endloop
  endfacet
  facet normal 0 1 0
    outer loop
      vertex 10.16 121.92 35.56
      vertex 2.28882e-07 121.92 9.33181e-16
      vertex 5.08 121.92 35.56
    endloop
  endfacet
  facet normal 0 1 0
    outer loop
      vertex 10.16 121.92 35.56
      vertex 15.24 121.92 0
      vertex 2.28882e-07 121.92 9.33181e-16
    endloop
  endfacet
  facet normal 0 1 -0
    outer loop
      vertex 15.24 121.92 0
      vertex 10.16 121.92 35.56
      vertex 15.24 121.92 76.2
    endloop
  endfacet
  facet normal 0 1 -0
    outer loop
      vertex 5.08 121.92 63.5
      vertex 2.28882e-07 121.92 76.2
      vertex 10.16 121.92 63.5
    endloop
  endfacet
  facet normal 0 1 -0
    outer loop
      vertex 5.08 121.92 55.88
      vertex 2.28882e-07 121.92 76.2
      vertex 5.08 121.92 63.5
    endloop
  endfacet
  facet normal 0 1 0
    outer loop
      vertex 5.08 121.92 45.72
      vertex 5.08 121.92 55.88
      vertex 10.16 121.92 45.72
    endloop
  endfacet
  facet normal 0 1 -0
    outer loop
      vertex 5.08 121.92 45.72
      vertex 2.28882e-07 121.92 76.2
      vertex 5.08 121.92 55.88
    endloop
  endfacet
  facet normal 0 1 -0
    outer loop
      vertex 5.08 121.92 35.56
      vertex 2.28882e-07 121.92 76.2
      vertex 5.08 121.92 45.72
    endloop
  endfacet
  facet normal 0 1 0
    outer loop
      vertex 2.28882e-07 121.92 76.2
      vertex 5.08 121.92 35.56
      vertex 2.28882e-07 121.92 9.33181e-16
    endloop
  endfacet
  facet normal -0 0 1
    outer loop
      vertex 5.08 121.92 35.56
      vertex 10.16 106.68 35.56
      vertex 10.16 121.92 35.56
    endloop
  endfacet
  facet normal 0 0 1
    outer loop
      vertex 10.16 106.68 35.56
      vertex 5.08 121.92 35.56
      vertex 5.08 106.68 35.56
    endloop
  endfacet
  facet normal 1 -0 0
    outer loop
      vertex 5.08 106.68 45.72
      vertex 5.08 121.92 35.56
      vertex 5.08 121.92 45.72
    endloop
  endfacet
  facet normal 1 0 0
    outer loop
      vertex 5.08 121.92 35.56
      vertex 5.08 106.68 45.72
      vertex 5.08 106.68 35.56
    endloop
  endfacet
  facet normal 0 0 -1
    outer loop
      vertex 5.08 106.68 45.72
      vertex 10.16 121.92 45.72
      vertex 10.16 106.68 45.72
    endloop
  endfacet
  facet normal -0 0 -1
    outer loop
      vertex 10.16 121.92 45.72
      vertex 5.08 106.68 45.72
      vertex 5.08 121.92 45.72
    endloop
  endfacet
  facet normal -1 0 0
    outer loop
      vertex 10.16 106.68 35.56
      vertex 10.16 121.92 45.72
      vertex 10.16 121.92 35.56
    endloop
  endfacet
  facet normal -1 -0 0
    outer loop
      vertex 10.16 121.92 45.72
      vertex 10.16 106.68 35.56
      vertex 10.16 106.68 45.72
    endloop
  endfacet
  facet normal -0 0 1
    outer loop
      vertex 2.28882e-07 116.84 19.05
      vertex 15.24 111.76 19.05
      vertex 15.24 116.84 19.05
    endloop
  endfacet
  facet normal 0 0 1
    outer loop
      vertex 15.24 111.76 19.05
      vertex 2.28882e-07 116.84 19.05
      vertex 2.28882e-07 111.76 19.05
    endloop
  endfacet
  facet normal 0 0 -1
    outer loop
      vertex 2.28882e-07 111.76 30.48
      vertex 15.24 116.84 30.48
      vertex 15.24 111.76 30.48
    endloop
  endfacet
  facet normal -0 0 -1
    outer loop
      vertex 15.24 116.84 30.48
      vertex 2.28882e-07 111.76 30.48
      vertex 2.28882e-07 116.84 30.48
    endloop
  endfacet
  facet normal 0 -1 0
    outer loop
      vertex 2.28882e-07 116.84 19.05
      vertex 15.24 116.84 30.48
      vertex 2.28882e-07 116.84 30.48
    endloop
  endfacet
  facet normal 0 -1 -0
    outer loop
      vertex 15.24 116.84 30.48
      vertex 2.28882e-07 116.84 19.05
      vertex 15.24 116.84 19.05
    endloop
  endfacet
  facet normal 0 1 -0
    outer loop
      vertex 15.24 111.76 19.05
      vertex 2.28882e-07 111.76 30.48
      vertex 15.24 111.76 30.48
    endloop
  endfacet
  facet normal 0 1 0
    outer loop
      vertex 2.28882e-07 111.76 30.48
      vertex 15.24 111.76 19.05
      vertex 2.28882e-07 111.76 19.05
    endloop
  endfacet
  facet normal -0 0 1
    outer loop
      vertex 5.08 121.92 55.88
      vertex 10.16 106.68 55.88
      vertex 10.16 121.92 55.88
    endloop
  endfacet
  facet normal 0 0 1
    outer loop
      vertex 10.16 106.68 55.88
      vertex 5.08 121.92 55.88
      vertex 5.08 106.68 55.88
    endloop
  endfacet
  facet normal 1 -0 0
    outer loop
      vertex 5.08 106.68 63.5
      vertex 5.08 121.92 55.88
      vertex 5.08 121.92 63.5
    endloop
  endfacet
  facet normal 1 0 0
    outer loop
      vertex 5.08 121.92 55.88
      vertex 5.08 106.68 63.5
      vertex 5.08 106.68 55.88
    endloop
  endfacet
  facet normal 0 0 -1
    outer loop
      vertex 5.08 106.68 63.5
      vertex 10.16 121.92 63.5
      vertex 10.16 106.68 63.5
    endloop
  endfacet
  facet normal -0 0 -1
    outer loop
      vertex 10.16 121.92 63.5
      vertex 5.08 106.68 63.5
      vertex 5.08 121.92 63.5
    endloop
  endfacet
  facet normal -1 0 0
    outer loop
      vertex 10.16 106.68 55.88
      vertex 10.16 121.92 63.5
      vertex 10.16 121.92 55.88
    endloop
  endfacet
  facet normal -1 -0 0
    outer loop
      vertex 10.16 121.92 63.5
      vertex 10.16 106.68 55.88
      vertex 10.16 106.68 63.5
    endloop
  endfacet
  facet normal -0 0 1
    outer loop
      vertex 2.28882e-07 116.84 64.77
      vertex 15.24 111.76 64.77
      vertex 15.24 116.84 64.77
    endloop
  endfacet
  facet normal 0 0 1
    outer loop
      vertex 15.24 111.76 64.77
      vertex 2.28882e-07 116.84 64.77
      vertex 2.28882e-07 111.76 64.77
    endloop
  endfacet
  facet normal 0 1 -0
    outer loop
      vertex 15.24 111.76 64.77
      vertex 2.28882e-07 111.76 76.2
      vertex 15.24 111.76 76.2
    endloop
  endfacet
  facet normal 0 1 0
    outer loop
      vertex 2.28882e-07 111.76 76.2
      vertex 15.24 111.76 64.77
      vertex 2.28882e-07 111.76 64.77
    endloop
  endfacet
  facet normal 0 -1 0
    outer loop
      vertex 2.28882e-07 116.84 64.77
      vertex 15.24 116.84 76.2
      vertex 2.28882e-07 116.84 76.2
    endloop
  endfacet
  facet normal 0 -1 -0
    outer loop
      vertex 15.24 116.84 76.2
      vertex 2.28882e-07 116.84 64.77
      vertex 15.24 116.84 64.77
    endloop
  endfacet
  facet normal -6.12323e-17 0 -1
    outer loop
      vertex 320.04 106.68 9.33181e-16
      vertex 335.28 121.92 0
      vertex 335.28 106.68 0
    endloop
  endfacet
  facet normal -6.12323e-17 0 -1
    outer loop
      vertex 335.28 121.92 0
      vertex 320.04 106.68 9.33181e-16
      vertex 320.04 121.92 9.33181e-16
    endloop
  endfacet
  facet normal -1 0 0
    outer loop
      vertex 320.04 111.76 30.48
      vertex 320.04 116.84 64.77
      vertex 320.04 116.84 30.48
    endloop
  endfacet
  facet normal -1 -0 0
    outer loop
      vertex 320.04 116.84 64.77
      vertex 320.04 111.76 30.48
      vertex 320.04 111.76 64.77
    endloop
  endfacet
  facet normal -1 0 0
    outer loop
      vertex 320.04 116.84 30.48
      vertex 320.04 121.92 9.33181e-16
      vertex 320.04 116.84 19.05
    endloop
  endfacet
  facet normal -1 0 0
    outer loop
      vertex 320.04 121.92 9.33181e-16
      vertex 320.04 111.76 19.05
      vertex 320.04 116.84 19.05
    endloop
  endfacet
  facet normal -1 0 0
    outer loop
      vertex 320.04 106.68 9.33181e-16
      vertex 320.04 111.76 30.48
      vertex 320.04 111.76 19.05
    endloop
  endfacet
  facet normal -1 0 0
    outer loop
      vertex 320.04 111.76 30.48
      vertex 320.04 106.68 76.2
      vertex 320.04 111.76 64.77
    endloop
  endfacet
  facet normal -1 0 0
    outer loop
      vertex 320.04 106.68 9.33181e-16
      vertex 320.04 111.76 19.05
      vertex 320.04 121.92 9.33181e-16
    endloop
  endfacet
  facet normal -1 -0 0
    outer loop
      vertex 320.04 111.76 30.48
      vertex 320.04 106.68 9.33181e-16
      vertex 320.04 106.68 76.2
    endloop
  endfacet
  facet normal -1 0 0
    outer loop
      vertex 320.04 111.76 64.77
      vertex 320.04 106.68 76.2
      vertex 320.04 111.76 76.2
    endloop
  endfacet
  facet normal -1 0 0
    outer loop
      vertex 320.04 121.92 9.33181e-16
      vertex 320.04 116.84 30.48
      vertex 320.04 121.92 76.2
    endloop
  endfacet
  facet normal -1 0 0
    outer loop
      vertex 320.04 116.84 64.77
      vertex 320.04 121.92 76.2
      vertex 320.04 116.84 30.48
    endloop
  endfacet
  facet normal -1 -0 0
    outer loop
      vertex 320.04 121.92 76.2
      vertex 320.04 116.84 64.77
      vertex 320.04 116.84 76.2
    endloop
  endfacet
  facet normal -0 0 1
    outer loop
      vertex 320.04 111.76 76.2
      vertex 335.28 106.68 76.2
      vertex 335.28 111.76 76.2
    endloop
  endfacet
  facet normal 0 0 1
    outer loop
      vertex 335.28 106.68 76.2
      vertex 320.04 111.76 76.2
      vertex 320.04 106.68 76.2
    endloop
  endfacet
  facet normal -0 0 1
    outer loop
      vertex 320.04 121.92 76.2
      vertex 335.28 116.84 76.2
      vertex 335.28 121.92 76.2
    endloop
  endfacet
  facet normal 0 0 1
    outer loop
      vertex 335.28 116.84 76.2
      vertex 320.04 121.92 76.2
      vertex 320.04 116.84 76.2
    endloop
  endfacet
  facet normal 1 -0 0
    outer loop
      vertex 335.28 106.68 76.2
      vertex 335.28 111.76 64.77
      vertex 335.28 111.76 76.2
    endloop
  endfacet
  facet normal 1 0 0
    outer loop
      vertex 335.28 111.76 64.77
      vertex 335.28 106.68 76.2
      vertex 335.28 111.76 30.48
    endloop
  endfacet
  facet normal 1 0 0
    outer loop
      vertex 335.28 106.68 0
      vertex 335.28 111.76 30.48
      vertex 335.28 106.68 76.2
    endloop
  endfacet
  facet normal 1 -0 0
    outer loop
      vertex 335.28 111.76 64.77
      vertex 335.28 116.84 30.48
      vertex 335.28 116.84 64.77
    endloop
  endfacet
  facet normal 1 0 0
    outer loop
      vertex 335.28 116.84 30.48
      vertex 335.28 111.76 64.77
      vertex 335.28 111.76 30.48
    endloop
  endfacet
  facet normal 1 0 0
    outer loop
      vertex 335.28 116.84 64.77
      vertex 335.28 121.92 76.2
      vertex 335.28 116.84 76.2
    endloop
  endfacet
  facet normal 1 0 0
    outer loop
      vertex 335.28 116.84 30.48
      vertex 335.28 121.92 76.2
      vertex 335.28 116.84 64.77
    endloop
  endfacet
  facet normal 1 0 0
    outer loop
      vertex 335.28 121.92 76.2
      vertex 335.28 116.84 30.48
      vertex 335.28 121.92 0
    endloop
  endfacet
  facet normal 1 -0 0
    outer loop
      vertex 335.28 116.84 19.05
      vertex 335.28 121.92 0
      vertex 335.28 116.84 30.48
    endloop
  endfacet
  facet normal 1 -0 0
    outer loop
      vertex 335.28 111.76 19.05
      vertex 335.28 121.92 0
      vertex 335.28 116.84 19.05
    endloop
  endfacet
  facet normal 1 0 0
    outer loop
      vertex 335.28 111.76 19.05
      vertex 335.28 106.68 0
      vertex 335.28 121.92 0
    endloop
  endfacet
  facet normal 1 0 0
    outer loop
      vertex 335.28 111.76 30.48
      vertex 335.28 106.68 0
      vertex 335.28 111.76 19.05
    endloop
  endfacet
  facet normal 0 -1 0
    outer loop
      vertex 320.04 106.68 76.2
      vertex 325.12 106.68 63.5
      vertex 335.28 106.68 76.2
    endloop
  endfacet
  facet normal 0 -1 0
    outer loop
      vertex 320.04 106.68 76.2
      vertex 325.12 106.68 55.88
      vertex 325.12 106.68 63.5
    endloop
  endfacet
  facet normal 0 -1 0
    outer loop
      vertex 325.12 106.68 55.88
      vertex 325.12 106.68 45.72
      vertex 330.2 106.68 55.88
    endloop
  endfacet
  facet normal 0 -1 0
    outer loop
      vertex 320.04 106.68 76.2
      vertex 325.12 106.68 45.72
      vertex 325.12 106.68 55.88
    endloop
  endfacet
  facet normal 0 -1 0
    outer loop
      vertex 320.04 106.68 76.2
      vertex 325.12 106.68 35.56
      vertex 325.12 106.68 45.72
    endloop
  endfacet
  facet normal 0 -1 -0
    outer loop
      vertex 325.12 106.68 35.56
      vertex 320.04 106.68 9.33181e-16
      vertex 330.2 106.68 35.56
    endloop
  endfacet
  facet normal 0 -1 0
    outer loop
      vertex 320.04 106.68 9.33181e-16
      vertex 325.12 106.68 35.56
      vertex 320.04 106.68 76.2
    endloop
  endfacet
  facet normal 0 -1 0
    outer loop
      vertex 330.2 106.68 63.5
      vertex 335.28 106.68 76.2
      vertex 325.12 106.68 63.5
    endloop
  endfacet
  facet normal 0 -1 0
    outer loop
      vertex 330.2 106.68 55.88
      vertex 335.28 106.68 76.2
      vertex 330.2 106.68 63.5
    endloop
  endfacet
  facet normal 0 -1 0
    outer loop
      vertex 330.2 106.68 45.72
      vertex 330.2 106.68 55.88
      vertex 325.12 106.68 45.72
    endloop
  endfacet
  facet normal 0 -1 0
    outer loop
      vertex 330.2 106.68 45.72
      vertex 335.28 106.68 76.2
      vertex 330.2 106.68 55.88
    endloop
  endfacet
  facet normal 0 -1 0
    outer loop
      vertex 330.2 106.68 35.56
      vertex 335.28 106.68 76.2
      vertex 330.2 106.68 45.72
    endloop
  endfacet
  facet normal 0 -1 0
    outer loop
      vertex 330.2 106.68 35.56
      vertex 335.28 106.68 0
      vertex 335.28 106.68 76.2
    endloop
  endfacet
  facet normal 0 -1 0
    outer loop
      vertex 335.28 106.68 0
      vertex 330.2 106.68 35.56
      vertex 320.04 106.68 9.33181e-16
    endloop
  endfacet
  facet normal 0 1 0
    outer loop
      vertex 335.28 121.92 76.2
      vertex 330.2 121.92 63.5
      vertex 320.04 121.92 76.2
    endloop
  endfacet
  facet normal 0 1 0
    outer loop
      vertex 335.28 121.92 76.2
      vertex 330.2 121.92 55.88
      vertex 330.2 121.92 63.5
    endloop
  endfacet
  facet normal 0 1 0
    outer loop
      vertex 330.2 121.92 55.88
      vertex 330.2 121.92 45.72
      vertex 325.12 121.92 55.88
    endloop
  endfacet
  facet normal 0 1 0
    outer loop
      vertex 335.28 121.92 76.2
      vertex 330.2 121.92 45.72
      vertex 330.2 121.92 55.88
    endloop
  endfacet
  facet normal 0 1 0
    outer loop
      vertex 335.28 121.92 76.2
      vertex 330.2 121.92 35.56
      vertex 330.2 121.92 45.72
    endloop
  endfacet
  facet normal 0 1 0
    outer loop
      vertex 330.2 121.92 35.56
      vertex 320.04 121.92 9.33181e-16
      vertex 325.12 121.92 35.56
    endloop
  endfacet
  facet normal 0 1 0
    outer loop
      vertex 330.2 121.92 35.56
      vertex 335.28 121.92 0
      vertex 320.04 121.92 9.33181e-16
    endloop
  endfacet
  facet normal 0 1 -0
    outer loop
      vertex 335.28 121.92 0
      vertex 330.2 121.92 35.56
      vertex 335.28 121.92 76.2
    endloop
  endfacet
  facet normal 0 1 -0
    outer loop
      vertex 325.12 121.92 63.5
      vertex 320.04 121.92 76.2
      vertex 330.2 121.92 63.5
    endloop
  endfacet
  facet normal 0 1 -0
    outer loop
      vertex 325.12 121.92 55.88
      vertex 320.04 121.92 76.2
      vertex 325.12 121.92 63.5
    endloop
  endfacet
  facet normal 0 1 0
    outer loop
      vertex 325.12 121.92 45.72
      vertex 325.12 121.92 55.88
      vertex 330.2 121.92 45.72
    endloop
  endfacet
  facet normal 0 1 -0
    outer loop
      vertex 325.12 121.92 45.72
      vertex 320.04 121.92 76.2
      vertex 325.12 121.92 55.88
    endloop
  endfacet
  facet normal 0 1 -0
    outer loop
      vertex 325.12 121.92 35.56
      vertex 320.04 121.92 76.2
      vertex 325.12 121.92 45.72
    endloop
  endfacet
  facet normal 0 1 0
    outer loop
      vertex 320.04 121.92 76.2
      vertex 325.12 121.92 35.56
      vertex 320.04 121.92 9.33181e-16
    endloop
  endfacet
  facet normal -0 0 1
    outer loop
      vertex 325.12 121.92 35.56
      vertex 330.2 106.68 35.56
      vertex 330.2 121.92 35.56
    endloop
  endfacet
  facet normal 0 0 1
    outer loop
      vertex 330.2 106.68 35.56
      vertex 325.12 121.92 35.56
      vertex 325.12 106.68 35.56
    endloop
  endfacet
  facet normal 1 -0 0
    outer loop
      vertex 325.12 106.68 45.72
      vertex 325.12 121.92 35.56
      vertex 325.12 121.92 45.72
    endloop
  endfacet
  facet normal 1 0 0
    outer loop
      vertex 325.12 121.92 35.56
      vertex 325.12 106.68 45.72
      vertex 325.12 106.68 35.56
    endloop
  endfacet
  facet normal 0 0 -1
    outer loop
      vertex 325.12 106.68 45.72
      vertex 330.2 121.92 45.72
      vertex 330.2 106.68 45.72
    endloop
  endfacet
  facet normal -0 0 -1
    outer loop
      vertex 330.2 121.92 45.72
      vertex 325.12 106.68 45.72
      vertex 325.12 121.92 45.72
    endloop
  endfacet
  facet normal -1 0 0
    outer loop
      vertex 330.2 106.68 35.56
      vertex 330.2 121.92 45.72
      vertex 330.2 121.92 35.56
    endloop
  endfacet
  facet normal -1 -0 0
    outer loop
      vertex 330.2 121.92 45.72
      vertex 330.2 106.68 35.56
      vertex 330.2 106.68 45.72
    endloop
  endfacet
  facet normal -0 0 1
    outer loop
      vertex 320.04 116.84 19.05
      vertex 335.28 111.76 19.05
      vertex 335.28 116.84 19.05
    endloop
  endfacet
  facet normal 0 0 1
    outer loop
      vertex 335.28 111.76 19.05
      vertex 320.04 116.84 19.05
      vertex 320.04 111.76 19.05
    endloop
  endfacet
  facet normal 0 0 -1
    outer loop
      vertex 320.04 111.76 30.48
      vertex 335.28 116.84 30.48
      vertex 335.28 111.76 30.48
    endloop
  endfacet
  facet normal -0 0 -1
    outer loop
      vertex 335.28 116.84 30.48
      vertex 320.04 111.76 30.48
      vertex 320.04 116.84 30.48
    endloop
  endfacet
  facet normal 0 -1 0
    outer loop
      vertex 320.04 116.84 19.05
      vertex 335.28 116.84 30.48
      vertex 320.04 116.84 30.48
    endloop
  endfacet
  facet normal 0 -1 -0
    outer loop
      vertex 335.28 116.84 30.48
      vertex 320.04 116.84 19.05
      vertex 335.28 116.84 19.05
    endloop
  endfacet
  facet normal 0 1 -0
    outer loop
      vertex 335.28 111.76 19.05
      vertex 320.04 111.76 30.48
      vertex 335.28 111.76 30.48
    endloop
  endfacet
  facet normal 0 1 0
    outer loop
      vertex 320.04 111.76 30.48
      vertex 335.28 111.76 19.05
      vertex 320.04 111.76 19.05
    endloop
  endfacet
  facet normal -0 0 1
    outer loop
      vertex 325.12 121.92 55.88
      vertex 330.2 106.68 55.88
      vertex 330.2 121.92 55.88
    endloop
  endfacet
  facet normal 0 0 1
    outer loop
      vertex 330.2 106.68 55.88
      vertex 325.12 121.92 55.88
      vertex 325.12 106.68 55.88
    endloop
  endfacet
  facet normal 1 -0 0
    outer loop
      vertex 325.12 106.68 63.5
      vertex 325.12 121.92 55.88
      vertex 325.12 121.92 63.5
    endloop
  endfacet
  facet normal 1 0 0
    outer loop
      vertex 325.12 121.92 55.88
      vertex 325.12 106.68 63.5
      vertex 325.12 106.68 55.88
    endloop
  endfacet
  facet normal 0 0 -1
    outer loop
      vertex 325.12 106.68 63.5
      vertex 330.2 121.92 63.5
      vertex 330.2 106.68 63.5
    endloop
  endfacet
  facet normal -0 0 -1
    outer loop
      vertex 330.2 121.92 63.5
      vertex 325.12 106.68 63.5
      vertex 325.12 121.92 63.5
    endloop
  endfacet
  facet normal -1 0 0
    outer loop
      vertex 330.2 106.68 55.88
      vertex 330.2 121.92 63.5
      vertex 330.2 121.92 55.88
    endloop
  endfacet
  facet normal -1 -0 0
    outer loop
      vertex 330.2 121.92 63.5
      vertex 330.2 106.68 55.88
      vertex 330.2 106.68 63.5
    endloop
  endfacet
  facet normal -0 0 1
    outer loop
      vertex 320.04 116.84 64.77
      vertex 335.28 111.76 64.77
      vertex 335.28 116.84 64.77
    endloop
  endfacet
  facet normal 0 0 1
    outer loop
      vertex 335.28 111.76 64.77
      vertex 320.04 116.84 64.77
      vertex 320.04 111.76 64.77
    endloop
  endfacet
  facet normal 0 1 -0
    outer loop
      vertex 335.28 111.76 64.77
      vertex 320.04 111.76 76.2
      vertex 335.28 111.76 76.2
    endloop
  endfacet
  facet normal 0 1 0
    outer loop
      vertex 320.04 111.76 76.2
      vertex 335.28 111.76 64.77
      vertex 320.04 111.76 64.77
    endloop
  endfacet
  facet normal 0 -1 0
    outer loop
      vertex 320.04 116.84 64.77
      vertex 335.28 116.84 76.2
      vertex 320.04 116.84 76.2
    endloop
  endfacet
  facet normal 0 -1 -0
    outer loop
      vertex 335.28 116.84 76.2
      vertex 320.04 116.84 64.77
      vertex 335.28 116.84 64.77
    endloop
  endfacet
endsolid OpenSCAD_Model
